<?xml version="1.0" encoding="UTF-8" standalone="no"?>
<!DOCTYPE svg PUBLIC "-//W3C//DTD SVG 1.1//EN" "http://www.w3.org/Graphics/SVG/1.1/DTD/svg11.dtd">
<svg width="100%" height="100%" viewBox="0 0 155 255" version="1.1" xmlns="http://www.w3.org/2000/svg" xmlns:xlink="http://www.w3.org/1999/xlink" xml:space="preserve" xmlns:serif="http://www.serif.com/" style="fill-rule:evenodd;clip-rule:evenodd;stroke-linecap:round;stroke-linejoin:round;stroke-miterlimit:1.5;">
    <g id="画板1" transform="matrix(0.33331,0,0,1,-321.636,-1537.01)">
        <rect x="964.977" y="1537.01" width="464.206" height="254.547" style="fill:none;"/>
        <g transform="matrix(0.999091,0,0,1,4.02633,0.0143326)">
            <g transform="matrix(3.00294,-0,-0,1,961.825,1537)">
                <path d="M25.021,133.29L9.646,125.602L25.021,117.915L17.333,125.602L25.021,133.29Z"/>
                <path d="M145.079,125.602L17.333,125.602" style="fill:none;stroke:black;stroke-width:4.17px;"/>
            </g>
            <g transform="matrix(0.5,0,0,1,495.395,0)">
                <g transform="matrix(6.00588,-0,-0,1,932.86,1537)">
                    <path d="M24.421,97.397L9.646,88.611L25.539,82.062L17.313,89.17L24.421,97.397Z"/>
                    <path d="M77.362,125.602C63.579,125.602 54.022,112.792 43.504,102.04C34.16,92.487 25.853,90.079 17.313,89.17" style="fill:none;stroke:black;stroke-width:4.17px;"/>
                </g>
            </g>
            <g transform="matrix(0.5,0,0,1,495.395,0)">
                <g transform="matrix(6.00588,-0,-0,1,932.86,1537)">
                    <path d="M22.546,61.537L9.646,50.176L26.475,46.673L17.078,52.141L22.546,61.537Z"/>
                    <path d="M77.362,125.602C63.579,125.602 56.253,103.188 43.504,81.608C34.635,66.597 25.904,56.261 17.078,52.141" style="fill:none;stroke:black;stroke-width:4.17px;"/>
                </g>
            </g>
            <g transform="matrix(0.5,0,0,-1,495.395,3325.2)">
                <g transform="matrix(6.00588,0,0,-1,932.86,1788.2)">
                    <path d="M25.539,169.142L9.646,162.593L24.421,153.808L17.313,162.034L25.539,169.142Z"/>
                    <path d="M77.362,125.602C63.579,125.602 54.022,138.412 43.504,149.165C34.16,158.717 25.853,161.125 17.313,162.034" style="fill:none;stroke:black;stroke-width:4.17px;"/>
                </g>
            </g>
            <g transform="matrix(0.5,0,0,-1,495.395,3325.2)">
                <g transform="matrix(6.00588,0,0,-1,932.86,1788.2)">
                    <path d="M26.475,204.532L9.646,201.028L22.546,189.667L17.078,199.064L26.475,204.532Z"/>
                    <path d="M77.362,125.602C63.579,125.602 56.253,148.017 43.504,169.596C34.635,184.608 25.904,194.944 17.078,199.064" style="fill:none;stroke:black;stroke-width:4.17px;"/>
                </g>
            </g>
        </g>
    </g>
</svg>
