<?xml version="1.0" encoding="UTF-8" standalone="no"?>
<!DOCTYPE svg PUBLIC "-//W3C//DTD SVG 1.1//EN" "http://www.w3.org/Graphics/SVG/1.1/DTD/svg11.dtd">
<svg width="100%" height="100%" viewBox="0 0 465 255" version="1.1" xmlns="http://www.w3.org/2000/svg" xmlns:xlink="http://www.w3.org/1999/xlink" xml:space="preserve" xmlns:serif="http://www.serif.com/" style="fill-rule:evenodd;clip-rule:evenodd;stroke-linecap:round;stroke-linejoin:round;stroke-miterlimit:1.5;">
    <g id="画板1" transform="matrix(1,0,0,1,-964.977,-1537.01)">
        <rect x="964.977" y="1537.01" width="464.206" height="254.547" style="fill:none;"/>
        <g transform="matrix(1,0,0,1,0.97683,0.0143326)">
            <g transform="matrix(1,-0,-0,1,964,1537)">
                <path d="M42.166,133.29L26.791,125.602L42.166,117.915L34.478,125.602L42.166,133.29Z"/>
                <path d="M433.488,125.602L34.478,125.602" style="fill:none;stroke:black;stroke-width:4.17px;"/>
            </g>
            <g transform="matrix(0.5,0,0,1,495.395,0)">
                <g transform="matrix(2,-0,-0,1,937.209,1537)">
                    <path d="M42.011,96.601L26.791,88.611L42.314,81.229L34.477,88.763L42.011,96.601Z"/>
                    <path d="M230.139,125.602C188.75,125.602 160.049,112.792 128.465,102.04C94.852,90.597 65.706,89.406 34.477,88.763" style="fill:none;stroke:black;stroke-width:4.17px;"/>
                </g>
            </g>
            <g transform="matrix(0.5,0,0,1,495.395,0)">
                <g transform="matrix(2,-0,-0,1,937.209,1537)">
                    <path d="M41.818,58.522L26.791,50.176L42.484,43.162L34.471,50.509L41.818,58.522Z"/>
                    <path d="M230.139,125.602C188.75,125.602 166.751,103.188 128.465,81.608C96.94,63.839 65.996,52.621 34.471,50.509" style="fill:none;stroke:black;stroke-width:4.17px;"/>
                </g>
            </g>
            <g transform="matrix(0.5,0,0,-1,495.395,3325.2)">
                <g transform="matrix(2,0,0,-1,937.209,1788.2)">
                    <path d="M42.314,169.976L26.791,162.593L42.011,154.604L34.477,162.442L42.314,169.976Z"/>
                    <path d="M230.139,125.602C188.75,125.602 160.049,138.412 128.465,149.165C94.852,160.608 65.706,161.798 34.477,162.442" style="fill:none;stroke:black;stroke-width:4.17px;"/>
                </g>
            </g>
            <g transform="matrix(0.5,0,0,-1,495.395,3325.2)">
                <g transform="matrix(2,0,0,-1,937.209,1788.2)">
                    <path d="M42.484,208.043L26.791,201.028L41.818,192.682L34.471,200.696L42.484,208.043Z"/>
                    <path d="M230.139,125.602C188.75,125.602 166.751,148.017 128.465,169.596C96.94,187.365 65.996,198.583 34.471,200.696" style="fill:none;stroke:black;stroke-width:4.17px;"/>
                </g>
            </g>
        </g>
    </g>
</svg>
