<?xml version='1.0' encoding='iso-8859-1'?>
<svg xmlns="http://www.w3.org/2000/svg" version="1.1" baseProfile="full" xml:space="preserve" width="157" height="112" viewBox="25 273 157 112">

<rect style="opacity:1.0;fill:#FFFFFF;stroke:none" width="512.0" height="512.0" x="0.0" y="0.0"> </rect>
<path class="bond-1 atom-1 atom-2" d="M 174.4,334.5 L 168.5,344.7" style="fill:none;fill-rule:evenodd;stroke:#0000FF;stroke-width:2.0px;stroke-linecap:butt;stroke-linejoin:miter;stroke-opacity:1" />
<path class="bond-1 atom-1 atom-2" d="M 168.5,344.7 L 162.6,354.9" style="fill:none;fill-rule:evenodd;stroke:#000000;stroke-width:2.0px;stroke-linecap:butt;stroke-linejoin:miter;stroke-opacity:1" />
<path class="bond-2 atom-2 atom-3" d="M 160.0,354.9 L 166.2,365.6" style="fill:none;fill-rule:evenodd;stroke:#000000;stroke-width:2.0px;stroke-linecap:butt;stroke-linejoin:miter;stroke-opacity:1" />
<path class="bond-2 atom-2 atom-3" d="M 166.2,365.6 L 172.4,376.3" style="fill:none;fill-rule:evenodd;stroke:#FF0000;stroke-width:2.0px;stroke-linecap:butt;stroke-linejoin:miter;stroke-opacity:1" />
<path class="bond-2 atom-2 atom-3" d="M 163.9,352.7 L 170.0,363.4" style="fill:none;fill-rule:evenodd;stroke:#000000;stroke-width:2.0px;stroke-linecap:butt;stroke-linejoin:miter;stroke-opacity:1" />
<path class="bond-2 atom-2 atom-3" d="M 170.0,363.4 L 176.2,374.1" style="fill:none;fill-rule:evenodd;stroke:#FF0000;stroke-width:2.0px;stroke-linecap:butt;stroke-linejoin:miter;stroke-opacity:1" />
<path class="bond-3 atom-2 atom-4" d="M 162.6,354.9 L 133.0,354.9" style="fill:none;fill-rule:evenodd;stroke:#000000;stroke-width:2.0px;stroke-linecap:butt;stroke-linejoin:miter;stroke-opacity:1" />
<path class="bond-4 atom-4 atom-5" d="M 133.0,354.9 L 118.2,380.5" style="fill:none;fill-rule:evenodd;stroke:#000000;stroke-width:2.0px;stroke-linecap:butt;stroke-linejoin:miter;stroke-opacity:1" />
<path class="bond-4 atom-4 atom-5" d="M 127.9,354.9 L 115.7,376.1" style="fill:none;fill-rule:evenodd;stroke:#000000;stroke-width:2.0px;stroke-linecap:butt;stroke-linejoin:miter;stroke-opacity:1" />
<path class="bond-6 atom-5 atom-7" d="M 118.2,380.5 L 88.7,380.5" style="fill:none;fill-rule:evenodd;stroke:#000000;stroke-width:2.0px;stroke-linecap:butt;stroke-linejoin:miter;stroke-opacity:1" />
<path class="bond-8 atom-7 atom-9" d="M 88.7,380.5 L 73.9,354.9" style="fill:none;fill-rule:evenodd;stroke:#000000;stroke-width:2.0px;stroke-linecap:butt;stroke-linejoin:miter;stroke-opacity:1" />
<path class="bond-8 atom-7 atom-9" d="M 91.2,376.1 L 79.0,354.9" style="fill:none;fill-rule:evenodd;stroke:#000000;stroke-width:2.0px;stroke-linecap:butt;stroke-linejoin:miter;stroke-opacity:1" />
<path class="bond-9 atom-9 atom-10" d="M 73.9,354.9 L 44.3,354.9" style="fill:none;fill-rule:evenodd;stroke:#000000;stroke-width:2.0px;stroke-linecap:butt;stroke-linejoin:miter;stroke-opacity:1" />
<path class="bond-10 atom-10 atom-11" d="M 43.1,352.7 L 36.9,363.4" style="fill:none;fill-rule:evenodd;stroke:#000000;stroke-width:2.0px;stroke-linecap:butt;stroke-linejoin:miter;stroke-opacity:1" />
<path class="bond-10 atom-10 atom-11" d="M 36.9,363.4 L 30.7,374.1" style="fill:none;fill-rule:evenodd;stroke:#FF0000;stroke-width:2.0px;stroke-linecap:butt;stroke-linejoin:miter;stroke-opacity:1" />
<path class="bond-10 atom-10 atom-11" d="M 46.9,354.9 L 40.7,365.6" style="fill:none;fill-rule:evenodd;stroke:#000000;stroke-width:2.0px;stroke-linecap:butt;stroke-linejoin:miter;stroke-opacity:1" />
<path class="bond-10 atom-10 atom-11" d="M 40.7,365.6 L 34.5,376.3" style="fill:none;fill-rule:evenodd;stroke:#FF0000;stroke-width:2.0px;stroke-linecap:butt;stroke-linejoin:miter;stroke-opacity:1" />
<path class="bond-11 atom-10 atom-12" d="M 44.3,354.9 L 38.5,344.7" style="fill:none;fill-rule:evenodd;stroke:#000000;stroke-width:2.0px;stroke-linecap:butt;stroke-linejoin:miter;stroke-opacity:1" />
<path class="bond-11 atom-10 atom-12" d="M 38.5,344.7 L 32.6,334.5" style="fill:none;fill-rule:evenodd;stroke:#0000FF;stroke-width:2.0px;stroke-linecap:butt;stroke-linejoin:miter;stroke-opacity:1" />
<path class="bond-13 atom-12 atom-14" d="M 32.6,324.1 L 38.5,313.9" style="fill:none;fill-rule:evenodd;stroke:#0000FF;stroke-width:2.0px;stroke-linecap:butt;stroke-linejoin:miter;stroke-opacity:1" />
<path class="bond-13 atom-12 atom-14" d="M 38.5,313.9 L 44.3,303.7" style="fill:none;fill-rule:evenodd;stroke:#000000;stroke-width:2.0px;stroke-linecap:butt;stroke-linejoin:miter;stroke-opacity:1" />
<path class="bond-14 atom-14 atom-15" d="M 46.9,303.7 L 40.8,293.1" style="fill:none;fill-rule:evenodd;stroke:#000000;stroke-width:2.0px;stroke-linecap:butt;stroke-linejoin:miter;stroke-opacity:1" />
<path class="bond-14 atom-14 atom-15" d="M 40.8,293.1 L 34.6,282.4" style="fill:none;fill-rule:evenodd;stroke:#FF0000;stroke-width:2.0px;stroke-linecap:butt;stroke-linejoin:miter;stroke-opacity:1" />
<path class="bond-14 atom-14 atom-15" d="M 43.1,305.9 L 36.9,295.3" style="fill:none;fill-rule:evenodd;stroke:#000000;stroke-width:2.0px;stroke-linecap:butt;stroke-linejoin:miter;stroke-opacity:1" />
<path class="bond-14 atom-14 atom-15" d="M 36.9,295.3 L 30.8,284.6" style="fill:none;fill-rule:evenodd;stroke:#FF0000;stroke-width:2.0px;stroke-linecap:butt;stroke-linejoin:miter;stroke-opacity:1" />
<path class="bond-15 atom-14 atom-16" d="M 44.3,303.7 L 73.9,303.7" style="fill:none;fill-rule:evenodd;stroke:#000000;stroke-width:2.0px;stroke-linecap:butt;stroke-linejoin:miter;stroke-opacity:1" />
<path class="bond-16 atom-16 atom-17" d="M 73.9,303.7 L 88.7,278.1" style="fill:none;fill-rule:evenodd;stroke:#000000;stroke-width:2.0px;stroke-linecap:butt;stroke-linejoin:miter;stroke-opacity:1" />
<path class="bond-16 atom-16 atom-17" d="M 79.0,303.7 L 91.2,282.6" style="fill:none;fill-rule:evenodd;stroke:#000000;stroke-width:2.0px;stroke-linecap:butt;stroke-linejoin:miter;stroke-opacity:1" />
<path class="bond-18 atom-17 atom-19" d="M 88.7,278.1 L 118.2,278.1" style="fill:none;fill-rule:evenodd;stroke:#000000;stroke-width:2.0px;stroke-linecap:butt;stroke-linejoin:miter;stroke-opacity:1" />
<path class="bond-20 atom-19 atom-21" d="M 118.2,278.1 L 133.0,303.7" style="fill:none;fill-rule:evenodd;stroke:#000000;stroke-width:2.0px;stroke-linecap:butt;stroke-linejoin:miter;stroke-opacity:1" />
<path class="bond-20 atom-19 atom-21" d="M 115.7,282.6 L 127.9,303.7" style="fill:none;fill-rule:evenodd;stroke:#000000;stroke-width:2.0px;stroke-linecap:butt;stroke-linejoin:miter;stroke-opacity:1" />
<path class="bond-21 atom-21 atom-22" d="M 133.0,303.7 L 162.6,303.7" style="fill:none;fill-rule:evenodd;stroke:#000000;stroke-width:2.0px;stroke-linecap:butt;stroke-linejoin:miter;stroke-opacity:1" />
<path class="bond-22 atom-22 atom-23" d="M 163.9,305.9 L 170.0,295.3" style="fill:none;fill-rule:evenodd;stroke:#000000;stroke-width:2.0px;stroke-linecap:butt;stroke-linejoin:miter;stroke-opacity:1" />
<path class="bond-22 atom-22 atom-23" d="M 170.0,295.3 L 176.2,284.6" style="fill:none;fill-rule:evenodd;stroke:#FF0000;stroke-width:2.0px;stroke-linecap:butt;stroke-linejoin:miter;stroke-opacity:1" />
<path class="bond-22 atom-22 atom-23" d="M 160.0,303.7 L 166.2,293.1" style="fill:none;fill-rule:evenodd;stroke:#000000;stroke-width:2.0px;stroke-linecap:butt;stroke-linejoin:miter;stroke-opacity:1" />
<path class="bond-22 atom-22 atom-23" d="M 166.2,293.1 L 172.3,282.4" style="fill:none;fill-rule:evenodd;stroke:#FF0000;stroke-width:2.0px;stroke-linecap:butt;stroke-linejoin:miter;stroke-opacity:1" />
<path class="bond-23 atom-21 atom-24" d="M 133.0,303.7 L 118.2,329.3" style="fill:none;fill-rule:evenodd;stroke:#000000;stroke-width:2.0px;stroke-linecap:butt;stroke-linejoin:miter;stroke-opacity:1" />
<path class="bond-24 atom-24 atom-25" d="M 118.2,329.3 L 88.7,329.3" style="fill:none;fill-rule:evenodd;stroke:#000000;stroke-width:2.0px;stroke-linecap:butt;stroke-linejoin:miter;stroke-opacity:1" />
<path class="bond-24 atom-24 atom-25" d="M 115.7,333.8 L 91.2,333.8" style="fill:none;fill-rule:evenodd;stroke:#000000;stroke-width:2.0px;stroke-linecap:butt;stroke-linejoin:miter;stroke-opacity:1" />
<path class="bond-25 atom-22 atom-1" d="M 162.6,303.7 L 168.5,313.9" style="fill:none;fill-rule:evenodd;stroke:#000000;stroke-width:2.0px;stroke-linecap:butt;stroke-linejoin:miter;stroke-opacity:1" />
<path class="bond-25 atom-22 atom-1" d="M 168.5,313.9 L 174.4,324.1" style="fill:none;fill-rule:evenodd;stroke:#0000FF;stroke-width:2.0px;stroke-linecap:butt;stroke-linejoin:miter;stroke-opacity:1" />
<path class="bond-26 atom-24 atom-4" d="M 118.2,329.3 L 133.0,354.9" style="fill:none;fill-rule:evenodd;stroke:#000000;stroke-width:2.0px;stroke-linecap:butt;stroke-linejoin:miter;stroke-opacity:1" />
<path class="bond-27 atom-25 atom-9" d="M 88.7,329.3 L 73.9,354.9" style="fill:none;fill-rule:evenodd;stroke:#000000;stroke-width:2.0px;stroke-linecap:butt;stroke-linejoin:miter;stroke-opacity:1" />
<path class="bond-28 atom-25 atom-16" d="M 88.7,329.3 L 73.9,303.7" style="fill:none;fill-rule:evenodd;stroke:#000000;stroke-width:2.0px;stroke-linecap:butt;stroke-linejoin:miter;stroke-opacity:1" />
<path d="M 162.9,354.4 L 162.6,354.9 L 161.1,354.9" style="fill:none;stroke:#000000;stroke-width:2.0px;stroke-linecap:butt;stroke-linejoin:miter;stroke-opacity:1;" />
<path d="M 45.8,354.9 L 44.3,354.9 L 44.0,354.4" style="fill:none;stroke:#000000;stroke-width:2.0px;stroke-linecap:butt;stroke-linejoin:miter;stroke-opacity:1;" />
<path d="M 44.0,304.2 L 44.3,303.7 L 45.8,303.7" style="fill:none;stroke:#000000;stroke-width:2.0px;stroke-linecap:butt;stroke-linejoin:miter;stroke-opacity:1;" />
<path d="M 161.1,303.7 L 162.6,303.7 L 162.9,304.2" style="fill:none;stroke:#000000;stroke-width:2.0px;stroke-linecap:butt;stroke-linejoin:miter;stroke-opacity:1;" />
<path class="atom-1" d="M 174.0 333.5 L 174.0 325.1 L 175.7 325.1 L 179.1 330.7 L 179.1 325.1 L 180.7 325.1 L 180.7 333.5 L 179.0 333.5 L 175.6 328.0 L 175.6 333.5 L 174.0 333.5 " fill="#0000FF" />
<path class="atom-3" d="M 173.3 380.6 Q 173.3 379.3, 173.6 378.5 Q 173.9 377.8, 174.4 377.3 Q 174.9 376.8, 175.5 376.5 Q 176.3 376.2, 177.4 376.2 Q 179.2 376.2, 180.3 377.4 Q 181.5 378.5, 181.5 380.6 Q 181.5 382.6, 180.4 383.8 Q 179.2 385.0, 177.4 385.0 Q 175.5 385.0, 174.4 383.8 Q 173.3 382.7, 173.3 380.6 M 175.0 380.6 Q 175.0 382.0, 175.7 382.8 Q 176.3 383.5, 177.4 383.5 Q 178.4 383.5, 179.0 382.8 Q 179.7 382.0, 179.7 380.6 Q 179.7 379.1, 179.1 378.4 Q 178.4 377.7, 177.4 377.7 Q 176.3 377.7, 175.7 378.4 Q 175.0 379.1, 175.0 380.6 " fill="#FF0000" />
<path class="atom-11" d="M 25.5 380.6 Q 25.5 379.3, 25.8 378.5 Q 26.1 377.8, 26.6 377.3 Q 27.1 376.8, 27.7 376.5 Q 28.5 376.2, 29.5 376.2 Q 31.4 376.2, 32.5 377.4 Q 33.7 378.5, 33.7 380.6 Q 33.7 382.6, 32.6 383.8 Q 31.4 385.0, 29.6 385.0 Q 27.7 385.0, 26.6 383.8 Q 25.5 382.7, 25.5 380.6 M 27.2 380.6 Q 27.2 382.0, 27.9 382.8 Q 28.5 383.5, 29.6 383.5 Q 30.6 383.5, 31.2 382.8 Q 31.9 382.0, 31.9 380.6 Q 31.9 379.1, 31.3 378.4 Q 30.6 377.7, 29.6 377.7 Q 28.5 377.7, 27.9 378.4 Q 27.2 379.1, 27.2 380.6 " fill="#FF0000" />
<path class="atom-12" d="M 26.2 333.5 L 26.2 325.1 L 27.9 325.1 L 31.3 330.7 L 31.3 325.1 L 32.9 325.1 L 32.9 333.5 L 31.2 333.5 L 27.8 328.0 L 27.8 333.5 L 26.2 333.5 " fill="#0000FF" />
<path class="atom-15" d="M 25.5 278.2 Q 25.5 276.9, 25.8 276.1 Q 26.1 275.4, 26.6 274.9 Q 27.1 274.4, 27.7 274.1 Q 28.5 273.8, 29.5 273.8 Q 31.4 273.8, 32.5 275.0 Q 33.7 276.1, 33.7 278.2 Q 33.7 280.2, 32.6 281.4 Q 31.4 282.6, 29.6 282.6 Q 27.7 282.6, 26.6 281.4 Q 25.5 280.3, 25.5 278.2 M 27.2 278.2 Q 27.2 279.6, 27.9 280.4 Q 28.5 281.1, 29.6 281.1 Q 30.6 281.1, 31.2 280.4 Q 31.9 279.6, 31.9 278.2 Q 31.9 276.7, 31.3 276.0 Q 30.6 275.3, 29.6 275.3 Q 28.5 275.3, 27.9 276.0 Q 27.2 276.7, 27.2 278.2 " fill="#FF0000" />
<path class="atom-23" d="M 173.3 278.2 Q 173.3 276.9, 173.6 276.1 Q 173.9 275.4, 174.4 274.9 Q 174.9 274.4, 175.5 274.1 Q 176.3 273.8, 177.4 273.8 Q 179.2 273.8, 180.3 275.0 Q 181.5 276.1, 181.5 278.2 Q 181.5 280.2, 180.4 281.4 Q 179.2 282.6, 177.4 282.6 Q 175.5 282.6, 174.4 281.4 Q 173.3 280.3, 173.3 278.2 M 175.0 278.2 Q 175.0 279.6, 175.7 280.4 Q 176.3 281.1, 177.4 281.1 Q 178.4 281.1, 179.0 280.4 Q 179.7 279.6, 179.7 278.2 Q 179.7 276.7, 179.1 276.0 Q 178.4 275.3, 177.4 275.3 Q 176.3 275.3, 175.7 276.0 Q 175.0 276.7, 175.0 278.2 " fill="#FF0000" />
</svg>