<?xml version='1.0' encoding='iso-8859-1'?>
<svg xmlns="http://www.w3.org/2000/svg" version="1.1" baseProfile="full" xml:space="preserve" width="378" height="270" viewBox="67 121 378 270">

<rect style="opacity:1.0;fill:#FFFFFF;stroke:none" width="512.0" height="512.0" x="0.0" y="0.0"> </rect>
<path class="bond-1 atom-1 atom-2" d="M 426.4,268.9 L 412.4,293.2" style="fill:none;fill-rule:evenodd;stroke:#0000FF;stroke-width:2.0px;stroke-linecap:butt;stroke-linejoin:miter;stroke-opacity:1" />
<path class="bond-1 atom-1 atom-2" d="M 412.4,293.2 L 398.4,317.5" style="fill:none;fill-rule:evenodd;stroke:#000000;stroke-width:2.0px;stroke-linecap:butt;stroke-linejoin:miter;stroke-opacity:1" />
<path class="bond-2 atom-2 atom-3" d="M 392.2,317.5 L 406.9,343.0" style="fill:none;fill-rule:evenodd;stroke:#000000;stroke-width:2.0px;stroke-linecap:butt;stroke-linejoin:miter;stroke-opacity:1" />
<path class="bond-2 atom-2 atom-3" d="M 406.9,343.0 L 421.7,368.5" style="fill:none;fill-rule:evenodd;stroke:#FF0000;stroke-width:2.0px;stroke-linecap:butt;stroke-linejoin:miter;stroke-opacity:1" />
<path class="bond-2 atom-2 atom-3" d="M 401.4,312.1 L 416.2,337.7" style="fill:none;fill-rule:evenodd;stroke:#000000;stroke-width:2.0px;stroke-linecap:butt;stroke-linejoin:miter;stroke-opacity:1" />
<path class="bond-2 atom-2 atom-3" d="M 416.2,337.7 L 430.9,363.2" style="fill:none;fill-rule:evenodd;stroke:#FF0000;stroke-width:2.0px;stroke-linecap:butt;stroke-linejoin:miter;stroke-opacity:1" />
<path class="bond-3 atom-2 atom-4" d="M 398.4,317.5 L 327.2,317.5" style="fill:none;fill-rule:evenodd;stroke:#000000;stroke-width:2.0px;stroke-linecap:butt;stroke-linejoin:miter;stroke-opacity:1" />
<path class="bond-4 atom-4 atom-5" d="M 327.2,317.5 L 291.6,379.1" style="fill:none;fill-rule:evenodd;stroke:#000000;stroke-width:2.0px;stroke-linecap:butt;stroke-linejoin:miter;stroke-opacity:1" />
<path class="bond-4 atom-4 atom-5" d="M 314.8,317.5 L 285.4,368.4" style="fill:none;fill-rule:evenodd;stroke:#000000;stroke-width:2.0px;stroke-linecap:butt;stroke-linejoin:miter;stroke-opacity:1" />
<path class="bond-6 atom-5 atom-7" d="M 291.6,379.1 L 220.4,379.1" style="fill:none;fill-rule:evenodd;stroke:#000000;stroke-width:2.0px;stroke-linecap:butt;stroke-linejoin:miter;stroke-opacity:1" />
<path class="bond-8 atom-7 atom-9" d="M 220.4,379.1 L 184.8,317.5" style="fill:none;fill-rule:evenodd;stroke:#000000;stroke-width:2.0px;stroke-linecap:butt;stroke-linejoin:miter;stroke-opacity:1" />
<path class="bond-8 atom-7 atom-9" d="M 226.5,368.4 L 197.1,317.5" style="fill:none;fill-rule:evenodd;stroke:#000000;stroke-width:2.0px;stroke-linecap:butt;stroke-linejoin:miter;stroke-opacity:1" />
<path class="bond-9 atom-9 atom-10" d="M 184.8,317.5 L 113.6,317.5" style="fill:none;fill-rule:evenodd;stroke:#000000;stroke-width:2.0px;stroke-linecap:butt;stroke-linejoin:miter;stroke-opacity:1" />
<path class="bond-10 atom-10 atom-11" d="M 110.5,312.1 L 95.8,337.7" style="fill:none;fill-rule:evenodd;stroke:#000000;stroke-width:2.0px;stroke-linecap:butt;stroke-linejoin:miter;stroke-opacity:1" />
<path class="bond-10 atom-10 atom-11" d="M 95.8,337.7 L 81.0,363.2" style="fill:none;fill-rule:evenodd;stroke:#FF0000;stroke-width:2.0px;stroke-linecap:butt;stroke-linejoin:miter;stroke-opacity:1" />
<path class="bond-10 atom-10 atom-11" d="M 119.8,317.5 L 105.0,343.0" style="fill:none;fill-rule:evenodd;stroke:#000000;stroke-width:2.0px;stroke-linecap:butt;stroke-linejoin:miter;stroke-opacity:1" />
<path class="bond-10 atom-10 atom-11" d="M 105.0,343.0 L 90.3,368.5" style="fill:none;fill-rule:evenodd;stroke:#FF0000;stroke-width:2.0px;stroke-linecap:butt;stroke-linejoin:miter;stroke-opacity:1" />
<path class="bond-11 atom-10 atom-12" d="M 113.6,317.5 L 99.6,293.2" style="fill:none;fill-rule:evenodd;stroke:#000000;stroke-width:2.0px;stroke-linecap:butt;stroke-linejoin:miter;stroke-opacity:1" />
<path class="bond-11 atom-10 atom-12" d="M 99.6,293.2 L 85.6,268.9" style="fill:none;fill-rule:evenodd;stroke:#0000FF;stroke-width:2.0px;stroke-linecap:butt;stroke-linejoin:miter;stroke-opacity:1" />
<path class="bond-13 atom-12 atom-14" d="M 85.6,242.7 L 99.6,218.4" style="fill:none;fill-rule:evenodd;stroke:#0000FF;stroke-width:2.0px;stroke-linecap:butt;stroke-linejoin:miter;stroke-opacity:1" />
<path class="bond-13 atom-12 atom-14" d="M 99.6,218.4 L 113.6,194.2" style="fill:none;fill-rule:evenodd;stroke:#000000;stroke-width:2.0px;stroke-linecap:butt;stroke-linejoin:miter;stroke-opacity:1" />
<path class="bond-14 atom-14 atom-15" d="M 119.8,194.2 L 105.1,168.8" style="fill:none;fill-rule:evenodd;stroke:#000000;stroke-width:2.0px;stroke-linecap:butt;stroke-linejoin:miter;stroke-opacity:1" />
<path class="bond-14 atom-14 atom-15" d="M 105.1,168.8 L 90.5,143.5" style="fill:none;fill-rule:evenodd;stroke:#FF0000;stroke-width:2.0px;stroke-linecap:butt;stroke-linejoin:miter;stroke-opacity:1" />
<path class="bond-14 atom-14 atom-15" d="M 110.5,199.5 L 95.9,174.2" style="fill:none;fill-rule:evenodd;stroke:#000000;stroke-width:2.0px;stroke-linecap:butt;stroke-linejoin:miter;stroke-opacity:1" />
<path class="bond-14 atom-14 atom-15" d="M 95.9,174.2 L 81.2,148.8" style="fill:none;fill-rule:evenodd;stroke:#FF0000;stroke-width:2.0px;stroke-linecap:butt;stroke-linejoin:miter;stroke-opacity:1" />
<path class="bond-15 atom-14 atom-16" d="M 113.6,194.2 L 184.8,194.2" style="fill:none;fill-rule:evenodd;stroke:#000000;stroke-width:2.0px;stroke-linecap:butt;stroke-linejoin:miter;stroke-opacity:1" />
<path class="bond-16 atom-16 atom-17" d="M 184.8,194.2 L 220.4,132.5" style="fill:none;fill-rule:evenodd;stroke:#000000;stroke-width:2.0px;stroke-linecap:butt;stroke-linejoin:miter;stroke-opacity:1" />
<path class="bond-16 atom-16 atom-17" d="M 197.1,194.2 L 226.5,143.2" style="fill:none;fill-rule:evenodd;stroke:#000000;stroke-width:2.0px;stroke-linecap:butt;stroke-linejoin:miter;stroke-opacity:1" />
<path class="bond-18 atom-17 atom-19" d="M 220.4,132.5 L 291.6,132.5" style="fill:none;fill-rule:evenodd;stroke:#000000;stroke-width:2.0px;stroke-linecap:butt;stroke-linejoin:miter;stroke-opacity:1" />
<path class="bond-20 atom-19 atom-21" d="M 291.6,132.5 L 327.2,194.2" style="fill:none;fill-rule:evenodd;stroke:#000000;stroke-width:2.0px;stroke-linecap:butt;stroke-linejoin:miter;stroke-opacity:1" />
<path class="bond-20 atom-19 atom-21" d="M 285.4,143.2 L 314.8,194.2" style="fill:none;fill-rule:evenodd;stroke:#000000;stroke-width:2.0px;stroke-linecap:butt;stroke-linejoin:miter;stroke-opacity:1" />
<path class="bond-21 atom-21 atom-22" d="M 327.2,194.2 L 398.4,194.2" style="fill:none;fill-rule:evenodd;stroke:#000000;stroke-width:2.0px;stroke-linecap:butt;stroke-linejoin:miter;stroke-opacity:1" />
<path class="bond-22 atom-22 atom-23" d="M 401.4,199.5 L 416.1,174.2" style="fill:none;fill-rule:evenodd;stroke:#000000;stroke-width:2.0px;stroke-linecap:butt;stroke-linejoin:miter;stroke-opacity:1" />
<path class="bond-22 atom-22 atom-23" d="M 416.1,174.2 L 430.7,148.8" style="fill:none;fill-rule:evenodd;stroke:#FF0000;stroke-width:2.0px;stroke-linecap:butt;stroke-linejoin:miter;stroke-opacity:1" />
<path class="bond-22 atom-22 atom-23" d="M 392.2,194.2 L 406.8,168.8" style="fill:none;fill-rule:evenodd;stroke:#000000;stroke-width:2.0px;stroke-linecap:butt;stroke-linejoin:miter;stroke-opacity:1" />
<path class="bond-22 atom-22 atom-23" d="M 406.8,168.8 L 421.5,143.5" style="fill:none;fill-rule:evenodd;stroke:#FF0000;stroke-width:2.0px;stroke-linecap:butt;stroke-linejoin:miter;stroke-opacity:1" />
<path class="bond-23 atom-21 atom-24" d="M 327.2,194.2 L 291.6,255.8" style="fill:none;fill-rule:evenodd;stroke:#000000;stroke-width:2.0px;stroke-linecap:butt;stroke-linejoin:miter;stroke-opacity:1" />
<path class="bond-24 atom-24 atom-25" d="M 291.6,255.8 L 220.4,255.8" style="fill:none;fill-rule:evenodd;stroke:#000000;stroke-width:2.0px;stroke-linecap:butt;stroke-linejoin:miter;stroke-opacity:1" />
<path class="bond-24 atom-24 atom-25" d="M 285.4,266.5 L 226.5,266.5" style="fill:none;fill-rule:evenodd;stroke:#000000;stroke-width:2.0px;stroke-linecap:butt;stroke-linejoin:miter;stroke-opacity:1" />
<path class="bond-25 atom-22 atom-1" d="M 398.4,194.2 L 412.4,218.4" style="fill:none;fill-rule:evenodd;stroke:#000000;stroke-width:2.0px;stroke-linecap:butt;stroke-linejoin:miter;stroke-opacity:1" />
<path class="bond-25 atom-22 atom-1" d="M 412.4,218.4 L 426.4,242.7" style="fill:none;fill-rule:evenodd;stroke:#0000FF;stroke-width:2.0px;stroke-linecap:butt;stroke-linejoin:miter;stroke-opacity:1" />
<path class="bond-26 atom-24 atom-4" d="M 291.6,255.8 L 327.2,317.5" style="fill:none;fill-rule:evenodd;stroke:#000000;stroke-width:2.0px;stroke-linecap:butt;stroke-linejoin:miter;stroke-opacity:1" />
<path class="bond-27 atom-25 atom-9" d="M 220.4,255.8 L 184.8,317.5" style="fill:none;fill-rule:evenodd;stroke:#000000;stroke-width:2.0px;stroke-linecap:butt;stroke-linejoin:miter;stroke-opacity:1" />
<path class="bond-28 atom-25 atom-16" d="M 220.4,255.8 L 184.8,194.2" style="fill:none;fill-rule:evenodd;stroke:#000000;stroke-width:2.0px;stroke-linecap:butt;stroke-linejoin:miter;stroke-opacity:1" />
<path d="M 399.1,316.3 L 398.4,317.5 L 394.8,317.5" style="fill:none;stroke:#000000;stroke-width:2.0px;stroke-linecap:butt;stroke-linejoin:miter;stroke-opacity:1;" />
<path d="M 117.2,317.5 L 113.6,317.5 L 112.9,316.3" style="fill:none;stroke:#000000;stroke-width:2.0px;stroke-linecap:butt;stroke-linejoin:miter;stroke-opacity:1;" />
<path d="M 112.9,195.4 L 113.6,194.2 L 117.2,194.2" style="fill:none;stroke:#000000;stroke-width:2.0px;stroke-linecap:butt;stroke-linejoin:miter;stroke-opacity:1;" />
<path d="M 394.8,194.2 L 398.4,194.2 L 399.1,195.4" style="fill:none;stroke:#000000;stroke-width:2.0px;stroke-linecap:butt;stroke-linejoin:miter;stroke-opacity:1;" />
<path class="atom-1" d="M 425.4 266.6 L 425.4 245.1 L 429.7 245.1 L 438.4 259.4 L 438.4 245.1 L 442.5 245.1 L 442.5 266.6 L 438.1 266.6 L 429.5 252.6 L 429.5 266.6 L 425.4 266.6 " fill="#0000FF" />
<path class="atom-3" d="M 423.5 379.4 Q 423.5 376.2, 424.5 373.9 Q 425.3 372.3, 426.5 371.0 Q 427.8 369.7, 429.3 369.1 Q 431.3 368.2, 433.9 368.2 Q 438.7 368.2, 441.5 371.1 Q 444.4 374.1, 444.4 379.3 Q 444.4 384.5, 441.5 387.5 Q 438.7 390.4, 434.0 390.4 Q 429.2 390.4, 426.4 387.5 Q 423.5 384.6, 423.5 379.4 M 428.0 379.3 Q 428.0 382.9, 429.7 384.8 Q 431.4 386.7, 434.0 386.7 Q 436.6 386.7, 438.2 384.8 Q 439.9 383.0, 439.9 379.2 Q 439.9 375.5, 438.3 373.7 Q 436.6 371.9, 434.0 371.9 Q 431.3 371.9, 429.6 373.8 Q 428.0 375.6, 428.0 379.3 " fill="#FF0000" />
<path class="atom-11" d="M 67.6 379.4 Q 67.6 376.2, 68.6 373.9 Q 69.3 372.3, 70.6 371.0 Q 71.8 369.7, 73.3 369.1 Q 75.3 368.2, 78.0 368.2 Q 82.7 368.2, 85.6 371.1 Q 88.4 374.1, 88.4 379.3 Q 88.4 384.5, 85.6 387.5 Q 82.8 390.4, 78.0 390.4 Q 73.2 390.4, 70.4 387.5 Q 67.6 384.6, 67.6 379.4 M 72.0 379.3 Q 72.0 382.9, 73.7 384.8 Q 75.4 386.7, 78.0 386.7 Q 80.6 386.7, 82.3 384.8 Q 83.9 383.0, 83.9 379.2 Q 83.9 375.5, 82.3 373.7 Q 80.7 371.9, 78.0 371.9 Q 75.3 371.9, 73.7 373.8 Q 72.0 375.6, 72.0 379.3 " fill="#FF0000" />
<path class="atom-12" d="M 69.5 266.6 L 69.5 245.1 L 73.7 245.1 L 82.5 259.4 L 82.5 245.1 L 86.5 245.1 L 86.5 266.6 L 82.2 266.6 L 73.5 252.6 L 73.5 266.6 L 69.5 266.6 " fill="#0000FF" />
<path class="atom-15" d="M 67.6 132.8 Q 67.6 129.5, 68.6 127.3 Q 69.3 125.7, 70.6 124.4 Q 71.8 123.1, 73.3 122.4 Q 75.3 121.6, 78.0 121.6 Q 82.7 121.6, 85.6 124.5 Q 88.4 127.5, 88.4 132.7 Q 88.4 137.9, 85.6 140.9 Q 82.8 143.8, 78.0 143.8 Q 73.2 143.8, 70.4 140.9 Q 67.6 138.0, 67.6 132.8 M 72.0 132.7 Q 72.0 136.3, 73.7 138.2 Q 75.4 140.1, 78.0 140.1 Q 80.6 140.1, 82.3 138.2 Q 83.9 136.4, 83.9 132.6 Q 83.9 128.9, 82.3 127.1 Q 80.7 125.3, 78.0 125.3 Q 75.3 125.3, 73.7 127.1 Q 72.0 129.0, 72.0 132.7 " fill="#FF0000" />
<path class="atom-23" d="M 423.5 132.8 Q 423.5 129.5, 424.5 127.3 Q 425.3 125.7, 426.5 124.4 Q 427.8 123.1, 429.3 122.4 Q 431.3 121.6, 433.9 121.6 Q 438.7 121.6, 441.5 124.5 Q 444.4 127.5, 444.4 132.7 Q 444.4 137.9, 441.5 140.9 Q 438.7 143.8, 434.0 143.8 Q 429.2 143.8, 426.4 140.9 Q 423.5 138.0, 423.5 132.8 M 428.0 132.7 Q 428.0 136.3, 429.7 138.2 Q 431.4 140.1, 434.0 140.1 Q 436.6 140.1, 438.2 138.2 Q 439.9 136.4, 439.9 132.6 Q 439.9 128.9, 438.3 127.1 Q 436.6 125.3, 434.0 125.3 Q 431.3 125.3, 429.6 127.1 Q 428.0 129.0, 428.0 132.7 " fill="#FF0000" />
</svg>