<?xml version='1.0' encoding='iso-8859-1'?>
<svg xmlns="http://www.w3.org/2000/svg" version="1.1" baseProfile="full" xml:space="preserve" width="347" height="198" viewBox="84 166 347 198">

<rect style="opacity:1.0;fill:#FFFFFF;stroke:none" width="512.0" height="512.0" x="0.0" y="0.0"> </rect>
<path class="bond-1 atom-1 atom-2" d="M 429.6,303.4 L 404.4,226.0" style="fill:none;fill-rule:evenodd;stroke:#000000;stroke-width:2.0px;stroke-linecap:butt;stroke-linejoin:miter;stroke-opacity:1" />
<path class="bond-1 atom-1 atom-2" d="M 415.2,298.7 L 395.6,238.2" style="fill:none;fill-rule:evenodd;stroke:#000000;stroke-width:2.0px;stroke-linecap:butt;stroke-linejoin:miter;stroke-opacity:1" />
<path class="bond-3 atom-2 atom-4" d="M 404.4,226.0 L 323.1,226.0" style="fill:none;fill-rule:evenodd;stroke:#000000;stroke-width:2.0px;stroke-linecap:butt;stroke-linejoin:miter;stroke-opacity:1" />
<path class="bond-4 atom-4 atom-5" d="M 323.1,226.0 L 298.0,303.4" style="fill:none;fill-rule:evenodd;stroke:#000000;stroke-width:2.0px;stroke-linecap:butt;stroke-linejoin:miter;stroke-opacity:1" />
<path class="bond-4 atom-4 atom-5" d="M 332.0,238.2 L 312.3,298.7" style="fill:none;fill-rule:evenodd;stroke:#000000;stroke-width:2.0px;stroke-linecap:butt;stroke-linejoin:miter;stroke-opacity:1" />
<path class="bond-5 atom-5 atom-6" d="M 298.0,303.4 L 324.8,322.9" style="fill:none;fill-rule:evenodd;stroke:#000000;stroke-width:2.0px;stroke-linecap:butt;stroke-linejoin:miter;stroke-opacity:1" />
<path class="bond-5 atom-5 atom-6" d="M 324.8,322.9 L 351.6,342.3" style="fill:none;fill-rule:evenodd;stroke:#CCCC00;stroke-width:2.0px;stroke-linecap:butt;stroke-linejoin:miter;stroke-opacity:1" />
<path class="bond-6 atom-5 atom-7" d="M 298.0,303.4 L 216.7,303.4" style="fill:none;fill-rule:evenodd;stroke:#000000;stroke-width:2.0px;stroke-linecap:butt;stroke-linejoin:miter;stroke-opacity:1" />
<path class="bond-7 atom-7 atom-8" d="M 216.7,303.4 L 191.6,226.0" style="fill:none;fill-rule:evenodd;stroke:#000000;stroke-width:2.0px;stroke-linecap:butt;stroke-linejoin:miter;stroke-opacity:1" />
<path class="bond-7 atom-7 atom-8" d="M 225.6,291.2 L 205.9,230.7" style="fill:none;fill-rule:evenodd;stroke:#000000;stroke-width:2.0px;stroke-linecap:butt;stroke-linejoin:miter;stroke-opacity:1" />
<path class="bond-8 atom-8 atom-9" d="M 191.6,226.0 L 218.4,206.6" style="fill:none;fill-rule:evenodd;stroke:#000000;stroke-width:2.0px;stroke-linecap:butt;stroke-linejoin:miter;stroke-opacity:1" />
<path class="bond-8 atom-8 atom-9" d="M 218.4,206.6 L 245.2,187.1" style="fill:none;fill-rule:evenodd;stroke:#CCCC00;stroke-width:2.0px;stroke-linecap:butt;stroke-linejoin:miter;stroke-opacity:1" />
<path class="bond-9 atom-8 atom-10" d="M 191.6,226.0 L 110.3,226.0" style="fill:none;fill-rule:evenodd;stroke:#000000;stroke-width:2.0px;stroke-linecap:butt;stroke-linejoin:miter;stroke-opacity:1" />
<path class="bond-11 atom-10 atom-12" d="M 110.3,226.0 L 85.1,303.4" style="fill:none;fill-rule:evenodd;stroke:#000000;stroke-width:2.0px;stroke-linecap:butt;stroke-linejoin:miter;stroke-opacity:1" />
<path class="bond-11 atom-10 atom-12" d="M 119.1,238.2 L 99.5,298.7" style="fill:none;fill-rule:evenodd;stroke:#000000;stroke-width:2.0px;stroke-linecap:butt;stroke-linejoin:miter;stroke-opacity:1" />
<path class="bond-13 atom-12 atom-14" d="M 85.1,303.4 L 112.0,322.9" style="fill:none;fill-rule:evenodd;stroke:#000000;stroke-width:2.0px;stroke-linecap:butt;stroke-linejoin:miter;stroke-opacity:1" />
<path class="bond-13 atom-12 atom-14" d="M 112.0,322.9 L 138.8,342.3" style="fill:none;fill-rule:evenodd;stroke:#CCCC00;stroke-width:2.0px;stroke-linecap:butt;stroke-linejoin:miter;stroke-opacity:1" />
<path class="bond-14 atom-6 atom-1" d="M 375.9,342.3 L 402.7,322.9" style="fill:none;fill-rule:evenodd;stroke:#CCCC00;stroke-width:2.0px;stroke-linecap:butt;stroke-linejoin:miter;stroke-opacity:1" />
<path class="bond-14 atom-6 atom-1" d="M 402.7,322.9 L 429.6,303.4" style="fill:none;fill-rule:evenodd;stroke:#000000;stroke-width:2.0px;stroke-linecap:butt;stroke-linejoin:miter;stroke-opacity:1" />
<path class="bond-15 atom-14 atom-7" d="M 163.1,342.3 L 189.9,322.9" style="fill:none;fill-rule:evenodd;stroke:#CCCC00;stroke-width:2.0px;stroke-linecap:butt;stroke-linejoin:miter;stroke-opacity:1" />
<path class="bond-15 atom-14 atom-7" d="M 189.9,322.9 L 216.7,303.4" style="fill:none;fill-rule:evenodd;stroke:#000000;stroke-width:2.0px;stroke-linecap:butt;stroke-linejoin:miter;stroke-opacity:1" />
<path class="bond-16 atom-9 atom-4" d="M 269.5,187.1 L 296.3,206.6" style="fill:none;fill-rule:evenodd;stroke:#CCCC00;stroke-width:2.0px;stroke-linecap:butt;stroke-linejoin:miter;stroke-opacity:1" />
<path class="bond-16 atom-9 atom-4" d="M 296.3,206.6 L 323.1,226.0" style="fill:none;fill-rule:evenodd;stroke:#000000;stroke-width:2.0px;stroke-linecap:butt;stroke-linejoin:miter;stroke-opacity:1" />
<path class="atom-6" d="M 354.3 355.4 L 358.9 355.0 Q 359.3 357.3, 360.6 358.4 Q 361.8 359.4, 364.0 359.4 Q 366.2 359.4, 367.4 358.5 Q 368.5 357.5, 368.5 356.2 Q 368.5 355.4, 368.1 354.8 Q 367.6 354.3, 366.4 353.8 Q 365.5 353.5, 362.6 352.8 Q 358.8 351.9, 357.3 350.5 Q 355.2 348.6, 355.2 345.8 Q 355.2 344.0, 356.2 342.5 Q 357.2 340.9, 359.1 340.1 Q 361.0 339.3, 363.7 339.3 Q 368.0 339.3, 370.2 341.2 Q 372.5 343.2, 372.6 346.4 L 367.9 346.6 Q 367.6 344.8, 366.6 344.0 Q 365.6 343.2, 363.6 343.2 Q 361.6 343.2, 360.4 344.1 Q 359.7 344.6, 359.7 345.5 Q 359.7 346.3, 360.4 346.9 Q 361.2 347.7, 364.7 348.5 Q 368.1 349.3, 369.7 350.2 Q 371.4 351.0, 372.3 352.5 Q 373.2 354.0, 373.2 356.2 Q 373.2 358.2, 372.1 360.0 Q 371.0 361.7, 369.0 362.6 Q 367.0 363.4, 363.9 363.4 Q 359.5 363.4, 357.1 361.4 Q 354.8 359.3, 354.3 355.4 " fill="#CCCC00" />
<path class="atom-9" d="M 247.9 182.5 L 252.5 182.1 Q 252.9 184.4, 254.1 185.5 Q 255.4 186.5, 257.5 186.5 Q 259.8 186.5, 261.0 185.6 Q 262.1 184.6, 262.1 183.3 Q 262.1 182.5, 261.6 181.9 Q 261.1 181.3, 259.9 180.9 Q 259.1 180.6, 256.2 179.9 Q 252.4 179.0, 250.9 177.6 Q 248.7 175.7, 248.7 172.9 Q 248.7 171.1, 249.7 169.6 Q 250.7 168.0, 252.6 167.2 Q 254.5 166.4, 257.2 166.4 Q 261.6 166.4, 263.8 168.3 Q 266.0 170.3, 266.2 173.5 L 261.5 173.7 Q 261.1 171.9, 260.1 171.1 Q 259.2 170.3, 257.2 170.3 Q 255.1 170.3, 254.0 171.2 Q 253.2 171.7, 253.2 172.6 Q 253.2 173.4, 253.9 174.0 Q 254.8 174.8, 258.2 175.6 Q 261.7 176.4, 263.3 177.3 Q 265.0 178.1, 265.9 179.6 Q 266.8 181.1, 266.8 183.3 Q 266.8 185.3, 265.7 187.1 Q 264.6 188.8, 262.6 189.7 Q 260.5 190.5, 257.5 190.5 Q 253.1 190.5, 250.7 188.5 Q 248.3 186.4, 247.9 182.5 " fill="#CCCC00" />
<path class="atom-14" d="M 141.5 355.4 L 146.0 355.0 Q 146.4 357.3, 147.7 358.4 Q 149.0 359.4, 151.1 359.4 Q 153.4 359.4, 154.5 358.5 Q 155.7 357.5, 155.7 356.2 Q 155.7 355.4, 155.2 354.8 Q 154.7 354.3, 153.5 353.8 Q 152.7 353.5, 149.7 352.8 Q 146.0 351.9, 144.4 350.5 Q 142.3 348.6, 142.3 345.8 Q 142.3 344.0, 143.3 342.5 Q 144.3 340.9, 146.2 340.1 Q 148.1 339.3, 150.8 339.3 Q 155.2 339.3, 157.4 341.2 Q 159.6 343.2, 159.7 346.4 L 155.0 346.6 Q 154.7 344.8, 153.7 344.0 Q 152.7 343.2, 150.7 343.2 Q 148.7 343.2, 147.5 344.1 Q 146.8 344.6, 146.8 345.5 Q 146.8 346.3, 147.5 346.9 Q 148.4 347.7, 151.8 348.5 Q 155.2 349.3, 156.9 350.2 Q 158.5 351.0, 159.5 352.5 Q 160.4 354.0, 160.4 356.2 Q 160.4 358.2, 159.3 360.0 Q 158.2 361.7, 156.1 362.6 Q 154.1 363.4, 151.1 363.4 Q 146.7 363.4, 144.3 361.4 Q 141.9 359.3, 141.5 355.4 " fill="#CCCC00" />
</svg>