<?xml version='1.0' encoding='iso-8859-1'?>
<svg xmlns="http://www.w3.org/2000/svg" version="1.1" baseProfile="full" xml:space="preserve" width="128" height="73" viewBox="27 338 128 73">

<rect style="opacity:1.0;fill:#FFFFFF;stroke:none" width="512.0" height="512.0" x="0.0" y="0.0"> </rect>
<path class="bond-1 atom-1 atom-2" d="M 153.3,388.7 L 144.2,360.6" style="fill:none;fill-rule:evenodd;stroke:#000000;stroke-width:2.0px;stroke-linecap:butt;stroke-linejoin:miter;stroke-opacity:1" />
<path class="bond-1 atom-1 atom-2" d="M 148.1,387.0 L 141.0,365.1" style="fill:none;fill-rule:evenodd;stroke:#000000;stroke-width:2.0px;stroke-linecap:butt;stroke-linejoin:miter;stroke-opacity:1" />
<path class="bond-3 atom-2 atom-4" d="M 144.2,360.6 L 114.6,360.6" style="fill:none;fill-rule:evenodd;stroke:#000000;stroke-width:2.0px;stroke-linecap:butt;stroke-linejoin:miter;stroke-opacity:1" />
<path class="bond-4 atom-4 atom-5" d="M 114.6,360.6 L 105.5,388.7" style="fill:none;fill-rule:evenodd;stroke:#000000;stroke-width:2.0px;stroke-linecap:butt;stroke-linejoin:miter;stroke-opacity:1" />
<path class="bond-4 atom-4 atom-5" d="M 117.9,365.1 L 110.7,387.0" style="fill:none;fill-rule:evenodd;stroke:#000000;stroke-width:2.0px;stroke-linecap:butt;stroke-linejoin:miter;stroke-opacity:1" />
<path class="bond-5 atom-5 atom-6" d="M 105.5,388.7 L 115.3,395.8" style="fill:none;fill-rule:evenodd;stroke:#000000;stroke-width:2.0px;stroke-linecap:butt;stroke-linejoin:miter;stroke-opacity:1" />
<path class="bond-5 atom-5 atom-6" d="M 115.3,395.8 L 125.0,402.9" style="fill:none;fill-rule:evenodd;stroke:#CCCC00;stroke-width:2.0px;stroke-linecap:butt;stroke-linejoin:miter;stroke-opacity:1" />
<path class="bond-6 atom-5 atom-7" d="M 105.5,388.7 L 75.9,388.7" style="fill:none;fill-rule:evenodd;stroke:#000000;stroke-width:2.0px;stroke-linecap:butt;stroke-linejoin:miter;stroke-opacity:1" />
<path class="bond-7 atom-7 atom-8" d="M 75.9,388.7 L 66.8,360.6" style="fill:none;fill-rule:evenodd;stroke:#000000;stroke-width:2.0px;stroke-linecap:butt;stroke-linejoin:miter;stroke-opacity:1" />
<path class="bond-7 atom-7 atom-8" d="M 79.2,384.3 L 72.0,362.3" style="fill:none;fill-rule:evenodd;stroke:#000000;stroke-width:2.0px;stroke-linecap:butt;stroke-linejoin:miter;stroke-opacity:1" />
<path class="bond-8 atom-8 atom-9" d="M 66.8,360.6 L 76.6,353.5" style="fill:none;fill-rule:evenodd;stroke:#000000;stroke-width:2.0px;stroke-linecap:butt;stroke-linejoin:miter;stroke-opacity:1" />
<path class="bond-8 atom-8 atom-9" d="M 76.6,353.5 L 86.3,346.5" style="fill:none;fill-rule:evenodd;stroke:#CCCC00;stroke-width:2.0px;stroke-linecap:butt;stroke-linejoin:miter;stroke-opacity:1" />
<path class="bond-9 atom-8 atom-10" d="M 66.8,360.6 L 37.2,360.6" style="fill:none;fill-rule:evenodd;stroke:#000000;stroke-width:2.0px;stroke-linecap:butt;stroke-linejoin:miter;stroke-opacity:1" />
<path class="bond-11 atom-10 atom-12" d="M 37.2,360.6 L 28.1,388.7" style="fill:none;fill-rule:evenodd;stroke:#000000;stroke-width:2.0px;stroke-linecap:butt;stroke-linejoin:miter;stroke-opacity:1" />
<path class="bond-11 atom-10 atom-12" d="M 40.5,365.1 L 33.3,387.0" style="fill:none;fill-rule:evenodd;stroke:#000000;stroke-width:2.0px;stroke-linecap:butt;stroke-linejoin:miter;stroke-opacity:1" />
<path class="bond-13 atom-12 atom-14" d="M 28.1,388.7 L 37.9,395.8" style="fill:none;fill-rule:evenodd;stroke:#000000;stroke-width:2.0px;stroke-linecap:butt;stroke-linejoin:miter;stroke-opacity:1" />
<path class="bond-13 atom-12 atom-14" d="M 37.9,395.8 L 47.6,402.9" style="fill:none;fill-rule:evenodd;stroke:#CCCC00;stroke-width:2.0px;stroke-linecap:butt;stroke-linejoin:miter;stroke-opacity:1" />
<path class="bond-14 atom-6 atom-1" d="M 133.8,402.9 L 143.6,395.8" style="fill:none;fill-rule:evenodd;stroke:#CCCC00;stroke-width:2.0px;stroke-linecap:butt;stroke-linejoin:miter;stroke-opacity:1" />
<path class="bond-14 atom-6 atom-1" d="M 143.6,395.8 L 153.3,388.7" style="fill:none;fill-rule:evenodd;stroke:#000000;stroke-width:2.0px;stroke-linecap:butt;stroke-linejoin:miter;stroke-opacity:1" />
<path class="bond-15 atom-14 atom-7" d="M 56.4,402.9 L 66.2,395.8" style="fill:none;fill-rule:evenodd;stroke:#CCCC00;stroke-width:2.0px;stroke-linecap:butt;stroke-linejoin:miter;stroke-opacity:1" />
<path class="bond-15 atom-14 atom-7" d="M 66.2,395.8 L 75.9,388.7" style="fill:none;fill-rule:evenodd;stroke:#000000;stroke-width:2.0px;stroke-linecap:butt;stroke-linejoin:miter;stroke-opacity:1" />
<path class="bond-16 atom-9 atom-4" d="M 95.1,346.5 L 104.9,353.5" style="fill:none;fill-rule:evenodd;stroke:#CCCC00;stroke-width:2.0px;stroke-linecap:butt;stroke-linejoin:miter;stroke-opacity:1" />
<path class="bond-16 atom-9 atom-4" d="M 104.9,353.5 L 114.6,360.6" style="fill:none;fill-rule:evenodd;stroke:#000000;stroke-width:2.0px;stroke-linecap:butt;stroke-linejoin:miter;stroke-opacity:1" />
<path class="atom-6" d="M 126.0 407.7 L 127.6 407.5 Q 127.8 408.3, 128.2 408.7 Q 128.7 409.1, 129.5 409.1 Q 130.3 409.1, 130.7 408.8 Q 131.2 408.4, 131.2 408.0 Q 131.2 407.7, 131.0 407.5 Q 130.8 407.2, 130.4 407.1 Q 130.1 407.0, 129.0 406.7 Q 127.6 406.4, 127.1 405.9 Q 126.3 405.2, 126.3 404.2 Q 126.3 403.5, 126.6 403.0 Q 127.0 402.4, 127.7 402.1 Q 128.4 401.8, 129.4 401.8 Q 131.0 401.8, 131.8 402.5 Q 132.6 403.2, 132.6 404.4 L 130.9 404.5 Q 130.8 403.8, 130.4 403.5 Q 130.1 403.2, 129.4 403.2 Q 128.6 403.2, 128.2 403.5 Q 127.9 403.7, 127.9 404.1 Q 127.9 404.4, 128.2 404.6 Q 128.5 404.8, 129.7 405.1 Q 131.0 405.4, 131.6 405.7 Q 132.2 406.1, 132.5 406.6 Q 132.9 407.2, 132.9 408.0 Q 132.9 408.7, 132.5 409.3 Q 132.1 410.0, 131.3 410.3 Q 130.6 410.6, 129.5 410.6 Q 127.9 410.6, 127.0 409.8 Q 126.1 409.1, 126.0 407.7 " fill="#CCCC00" />
<path class="atom-9" d="M 87.3 344.8 L 88.9 344.6 Q 89.1 345.5, 89.6 345.9 Q 90.0 346.3, 90.8 346.3 Q 91.6 346.3, 92.0 345.9 Q 92.5 345.6, 92.5 345.1 Q 92.5 344.8, 92.3 344.6 Q 92.1 344.4, 91.7 344.2 Q 91.4 344.1, 90.3 343.8 Q 88.9 343.5, 88.4 343.0 Q 87.6 342.3, 87.6 341.3 Q 87.6 340.7, 88.0 340.1 Q 88.3 339.5, 89.0 339.2 Q 89.7 338.9, 90.7 338.9 Q 92.3 338.9, 93.1 339.6 Q 93.9 340.3, 93.9 341.5 L 92.2 341.6 Q 92.1 340.9, 91.7 340.7 Q 91.4 340.4, 90.7 340.4 Q 89.9 340.4, 89.5 340.7 Q 89.2 340.9, 89.2 341.2 Q 89.2 341.5, 89.5 341.7 Q 89.8 342.0, 91.0 342.3 Q 92.3 342.6, 92.9 342.9 Q 93.5 343.2, 93.8 343.7 Q 94.2 344.3, 94.2 345.1 Q 94.2 345.8, 93.8 346.5 Q 93.4 347.1, 92.6 347.4 Q 91.9 347.7, 90.8 347.7 Q 89.2 347.7, 88.3 347.0 Q 87.4 346.2, 87.3 344.8 " fill="#CCCC00" />
<path class="atom-14" d="M 48.6 407.7 L 50.3 407.5 Q 50.4 408.3, 50.9 408.7 Q 51.3 409.1, 52.1 409.1 Q 52.9 409.1, 53.3 408.8 Q 53.8 408.4, 53.8 408.0 Q 53.8 407.7, 53.6 407.5 Q 53.4 407.2, 53.0 407.1 Q 52.7 407.0, 51.6 406.7 Q 50.2 406.4, 49.7 405.9 Q 48.9 405.2, 48.9 404.2 Q 48.9 403.5, 49.3 403.0 Q 49.6 402.4, 50.3 402.1 Q 51.0 401.8, 52.0 401.8 Q 53.6 401.8, 54.4 402.5 Q 55.2 403.2, 55.2 404.4 L 53.5 404.5 Q 53.4 403.8, 53.0 403.5 Q 52.7 403.2, 52.0 403.2 Q 51.2 403.2, 50.8 403.5 Q 50.5 403.7, 50.5 404.1 Q 50.5 404.4, 50.8 404.6 Q 51.1 404.8, 52.4 405.1 Q 53.6 405.4, 54.2 405.7 Q 54.8 406.1, 55.1 406.6 Q 55.5 407.2, 55.5 408.0 Q 55.5 408.7, 55.1 409.3 Q 54.7 410.0, 53.9 410.3 Q 53.2 410.6, 52.1 410.6 Q 50.5 410.6, 49.6 409.8 Q 48.8 409.1, 48.6 407.7 " fill="#CCCC00" />
</svg>