<?xml version='1.0' encoding='iso-8859-1'?>
<svg xmlns="http://www.w3.org/2000/svg" version="1.1" baseProfile="full" xml:space="preserve" width="110" height="112" viewBox="28 273 110 112">

<rect style="opacity:1.0;fill:#FFFFFF;stroke:none" width="512.0" height="512.0" x="0.0" y="0.0"> </rect>
<path class="bond-1 atom-1 atom-2" d="M 130.0,334.5 L 124.1,344.7" style="fill:none;fill-rule:evenodd;stroke:#0000FF;stroke-width:2.0px;stroke-linecap:butt;stroke-linejoin:miter;stroke-opacity:1" />
<path class="bond-1 atom-1 atom-2" d="M 124.1,344.7 L 118.2,354.9" style="fill:none;fill-rule:evenodd;stroke:#000000;stroke-width:2.0px;stroke-linecap:butt;stroke-linejoin:miter;stroke-opacity:1" />
<path class="bond-2 atom-2 atom-3" d="M 115.7,354.9 L 121.9,365.6" style="fill:none;fill-rule:evenodd;stroke:#000000;stroke-width:2.0px;stroke-linecap:butt;stroke-linejoin:miter;stroke-opacity:1" />
<path class="bond-2 atom-2 atom-3" d="M 121.9,365.6 L 128.1,376.3" style="fill:none;fill-rule:evenodd;stroke:#FF0000;stroke-width:2.0px;stroke-linecap:butt;stroke-linejoin:miter;stroke-opacity:1" />
<path class="bond-2 atom-2 atom-3" d="M 119.5,352.7 L 125.7,363.4" style="fill:none;fill-rule:evenodd;stroke:#000000;stroke-width:2.0px;stroke-linecap:butt;stroke-linejoin:miter;stroke-opacity:1" />
<path class="bond-2 atom-2 atom-3" d="M 125.7,363.4 L 131.9,374.1" style="fill:none;fill-rule:evenodd;stroke:#FF0000;stroke-width:2.0px;stroke-linecap:butt;stroke-linejoin:miter;stroke-opacity:1" />
<path class="bond-3 atom-2 atom-4" d="M 118.2,354.9 L 88.7,354.9" style="fill:none;fill-rule:evenodd;stroke:#000000;stroke-width:2.0px;stroke-linecap:butt;stroke-linejoin:miter;stroke-opacity:1" />
<path class="bond-4 atom-4 atom-5" d="M 88.7,354.9 L 73.9,380.5" style="fill:none;fill-rule:evenodd;stroke:#000000;stroke-width:2.0px;stroke-linecap:butt;stroke-linejoin:miter;stroke-opacity:1" />
<path class="bond-6 atom-5 atom-7" d="M 73.9,380.5 L 44.3,380.5" style="fill:none;fill-rule:evenodd;stroke:#000000;stroke-width:2.0px;stroke-linecap:butt;stroke-linejoin:miter;stroke-opacity:1" />
<path class="bond-6 atom-5 atom-7" d="M 71.3,376.1 L 46.9,376.1" style="fill:none;fill-rule:evenodd;stroke:#000000;stroke-width:2.0px;stroke-linecap:butt;stroke-linejoin:miter;stroke-opacity:1" />
<path class="bond-8 atom-7 atom-9" d="M 44.3,380.5 L 29.6,354.9" style="fill:none;fill-rule:evenodd;stroke:#000000;stroke-width:2.0px;stroke-linecap:butt;stroke-linejoin:miter;stroke-opacity:1" />
<path class="bond-10 atom-9 atom-11" d="M 29.6,354.9 L 44.3,329.3" style="fill:none;fill-rule:evenodd;stroke:#000000;stroke-width:2.0px;stroke-linecap:butt;stroke-linejoin:miter;stroke-opacity:1" />
<path class="bond-10 atom-9 atom-11" d="M 34.7,354.9 L 46.9,333.8" style="fill:none;fill-rule:evenodd;stroke:#000000;stroke-width:2.0px;stroke-linecap:butt;stroke-linejoin:miter;stroke-opacity:1" />
<path class="bond-11 atom-11 atom-12" d="M 44.3,329.3 L 29.6,303.7" style="fill:none;fill-rule:evenodd;stroke:#000000;stroke-width:2.0px;stroke-linecap:butt;stroke-linejoin:miter;stroke-opacity:1" />
<path class="bond-13 atom-12 atom-14" d="M 29.6,303.7 L 44.3,278.1" style="fill:none;fill-rule:evenodd;stroke:#000000;stroke-width:2.0px;stroke-linecap:butt;stroke-linejoin:miter;stroke-opacity:1" />
<path class="bond-13 atom-12 atom-14" d="M 34.7,303.7 L 46.9,282.6" style="fill:none;fill-rule:evenodd;stroke:#000000;stroke-width:2.0px;stroke-linecap:butt;stroke-linejoin:miter;stroke-opacity:1" />
<path class="bond-15 atom-14 atom-16" d="M 44.3,278.1 L 73.9,278.1" style="fill:none;fill-rule:evenodd;stroke:#000000;stroke-width:2.0px;stroke-linecap:butt;stroke-linejoin:miter;stroke-opacity:1" />
<path class="bond-17 atom-16 atom-18" d="M 73.9,278.1 L 88.7,303.7" style="fill:none;fill-rule:evenodd;stroke:#000000;stroke-width:2.0px;stroke-linecap:butt;stroke-linejoin:miter;stroke-opacity:1" />
<path class="bond-17 atom-16 atom-18" d="M 71.3,282.6 L 83.6,303.7" style="fill:none;fill-rule:evenodd;stroke:#000000;stroke-width:2.0px;stroke-linecap:butt;stroke-linejoin:miter;stroke-opacity:1" />
<path class="bond-18 atom-18 atom-19" d="M 88.7,303.7 L 118.2,303.7" style="fill:none;fill-rule:evenodd;stroke:#000000;stroke-width:2.0px;stroke-linecap:butt;stroke-linejoin:miter;stroke-opacity:1" />
<path class="bond-19 atom-19 atom-20" d="M 119.5,305.9 L 125.7,295.3" style="fill:none;fill-rule:evenodd;stroke:#000000;stroke-width:2.0px;stroke-linecap:butt;stroke-linejoin:miter;stroke-opacity:1" />
<path class="bond-19 atom-19 atom-20" d="M 125.7,295.3 L 131.8,284.6" style="fill:none;fill-rule:evenodd;stroke:#FF0000;stroke-width:2.0px;stroke-linecap:butt;stroke-linejoin:miter;stroke-opacity:1" />
<path class="bond-19 atom-19 atom-20" d="M 115.7,303.7 L 121.8,293.1" style="fill:none;fill-rule:evenodd;stroke:#000000;stroke-width:2.0px;stroke-linecap:butt;stroke-linejoin:miter;stroke-opacity:1" />
<path class="bond-19 atom-19 atom-20" d="M 121.8,293.1 L 128.0,282.4" style="fill:none;fill-rule:evenodd;stroke:#FF0000;stroke-width:2.0px;stroke-linecap:butt;stroke-linejoin:miter;stroke-opacity:1" />
<path class="bond-20 atom-18 atom-21" d="M 88.7,303.7 L 73.9,329.3" style="fill:none;fill-rule:evenodd;stroke:#000000;stroke-width:2.0px;stroke-linecap:butt;stroke-linejoin:miter;stroke-opacity:1" />
<path class="bond-21 atom-19 atom-1" d="M 118.2,303.7 L 124.1,313.9" style="fill:none;fill-rule:evenodd;stroke:#000000;stroke-width:2.0px;stroke-linecap:butt;stroke-linejoin:miter;stroke-opacity:1" />
<path class="bond-21 atom-19 atom-1" d="M 124.1,313.9 L 130.0,324.1" style="fill:none;fill-rule:evenodd;stroke:#0000FF;stroke-width:2.0px;stroke-linecap:butt;stroke-linejoin:miter;stroke-opacity:1" />
<path class="bond-22 atom-21 atom-4" d="M 73.9,329.3 L 88.7,354.9" style="fill:none;fill-rule:evenodd;stroke:#000000;stroke-width:2.0px;stroke-linecap:butt;stroke-linejoin:miter;stroke-opacity:1" />
<path class="bond-22 atom-21 atom-4" d="M 71.3,333.8 L 83.6,354.9" style="fill:none;fill-rule:evenodd;stroke:#000000;stroke-width:2.0px;stroke-linecap:butt;stroke-linejoin:miter;stroke-opacity:1" />
<path class="bond-23 atom-21 atom-11" d="M 73.9,329.3 L 44.3,329.3" style="fill:none;fill-rule:evenodd;stroke:#000000;stroke-width:2.0px;stroke-linecap:butt;stroke-linejoin:miter;stroke-opacity:1" />
<path d="M 118.5,354.4 L 118.2,354.9 L 116.8,354.9" style="fill:none;stroke:#000000;stroke-width:2.0px;stroke-linecap:butt;stroke-linejoin:miter;stroke-opacity:1;" />
<path d="M 116.8,303.7 L 118.2,303.7 L 118.5,304.2" style="fill:none;stroke:#000000;stroke-width:2.0px;stroke-linecap:butt;stroke-linejoin:miter;stroke-opacity:1;" />
<path class="atom-1" d="M 129.7 333.5 L 129.7 325.1 L 131.3 325.1 L 134.8 330.7 L 134.8 325.1 L 136.4 325.1 L 136.4 333.5 L 134.7 333.5 L 131.3 328.0 L 131.3 333.5 L 129.7 333.5 " fill="#0000FF" />
<path class="atom-3" d="M 128.9 380.6 Q 128.9 379.3, 129.3 378.5 Q 129.6 377.8, 130.1 377.3 Q 130.6 376.8, 131.2 376.5 Q 132.0 376.2, 133.0 376.2 Q 134.9 376.2, 136.0 377.4 Q 137.1 378.5, 137.1 380.6 Q 137.1 382.6, 136.0 383.8 Q 134.9 385.0, 133.0 385.0 Q 131.1 385.0, 130.0 383.8 Q 128.9 382.7, 128.9 380.6 M 130.7 380.6 Q 130.7 382.0, 131.3 382.8 Q 132.0 383.5, 133.0 383.5 Q 134.0 383.5, 134.7 382.8 Q 135.4 382.0, 135.4 380.6 Q 135.4 379.1, 134.7 378.4 Q 134.1 377.7, 133.0 377.7 Q 132.0 377.7, 131.3 378.4 Q 130.7 379.1, 130.7 380.6 " fill="#FF0000" />
<path class="atom-20" d="M 128.9 278.2 Q 128.9 276.9, 129.3 276.1 Q 129.6 275.4, 130.1 274.9 Q 130.6 274.4, 131.2 274.1 Q 132.0 273.8, 133.0 273.8 Q 134.9 273.8, 136.0 275.0 Q 137.1 276.1, 137.1 278.2 Q 137.1 280.2, 136.0 281.4 Q 134.9 282.6, 133.0 282.6 Q 131.1 282.6, 130.0 281.4 Q 128.9 280.3, 128.9 278.2 M 130.7 278.2 Q 130.7 279.6, 131.3 280.4 Q 132.0 281.1, 133.0 281.1 Q 134.0 281.1, 134.7 280.4 Q 135.4 279.6, 135.4 278.2 Q 135.4 276.7, 134.7 276.0 Q 134.1 275.3, 133.0 275.3 Q 132.0 275.3, 131.3 276.0 Q 130.7 276.7, 130.7 278.2 " fill="#FF0000" />
</svg>