<?xml version='1.0' encoding='iso-8859-1'?>
<svg xmlns="http://www.w3.org/2000/svg" version="1.1" baseProfile="full" xml:space="preserve" width="145" height="88" viewBox="28 323 145 88">

<rect style="opacity:1.0;fill:#FFFFFF;stroke:none" width="512.0" height="512.0" x="0.0" y="0.0"> </rect>
<path class="bond-0 atom-0 atom-1" d="M 115.8,401.5 L 110.4,395.1" style="fill:none;fill-rule:evenodd;stroke:#33CCCC;stroke-width:2.0px;stroke-linecap:butt;stroke-linejoin:miter;stroke-opacity:1" />
<path class="bond-0 atom-0 atom-1" d="M 110.4,395.1 L 105.0,388.7" style="fill:none;fill-rule:evenodd;stroke:#000000;stroke-width:2.0px;stroke-linecap:butt;stroke-linejoin:miter;stroke-opacity:1" />
<path class="bond-1 atom-1 atom-2" d="M 96.3,388.7 L 90.9,395.1" style="fill:none;fill-rule:evenodd;stroke:#000000;stroke-width:2.0px;stroke-linecap:butt;stroke-linejoin:miter;stroke-opacity:1" />
<path class="bond-1 atom-1 atom-2" d="M 90.9,395.1 L 85.5,401.5" style="fill:none;fill-rule:evenodd;stroke:#33CCCC;stroke-width:2.0px;stroke-linecap:butt;stroke-linejoin:miter;stroke-opacity:1" />
<path class="bond-2 atom-1 atom-3" d="M 96.1,380.9 L 87.8,376.0" style="fill:none;fill-rule:evenodd;stroke:#000000;stroke-width:2.0px;stroke-linecap:butt;stroke-linejoin:miter;stroke-opacity:1" />
<path class="bond-2 atom-1 atom-3" d="M 87.8,376.0 L 79.4,371.2" style="fill:none;fill-rule:evenodd;stroke:#0000FF;stroke-width:2.0px;stroke-linecap:butt;stroke-linejoin:miter;stroke-opacity:1" />
<path class="bond-3 atom-3 atom-4" d="M 70.7,370.1 L 58.8,374.0" style="fill:none;fill-rule:evenodd;stroke:#0000FF;stroke-width:2.0px;stroke-linecap:butt;stroke-linejoin:miter;stroke-opacity:1" />
<path class="bond-3 atom-3 atom-4" d="M 58.8,374.0 L 46.9,377.8" style="fill:none;fill-rule:evenodd;stroke:#000000;stroke-width:2.0px;stroke-linecap:butt;stroke-linejoin:miter;stroke-opacity:1" />
<path class="bond-5 atom-4 atom-6" d="M 46.9,377.8 L 29.6,353.9" style="fill:none;fill-rule:evenodd;stroke:#000000;stroke-width:2.0px;stroke-linecap:butt;stroke-linejoin:miter;stroke-opacity:1" />
<path class="bond-5 atom-4 atom-6" d="M 48.6,372.6 L 35.0,353.9" style="fill:none;fill-rule:evenodd;stroke:#000000;stroke-width:2.0px;stroke-linecap:butt;stroke-linejoin:miter;stroke-opacity:1" />
<path class="bond-7 atom-6 atom-8" d="M 29.6,353.9 L 46.9,330.0" style="fill:none;fill-rule:evenodd;stroke:#000000;stroke-width:2.0px;stroke-linecap:butt;stroke-linejoin:miter;stroke-opacity:1" />
<path class="bond-9 atom-8 atom-10" d="M 46.9,330.0 L 75.0,339.1" style="fill:none;fill-rule:evenodd;stroke:#000000;stroke-width:2.0px;stroke-linecap:butt;stroke-linejoin:miter;stroke-opacity:1" />
<path class="bond-9 atom-8 atom-10" d="M 48.6,335.2 L 70.6,342.4" style="fill:none;fill-rule:evenodd;stroke:#000000;stroke-width:2.0px;stroke-linecap:butt;stroke-linejoin:miter;stroke-opacity:1" />
<path class="bond-10 atom-10 atom-11" d="M 75.0,339.1 L 100.6,324.4" style="fill:none;fill-rule:evenodd;stroke:#000000;stroke-width:2.0px;stroke-linecap:butt;stroke-linejoin:miter;stroke-opacity:1" />
<path class="bond-12 atom-11 atom-13" d="M 100.6,324.4 L 126.2,339.1" style="fill:none;fill-rule:evenodd;stroke:#000000;stroke-width:2.0px;stroke-linecap:butt;stroke-linejoin:miter;stroke-opacity:1" />
<path class="bond-12 atom-11 atom-13" d="M 100.6,329.5 L 121.8,341.7" style="fill:none;fill-rule:evenodd;stroke:#000000;stroke-width:2.0px;stroke-linecap:butt;stroke-linejoin:miter;stroke-opacity:1" />
<path class="bond-13 atom-13 atom-14" d="M 126.2,339.1 L 154.4,330.0" style="fill:none;fill-rule:evenodd;stroke:#000000;stroke-width:2.0px;stroke-linecap:butt;stroke-linejoin:miter;stroke-opacity:1" />
<path class="bond-15 atom-14 atom-16" d="M 154.4,330.0 L 171.7,353.9" style="fill:none;fill-rule:evenodd;stroke:#000000;stroke-width:2.0px;stroke-linecap:butt;stroke-linejoin:miter;stroke-opacity:1" />
<path class="bond-15 atom-14 atom-16" d="M 152.7,335.2 L 166.3,353.9" style="fill:none;fill-rule:evenodd;stroke:#000000;stroke-width:2.0px;stroke-linecap:butt;stroke-linejoin:miter;stroke-opacity:1" />
<path class="bond-17 atom-16 atom-18" d="M 171.7,353.9 L 154.4,377.8" style="fill:none;fill-rule:evenodd;stroke:#000000;stroke-width:2.0px;stroke-linecap:butt;stroke-linejoin:miter;stroke-opacity:1" />
<path class="bond-19 atom-18 atom-20" d="M 154.4,377.8 L 142.5,374.0" style="fill:none;fill-rule:evenodd;stroke:#000000;stroke-width:2.0px;stroke-linecap:butt;stroke-linejoin:miter;stroke-opacity:1" />
<path class="bond-19 atom-18 atom-20" d="M 142.5,374.0 L 130.6,370.1" style="fill:none;fill-rule:evenodd;stroke:#0000FF;stroke-width:2.0px;stroke-linecap:butt;stroke-linejoin:miter;stroke-opacity:1" />
<path class="bond-19 atom-18 atom-20" d="M 152.7,372.6 L 142.3,369.2" style="fill:none;fill-rule:evenodd;stroke:#000000;stroke-width:2.0px;stroke-linecap:butt;stroke-linejoin:miter;stroke-opacity:1" />
<path class="bond-19 atom-18 atom-20" d="M 142.3,369.2 L 132.0,365.9" style="fill:none;fill-rule:evenodd;stroke:#0000FF;stroke-width:2.0px;stroke-linecap:butt;stroke-linejoin:miter;stroke-opacity:1" />
<path class="bond-20 atom-20 atom-1" d="M 121.9,371.2 L 114.3,375.6" style="fill:none;fill-rule:evenodd;stroke:#0000FF;stroke-width:2.0px;stroke-linecap:butt;stroke-linejoin:miter;stroke-opacity:1" />
<path class="bond-20 atom-20 atom-1" d="M 114.3,375.6 L 106.8,379.9" style="fill:none;fill-rule:evenodd;stroke:#000000;stroke-width:2.0px;stroke-linecap:butt;stroke-linejoin:miter;stroke-opacity:1" />
<path class="bond-21 atom-10 atom-3" d="M 75.0,339.1 L 75.0,351.3" style="fill:none;fill-rule:evenodd;stroke:#000000;stroke-width:2.0px;stroke-linecap:butt;stroke-linejoin:miter;stroke-opacity:1" />
<path class="bond-21 atom-10 atom-3" d="M 75.0,351.3 L 75.0,363.5" style="fill:none;fill-rule:evenodd;stroke:#0000FF;stroke-width:2.0px;stroke-linecap:butt;stroke-linejoin:miter;stroke-opacity:1" />
<path class="bond-22 atom-20 atom-13" d="M 126.2,363.5 L 126.2,351.3" style="fill:none;fill-rule:evenodd;stroke:#0000FF;stroke-width:2.0px;stroke-linecap:butt;stroke-linejoin:miter;stroke-opacity:1" />
<path class="bond-22 atom-20 atom-13" d="M 126.2,351.3 L 126.2,339.1" style="fill:none;fill-rule:evenodd;stroke:#000000;stroke-width:2.0px;stroke-linecap:butt;stroke-linejoin:miter;stroke-opacity:1" />
<path class="atom-0" d="M 116.7 410.3 L 116.7 401.9 L 122.6 401.9 L 122.6 403.3 L 118.5 403.3 L 118.5 405.3 L 122.0 405.3 L 122.0 406.8 L 118.5 406.8 L 118.5 410.3 L 116.7 410.3 " fill="#33CCCC" />
<path class="atom-1" d="M 97.1 379.2 L 100.5 379.2 Q 101.5 379.2, 102.0 379.3 Q 102.5 379.4, 102.9 379.7 Q 103.3 379.9, 103.5 380.4 Q 103.8 380.8, 103.8 381.4 Q 103.8 382.0, 103.5 382.5 Q 103.1 383.0, 102.6 383.2 Q 103.4 383.4, 103.8 384.0 Q 104.2 384.5, 104.2 385.2 Q 104.2 385.8, 103.9 386.4 Q 103.7 386.9, 103.2 387.2 Q 102.7 387.6, 102.0 387.6 Q 101.6 387.7, 100.0 387.7 L 97.1 387.7 L 97.1 379.2 M 98.8 380.6 L 98.8 382.6 L 99.9 382.6 Q 100.9 382.6, 101.2 382.6 Q 101.6 382.5, 101.9 382.3 Q 102.1 382.0, 102.1 381.6 Q 102.1 381.2, 101.9 381.0 Q 101.7 380.7, 101.3 380.7 Q 101.0 380.6, 99.8 380.6 L 98.8 380.6 M 98.8 384.0 L 98.8 386.3 L 100.4 386.3 Q 101.3 386.3, 101.6 386.2 Q 101.9 386.2, 102.2 385.9 Q 102.4 385.6, 102.4 385.2 Q 102.4 384.8, 102.2 384.5 Q 102.1 384.3, 101.7 384.1 Q 101.4 384.0, 100.2 384.0 L 98.8 384.0 " fill="#000000" />
<path class="atom-1" d="M 105.3 382.0 L 105.3 380.9 L 107.4 380.9 L 107.4 382.0 L 105.3 382.0 " fill="#000000" />
<path class="atom-2" d="M 78.7 410.3 L 78.7 401.9 L 84.5 401.9 L 84.5 403.3 L 80.5 403.3 L 80.5 405.3 L 84.0 405.3 L 84.0 406.8 L 80.5 406.8 L 80.5 410.3 L 78.7 410.3 " fill="#33CCCC" />
<path class="atom-3" d="M 71.7 372.9 L 71.7 364.5 L 73.4 364.5 L 76.8 370.1 L 76.8 364.5 L 78.4 364.5 L 78.4 372.9 L 76.7 372.9 L 73.3 367.4 L 73.3 372.9 L 71.7 372.9 " fill="#0000FF" />
<path class="atom-20" d="M 122.9 372.9 L 122.9 364.5 L 124.6 364.5 L 128.0 370.1 L 128.0 364.5 L 129.6 364.5 L 129.6 372.9 L 127.9 372.9 L 124.5 367.4 L 124.5 372.9 L 122.9 372.9 " fill="#0000FF" />
<path class="atom-20" d="M 132.6 367.9 L 132.6 366.4 L 131.2 366.4 L 131.2 365.4 L 132.6 365.4 L 132.6 364.0 L 133.6 364.0 L 133.6 365.4 L 135.1 365.4 L 135.1 366.4 L 133.6 366.4 L 133.6 367.9 L 132.6 367.9 " fill="#0000FF" />
</svg>