<?xml version='1.0' encoding='iso-8859-1'?>
<svg xmlns="http://www.w3.org/2000/svg" version="1.1" baseProfile="full" xml:space="preserve" width="354" height="215" viewBox="79 190 354 215">

<rect style="opacity:1.0;fill:#FFFFFF;stroke:none" width="512.0" height="512.0" x="0.0" y="0.0"> </rect>
<path class="bond-0 atom-0 atom-1" d="M 293.3,382.1 L 280.2,366.5" style="fill:none;fill-rule:evenodd;stroke:#33CCCC;stroke-width:2.0px;stroke-linecap:butt;stroke-linejoin:miter;stroke-opacity:1" />
<path class="bond-0 atom-0 atom-1" d="M 280.2,366.5 L 267.1,350.9" style="fill:none;fill-rule:evenodd;stroke:#000000;stroke-width:2.0px;stroke-linecap:butt;stroke-linejoin:miter;stroke-opacity:1" />
<path class="bond-1 atom-1 atom-2" d="M 245.0,350.9 L 231.9,366.5" style="fill:none;fill-rule:evenodd;stroke:#000000;stroke-width:2.0px;stroke-linecap:butt;stroke-linejoin:miter;stroke-opacity:1" />
<path class="bond-1 atom-1 atom-2" d="M 231.9,366.5 L 218.8,382.1" style="fill:none;fill-rule:evenodd;stroke:#33CCCC;stroke-width:2.0px;stroke-linecap:butt;stroke-linejoin:miter;stroke-opacity:1" />
<path class="bond-2 atom-1 atom-3" d="M 244.6,331.1 L 224.1,319.3" style="fill:none;fill-rule:evenodd;stroke:#000000;stroke-width:2.0px;stroke-linecap:butt;stroke-linejoin:miter;stroke-opacity:1" />
<path class="bond-2 atom-1 atom-3" d="M 224.1,319.3 L 203.6,307.5" style="fill:none;fill-rule:evenodd;stroke:#0000FF;stroke-width:2.0px;stroke-linecap:butt;stroke-linejoin:miter;stroke-opacity:1" />
<path class="bond-3 atom-3 atom-4" d="M 181.8,304.7 L 152.5,314.2" style="fill:none;fill-rule:evenodd;stroke:#0000FF;stroke-width:2.0px;stroke-linecap:butt;stroke-linejoin:miter;stroke-opacity:1" />
<path class="bond-3 atom-3 atom-4" d="M 152.5,314.2 L 123.2,323.7" style="fill:none;fill-rule:evenodd;stroke:#000000;stroke-width:2.0px;stroke-linecap:butt;stroke-linejoin:miter;stroke-opacity:1" />
<path class="bond-5 atom-4 atom-6" d="M 123.2,323.7 L 80.2,264.6" style="fill:none;fill-rule:evenodd;stroke:#000000;stroke-width:2.0px;stroke-linecap:butt;stroke-linejoin:miter;stroke-opacity:1" />
<path class="bond-5 atom-4 atom-6" d="M 127.3,310.8 L 93.7,264.6" style="fill:none;fill-rule:evenodd;stroke:#000000;stroke-width:2.0px;stroke-linecap:butt;stroke-linejoin:miter;stroke-opacity:1" />
<path class="bond-7 atom-6 atom-8" d="M 80.2,264.6 L 123.2,205.4" style="fill:none;fill-rule:evenodd;stroke:#000000;stroke-width:2.0px;stroke-linecap:butt;stroke-linejoin:miter;stroke-opacity:1" />
<path class="bond-9 atom-8 atom-10" d="M 123.2,205.4 L 192.7,228.0" style="fill:none;fill-rule:evenodd;stroke:#000000;stroke-width:2.0px;stroke-linecap:butt;stroke-linejoin:miter;stroke-opacity:1" />
<path class="bond-9 atom-8 atom-10" d="M 127.3,218.3 L 181.7,236.0" style="fill:none;fill-rule:evenodd;stroke:#000000;stroke-width:2.0px;stroke-linecap:butt;stroke-linejoin:miter;stroke-opacity:1" />
<path class="bond-10 atom-10 atom-11" d="M 192.7,228.0 L 256.0,191.4" style="fill:none;fill-rule:evenodd;stroke:#000000;stroke-width:2.0px;stroke-linecap:butt;stroke-linejoin:miter;stroke-opacity:1" />
<path class="bond-12 atom-11 atom-13" d="M 256.0,191.4 L 319.4,228.0" style="fill:none;fill-rule:evenodd;stroke:#000000;stroke-width:2.0px;stroke-linecap:butt;stroke-linejoin:miter;stroke-opacity:1" />
<path class="bond-12 atom-11 atom-13" d="M 256.0,204.1 L 308.4,234.3" style="fill:none;fill-rule:evenodd;stroke:#000000;stroke-width:2.0px;stroke-linecap:butt;stroke-linejoin:miter;stroke-opacity:1" />
<path class="bond-13 atom-13 atom-14" d="M 319.4,228.0 L 388.9,205.4" style="fill:none;fill-rule:evenodd;stroke:#000000;stroke-width:2.0px;stroke-linecap:butt;stroke-linejoin:miter;stroke-opacity:1" />
<path class="bond-15 atom-14 atom-16" d="M 388.9,205.4 L 431.9,264.6" style="fill:none;fill-rule:evenodd;stroke:#000000;stroke-width:2.0px;stroke-linecap:butt;stroke-linejoin:miter;stroke-opacity:1" />
<path class="bond-15 atom-14 atom-16" d="M 384.7,218.3 L 418.4,264.6" style="fill:none;fill-rule:evenodd;stroke:#000000;stroke-width:2.0px;stroke-linecap:butt;stroke-linejoin:miter;stroke-opacity:1" />
<path class="bond-17 atom-16 atom-18" d="M 431.9,264.6 L 388.9,323.7" style="fill:none;fill-rule:evenodd;stroke:#000000;stroke-width:2.0px;stroke-linecap:butt;stroke-linejoin:miter;stroke-opacity:1" />
<path class="bond-19 atom-18 atom-20" d="M 388.9,323.7 L 359.6,314.2" style="fill:none;fill-rule:evenodd;stroke:#000000;stroke-width:2.0px;stroke-linecap:butt;stroke-linejoin:miter;stroke-opacity:1" />
<path class="bond-19 atom-18 atom-20" d="M 359.6,314.2 L 330.3,304.7" style="fill:none;fill-rule:evenodd;stroke:#0000FF;stroke-width:2.0px;stroke-linecap:butt;stroke-linejoin:miter;stroke-opacity:1" />
<path class="bond-19 atom-18 atom-20" d="M 384.7,310.8 L 359.2,302.6" style="fill:none;fill-rule:evenodd;stroke:#000000;stroke-width:2.0px;stroke-linecap:butt;stroke-linejoin:miter;stroke-opacity:1" />
<path class="bond-19 atom-18 atom-20" d="M 359.2,302.6 L 333.7,294.3" style="fill:none;fill-rule:evenodd;stroke:#0000FF;stroke-width:2.0px;stroke-linecap:butt;stroke-linejoin:miter;stroke-opacity:1" />
<path class="bond-20 atom-20 atom-1" d="M 308.4,307.5 L 290.0,318.1" style="fill:none;fill-rule:evenodd;stroke:#0000FF;stroke-width:2.0px;stroke-linecap:butt;stroke-linejoin:miter;stroke-opacity:1" />
<path class="bond-20 atom-20 atom-1" d="M 290.0,318.1 L 271.5,328.8" style="fill:none;fill-rule:evenodd;stroke:#000000;stroke-width:2.0px;stroke-linecap:butt;stroke-linejoin:miter;stroke-opacity:1" />
<path class="bond-21 atom-10 atom-3" d="M 192.7,228.0 L 192.7,258.0" style="fill:none;fill-rule:evenodd;stroke:#000000;stroke-width:2.0px;stroke-linecap:butt;stroke-linejoin:miter;stroke-opacity:1" />
<path class="bond-21 atom-10 atom-3" d="M 192.7,258.0 L 192.7,288.0" style="fill:none;fill-rule:evenodd;stroke:#0000FF;stroke-width:2.0px;stroke-linecap:butt;stroke-linejoin:miter;stroke-opacity:1" />
<path class="bond-22 atom-20 atom-13" d="M 319.4,288.0 L 319.4,258.0" style="fill:none;fill-rule:evenodd;stroke:#0000FF;stroke-width:2.0px;stroke-linecap:butt;stroke-linejoin:miter;stroke-opacity:1" />
<path class="bond-22 atom-20 atom-13" d="M 319.4,258.0 L 319.4,228.0" style="fill:none;fill-rule:evenodd;stroke:#000000;stroke-width:2.0px;stroke-linecap:butt;stroke-linejoin:miter;stroke-opacity:1" />
<path class="atom-0" d="M 295.7 404.5 L 295.7 383.0 L 310.4 383.0 L 310.4 386.6 L 300.0 386.6 L 300.0 391.7 L 309.0 391.7 L 309.0 395.3 L 300.0 395.3 L 300.0 404.5 L 295.7 404.5 " fill="#33CCCC" />
<path class="atom-1" d="M 247.0 327.0 L 255.6 327.0 Q 258.2 327.0, 259.4 327.2 Q 260.7 327.4, 261.7 328.1 Q 262.7 328.7, 263.3 329.9 Q 264.0 331.0, 264.0 332.4 Q 264.0 333.9, 263.2 335.1 Q 262.4 336.4, 261.0 337.0 Q 262.9 337.6, 264.0 339.0 Q 265.0 340.4, 265.0 342.2 Q 265.0 343.7, 264.3 345.1 Q 263.7 346.5, 262.5 347.3 Q 261.3 348.1, 259.6 348.3 Q 258.5 348.4, 254.4 348.4 L 247.0 348.4 L 247.0 327.0 M 251.4 330.5 L 251.4 335.5 L 254.2 335.5 Q 256.8 335.5, 257.4 335.4 Q 258.5 335.3, 259.1 334.7 Q 259.8 334.0, 259.8 333.0 Q 259.8 332.0, 259.2 331.4 Q 258.7 330.8, 257.6 330.6 Q 256.9 330.5, 253.9 330.5 L 251.4 330.5 M 251.4 339.1 L 251.4 344.8 L 255.4 344.8 Q 257.7 344.8, 258.4 344.7 Q 259.3 344.5, 259.9 343.8 Q 260.6 343.2, 260.6 342.0 Q 260.6 341.0, 260.1 340.4 Q 259.6 339.7, 258.7 339.4 Q 257.8 339.1, 254.9 339.1 L 251.4 339.1 " fill="#000000" />
<path class="atom-1" d="M 267.8 333.9 L 267.8 331.2 L 273.2 331.2 L 273.2 333.9 L 267.8 333.9 " fill="#000000" />
<path class="atom-2" d="M 201.7 404.5 L 201.7 383.0 L 216.4 383.0 L 216.4 386.6 L 206.0 386.6 L 206.0 391.7 L 215.0 391.7 L 215.0 395.3 L 206.0 395.3 L 206.0 404.5 L 201.7 404.5 " fill="#33CCCC" />
<path class="atom-3" d="M 184.2 311.9 L 184.2 290.4 L 188.4 290.4 L 197.2 304.7 L 197.2 290.4 L 201.2 290.4 L 201.2 311.9 L 196.9 311.9 L 188.2 297.9 L 188.2 311.9 L 184.2 311.9 " fill="#0000FF" />
<path class="atom-20" d="M 310.9 311.9 L 310.9 290.4 L 315.1 290.4 L 323.9 304.7 L 323.9 290.4 L 327.9 290.4 L 327.9 311.9 L 323.5 311.9 L 314.9 297.9 L 314.9 311.9 L 310.9 311.9 " fill="#0000FF" />
<path class="atom-20" d="M 335.6 299.1 L 335.6 295.4 L 331.9 295.4 L 331.9 292.9 L 335.6 292.9 L 335.6 289.2 L 338.1 289.2 L 338.1 292.9 L 341.8 292.9 L 341.8 295.4 L 338.1 295.4 L 338.1 299.1 L 335.6 299.1 " fill="#0000FF" />
</svg>