<?xml version='1.0' encoding='iso-8859-1'?>
<svg xmlns="http://www.w3.org/2000/svg" version="1.1" baseProfile="full" xml:space="preserve" width="356" height="190" viewBox="79 161 356 190">

<rect style="opacity:1.0;fill:#FFFFFF;stroke:none" width="512.0" height="512.0" x="0.0" y="0.0"> </rect>
<path class="bond-1 atom-1 atom-2" d="M 433.9,287.8 L 401.4,220.6" style="fill:none;fill-rule:evenodd;stroke:#000000;stroke-width:2.0px;stroke-linecap:butt;stroke-linejoin:miter;stroke-opacity:1" />
<path class="bond-1 atom-1 atom-2" d="M 420.2,285.4 L 394.9,232.8" style="fill:none;fill-rule:evenodd;stroke:#000000;stroke-width:2.0px;stroke-linecap:butt;stroke-linejoin:miter;stroke-opacity:1" />
<path class="bond-3 atom-2 atom-4" d="M 401.4,220.6 L 327.5,230.7" style="fill:none;fill-rule:evenodd;stroke:#000000;stroke-width:2.0px;stroke-linecap:butt;stroke-linejoin:miter;stroke-opacity:1" />
<path class="bond-4 atom-4 atom-5" d="M 327.5,230.7 L 314.2,304.2" style="fill:none;fill-rule:evenodd;stroke:#000000;stroke-width:2.0px;stroke-linecap:butt;stroke-linejoin:miter;stroke-opacity:1" />
<path class="bond-4 atom-4 atom-5" d="M 337.0,240.7 L 326.7,298.2" style="fill:none;fill-rule:evenodd;stroke:#000000;stroke-width:2.0px;stroke-linecap:butt;stroke-linejoin:miter;stroke-opacity:1" />
<path class="bond-5 atom-5 atom-6" d="M 314.2,304.2 L 341.5,318.8" style="fill:none;fill-rule:evenodd;stroke:#000000;stroke-width:2.0px;stroke-linecap:butt;stroke-linejoin:miter;stroke-opacity:1" />
<path class="bond-5 atom-5 atom-6" d="M 341.5,318.8 L 368.8,333.5" style="fill:none;fill-rule:evenodd;stroke:#CCCC00;stroke-width:2.0px;stroke-linecap:butt;stroke-linejoin:miter;stroke-opacity:1" />
<path class="bond-6 atom-5 atom-7" d="M 314.2,304.2 L 244.0,329.4" style="fill:none;fill-rule:evenodd;stroke:#000000;stroke-width:2.0px;stroke-linecap:butt;stroke-linejoin:miter;stroke-opacity:1" />
<path class="bond-8 atom-7 atom-9" d="M 244.0,329.4 L 187.0,281.3" style="fill:none;fill-rule:evenodd;stroke:#000000;stroke-width:2.0px;stroke-linecap:butt;stroke-linejoin:miter;stroke-opacity:1" />
<path class="bond-8 atom-7 atom-9" d="M 246.3,316.7 L 199.2,276.9" style="fill:none;fill-rule:evenodd;stroke:#000000;stroke-width:2.0px;stroke-linecap:butt;stroke-linejoin:miter;stroke-opacity:1" />
<path class="bond-9 atom-9 atom-10" d="M 187.0,281.3 L 113.1,291.4" style="fill:none;fill-rule:evenodd;stroke:#000000;stroke-width:2.0px;stroke-linecap:butt;stroke-linejoin:miter;stroke-opacity:1" />
<path class="bond-11 atom-10 atom-12" d="M 113.1,291.4 L 80.6,224.2" style="fill:none;fill-rule:evenodd;stroke:#000000;stroke-width:2.0px;stroke-linecap:butt;stroke-linejoin:miter;stroke-opacity:1" />
<path class="bond-11 atom-10 atom-12" d="M 119.6,279.2 L 94.2,226.6" style="fill:none;fill-rule:evenodd;stroke:#000000;stroke-width:2.0px;stroke-linecap:butt;stroke-linejoin:miter;stroke-opacity:1" />
<path class="bond-13 atom-12 atom-14" d="M 80.6,224.2 L 102.0,203.7" style="fill:none;fill-rule:evenodd;stroke:#000000;stroke-width:2.0px;stroke-linecap:butt;stroke-linejoin:miter;stroke-opacity:1" />
<path class="bond-13 atom-12 atom-14" d="M 102.0,203.7 L 123.3,183.2" style="fill:none;fill-rule:evenodd;stroke:#CCCC00;stroke-width:2.0px;stroke-linecap:butt;stroke-linejoin:miter;stroke-opacity:1" />
<path class="bond-14 atom-14 atom-15" d="M 145.6,178.5 L 173.0,193.2" style="fill:none;fill-rule:evenodd;stroke:#CCCC00;stroke-width:2.0px;stroke-linecap:butt;stroke-linejoin:miter;stroke-opacity:1" />
<path class="bond-14 atom-14 atom-15" d="M 173.0,193.2 L 200.3,207.8" style="fill:none;fill-rule:evenodd;stroke:#000000;stroke-width:2.0px;stroke-linecap:butt;stroke-linejoin:miter;stroke-opacity:1" />
<path class="bond-15 atom-15 atom-16" d="M 200.3,207.8 L 270.5,182.6" style="fill:none;fill-rule:evenodd;stroke:#000000;stroke-width:2.0px;stroke-linecap:butt;stroke-linejoin:miter;stroke-opacity:1" />
<path class="bond-15 atom-15 atom-16" d="M 210.1,216.2 L 268.2,195.3" style="fill:none;fill-rule:evenodd;stroke:#000000;stroke-width:2.0px;stroke-linecap:butt;stroke-linejoin:miter;stroke-opacity:1" />
<path class="bond-17 atom-6 atom-1" d="M 391.1,328.8 L 412.5,308.3" style="fill:none;fill-rule:evenodd;stroke:#CCCC00;stroke-width:2.0px;stroke-linecap:butt;stroke-linejoin:miter;stroke-opacity:1" />
<path class="bond-17 atom-6 atom-1" d="M 412.5,308.3 L 433.9,287.8" style="fill:none;fill-rule:evenodd;stroke:#000000;stroke-width:2.0px;stroke-linecap:butt;stroke-linejoin:miter;stroke-opacity:1" />
<path class="bond-18 atom-15 atom-9" d="M 200.3,207.8 L 187.0,281.3" style="fill:none;fill-rule:evenodd;stroke:#000000;stroke-width:2.0px;stroke-linecap:butt;stroke-linejoin:miter;stroke-opacity:1" />
<path class="bond-19 atom-16 atom-4" d="M 270.5,182.6 L 327.5,230.7" style="fill:none;fill-rule:evenodd;stroke:#000000;stroke-width:2.0px;stroke-linecap:butt;stroke-linejoin:miter;stroke-opacity:1" />
<path class="atom-6" d="M 371.3 343.4 L 375.5 343.0 Q 375.9 345.1, 377.0 346.1 Q 378.2 347.1, 380.2 347.1 Q 382.2 347.1, 383.3 346.2 Q 384.4 345.3, 384.4 344.1 Q 384.4 343.4, 383.9 342.8 Q 383.5 342.3, 382.4 341.9 Q 381.6 341.6, 378.9 341.0 Q 375.4 340.1, 374.0 338.9 Q 372.1 337.1, 372.1 334.6 Q 372.1 332.9, 373.0 331.5 Q 373.9 330.1, 375.7 329.3 Q 377.4 328.6, 379.9 328.6 Q 383.9 328.6, 385.9 330.4 Q 388.0 332.1, 388.1 335.1 L 383.7 335.3 Q 383.5 333.6, 382.6 332.9 Q 381.7 332.2, 379.8 332.2 Q 377.9 332.2, 376.9 332.9 Q 376.2 333.4, 376.2 334.3 Q 376.2 335.0, 376.8 335.6 Q 377.7 336.2, 380.8 337.0 Q 384.0 337.7, 385.5 338.5 Q 387.0 339.3, 387.8 340.7 Q 388.7 342.1, 388.7 344.1 Q 388.7 345.9, 387.7 347.5 Q 386.6 349.1, 384.8 349.9 Q 382.9 350.7, 380.1 350.7 Q 376.1 350.7, 373.9 348.8 Q 371.7 347.0, 371.3 343.4 " fill="#CCCC00" />
<path class="atom-14" d="M 125.8 176.5 L 130.0 176.0 Q 130.4 178.2, 131.5 179.1 Q 132.7 180.1, 134.7 180.1 Q 136.8 180.1, 137.8 179.3 Q 138.9 178.4, 138.9 177.2 Q 138.9 176.4, 138.4 175.9 Q 138.0 175.4, 136.9 175.0 Q 136.1 174.7, 133.4 174.0 Q 129.9 173.2, 128.5 171.9 Q 126.6 170.2, 126.6 167.6 Q 126.6 166.0, 127.5 164.6 Q 128.4 163.2, 130.2 162.4 Q 131.9 161.7, 134.4 161.7 Q 138.4 161.7, 140.4 163.4 Q 142.5 165.2, 142.6 168.1 L 138.3 168.3 Q 138.0 166.7, 137.1 166.0 Q 136.2 165.2, 134.3 165.2 Q 132.5 165.2, 131.4 166.0 Q 130.7 166.5, 130.7 167.3 Q 130.7 168.1, 131.3 168.6 Q 132.2 169.3, 135.3 170.1 Q 138.5 170.8, 140.0 171.6 Q 141.5 172.4, 142.3 173.8 Q 143.2 175.2, 143.2 177.2 Q 143.2 179.0, 142.2 180.6 Q 141.1 182.2, 139.3 183.0 Q 137.4 183.8, 134.6 183.8 Q 130.6 183.8, 128.4 181.9 Q 126.2 180.0, 125.8 176.5 " fill="#CCCC00" />
</svg>