<?xml version='1.0' encoding='iso-8859-1'?>
<svg xmlns="http://www.w3.org/2000/svg" version="1.1" baseProfile="full" xml:space="preserve" width="142" height="76" viewBox="28 310 142 76">

<rect style="opacity:1.0;fill:#FFFFFF;stroke:none" width="512.0" height="512.0" x="0.0" y="0.0"> </rect>
<path class="bond-1 atom-1 atom-2" d="M 169.0,360.5 L 156.2,333.9" style="fill:none;fill-rule:evenodd;stroke:#000000;stroke-width:2.0px;stroke-linecap:butt;stroke-linejoin:miter;stroke-opacity:1" />
<path class="bond-1 atom-1 atom-2" d="M 163.6,359.6 L 153.6,338.8" style="fill:none;fill-rule:evenodd;stroke:#000000;stroke-width:2.0px;stroke-linecap:butt;stroke-linejoin:miter;stroke-opacity:1" />
<path class="bond-3 atom-2 atom-4" d="M 156.2,333.9 L 126.9,337.9" style="fill:none;fill-rule:evenodd;stroke:#000000;stroke-width:2.0px;stroke-linecap:butt;stroke-linejoin:miter;stroke-opacity:1" />
<path class="bond-4 atom-4 atom-5" d="M 126.9,337.9 L 121.6,367.0" style="fill:none;fill-rule:evenodd;stroke:#000000;stroke-width:2.0px;stroke-linecap:butt;stroke-linejoin:miter;stroke-opacity:1" />
<path class="bond-4 atom-4 atom-5" d="M 130.7,341.9 L 126.6,364.6" style="fill:none;fill-rule:evenodd;stroke:#000000;stroke-width:2.0px;stroke-linecap:butt;stroke-linejoin:miter;stroke-opacity:1" />
<path class="bond-5 atom-5 atom-6" d="M 121.6,367.0 L 132.4,372.8" style="fill:none;fill-rule:evenodd;stroke:#000000;stroke-width:2.0px;stroke-linecap:butt;stroke-linejoin:miter;stroke-opacity:1" />
<path class="bond-5 atom-5 atom-6" d="M 132.4,372.8 L 143.3,378.6" style="fill:none;fill-rule:evenodd;stroke:#CCCC00;stroke-width:2.0px;stroke-linecap:butt;stroke-linejoin:miter;stroke-opacity:1" />
<path class="bond-6 atom-5 atom-7" d="M 121.6,367.0 L 93.8,377.0" style="fill:none;fill-rule:evenodd;stroke:#000000;stroke-width:2.0px;stroke-linecap:butt;stroke-linejoin:miter;stroke-opacity:1" />
<path class="bond-8 atom-7 atom-9" d="M 93.8,377.0 L 71.2,357.9" style="fill:none;fill-rule:evenodd;stroke:#000000;stroke-width:2.0px;stroke-linecap:butt;stroke-linejoin:miter;stroke-opacity:1" />
<path class="bond-8 atom-7 atom-9" d="M 94.7,372.0 L 76.1,356.2" style="fill:none;fill-rule:evenodd;stroke:#000000;stroke-width:2.0px;stroke-linecap:butt;stroke-linejoin:miter;stroke-opacity:1" />
<path class="bond-9 atom-9 atom-10" d="M 71.2,357.9 L 42.0,361.9" style="fill:none;fill-rule:evenodd;stroke:#000000;stroke-width:2.0px;stroke-linecap:butt;stroke-linejoin:miter;stroke-opacity:1" />
<path class="bond-11 atom-10 atom-12" d="M 42.0,361.9 L 29.1,335.3" style="fill:none;fill-rule:evenodd;stroke:#000000;stroke-width:2.0px;stroke-linecap:butt;stroke-linejoin:miter;stroke-opacity:1" />
<path class="bond-11 atom-10 atom-12" d="M 44.5,357.1 L 34.5,336.3" style="fill:none;fill-rule:evenodd;stroke:#000000;stroke-width:2.0px;stroke-linecap:butt;stroke-linejoin:miter;stroke-opacity:1" />
<path class="bond-13 atom-12 atom-14" d="M 29.1,335.3 L 37.6,327.2" style="fill:none;fill-rule:evenodd;stroke:#000000;stroke-width:2.0px;stroke-linecap:butt;stroke-linejoin:miter;stroke-opacity:1" />
<path class="bond-13 atom-12 atom-14" d="M 37.6,327.2 L 46.0,319.1" style="fill:none;fill-rule:evenodd;stroke:#CCCC00;stroke-width:2.0px;stroke-linecap:butt;stroke-linejoin:miter;stroke-opacity:1" />
<path class="bond-14 atom-14 atom-15" d="M 54.8,317.2 L 65.7,323.0" style="fill:none;fill-rule:evenodd;stroke:#CCCC00;stroke-width:2.0px;stroke-linecap:butt;stroke-linejoin:miter;stroke-opacity:1" />
<path class="bond-14 atom-14 atom-15" d="M 65.7,323.0 L 76.5,328.8" style="fill:none;fill-rule:evenodd;stroke:#000000;stroke-width:2.0px;stroke-linecap:butt;stroke-linejoin:miter;stroke-opacity:1" />
<path class="bond-15 atom-15 atom-16" d="M 76.5,328.8 L 104.3,318.8" style="fill:none;fill-rule:evenodd;stroke:#000000;stroke-width:2.0px;stroke-linecap:butt;stroke-linejoin:miter;stroke-opacity:1" />
<path class="bond-15 atom-15 atom-16" d="M 80.4,332.2 L 103.4,323.9" style="fill:none;fill-rule:evenodd;stroke:#000000;stroke-width:2.0px;stroke-linecap:butt;stroke-linejoin:miter;stroke-opacity:1" />
<path class="bond-17 atom-6 atom-1" d="M 152.1,376.8 L 160.6,368.6" style="fill:none;fill-rule:evenodd;stroke:#CCCC00;stroke-width:2.0px;stroke-linecap:butt;stroke-linejoin:miter;stroke-opacity:1" />
<path class="bond-17 atom-6 atom-1" d="M 160.6,368.6 L 169.0,360.5" style="fill:none;fill-rule:evenodd;stroke:#000000;stroke-width:2.0px;stroke-linecap:butt;stroke-linejoin:miter;stroke-opacity:1" />
<path class="bond-18 atom-15 atom-9" d="M 76.5,328.8 L 71.2,357.9" style="fill:none;fill-rule:evenodd;stroke:#000000;stroke-width:2.0px;stroke-linecap:butt;stroke-linejoin:miter;stroke-opacity:1" />
<path class="bond-19 atom-16 atom-4" d="M 104.3,318.8 L 126.9,337.9" style="fill:none;fill-rule:evenodd;stroke:#000000;stroke-width:2.0px;stroke-linecap:butt;stroke-linejoin:miter;stroke-opacity:1" />
<path class="atom-6" d="M 144.2 382.5 L 145.9 382.4 Q 146.0 383.2, 146.5 383.6 Q 147.0 384.0, 147.7 384.0 Q 148.6 384.0, 149.0 383.7 Q 149.4 383.3, 149.4 382.8 Q 149.4 382.5, 149.2 382.3 Q 149.1 382.1, 148.6 382.0 Q 148.3 381.9, 147.2 381.6 Q 145.9 381.3, 145.3 380.8 Q 144.5 380.1, 144.5 379.1 Q 144.5 378.4, 144.9 377.8 Q 145.3 377.3, 146.0 377.0 Q 146.7 376.7, 147.6 376.7 Q 149.2 376.7, 150.0 377.4 Q 150.8 378.1, 150.9 379.3 L 149.2 379.3 Q 149.1 378.7, 148.7 378.4 Q 148.3 378.1, 147.6 378.1 Q 146.9 378.1, 146.4 378.4 Q 146.2 378.6, 146.2 378.9 Q 146.2 379.2, 146.4 379.4 Q 146.8 379.7, 148.0 380.0 Q 149.2 380.3, 149.8 380.6 Q 150.4 380.9, 150.8 381.5 Q 151.1 382.0, 151.1 382.8 Q 151.1 383.6, 150.7 384.2 Q 150.3 384.8, 149.6 385.1 Q 148.8 385.4, 147.7 385.4 Q 146.1 385.4, 145.3 384.7 Q 144.4 384.0, 144.2 382.5 " fill="#CCCC00" />
<path class="atom-14" d="M 47.0 316.4 L 48.7 316.3 Q 48.8 317.1, 49.3 317.5 Q 49.7 317.9, 50.5 317.9 Q 51.3 317.9, 51.7 317.5 Q 52.2 317.2, 52.2 316.7 Q 52.2 316.4, 52.0 316.2 Q 51.8 316.0, 51.4 315.8 Q 51.1 315.7, 50.0 315.5 Q 48.6 315.1, 48.1 314.6 Q 47.3 313.9, 47.3 312.9 Q 47.3 312.3, 47.7 311.7 Q 48.0 311.2, 48.7 310.9 Q 49.4 310.6, 50.4 310.6 Q 52.0 310.6, 52.8 311.3 Q 53.6 312.0, 53.6 313.1 L 51.9 313.2 Q 51.8 312.6, 51.4 312.3 Q 51.1 312.0, 50.4 312.0 Q 49.6 312.0, 49.2 312.3 Q 48.9 312.5, 48.9 312.8 Q 48.9 313.1, 49.2 313.3 Q 49.5 313.6, 50.8 313.9 Q 52.0 314.2, 52.6 314.5 Q 53.2 314.8, 53.5 315.4 Q 53.9 315.9, 53.9 316.7 Q 53.9 317.4, 53.5 318.1 Q 53.1 318.7, 52.3 319.0 Q 51.6 319.3, 50.5 319.3 Q 48.9 319.3, 48.0 318.6 Q 47.2 317.8, 47.0 316.4 " fill="#CCCC00" />
</svg>