<?xml version='1.0' encoding='iso-8859-1'?>
<svg xmlns="http://www.w3.org/2000/svg" version="1.1" baseProfile="full" xml:space="preserve" width="512" height="436" viewBox="0 38 512 436">

<rect style="opacity:1.0;fill:#FFFFFF;stroke:none" width="512.0" height="512.0" x="0.0" y="0.0"> </rect>
<path class="bond-1 atom-1 atom-2" d="M 71.5,337.9 L 168.1,306.5" style="fill:none;fill-rule:evenodd;stroke:#000000;stroke-width:2.0px;stroke-linecap:butt;stroke-linejoin:miter;stroke-opacity:1" />
<path class="bond-1 atom-1 atom-2" d="M 77.3,320.0 L 152.8,295.5" style="fill:none;fill-rule:evenodd;stroke:#000000;stroke-width:2.0px;stroke-linecap:butt;stroke-linejoin:miter;stroke-opacity:1" />
<path class="bond-2 atom-2 atom-3" d="M 168.1,306.5 L 168.1,205.0" style="fill:none;fill-rule:evenodd;stroke:#000000;stroke-width:2.0px;stroke-linecap:butt;stroke-linejoin:miter;stroke-opacity:1" />
<path class="bond-3 atom-3 atom-4" d="M 168.1,205.0 L 71.5,173.6" style="fill:none;fill-rule:evenodd;stroke:#000000;stroke-width:2.0px;stroke-linecap:butt;stroke-linejoin:miter;stroke-opacity:1" />
<path class="bond-3 atom-3 atom-4" d="M 152.8,216.1 L 77.3,191.5" style="fill:none;fill-rule:evenodd;stroke:#000000;stroke-width:2.0px;stroke-linecap:butt;stroke-linejoin:miter;stroke-opacity:1" />
<path class="bond-5 atom-4 atom-6" d="M 71.5,173.6 L 48.2,205.7" style="fill:none;fill-rule:evenodd;stroke:#000000;stroke-width:2.0px;stroke-linecap:butt;stroke-linejoin:miter;stroke-opacity:1" />
<path class="bond-5 atom-4 atom-6" d="M 48.2,205.7 L 24.8,237.8" style="fill:none;fill-rule:evenodd;stroke:#CCCC00;stroke-width:2.0px;stroke-linecap:butt;stroke-linejoin:miter;stroke-opacity:1" />
<path class="bond-6 atom-3 atom-7" d="M 168.1,205.0 L 256.0,154.2" style="fill:none;fill-rule:evenodd;stroke:#000000;stroke-width:2.0px;stroke-linecap:butt;stroke-linejoin:miter;stroke-opacity:1" />
<path class="bond-7 atom-7 atom-8" d="M 263.6,158.6 L 263.6,114.8" style="fill:none;fill-rule:evenodd;stroke:#000000;stroke-width:2.0px;stroke-linecap:butt;stroke-linejoin:miter;stroke-opacity:1" />
<path class="bond-7 atom-7 atom-8" d="M 263.6,114.8 L 263.6,71.1" style="fill:none;fill-rule:evenodd;stroke:#FF0000;stroke-width:2.0px;stroke-linecap:butt;stroke-linejoin:miter;stroke-opacity:1" />
<path class="bond-7 atom-7 atom-8" d="M 248.4,158.6 L 248.4,114.8" style="fill:none;fill-rule:evenodd;stroke:#000000;stroke-width:2.0px;stroke-linecap:butt;stroke-linejoin:miter;stroke-opacity:1" />
<path class="bond-7 atom-7 atom-8" d="M 248.4,114.8 L 248.4,71.1" style="fill:none;fill-rule:evenodd;stroke:#FF0000;stroke-width:2.0px;stroke-linecap:butt;stroke-linejoin:miter;stroke-opacity:1" />
<path class="bond-8 atom-7 atom-9" d="M 256.0,154.2 L 343.9,205.0" style="fill:none;fill-rule:evenodd;stroke:#000000;stroke-width:2.0px;stroke-linecap:butt;stroke-linejoin:miter;stroke-opacity:1" />
<path class="bond-9 atom-9 atom-10" d="M 343.9,205.0 L 440.5,173.6" style="fill:none;fill-rule:evenodd;stroke:#000000;stroke-width:2.0px;stroke-linecap:butt;stroke-linejoin:miter;stroke-opacity:1" />
<path class="bond-9 atom-9 atom-10" d="M 359.2,216.1 L 434.7,191.5" style="fill:none;fill-rule:evenodd;stroke:#000000;stroke-width:2.0px;stroke-linecap:butt;stroke-linejoin:miter;stroke-opacity:1" />
<path class="bond-11 atom-10 atom-12" d="M 440.5,173.6 L 463.8,205.7" style="fill:none;fill-rule:evenodd;stroke:#000000;stroke-width:2.0px;stroke-linecap:butt;stroke-linejoin:miter;stroke-opacity:1" />
<path class="bond-11 atom-10 atom-12" d="M 463.8,205.7 L 487.2,237.8" style="fill:none;fill-rule:evenodd;stroke:#CCCC00;stroke-width:2.0px;stroke-linecap:butt;stroke-linejoin:miter;stroke-opacity:1" />
<path class="bond-12 atom-12 atom-13" d="M 486.8,274.2 L 463.6,306.0" style="fill:none;fill-rule:evenodd;stroke:#CCCC00;stroke-width:2.0px;stroke-linecap:butt;stroke-linejoin:miter;stroke-opacity:1" />
<path class="bond-12 atom-12 atom-13" d="M 463.6,306.0 L 440.5,337.9" style="fill:none;fill-rule:evenodd;stroke:#000000;stroke-width:2.0px;stroke-linecap:butt;stroke-linejoin:miter;stroke-opacity:1" />
<path class="bond-14 atom-13 atom-15" d="M 440.5,337.9 L 343.9,306.5" style="fill:none;fill-rule:evenodd;stroke:#000000;stroke-width:2.0px;stroke-linecap:butt;stroke-linejoin:miter;stroke-opacity:1" />
<path class="bond-14 atom-13 atom-15" d="M 434.7,320.0 L 359.2,295.5" style="fill:none;fill-rule:evenodd;stroke:#000000;stroke-width:2.0px;stroke-linecap:butt;stroke-linejoin:miter;stroke-opacity:1" />
<path class="bond-15 atom-15 atom-16" d="M 343.9,306.5 L 256.0,357.3" style="fill:none;fill-rule:evenodd;stroke:#000000;stroke-width:2.0px;stroke-linecap:butt;stroke-linejoin:miter;stroke-opacity:1" />
<path class="bond-16 atom-16 atom-17" d="M 248.4,352.9 L 248.4,396.9" style="fill:none;fill-rule:evenodd;stroke:#000000;stroke-width:2.0px;stroke-linecap:butt;stroke-linejoin:miter;stroke-opacity:1" />
<path class="bond-16 atom-16 atom-17" d="M 248.4,396.9 L 248.4,440.9" style="fill:none;fill-rule:evenodd;stroke:#FF0000;stroke-width:2.0px;stroke-linecap:butt;stroke-linejoin:miter;stroke-opacity:1" />
<path class="bond-16 atom-16 atom-17" d="M 263.6,352.9 L 263.6,396.9" style="fill:none;fill-rule:evenodd;stroke:#000000;stroke-width:2.0px;stroke-linecap:butt;stroke-linejoin:miter;stroke-opacity:1" />
<path class="bond-16 atom-16 atom-17" d="M 263.6,396.9 L 263.6,440.9" style="fill:none;fill-rule:evenodd;stroke:#FF0000;stroke-width:2.0px;stroke-linecap:butt;stroke-linejoin:miter;stroke-opacity:1" />
<path class="bond-17 atom-6 atom-1" d="M 25.2,274.2 L 48.4,306.0" style="fill:none;fill-rule:evenodd;stroke:#CCCC00;stroke-width:2.0px;stroke-linecap:butt;stroke-linejoin:miter;stroke-opacity:1" />
<path class="bond-17 atom-6 atom-1" d="M 48.4,306.0 L 71.5,337.9" style="fill:none;fill-rule:evenodd;stroke:#000000;stroke-width:2.0px;stroke-linecap:butt;stroke-linejoin:miter;stroke-opacity:1" />
<path class="bond-18 atom-15 atom-9" d="M 343.9,306.5 L 343.9,205.0" style="fill:none;fill-rule:evenodd;stroke:#000000;stroke-width:2.0px;stroke-linecap:butt;stroke-linejoin:miter;stroke-opacity:1" />
<path class="bond-19 atom-16 atom-2" d="M 256.0,357.3 L 168.1,306.5" style="fill:none;fill-rule:evenodd;stroke:#000000;stroke-width:2.0px;stroke-linecap:butt;stroke-linejoin:miter;stroke-opacity:1" />
<path d="M 251.6,156.8 L 256.0,154.2 L 260.4,156.8" style="fill:none;stroke:#000000;stroke-width:2.0px;stroke-linecap:butt;stroke-linejoin:miter;stroke-opacity:1;" />
<path d="M 260.4,354.8 L 256.0,357.3 L 251.6,354.8" style="fill:none;stroke:#000000;stroke-width:2.0px;stroke-linecap:butt;stroke-linejoin:miter;stroke-opacity:1;" />
<path class="atom-6" d="M 0.2 261.0 L 5.8 260.5 Q 6.3 263.3, 7.9 264.6 Q 9.4 265.9, 12.1 265.9 Q 14.8 265.9, 16.3 264.8 Q 17.7 263.6, 17.7 262.0 Q 17.7 261.0, 17.1 260.3 Q 16.5 259.6, 15.0 259.0 Q 14.0 258.7, 10.4 257.8 Q 5.7 256.6, 3.9 254.9 Q 1.2 252.6, 1.2 249.2 Q 1.2 247.0, 2.4 245.1 Q 3.7 243.2, 6.0 242.2 Q 8.4 241.2, 11.7 241.2 Q 17.1 241.2, 19.8 243.6 Q 22.5 245.9, 22.6 249.9 L 16.9 250.1 Q 16.5 247.9, 15.3 247.0 Q 14.0 246.0, 11.6 246.0 Q 9.1 246.0, 7.7 247.0 Q 6.7 247.7, 6.7 248.8 Q 6.7 249.8, 7.6 250.5 Q 8.7 251.4, 12.9 252.4 Q 17.1 253.4, 19.1 254.5 Q 21.2 255.6, 22.3 257.4 Q 23.5 259.3, 23.5 262.0 Q 23.5 264.4, 22.1 266.6 Q 20.7 268.7, 18.2 269.8 Q 15.7 270.8, 12.0 270.8 Q 6.6 270.8, 3.7 268.3 Q 0.7 265.8, 0.2 261.0 " fill="#CCCC00" />
<path class="atom-8" d="M 242.1 53.1 Q 242.1 48.7, 243.4 45.8 Q 244.4 43.6, 246.1 41.8 Q 247.8 40.1, 249.8 39.3 Q 252.5 38.1, 256.0 38.1 Q 262.3 38.1, 266.1 42.0 Q 269.9 46.0, 269.9 53.0 Q 269.9 59.9, 266.1 63.8 Q 262.3 67.7, 256.0 67.7 Q 249.7 67.7, 245.9 63.8 Q 242.1 59.9, 242.1 53.1 M 248.1 52.9 Q 248.1 57.8, 250.3 60.3 Q 252.6 62.8, 256.0 62.8 Q 259.5 62.8, 261.7 60.3 Q 263.9 57.8, 263.9 52.8 Q 263.9 47.9, 261.7 45.5 Q 259.6 43.1, 256.0 43.1 Q 252.4 43.1, 250.3 45.5 Q 248.1 48.0, 248.1 52.9 " fill="#FF0000" />
<path class="atom-12" d="M 488.5 261.0 L 494.2 260.5 Q 494.7 263.3, 496.2 264.6 Q 497.8 265.9, 500.4 265.9 Q 503.2 265.9, 504.6 264.8 Q 506.0 263.6, 506.0 262.0 Q 506.0 261.0, 505.4 260.3 Q 504.8 259.6, 503.4 259.0 Q 502.3 258.7, 498.7 257.8 Q 494.1 256.6, 492.2 254.9 Q 489.6 252.6, 489.6 249.2 Q 489.6 247.0, 490.8 245.1 Q 492.1 243.2, 494.4 242.2 Q 496.7 241.2, 500.0 241.2 Q 505.4 241.2, 508.1 243.6 Q 510.9 245.9, 511.0 249.9 L 505.2 250.1 Q 504.8 247.9, 503.6 247.0 Q 502.4 246.0, 500.0 246.0 Q 497.4 246.0, 496.0 247.0 Q 495.1 247.7, 495.1 248.8 Q 495.1 249.8, 496.0 250.5 Q 497.1 251.4, 501.3 252.4 Q 505.5 253.4, 507.5 254.5 Q 509.5 255.6, 510.7 257.4 Q 511.8 259.3, 511.8 262.0 Q 511.8 264.4, 510.5 266.6 Q 509.1 268.7, 506.6 269.8 Q 504.1 270.8, 500.4 270.8 Q 494.9 270.8, 492.0 268.3 Q 489.1 265.8, 488.5 261.0 " fill="#CCCC00" />
<path class="atom-17" d="M 242.1 459.2 Q 242.1 454.9, 243.4 451.9 Q 244.4 449.7, 246.1 448.0 Q 247.8 446.2, 249.8 445.4 Q 252.5 444.3, 256.0 444.3 Q 262.3 444.3, 266.1 448.2 Q 269.9 452.1, 269.9 459.1 Q 269.9 466.0, 266.1 470.0 Q 262.3 473.9, 256.0 473.9 Q 249.7 473.9, 245.9 470.0 Q 242.1 466.1, 242.1 459.2 M 248.1 459.1 Q 248.1 463.9, 250.3 466.4 Q 252.6 468.9, 256.0 468.9 Q 259.5 468.9, 261.7 466.5 Q 263.9 464.0, 263.9 459.0 Q 263.9 454.1, 261.7 451.6 Q 259.6 449.2, 256.0 449.2 Q 252.4 449.2, 250.3 451.7 Q 248.1 454.1, 248.1 459.1 " fill="#FF0000" />
</svg>