<?xml version='1.0' encoding='iso-8859-1'?>
<svg xmlns="http://www.w3.org/2000/svg" version="1.1" baseProfile="full" xml:space="preserve" width="146" height="128" viewBox="0 283 146 128">

<rect style="opacity:1.0;fill:#FFFFFF;stroke:none" width="512.0" height="512.0" x="0.0" y="0.0"> </rect>
<path class="bond-1 atom-1 atom-2" d="M 17.4,370.9 L 45.5,361.8" style="fill:none;fill-rule:evenodd;stroke:#000000;stroke-width:2.0px;stroke-linecap:butt;stroke-linejoin:miter;stroke-opacity:1" />
<path class="bond-1 atom-1 atom-2" d="M 19.1,365.7 L 41.1,358.6" style="fill:none;fill-rule:evenodd;stroke:#000000;stroke-width:2.0px;stroke-linecap:butt;stroke-linejoin:miter;stroke-opacity:1" />
<path class="bond-2 atom-2 atom-3" d="M 45.5,361.8 L 45.5,332.2" style="fill:none;fill-rule:evenodd;stroke:#000000;stroke-width:2.0px;stroke-linecap:butt;stroke-linejoin:miter;stroke-opacity:1" />
<path class="bond-3 atom-3 atom-4" d="M 45.5,332.2 L 17.4,323.1" style="fill:none;fill-rule:evenodd;stroke:#000000;stroke-width:2.0px;stroke-linecap:butt;stroke-linejoin:miter;stroke-opacity:1" />
<path class="bond-3 atom-3 atom-4" d="M 41.1,335.4 L 19.1,328.3" style="fill:none;fill-rule:evenodd;stroke:#000000;stroke-width:2.0px;stroke-linecap:butt;stroke-linejoin:miter;stroke-opacity:1" />
<path class="bond-5 atom-4 atom-6" d="M 17.4,323.1 L 10.6,332.4" style="fill:none;fill-rule:evenodd;stroke:#000000;stroke-width:2.0px;stroke-linecap:butt;stroke-linejoin:miter;stroke-opacity:1" />
<path class="bond-5 atom-4 atom-6" d="M 10.6,332.4 L 3.8,341.7" style="fill:none;fill-rule:evenodd;stroke:#CCCC00;stroke-width:2.0px;stroke-linecap:butt;stroke-linejoin:miter;stroke-opacity:1" />
<path class="bond-6 atom-3 atom-7" d="M 45.5,332.2 L 71.1,317.4" style="fill:none;fill-rule:evenodd;stroke:#000000;stroke-width:2.0px;stroke-linecap:butt;stroke-linejoin:miter;stroke-opacity:1" />
<path class="bond-7 atom-7 atom-8" d="M 73.3,318.7 L 73.3,306.0" style="fill:none;fill-rule:evenodd;stroke:#000000;stroke-width:2.0px;stroke-linecap:butt;stroke-linejoin:miter;stroke-opacity:1" />
<path class="bond-7 atom-7 atom-8" d="M 73.3,306.0 L 73.3,293.3" style="fill:none;fill-rule:evenodd;stroke:#FF0000;stroke-width:2.0px;stroke-linecap:butt;stroke-linejoin:miter;stroke-opacity:1" />
<path class="bond-7 atom-7 atom-8" d="M 68.9,318.7 L 68.9,306.0" style="fill:none;fill-rule:evenodd;stroke:#000000;stroke-width:2.0px;stroke-linecap:butt;stroke-linejoin:miter;stroke-opacity:1" />
<path class="bond-7 atom-7 atom-8" d="M 68.9,306.0 L 68.9,293.3" style="fill:none;fill-rule:evenodd;stroke:#FF0000;stroke-width:2.0px;stroke-linecap:butt;stroke-linejoin:miter;stroke-opacity:1" />
<path class="bond-8 atom-7 atom-9" d="M 71.1,317.4 L 96.7,332.2" style="fill:none;fill-rule:evenodd;stroke:#000000;stroke-width:2.0px;stroke-linecap:butt;stroke-linejoin:miter;stroke-opacity:1" />
<path class="bond-9 atom-9 atom-10" d="M 96.7,332.2 L 124.8,323.1" style="fill:none;fill-rule:evenodd;stroke:#000000;stroke-width:2.0px;stroke-linecap:butt;stroke-linejoin:miter;stroke-opacity:1" />
<path class="bond-9 atom-9 atom-10" d="M 101.1,335.4 L 123.1,328.3" style="fill:none;fill-rule:evenodd;stroke:#000000;stroke-width:2.0px;stroke-linecap:butt;stroke-linejoin:miter;stroke-opacity:1" />
<path class="bond-11 atom-10 atom-12" d="M 124.8,323.1 L 131.6,332.4" style="fill:none;fill-rule:evenodd;stroke:#000000;stroke-width:2.0px;stroke-linecap:butt;stroke-linejoin:miter;stroke-opacity:1" />
<path class="bond-11 atom-10 atom-12" d="M 131.6,332.4 L 138.3,341.7" style="fill:none;fill-rule:evenodd;stroke:#CCCC00;stroke-width:2.0px;stroke-linecap:butt;stroke-linejoin:miter;stroke-opacity:1" />
<path class="bond-12 atom-12 atom-13" d="M 138.2,352.4 L 131.5,361.7" style="fill:none;fill-rule:evenodd;stroke:#CCCC00;stroke-width:2.0px;stroke-linecap:butt;stroke-linejoin:miter;stroke-opacity:1" />
<path class="bond-12 atom-12 atom-13" d="M 131.5,361.7 L 124.8,370.9" style="fill:none;fill-rule:evenodd;stroke:#000000;stroke-width:2.0px;stroke-linecap:butt;stroke-linejoin:miter;stroke-opacity:1" />
<path class="bond-14 atom-13 atom-15" d="M 124.8,370.9 L 96.7,361.8" style="fill:none;fill-rule:evenodd;stroke:#000000;stroke-width:2.0px;stroke-linecap:butt;stroke-linejoin:miter;stroke-opacity:1" />
<path class="bond-14 atom-13 atom-15" d="M 123.1,365.7 L 101.1,358.6" style="fill:none;fill-rule:evenodd;stroke:#000000;stroke-width:2.0px;stroke-linecap:butt;stroke-linejoin:miter;stroke-opacity:1" />
<path class="bond-15 atom-15 atom-16" d="M 96.7,361.8 L 71.1,376.6" style="fill:none;fill-rule:evenodd;stroke:#000000;stroke-width:2.0px;stroke-linecap:butt;stroke-linejoin:miter;stroke-opacity:1" />
<path class="bond-16 atom-16 atom-17" d="M 68.9,375.3 L 68.9,388.1" style="fill:none;fill-rule:evenodd;stroke:#000000;stroke-width:2.0px;stroke-linecap:butt;stroke-linejoin:miter;stroke-opacity:1" />
<path class="bond-16 atom-16 atom-17" d="M 68.9,388.1 L 68.9,400.8" style="fill:none;fill-rule:evenodd;stroke:#FF0000;stroke-width:2.0px;stroke-linecap:butt;stroke-linejoin:miter;stroke-opacity:1" />
<path class="bond-16 atom-16 atom-17" d="M 73.3,375.3 L 73.3,388.1" style="fill:none;fill-rule:evenodd;stroke:#000000;stroke-width:2.0px;stroke-linecap:butt;stroke-linejoin:miter;stroke-opacity:1" />
<path class="bond-16 atom-16 atom-17" d="M 73.3,388.1 L 73.3,400.8" style="fill:none;fill-rule:evenodd;stroke:#FF0000;stroke-width:2.0px;stroke-linecap:butt;stroke-linejoin:miter;stroke-opacity:1" />
<path class="bond-17 atom-6 atom-1" d="M 3.9,352.4 L 10.7,361.7" style="fill:none;fill-rule:evenodd;stroke:#CCCC00;stroke-width:2.0px;stroke-linecap:butt;stroke-linejoin:miter;stroke-opacity:1" />
<path class="bond-17 atom-6 atom-1" d="M 10.7,361.7 L 17.4,370.9" style="fill:none;fill-rule:evenodd;stroke:#000000;stroke-width:2.0px;stroke-linecap:butt;stroke-linejoin:miter;stroke-opacity:1" />
<path class="bond-18 atom-15 atom-9" d="M 96.7,361.8 L 96.7,332.2" style="fill:none;fill-rule:evenodd;stroke:#000000;stroke-width:2.0px;stroke-linecap:butt;stroke-linejoin:miter;stroke-opacity:1" />
<path class="bond-19 atom-16 atom-2" d="M 71.1,376.6 L 45.5,361.8" style="fill:none;fill-rule:evenodd;stroke:#000000;stroke-width:2.0px;stroke-linecap:butt;stroke-linejoin:miter;stroke-opacity:1" />
<path d="M 69.8,318.2 L 71.1,317.4 L 72.4,318.2" style="fill:none;stroke:#000000;stroke-width:2.0px;stroke-linecap:butt;stroke-linejoin:miter;stroke-opacity:1;" />
<path d="M 72.4,375.8 L 71.1,376.6 L 69.8,375.8" style="fill:none;stroke:#000000;stroke-width:2.0px;stroke-linecap:butt;stroke-linejoin:miter;stroke-opacity:1;" />
<path class="atom-6" d="M -3.4 348.5 L -1.8 348.4 Q -1.6 349.2, -1.2 349.6 Q -0.7 350.0, 0.1 350.0 Q 0.9 350.0, 1.3 349.7 Q 1.7 349.3, 1.7 348.8 Q 1.7 348.5, 1.6 348.3 Q 1.4 348.1, 0.9 348.0 Q 0.6 347.9, -0.4 347.6 Q -1.8 347.3, -2.4 346.8 Q -3.1 346.1, -3.1 345.1 Q -3.1 344.4, -2.8 343.8 Q -2.4 343.3, -1.7 343.0 Q -1.0 342.7, -0.0 342.7 Q 1.5 342.7, 2.3 343.4 Q 3.2 344.1, 3.2 345.3 L 1.5 345.3 Q 1.4 344.7, 1.0 344.4 Q 0.7 344.1, -0.1 344.1 Q -0.8 344.1, -1.2 344.4 Q -1.5 344.6, -1.5 344.9 Q -1.5 345.2, -1.2 345.5 Q -0.9 345.7, 0.3 346.0 Q 1.6 346.3, 2.2 346.6 Q 2.8 346.9, 3.1 347.5 Q 3.4 348.0, 3.4 348.8 Q 3.4 349.6, 3.0 350.2 Q 2.6 350.8, 1.9 351.1 Q 1.2 351.4, 0.1 351.4 Q -1.6 351.4, -2.4 350.7 Q -3.3 350.0, -3.4 348.5 " fill="#CCCC00" />
<path class="atom-8" d="M 67.0 288.0 Q 67.0 286.7, 67.4 285.8 Q 67.7 285.2, 68.2 284.7 Q 68.7 284.2, 69.3 283.9 Q 70.0 283.6, 71.1 283.6 Q 72.9 283.6, 74.1 284.7 Q 75.2 285.9, 75.2 288.0 Q 75.2 290.0, 74.1 291.2 Q 73.0 292.3, 71.1 292.3 Q 69.2 292.3, 68.1 291.2 Q 67.0 290.0, 67.0 288.0 M 68.7 287.9 Q 68.7 289.4, 69.4 290.1 Q 70.1 290.9, 71.1 290.9 Q 72.1 290.9, 72.8 290.1 Q 73.4 289.4, 73.4 287.9 Q 73.4 286.5, 72.8 285.7 Q 72.2 285.0, 71.1 285.0 Q 70.0 285.0, 69.4 285.8 Q 68.7 286.5, 68.7 287.9 " fill="#FF0000" />
<path class="atom-12" d="M 138.7 348.5 L 140.4 348.4 Q 140.5 349.2, 141.0 349.6 Q 141.5 350.0, 142.2 350.0 Q 143.1 350.0, 143.5 349.7 Q 143.9 349.3, 143.9 348.8 Q 143.9 348.5, 143.7 348.3 Q 143.6 348.1, 143.1 348.0 Q 142.8 347.9, 141.8 347.6 Q 140.4 347.3, 139.8 346.8 Q 139.0 346.1, 139.0 345.1 Q 139.0 344.4, 139.4 343.8 Q 139.8 343.3, 140.5 343.0 Q 141.2 342.7, 142.1 342.7 Q 143.7 342.7, 144.5 343.4 Q 145.3 344.1, 145.4 345.3 L 143.7 345.3 Q 143.6 344.7, 143.2 344.4 Q 142.8 344.1, 142.1 344.1 Q 141.4 344.1, 140.9 344.4 Q 140.7 344.6, 140.7 344.9 Q 140.7 345.2, 140.9 345.5 Q 141.3 345.7, 142.5 346.0 Q 143.7 346.3, 144.3 346.6 Q 144.9 346.9, 145.3 347.5 Q 145.6 348.0, 145.6 348.8 Q 145.6 349.6, 145.2 350.2 Q 144.8 350.8, 144.1 351.1 Q 143.3 351.4, 142.2 351.4 Q 140.6 351.4, 139.8 350.7 Q 138.9 350.0, 138.7 348.5 " fill="#CCCC00" />
<path class="atom-17" d="M 67.0 406.2 Q 67.0 404.9, 67.4 404.1 Q 67.7 403.4, 68.2 402.9 Q 68.7 402.4, 69.3 402.1 Q 70.0 401.8, 71.1 401.8 Q 72.9 401.8, 74.1 403.0 Q 75.2 404.1, 75.2 406.2 Q 75.2 408.2, 74.1 409.4 Q 73.0 410.6, 71.1 410.6 Q 69.2 410.6, 68.1 409.4 Q 67.0 408.3, 67.0 406.2 M 68.7 406.2 Q 68.7 407.6, 69.4 408.4 Q 70.1 409.1, 71.1 409.1 Q 72.1 409.1, 72.8 408.4 Q 73.4 407.6, 73.4 406.2 Q 73.4 404.7, 72.8 404.0 Q 72.2 403.3, 71.1 403.3 Q 70.0 403.3, 69.4 404.0 Q 68.7 404.7, 68.7 406.2 " fill="#FF0000" />
</svg>