<?xml version='1.0' encoding='iso-8859-1'?>
<svg xmlns="http://www.w3.org/2000/svg" version="1.1" baseProfile="full" xml:space="preserve" width="176" height="123" viewBox="25 277 176 123">

<rect style="opacity:1.0;fill:#FFFFFF;stroke:none" width="512.0" height="512.0" x="0.0" y="0.0"> </rect>
<path class="bond-1 atom-1 atom-2" d="M 70.7,378.9 L 83.1,376.8" style="fill:none;fill-rule:evenodd;stroke:#0000FF;stroke-width:2.0px;stroke-linecap:butt;stroke-linejoin:miter;stroke-opacity:1" />
<path class="bond-1 atom-1 atom-2" d="M 83.1,376.8 L 95.5,374.7" style="fill:none;fill-rule:evenodd;stroke:#000000;stroke-width:2.0px;stroke-linecap:butt;stroke-linejoin:miter;stroke-opacity:1" />
<path class="bond-2 atom-2 atom-3" d="M 92.8,375.1 L 101.4,383.6" style="fill:none;fill-rule:evenodd;stroke:#000000;stroke-width:2.0px;stroke-linecap:butt;stroke-linejoin:miter;stroke-opacity:1" />
<path class="bond-2 atom-2 atom-3" d="M 101.4,383.6 L 110.0,392.0" style="fill:none;fill-rule:evenodd;stroke:#FF0000;stroke-width:2.0px;stroke-linecap:butt;stroke-linejoin:miter;stroke-opacity:1" />
<path class="bond-2 atom-2 atom-3" d="M 95.9,372.0 L 104.5,380.4" style="fill:none;fill-rule:evenodd;stroke:#000000;stroke-width:2.0px;stroke-linecap:butt;stroke-linejoin:miter;stroke-opacity:1" />
<path class="bond-2 atom-2 atom-3" d="M 104.5,380.4 L 113.1,388.8" style="fill:none;fill-rule:evenodd;stroke:#FF0000;stroke-width:2.0px;stroke-linecap:butt;stroke-linejoin:miter;stroke-opacity:1" />
<path class="bond-3 atom-2 atom-4" d="M 95.5,374.7 L 99.8,345.4" style="fill:none;fill-rule:evenodd;stroke:#000000;stroke-width:2.0px;stroke-linecap:butt;stroke-linejoin:miter;stroke-opacity:1" />
<path class="bond-4 atom-4 atom-5" d="M 99.8,345.4 L 73.3,332.3" style="fill:none;fill-rule:evenodd;stroke:#000000;stroke-width:2.0px;stroke-linecap:butt;stroke-linejoin:miter;stroke-opacity:1" />
<path class="bond-5 atom-5 atom-6" d="M 73.3,332.3 L 52.7,353.4" style="fill:none;fill-rule:evenodd;stroke:#000000;stroke-width:2.0px;stroke-linecap:butt;stroke-linejoin:miter;stroke-opacity:1" />
<path class="bond-5 atom-5 atom-6" d="M 67.9,331.5 L 51.8,348.0" style="fill:none;fill-rule:evenodd;stroke:#000000;stroke-width:2.0px;stroke-linecap:butt;stroke-linejoin:miter;stroke-opacity:1" />
<path class="bond-6 atom-6 atom-7" d="M 52.7,353.4 L 26.2,340.3" style="fill:none;fill-rule:evenodd;stroke:#000000;stroke-width:2.0px;stroke-linecap:butt;stroke-linejoin:miter;stroke-opacity:1" />
<path class="bond-8 atom-7 atom-9" d="M 26.2,340.3 L 30.5,311.1" style="fill:none;fill-rule:evenodd;stroke:#000000;stroke-width:2.0px;stroke-linecap:butt;stroke-linejoin:miter;stroke-opacity:1" />
<path class="bond-8 atom-7 atom-9" d="M 31.0,337.8 L 34.4,314.9" style="fill:none;fill-rule:evenodd;stroke:#000000;stroke-width:2.0px;stroke-linecap:butt;stroke-linejoin:miter;stroke-opacity:1" />
<path class="bond-10 atom-9 atom-11" d="M 30.5,311.1 L 42.9,309.0" style="fill:none;fill-rule:evenodd;stroke:#000000;stroke-width:2.0px;stroke-linecap:butt;stroke-linejoin:miter;stroke-opacity:1" />
<path class="bond-10 atom-9 atom-11" d="M 42.9,309.0 L 55.2,306.9" style="fill:none;fill-rule:evenodd;stroke:#CCCC00;stroke-width:2.0px;stroke-linecap:butt;stroke-linejoin:miter;stroke-opacity:1" />
<path class="bond-11 atom-4 atom-12" d="M 99.8,345.4 L 126.0,331.7" style="fill:none;fill-rule:evenodd;stroke:#000000;stroke-width:2.0px;stroke-linecap:butt;stroke-linejoin:miter;stroke-opacity:1" />
<path class="bond-11 atom-4 atom-12" d="M 103.9,348.3 L 126.1,336.7" style="fill:none;fill-rule:evenodd;stroke:#000000;stroke-width:2.0px;stroke-linecap:butt;stroke-linejoin:miter;stroke-opacity:1" />
<path class="bond-12 atom-12 atom-13" d="M 126.0,331.7 L 130.3,302.5" style="fill:none;fill-rule:evenodd;stroke:#000000;stroke-width:2.0px;stroke-linecap:butt;stroke-linejoin:miter;stroke-opacity:1" />
<path class="bond-13 atom-13 atom-14" d="M 133.0,302.0 L 124.4,293.6" style="fill:none;fill-rule:evenodd;stroke:#000000;stroke-width:2.0px;stroke-linecap:butt;stroke-linejoin:miter;stroke-opacity:1" />
<path class="bond-13 atom-13 atom-14" d="M 124.4,293.6 L 115.8,285.2" style="fill:none;fill-rule:evenodd;stroke:#FF0000;stroke-width:2.0px;stroke-linecap:butt;stroke-linejoin:miter;stroke-opacity:1" />
<path class="bond-13 atom-13 atom-14" d="M 129.9,305.2 L 121.3,296.8" style="fill:none;fill-rule:evenodd;stroke:#000000;stroke-width:2.0px;stroke-linecap:butt;stroke-linejoin:miter;stroke-opacity:1" />
<path class="bond-13 atom-13 atom-14" d="M 121.3,296.8 L 112.7,288.4" style="fill:none;fill-rule:evenodd;stroke:#FF0000;stroke-width:2.0px;stroke-linecap:butt;stroke-linejoin:miter;stroke-opacity:1" />
<path class="bond-14 atom-13 atom-15" d="M 130.3,302.5 L 142.7,300.4" style="fill:none;fill-rule:evenodd;stroke:#000000;stroke-width:2.0px;stroke-linecap:butt;stroke-linejoin:miter;stroke-opacity:1" />
<path class="bond-14 atom-13 atom-15" d="M 142.7,300.4 L 155.1,298.3" style="fill:none;fill-rule:evenodd;stroke:#0000FF;stroke-width:2.0px;stroke-linecap:butt;stroke-linejoin:miter;stroke-opacity:1" />
<path class="bond-16 atom-15 atom-17" d="M 162.2,302.7 L 167.7,313.2" style="fill:none;fill-rule:evenodd;stroke:#0000FF;stroke-width:2.0px;stroke-linecap:butt;stroke-linejoin:miter;stroke-opacity:1" />
<path class="bond-16 atom-15 atom-17" d="M 167.7,313.2 L 173.2,323.7" style="fill:none;fill-rule:evenodd;stroke:#000000;stroke-width:2.0px;stroke-linecap:butt;stroke-linejoin:miter;stroke-opacity:1" />
<path class="bond-17 atom-17 atom-18" d="M 173.2,323.7 L 152.5,344.9" style="fill:none;fill-rule:evenodd;stroke:#000000;stroke-width:2.0px;stroke-linecap:butt;stroke-linejoin:miter;stroke-opacity:1" />
<path class="bond-17 atom-17 atom-18" d="M 174.1,329.1 L 157.9,345.6" style="fill:none;fill-rule:evenodd;stroke:#000000;stroke-width:2.0px;stroke-linecap:butt;stroke-linejoin:miter;stroke-opacity:1" />
<path class="bond-18 atom-18 atom-19" d="M 152.5,344.9 L 158.0,355.3" style="fill:none;fill-rule:evenodd;stroke:#000000;stroke-width:2.0px;stroke-linecap:butt;stroke-linejoin:miter;stroke-opacity:1" />
<path class="bond-18 atom-18 atom-19" d="M 158.0,355.3 L 163.4,365.8" style="fill:none;fill-rule:evenodd;stroke:#CCCC00;stroke-width:2.0px;stroke-linecap:butt;stroke-linejoin:miter;stroke-opacity:1" />
<path class="bond-19 atom-19 atom-20" d="M 170.6,370.3 L 183.0,368.2" style="fill:none;fill-rule:evenodd;stroke:#CCCC00;stroke-width:2.0px;stroke-linecap:butt;stroke-linejoin:miter;stroke-opacity:1" />
<path class="bond-19 atom-19 atom-20" d="M 183.0,368.2 L 195.4,366.1" style="fill:none;fill-rule:evenodd;stroke:#000000;stroke-width:2.0px;stroke-linecap:butt;stroke-linejoin:miter;stroke-opacity:1" />
<path class="bond-21 atom-20 atom-22" d="M 195.4,366.1 L 199.7,336.8" style="fill:none;fill-rule:evenodd;stroke:#000000;stroke-width:2.0px;stroke-linecap:butt;stroke-linejoin:miter;stroke-opacity:1" />
<path class="bond-21 atom-20 atom-22" d="M 191.4,362.3 L 194.8,339.4" style="fill:none;fill-rule:evenodd;stroke:#000000;stroke-width:2.0px;stroke-linecap:butt;stroke-linejoin:miter;stroke-opacity:1" />
<path class="bond-23 atom-6 atom-1" d="M 52.7,353.4 L 58.2,363.9" style="fill:none;fill-rule:evenodd;stroke:#000000;stroke-width:2.0px;stroke-linecap:butt;stroke-linejoin:miter;stroke-opacity:1" />
<path class="bond-23 atom-6 atom-1" d="M 58.2,363.9 L 63.7,374.4" style="fill:none;fill-rule:evenodd;stroke:#0000FF;stroke-width:2.0px;stroke-linecap:butt;stroke-linejoin:miter;stroke-opacity:1" />
<path class="bond-24 atom-18 atom-12" d="M 152.5,344.9 L 126.0,331.7" style="fill:none;fill-rule:evenodd;stroke:#000000;stroke-width:2.0px;stroke-linecap:butt;stroke-linejoin:miter;stroke-opacity:1" />
<path class="bond-25 atom-11 atom-5" d="M 62.5,311.6 L 67.9,321.9" style="fill:none;fill-rule:evenodd;stroke:#CCCC00;stroke-width:2.0px;stroke-linecap:butt;stroke-linejoin:miter;stroke-opacity:1" />
<path class="bond-25 atom-11 atom-5" d="M 67.9,321.9 L 73.3,332.3" style="fill:none;fill-rule:evenodd;stroke:#000000;stroke-width:2.0px;stroke-linecap:butt;stroke-linejoin:miter;stroke-opacity:1" />
<path class="bond-26 atom-22 atom-17" d="M 199.7,336.8 L 173.2,323.7" style="fill:none;fill-rule:evenodd;stroke:#000000;stroke-width:2.0px;stroke-linecap:butt;stroke-linejoin:miter;stroke-opacity:1" />
<path d="M 94.9,374.8 L 95.5,374.7 L 95.7,373.2" style="fill:none;stroke:#000000;stroke-width:2.0px;stroke-linecap:butt;stroke-linejoin:miter;stroke-opacity:1;" />
<path d="M 130.1,303.9 L 130.3,302.5 L 130.9,302.4" style="fill:none;stroke:#000000;stroke-width:2.0px;stroke-linecap:butt;stroke-linejoin:miter;stroke-opacity:1;" />
<path class="atom-1" d="M 63.0 383.9 L 63.0 375.4 L 64.7 375.4 L 68.2 381.1 L 68.2 375.4 L 69.7 375.4 L 69.7 383.9 L 68.0 383.9 L 64.6 378.3 L 64.6 383.9 L 63.0 383.9 " fill="#0000FF" />
<path class="atom-3" d="M 112.6 395.5 Q 112.6 394.2, 112.9 393.3 Q 113.2 392.7, 113.7 392.1 Q 114.2 391.6, 114.8 391.4 Q 115.6 391.0, 116.7 391.0 Q 118.5 391.0, 119.6 392.2 Q 120.8 393.4, 120.8 395.4 Q 120.8 397.5, 119.7 398.6 Q 118.5 399.8, 116.7 399.8 Q 114.8 399.8, 113.7 398.7 Q 112.6 397.5, 112.6 395.5 M 114.3 395.4 Q 114.3 396.9, 115.0 397.6 Q 115.6 398.3, 116.7 398.3 Q 117.7 398.3, 118.3 397.6 Q 119.0 396.9, 119.0 395.4 Q 119.0 393.9, 118.4 393.2 Q 117.7 392.5, 116.7 392.5 Q 115.6 392.5, 115.0 393.2 Q 114.3 394.0, 114.3 395.4 " fill="#FF0000" />
<path class="atom-11" d="M 56.2 307.7 L 57.9 307.5 Q 58.0 308.3, 58.5 308.7 Q 58.9 309.1, 59.7 309.1 Q 60.5 309.1, 60.9 308.8 Q 61.4 308.4, 61.4 308.0 Q 61.4 307.7, 61.2 307.5 Q 61.0 307.2, 60.6 307.1 Q 60.3 307.0, 59.2 306.7 Q 57.8 306.4, 57.3 305.9 Q 56.5 305.2, 56.5 304.2 Q 56.5 303.5, 56.9 303.0 Q 57.2 302.4, 57.9 302.1 Q 58.6 301.8, 59.6 301.8 Q 61.2 301.8, 62.0 302.5 Q 62.8 303.2, 62.8 304.4 L 61.1 304.5 Q 61.0 303.8, 60.6 303.5 Q 60.3 303.2, 59.6 303.2 Q 58.8 303.2, 58.4 303.5 Q 58.1 303.7, 58.1 304.1 Q 58.1 304.4, 58.4 304.6 Q 58.7 304.8, 60.0 305.1 Q 61.2 305.4, 61.8 305.8 Q 62.4 306.1, 62.7 306.6 Q 63.1 307.2, 63.1 308.0 Q 63.1 308.7, 62.7 309.3 Q 62.3 310.0, 61.5 310.3 Q 60.8 310.6, 59.7 310.6 Q 58.1 310.6, 57.2 309.8 Q 56.4 309.1, 56.2 307.7 " fill="#CCCC00" />
<path class="atom-14" d="M 105.1 281.9 Q 105.1 280.6, 105.5 279.8 Q 105.8 279.1, 106.2 278.6 Q 106.8 278.1, 107.3 277.8 Q 108.1 277.5, 109.2 277.5 Q 111.0 277.5, 112.2 278.7 Q 113.3 279.8, 113.3 281.9 Q 113.3 283.9, 112.2 285.1 Q 111.1 286.3, 109.2 286.3 Q 107.3 286.3, 106.2 285.1 Q 105.1 284.0, 105.1 281.9 M 106.8 281.9 Q 106.8 283.3, 107.5 284.1 Q 108.2 284.8, 109.2 284.8 Q 110.2 284.8, 110.9 284.1 Q 111.5 283.3, 111.5 281.9 Q 111.5 280.4, 110.9 279.7 Q 110.2 279.0, 109.2 279.0 Q 108.1 279.0, 107.5 279.7 Q 106.8 280.4, 106.8 281.9 " fill="#FF0000" />
<path class="atom-15" d="M 156.1 301.8 L 156.1 293.3 L 157.8 293.3 L 161.2 299.0 L 161.2 293.3 L 162.8 293.3 L 162.8 301.8 L 161.1 301.8 L 157.7 296.2 L 157.7 301.8 L 156.1 301.8 " fill="#0000FF" />
<path class="atom-19" d="M 162.8 372.6 L 164.4 372.4 Q 164.6 373.3, 165.0 373.7 Q 165.5 374.0, 166.3 374.0 Q 167.1 374.0, 167.5 373.7 Q 167.9 373.4, 167.9 372.9 Q 167.9 372.6, 167.8 372.4 Q 167.6 372.2, 167.2 372.0 Q 166.9 371.9, 165.8 371.6 Q 164.4 371.3, 163.9 370.8 Q 163.1 370.1, 163.1 369.1 Q 163.1 368.4, 163.4 367.9 Q 163.8 367.3, 164.5 367.0 Q 165.2 366.7, 166.2 366.7 Q 167.8 366.7, 168.6 367.4 Q 169.4 368.1, 169.4 369.3 L 167.7 369.4 Q 167.6 368.7, 167.2 368.4 Q 166.9 368.1, 166.2 368.1 Q 165.4 368.1, 165.0 368.5 Q 164.7 368.7, 164.7 369.0 Q 164.7 369.3, 165.0 369.5 Q 165.3 369.8, 166.5 370.1 Q 167.8 370.4, 168.4 370.7 Q 169.0 371.0, 169.3 371.5 Q 169.7 372.1, 169.7 372.9 Q 169.7 373.6, 169.3 374.2 Q 168.8 374.9, 168.1 375.2 Q 167.4 375.5, 166.3 375.5 Q 164.7 375.5, 163.8 374.8 Q 162.9 374.0, 162.8 372.6 " fill="#CCCC00" />
</svg>