<?xml version='1.0' encoding='iso-8859-1'?>
<svg xmlns="http://www.w3.org/2000/svg" version="1.1" baseProfile="full" xml:space="preserve" width="386" height="274" viewBox="63 119 386 274">

<rect style="opacity:1.0;fill:#FFFFFF;stroke:none" width="512.0" height="512.0" x="0.0" y="0.0"> </rect>
<path class="bond-1 atom-1 atom-2" d="M 163.6,344.7 L 190.5,340.1" style="fill:none;fill-rule:evenodd;stroke:#0000FF;stroke-width:2.0px;stroke-linecap:butt;stroke-linejoin:miter;stroke-opacity:1" />
<path class="bond-1 atom-1 atom-2" d="M 190.5,340.1 L 217.3,335.6" style="fill:none;fill-rule:evenodd;stroke:#000000;stroke-width:2.0px;stroke-linecap:butt;stroke-linejoin:miter;stroke-opacity:1" />
<path class="bond-2 atom-2 atom-3" d="M 211.4,336.6 L 229.7,354.5" style="fill:none;fill-rule:evenodd;stroke:#000000;stroke-width:2.0px;stroke-linecap:butt;stroke-linejoin:miter;stroke-opacity:1" />
<path class="bond-2 atom-2 atom-3" d="M 229.7,354.5 L 248.0,372.5" style="fill:none;fill-rule:evenodd;stroke:#FF0000;stroke-width:2.0px;stroke-linecap:butt;stroke-linejoin:miter;stroke-opacity:1" />
<path class="bond-2 atom-2 atom-3" d="M 218.2,329.6 L 236.5,347.5" style="fill:none;fill-rule:evenodd;stroke:#000000;stroke-width:2.0px;stroke-linecap:butt;stroke-linejoin:miter;stroke-opacity:1" />
<path class="bond-2 atom-2 atom-3" d="M 236.5,347.5 L 254.9,365.5" style="fill:none;fill-rule:evenodd;stroke:#FF0000;stroke-width:2.0px;stroke-linecap:butt;stroke-linejoin:miter;stroke-opacity:1" />
<path class="bond-3 atom-2 atom-4" d="M 217.3,335.6 L 226.8,271.0" style="fill:none;fill-rule:evenodd;stroke:#000000;stroke-width:2.0px;stroke-linecap:butt;stroke-linejoin:miter;stroke-opacity:1" />
<path class="bond-4 atom-4 atom-5" d="M 226.8,271.0 L 168.3,242.0" style="fill:none;fill-rule:evenodd;stroke:#000000;stroke-width:2.0px;stroke-linecap:butt;stroke-linejoin:miter;stroke-opacity:1" />
<path class="bond-5 atom-5 atom-6" d="M 168.3,242.0 L 122.6,288.7" style="fill:none;fill-rule:evenodd;stroke:#000000;stroke-width:2.0px;stroke-linecap:butt;stroke-linejoin:miter;stroke-opacity:1" />
<path class="bond-5 atom-5 atom-6" d="M 156.3,240.2 L 120.6,276.7" style="fill:none;fill-rule:evenodd;stroke:#000000;stroke-width:2.0px;stroke-linecap:butt;stroke-linejoin:miter;stroke-opacity:1" />
<path class="bond-6 atom-6 atom-7" d="M 122.6,288.7 L 64.1,259.7" style="fill:none;fill-rule:evenodd;stroke:#000000;stroke-width:2.0px;stroke-linecap:butt;stroke-linejoin:miter;stroke-opacity:1" />
<path class="bond-8 atom-7 atom-9" d="M 64.1,259.7 L 73.6,195.0" style="fill:none;fill-rule:evenodd;stroke:#000000;stroke-width:2.0px;stroke-linecap:butt;stroke-linejoin:miter;stroke-opacity:1" />
<path class="bond-8 atom-7 atom-9" d="M 74.8,254.0 L 82.3,203.5" style="fill:none;fill-rule:evenodd;stroke:#000000;stroke-width:2.0px;stroke-linecap:butt;stroke-linejoin:miter;stroke-opacity:1" />
<path class="bond-10 atom-9 atom-11" d="M 73.6,195.0 L 100.4,190.5" style="fill:none;fill-rule:evenodd;stroke:#000000;stroke-width:2.0px;stroke-linecap:butt;stroke-linejoin:miter;stroke-opacity:1" />
<path class="bond-10 atom-9 atom-11" d="M 100.4,190.5 L 127.1,186.0" style="fill:none;fill-rule:evenodd;stroke:#CCCC00;stroke-width:2.0px;stroke-linecap:butt;stroke-linejoin:miter;stroke-opacity:1" />
<path class="bond-11 atom-4 atom-12" d="M 226.8,271.0 L 284.7,240.7" style="fill:none;fill-rule:evenodd;stroke:#000000;stroke-width:2.0px;stroke-linecap:butt;stroke-linejoin:miter;stroke-opacity:1" />
<path class="bond-11 atom-4 atom-12" d="M 235.8,277.3 L 284.8,251.7" style="fill:none;fill-rule:evenodd;stroke:#000000;stroke-width:2.0px;stroke-linecap:butt;stroke-linejoin:miter;stroke-opacity:1" />
<path class="bond-12 atom-12 atom-13" d="M 284.7,240.7 L 294.2,176.1" style="fill:none;fill-rule:evenodd;stroke:#000000;stroke-width:2.0px;stroke-linecap:butt;stroke-linejoin:miter;stroke-opacity:1" />
<path class="bond-13 atom-13 atom-14" d="M 300.2,175.0 L 281.8,157.1" style="fill:none;fill-rule:evenodd;stroke:#000000;stroke-width:2.0px;stroke-linecap:butt;stroke-linejoin:miter;stroke-opacity:1" />
<path class="bond-13 atom-13 atom-14" d="M 281.8,157.1 L 263.5,139.2" style="fill:none;fill-rule:evenodd;stroke:#FF0000;stroke-width:2.0px;stroke-linecap:butt;stroke-linejoin:miter;stroke-opacity:1" />
<path class="bond-13 atom-13 atom-14" d="M 293.3,182.0 L 275.0,164.1" style="fill:none;fill-rule:evenodd;stroke:#000000;stroke-width:2.0px;stroke-linecap:butt;stroke-linejoin:miter;stroke-opacity:1" />
<path class="bond-13 atom-13 atom-14" d="M 275.0,164.1 L 256.6,146.2" style="fill:none;fill-rule:evenodd;stroke:#FF0000;stroke-width:2.0px;stroke-linecap:butt;stroke-linejoin:miter;stroke-opacity:1" />
<path class="bond-14 atom-13 atom-15" d="M 294.2,176.1 L 321.0,171.5" style="fill:none;fill-rule:evenodd;stroke:#000000;stroke-width:2.0px;stroke-linecap:butt;stroke-linejoin:miter;stroke-opacity:1" />
<path class="bond-14 atom-13 atom-15" d="M 321.0,171.5 L 347.9,166.9" style="fill:none;fill-rule:evenodd;stroke:#0000FF;stroke-width:2.0px;stroke-linecap:butt;stroke-linejoin:miter;stroke-opacity:1" />
<path class="bond-16 atom-15 atom-17" d="M 365.3,178.0 L 377.1,200.5" style="fill:none;fill-rule:evenodd;stroke:#0000FF;stroke-width:2.0px;stroke-linecap:butt;stroke-linejoin:miter;stroke-opacity:1" />
<path class="bond-16 atom-15 atom-17" d="M 377.1,200.5 L 388.9,223.0" style="fill:none;fill-rule:evenodd;stroke:#000000;stroke-width:2.0px;stroke-linecap:butt;stroke-linejoin:miter;stroke-opacity:1" />
<path class="bond-17 atom-17 atom-18" d="M 388.9,223.0 L 343.2,269.7" style="fill:none;fill-rule:evenodd;stroke:#000000;stroke-width:2.0px;stroke-linecap:butt;stroke-linejoin:miter;stroke-opacity:1" />
<path class="bond-17 atom-17 atom-18" d="M 390.9,234.9 L 355.2,271.4" style="fill:none;fill-rule:evenodd;stroke:#000000;stroke-width:2.0px;stroke-linecap:butt;stroke-linejoin:miter;stroke-opacity:1" />
<path class="bond-18 atom-18 atom-19" d="M 343.2,269.7 L 354.9,292.1" style="fill:none;fill-rule:evenodd;stroke:#000000;stroke-width:2.0px;stroke-linecap:butt;stroke-linejoin:miter;stroke-opacity:1" />
<path class="bond-18 atom-18 atom-19" d="M 354.9,292.1 L 366.6,314.5" style="fill:none;fill-rule:evenodd;stroke:#CCCC00;stroke-width:2.0px;stroke-linecap:butt;stroke-linejoin:miter;stroke-opacity:1" />
<path class="bond-19 atom-19 atom-20" d="M 384.4,325.7 L 411.1,321.1" style="fill:none;fill-rule:evenodd;stroke:#CCCC00;stroke-width:2.0px;stroke-linecap:butt;stroke-linejoin:miter;stroke-opacity:1" />
<path class="bond-19 atom-19 atom-20" d="M 411.1,321.1 L 437.9,316.6" style="fill:none;fill-rule:evenodd;stroke:#000000;stroke-width:2.0px;stroke-linecap:butt;stroke-linejoin:miter;stroke-opacity:1" />
<path class="bond-21 atom-20 atom-22" d="M 437.9,316.6 L 447.4,252.0" style="fill:none;fill-rule:evenodd;stroke:#000000;stroke-width:2.0px;stroke-linecap:butt;stroke-linejoin:miter;stroke-opacity:1" />
<path class="bond-21 atom-20 atom-22" d="M 429.2,308.1 L 436.7,257.6" style="fill:none;fill-rule:evenodd;stroke:#000000;stroke-width:2.0px;stroke-linecap:butt;stroke-linejoin:miter;stroke-opacity:1" />
<path class="bond-23 atom-6 atom-1" d="M 122.6,288.7 L 134.4,311.1" style="fill:none;fill-rule:evenodd;stroke:#000000;stroke-width:2.0px;stroke-linecap:butt;stroke-linejoin:miter;stroke-opacity:1" />
<path class="bond-23 atom-6 atom-1" d="M 134.4,311.1 L 146.2,333.6" style="fill:none;fill-rule:evenodd;stroke:#0000FF;stroke-width:2.0px;stroke-linecap:butt;stroke-linejoin:miter;stroke-opacity:1" />
<path class="bond-24 atom-18 atom-12" d="M 343.2,269.7 L 284.7,240.7" style="fill:none;fill-rule:evenodd;stroke:#000000;stroke-width:2.0px;stroke-linecap:butt;stroke-linejoin:miter;stroke-opacity:1" />
<path class="bond-25 atom-11 atom-5" d="M 145.1,197.6 L 156.7,219.8" style="fill:none;fill-rule:evenodd;stroke:#CCCC00;stroke-width:2.0px;stroke-linecap:butt;stroke-linejoin:miter;stroke-opacity:1" />
<path class="bond-25 atom-11 atom-5" d="M 156.7,219.8 L 168.3,242.0" style="fill:none;fill-rule:evenodd;stroke:#000000;stroke-width:2.0px;stroke-linecap:butt;stroke-linejoin:miter;stroke-opacity:1" />
<path class="bond-26 atom-22 atom-17" d="M 447.4,252.0 L 388.9,223.0" style="fill:none;fill-rule:evenodd;stroke:#000000;stroke-width:2.0px;stroke-linecap:butt;stroke-linejoin:miter;stroke-opacity:1" />
<path d="M 216.0,335.8 L 217.3,335.6 L 217.8,332.4" style="fill:none;stroke:#000000;stroke-width:2.0px;stroke-linecap:butt;stroke-linejoin:miter;stroke-opacity:1;" />
<path d="M 293.7,179.3 L 294.2,176.1 L 295.5,175.8" style="fill:none;stroke:#000000;stroke-width:2.0px;stroke-linecap:butt;stroke-linejoin:miter;stroke-opacity:1;" />
<path class="atom-1" d="M 144.4 357.3 L 144.4 335.8 L 148.6 335.8 L 157.4 350.1 L 157.4 335.8 L 161.4 335.8 L 161.4 357.3 L 157.1 357.3 L 148.4 343.2 L 148.4 357.3 L 144.4 357.3 " fill="#0000FF" />
<path class="atom-3" d="M 253.6 381.6 Q 253.6 378.3, 254.6 376.1 Q 255.3 374.4, 256.6 373.1 Q 257.8 371.8, 259.4 371.2 Q 261.4 370.3, 264.0 370.3 Q 268.7 370.3, 271.6 373.3 Q 274.4 376.2, 274.4 381.5 Q 274.4 386.7, 271.6 389.6 Q 268.8 392.5, 264.0 392.5 Q 259.3 392.5, 256.4 389.6 Q 253.6 386.7, 253.6 381.6 M 258.1 381.4 Q 258.1 385.1, 259.8 387.0 Q 261.4 388.8, 264.0 388.8 Q 266.6 388.8, 268.3 387.0 Q 269.9 385.1, 269.9 381.4 Q 269.9 377.7, 268.3 375.9 Q 266.7 374.0, 264.0 374.0 Q 261.3 374.0, 259.7 375.9 Q 258.1 377.7, 258.1 381.4 " fill="#FF0000" />
<path class="atom-11" d="M 129.3 188.0 L 133.5 187.6 Q 133.9 189.7, 135.0 190.7 Q 136.2 191.7, 138.2 191.7 Q 140.3 191.7, 141.3 190.9 Q 142.4 190.0, 142.4 188.8 Q 142.4 188.0, 141.9 187.5 Q 141.5 187.0, 140.4 186.6 Q 139.6 186.3, 136.9 185.6 Q 133.4 184.8, 132.0 183.5 Q 130.1 181.7, 130.1 179.2 Q 130.1 177.5, 131.0 176.1 Q 131.9 174.7, 133.7 173.9 Q 135.4 173.2, 137.9 173.2 Q 141.9 173.2, 144.0 175.0 Q 146.0 176.7, 146.1 179.7 L 141.8 179.9 Q 141.5 178.2, 140.6 177.5 Q 139.7 176.8, 137.8 176.8 Q 136.0 176.8, 134.9 177.5 Q 134.2 178.0, 134.2 178.9 Q 134.2 179.6, 134.8 180.2 Q 135.7 180.9, 138.8 181.6 Q 142.0 182.4, 143.5 183.2 Q 145.0 184.0, 145.9 185.4 Q 146.7 186.7, 146.7 188.8 Q 146.7 190.6, 145.7 192.2 Q 144.7 193.8, 142.8 194.6 Q 140.9 195.4, 138.1 195.4 Q 134.1 195.4, 131.9 193.5 Q 129.7 191.6, 129.3 188.0 " fill="#CCCC00" />
<path class="atom-14" d="M 237.1 130.7 Q 237.1 127.4, 238.1 125.2 Q 238.8 123.6, 240.0 122.2 Q 241.3 120.9, 242.8 120.3 Q 244.8 119.5, 247.5 119.5 Q 252.2 119.5, 255.0 122.4 Q 257.9 125.4, 257.9 130.6 Q 257.9 135.8, 255.1 138.7 Q 252.2 141.7, 247.5 141.7 Q 242.7 141.7, 239.9 138.8 Q 237.1 135.8, 237.1 130.7 M 241.5 130.6 Q 241.5 134.2, 243.2 136.1 Q 244.9 138.0, 247.5 138.0 Q 250.1 138.0, 251.8 136.1 Q 253.4 134.2, 253.4 130.5 Q 253.4 126.8, 251.8 125.0 Q 250.2 123.2, 247.5 123.2 Q 244.8 123.2, 243.2 125.0 Q 241.5 126.8, 241.5 130.6 " fill="#FF0000" />
<path class="atom-15" d="M 350.1 175.9 L 350.1 154.4 L 354.3 154.4 L 363.1 168.7 L 363.1 154.4 L 367.1 154.4 L 367.1 175.9 L 362.7 175.9 L 354.1 161.9 L 354.1 175.9 L 350.1 175.9 " fill="#0000FF" />
<path class="atom-19" d="M 364.8 331.5 L 369.0 331.1 Q 369.4 333.2, 370.5 334.2 Q 371.7 335.2, 373.7 335.2 Q 375.8 335.2, 376.8 334.3 Q 377.9 333.4, 377.9 332.2 Q 377.9 331.5, 377.4 330.9 Q 377.0 330.4, 375.9 330.0 Q 375.1 329.7, 372.4 329.0 Q 368.9 328.2, 367.5 326.9 Q 365.5 325.2, 365.5 322.6 Q 365.5 321.0, 366.5 319.5 Q 367.4 318.1, 369.1 317.4 Q 370.9 316.6, 373.4 316.6 Q 377.4 316.6, 379.5 318.4 Q 381.5 320.2, 381.6 323.1 L 377.3 323.3 Q 377.0 321.7, 376.1 320.9 Q 375.2 320.2, 373.3 320.2 Q 371.4 320.2, 370.4 321.0 Q 369.7 321.5, 369.7 322.3 Q 369.7 323.1, 370.3 323.6 Q 371.2 324.3, 374.3 325.0 Q 377.5 325.8, 379.0 326.6 Q 380.5 327.4, 381.4 328.8 Q 382.2 330.2, 382.2 332.2 Q 382.2 334.0, 381.2 335.7 Q 380.2 337.3, 378.3 338.1 Q 376.4 338.8, 373.6 338.8 Q 369.6 338.8, 367.4 337.0 Q 365.2 335.1, 364.8 331.5 " fill="#CCCC00" />
</svg>