<?xml version='1.0' encoding='iso-8859-1'?>
<svg xmlns="http://www.w3.org/2000/svg" version="1.1" baseProfile="full" xml:space="preserve" width="200" height="121" viewBox="28 270 200 121">

<rect style="opacity:1.0;fill:#FFFFFF;stroke:none" width="512.0" height="512.0" x="0.0" y="0.0"> </rect>
<path class="bond-1 atom-1 atom-2" d="M 92.3,376.7 L 104.2,372.9" style="fill:none;fill-rule:evenodd;stroke:#0000FF;stroke-width:2.0px;stroke-linecap:butt;stroke-linejoin:miter;stroke-opacity:1" />
<path class="bond-1 atom-1 atom-2" d="M 104.2,372.9 L 116.1,369.0" style="fill:none;fill-rule:evenodd;stroke:#000000;stroke-width:2.0px;stroke-linecap:butt;stroke-linejoin:miter;stroke-opacity:1" />
<path class="bond-2 atom-2 atom-3" d="M 113.5,369.9 L 123.5,377.2" style="fill:none;fill-rule:evenodd;stroke:#000000;stroke-width:2.0px;stroke-linecap:butt;stroke-linejoin:miter;stroke-opacity:1" />
<path class="bond-2 atom-2 atom-3" d="M 123.5,377.2 L 133.5,384.6" style="fill:none;fill-rule:evenodd;stroke:#FF0000;stroke-width:2.0px;stroke-linecap:butt;stroke-linejoin:miter;stroke-opacity:1" />
<path class="bond-2 atom-2 atom-3" d="M 116.1,366.3 L 126.1,373.7" style="fill:none;fill-rule:evenodd;stroke:#000000;stroke-width:2.0px;stroke-linecap:butt;stroke-linejoin:miter;stroke-opacity:1" />
<path class="bond-2 atom-2 atom-3" d="M 126.1,373.7 L 136.1,381.0" style="fill:none;fill-rule:evenodd;stroke:#FF0000;stroke-width:2.0px;stroke-linecap:butt;stroke-linejoin:miter;stroke-opacity:1" />
<path class="bond-3 atom-2 atom-4" d="M 116.1,369.0 L 116.2,339.5" style="fill:none;fill-rule:evenodd;stroke:#000000;stroke-width:2.0px;stroke-linecap:butt;stroke-linejoin:miter;stroke-opacity:1" />
<path class="bond-4 atom-4 atom-5" d="M 116.2,339.5 L 140.2,322.2" style="fill:none;fill-rule:evenodd;stroke:#000000;stroke-width:2.0px;stroke-linecap:butt;stroke-linejoin:miter;stroke-opacity:1" />
<path class="bond-4 atom-4 atom-5" d="M 120.6,341.8 L 141.0,327.1" style="fill:none;fill-rule:evenodd;stroke:#000000;stroke-width:2.0px;stroke-linecap:butt;stroke-linejoin:miter;stroke-opacity:1" />
<path class="bond-5 atom-5 atom-6" d="M 140.2,322.2 L 140.4,292.7" style="fill:none;fill-rule:evenodd;stroke:#000000;stroke-width:2.0px;stroke-linecap:butt;stroke-linejoin:miter;stroke-opacity:1" />
<path class="bond-6 atom-6 atom-7" d="M 143.0,291.8 L 132.9,284.5" style="fill:none;fill-rule:evenodd;stroke:#000000;stroke-width:2.0px;stroke-linecap:butt;stroke-linejoin:miter;stroke-opacity:1" />
<path class="bond-6 atom-6 atom-7" d="M 132.9,284.5 L 122.9,277.1" style="fill:none;fill-rule:evenodd;stroke:#FF0000;stroke-width:2.0px;stroke-linecap:butt;stroke-linejoin:miter;stroke-opacity:1" />
<path class="bond-6 atom-6 atom-7" d="M 140.3,295.4 L 130.3,288.1" style="fill:none;fill-rule:evenodd;stroke:#000000;stroke-width:2.0px;stroke-linecap:butt;stroke-linejoin:miter;stroke-opacity:1" />
<path class="bond-6 atom-6 atom-7" d="M 130.3,288.1 L 120.3,280.7" style="fill:none;fill-rule:evenodd;stroke:#FF0000;stroke-width:2.0px;stroke-linecap:butt;stroke-linejoin:miter;stroke-opacity:1" />
<path class="bond-7 atom-6 atom-8" d="M 140.4,292.7 L 152.3,288.9" style="fill:none;fill-rule:evenodd;stroke:#000000;stroke-width:2.0px;stroke-linecap:butt;stroke-linejoin:miter;stroke-opacity:1" />
<path class="bond-7 atom-6 atom-8" d="M 152.3,288.9 L 164.2,285.1" style="fill:none;fill-rule:evenodd;stroke:#0000FF;stroke-width:2.0px;stroke-linecap:butt;stroke-linejoin:miter;stroke-opacity:1" />
<path class="bond-9 atom-8 atom-10" d="M 172.3,288.9 L 179.0,298.3" style="fill:none;fill-rule:evenodd;stroke:#0000FF;stroke-width:2.0px;stroke-linecap:butt;stroke-linejoin:miter;stroke-opacity:1" />
<path class="bond-9 atom-8 atom-10" d="M 179.0,298.3 L 185.8,307.7" style="fill:none;fill-rule:evenodd;stroke:#000000;stroke-width:2.0px;stroke-linecap:butt;stroke-linejoin:miter;stroke-opacity:1" />
<path class="bond-10 atom-10 atom-11" d="M 185.8,307.7 L 168.3,331.5" style="fill:none;fill-rule:evenodd;stroke:#000000;stroke-width:2.0px;stroke-linecap:butt;stroke-linejoin:miter;stroke-opacity:1" />
<path class="bond-10 atom-10 atom-11" d="M 187.8,312.4 L 173.4,332.1" style="fill:none;fill-rule:evenodd;stroke:#000000;stroke-width:2.0px;stroke-linecap:butt;stroke-linejoin:miter;stroke-opacity:1" />
<path class="bond-11 atom-11 atom-12" d="M 168.3,331.5 L 180.2,358.6" style="fill:none;fill-rule:evenodd;stroke:#000000;stroke-width:2.0px;stroke-linecap:butt;stroke-linejoin:miter;stroke-opacity:1" />
<path class="bond-13 atom-12 atom-14" d="M 180.2,358.6 L 209.6,361.8" style="fill:none;fill-rule:evenodd;stroke:#000000;stroke-width:2.0px;stroke-linecap:butt;stroke-linejoin:miter;stroke-opacity:1" />
<path class="bond-13 atom-12 atom-14" d="M 183.2,354.4 L 207.5,357.1" style="fill:none;fill-rule:evenodd;stroke:#000000;stroke-width:2.0px;stroke-linecap:butt;stroke-linejoin:miter;stroke-opacity:1" />
<path class="bond-15 atom-14 atom-16" d="M 209.6,361.8 L 227.1,338.0" style="fill:none;fill-rule:evenodd;stroke:#000000;stroke-width:2.0px;stroke-linecap:butt;stroke-linejoin:miter;stroke-opacity:1" />
<path class="bond-17 atom-16 atom-18" d="M 227.1,338.0 L 215.2,310.9" style="fill:none;fill-rule:evenodd;stroke:#000000;stroke-width:2.0px;stroke-linecap:butt;stroke-linejoin:miter;stroke-opacity:1" />
<path class="bond-17 atom-16 atom-18" d="M 222.0,337.4 L 212.1,315.0" style="fill:none;fill-rule:evenodd;stroke:#000000;stroke-width:2.0px;stroke-linecap:butt;stroke-linejoin:miter;stroke-opacity:1" />
<path class="bond-19 atom-4 atom-20" d="M 116.2,339.5 L 88.1,330.2" style="fill:none;fill-rule:evenodd;stroke:#000000;stroke-width:2.0px;stroke-linecap:butt;stroke-linejoin:miter;stroke-opacity:1" />
<path class="bond-20 atom-20 atom-21" d="M 88.1,330.2 L 70.7,354.0" style="fill:none;fill-rule:evenodd;stroke:#000000;stroke-width:2.0px;stroke-linecap:butt;stroke-linejoin:miter;stroke-opacity:1" />
<path class="bond-20 atom-20 atom-21" d="M 83.1,329.7 L 68.6,349.4" style="fill:none;fill-rule:evenodd;stroke:#000000;stroke-width:2.0px;stroke-linecap:butt;stroke-linejoin:miter;stroke-opacity:1" />
<path class="bond-21 atom-21 atom-22" d="M 70.7,354.0 L 41.3,350.8" style="fill:none;fill-rule:evenodd;stroke:#000000;stroke-width:2.0px;stroke-linecap:butt;stroke-linejoin:miter;stroke-opacity:1" />
<path class="bond-23 atom-22 atom-24" d="M 41.3,350.8 L 29.4,323.8" style="fill:none;fill-rule:evenodd;stroke:#000000;stroke-width:2.0px;stroke-linecap:butt;stroke-linejoin:miter;stroke-opacity:1" />
<path class="bond-23 atom-22 atom-24" d="M 44.3,346.7 L 34.5,324.3" style="fill:none;fill-rule:evenodd;stroke:#000000;stroke-width:2.0px;stroke-linecap:butt;stroke-linejoin:miter;stroke-opacity:1" />
<path class="bond-25 atom-24 atom-26" d="M 29.4,323.8 L 46.9,299.9" style="fill:none;fill-rule:evenodd;stroke:#000000;stroke-width:2.0px;stroke-linecap:butt;stroke-linejoin:miter;stroke-opacity:1" />
<path class="bond-27 atom-26 atom-28" d="M 46.9,299.9 L 76.3,303.2" style="fill:none;fill-rule:evenodd;stroke:#000000;stroke-width:2.0px;stroke-linecap:butt;stroke-linejoin:miter;stroke-opacity:1" />
<path class="bond-27 atom-26 atom-28" d="M 48.9,304.6 L 73.2,307.3" style="fill:none;fill-rule:evenodd;stroke:#000000;stroke-width:2.0px;stroke-linecap:butt;stroke-linejoin:miter;stroke-opacity:1" />
<path class="bond-29 atom-21 atom-1" d="M 70.7,354.0 L 77.4,363.4" style="fill:none;fill-rule:evenodd;stroke:#000000;stroke-width:2.0px;stroke-linecap:butt;stroke-linejoin:miter;stroke-opacity:1" />
<path class="bond-29 atom-21 atom-1" d="M 77.4,363.4 L 84.2,372.8" style="fill:none;fill-rule:evenodd;stroke:#0000FF;stroke-width:2.0px;stroke-linecap:butt;stroke-linejoin:miter;stroke-opacity:1" />
<path class="bond-30 atom-11 atom-5" d="M 168.3,331.5 L 140.2,322.2" style="fill:none;fill-rule:evenodd;stroke:#000000;stroke-width:2.0px;stroke-linecap:butt;stroke-linejoin:miter;stroke-opacity:1" />
<path class="bond-31 atom-28 atom-20" d="M 76.3,303.2 L 88.1,330.2" style="fill:none;fill-rule:evenodd;stroke:#000000;stroke-width:2.0px;stroke-linecap:butt;stroke-linejoin:miter;stroke-opacity:1" />
<path class="bond-32 atom-18 atom-10" d="M 215.2,310.9 L 185.8,307.7" style="fill:none;fill-rule:evenodd;stroke:#000000;stroke-width:2.0px;stroke-linecap:butt;stroke-linejoin:miter;stroke-opacity:1" />
<path d="M 115.5,369.2 L 116.1,369.0 L 116.1,367.6" style="fill:none;stroke:#000000;stroke-width:2.0px;stroke-linecap:butt;stroke-linejoin:miter;stroke-opacity:1;" />
<path d="M 140.4,294.1 L 140.4,292.7 L 141.0,292.5" style="fill:none;stroke:#000000;stroke-width:2.0px;stroke-linecap:butt;stroke-linejoin:miter;stroke-opacity:1;" />
<path class="atom-1" d="M 84.6 382.3 L 84.6 373.8 L 86.2 373.8 L 89.7 379.5 L 89.7 373.8 L 91.3 373.8 L 91.3 382.3 L 89.6 382.3 L 86.2 376.8 L 86.2 382.3 L 84.6 382.3 " fill="#0000FF" />
<path class="atom-3" d="M 135.8 386.7 Q 135.8 385.4, 136.2 384.5 Q 136.5 383.8, 137.0 383.3 Q 137.5 382.8, 138.1 382.6 Q 138.9 382.2, 139.9 382.2 Q 141.8 382.2, 142.9 383.4 Q 144.0 384.6, 144.0 386.6 Q 144.0 388.7, 142.9 389.8 Q 141.8 391.0, 139.9 391.0 Q 138.0 391.0, 136.9 389.8 Q 135.8 388.7, 135.8 386.7 M 137.6 386.6 Q 137.6 388.0, 138.2 388.8 Q 138.9 389.5, 139.9 389.5 Q 140.9 389.5, 141.6 388.8 Q 142.2 388.1, 142.2 386.6 Q 142.2 385.1, 141.6 384.4 Q 141.0 383.7, 139.9 383.7 Q 138.9 383.7, 138.2 384.4 Q 137.6 385.1, 137.6 386.6 " fill="#FF0000" />
<path class="atom-7" d="M 112.4 275.3 Q 112.4 274.0, 112.8 273.1 Q 113.1 272.5, 113.6 272.0 Q 114.1 271.5, 114.7 271.2 Q 115.5 270.9, 116.5 270.9 Q 118.4 270.9, 119.5 272.0 Q 120.6 273.2, 120.6 275.3 Q 120.6 277.3, 119.5 278.5 Q 118.4 279.6, 116.5 279.6 Q 114.7 279.6, 113.5 278.5 Q 112.4 277.3, 112.4 275.3 M 114.2 275.2 Q 114.2 276.7, 114.8 277.4 Q 115.5 278.2, 116.5 278.2 Q 117.6 278.2, 118.2 277.4 Q 118.9 276.7, 118.9 275.2 Q 118.9 273.8, 118.2 273.0 Q 117.6 272.3, 116.5 272.3 Q 115.5 272.3, 114.8 273.1 Q 114.2 273.8, 114.2 275.2 " fill="#FF0000" />
<path class="atom-8" d="M 165.2 287.9 L 165.2 279.4 L 166.8 279.4 L 170.3 285.1 L 170.3 279.4 L 171.9 279.4 L 171.9 287.9 L 170.2 287.9 L 166.7 282.4 L 166.7 287.9 L 165.2 287.9 " fill="#0000FF" />
</svg>