<?xml version='1.0' encoding='iso-8859-1'?>
<svg xmlns="http://www.w3.org/2000/svg" version="1.1" baseProfile="full" xml:space="preserve" width="166" height="91" viewBox="0 296 166 91">

<rect style="opacity:1.0;fill:#FFFFFF;stroke:none" width="512.0" height="512.0" x="0.0" y="0.0"> </rect>
<path class="bond-1 atom-1 atom-2" d="M 39.9,307.6 L 69.3,304.3" style="fill:none;fill-rule:evenodd;stroke:#000000;stroke-width:2.0px;stroke-linecap:butt;stroke-linejoin:miter;stroke-opacity:1" />
<path class="bond-1 atom-1 atom-2" d="M 43.0,311.7 L 67.3,309.0" style="fill:none;fill-rule:evenodd;stroke:#000000;stroke-width:2.0px;stroke-linecap:butt;stroke-linejoin:miter;stroke-opacity:1" />
<path class="bond-3 atom-2 atom-4" d="M 69.3,304.3 L 86.8,328.2" style="fill:none;fill-rule:evenodd;stroke:#000000;stroke-width:2.0px;stroke-linecap:butt;stroke-linejoin:miter;stroke-opacity:1" />
<path class="bond-4 atom-4 atom-5" d="M 86.8,328.2 L 74.9,355.2" style="fill:none;fill-rule:evenodd;stroke:#000000;stroke-width:2.0px;stroke-linecap:butt;stroke-linejoin:miter;stroke-opacity:1" />
<path class="bond-4 atom-4 atom-5" d="M 81.7,328.7 L 71.9,351.1" style="fill:none;fill-rule:evenodd;stroke:#000000;stroke-width:2.0px;stroke-linecap:butt;stroke-linejoin:miter;stroke-opacity:1" />
<path class="bond-5 atom-5 atom-6" d="M 74.9,355.2 L 45.6,358.5" style="fill:none;fill-rule:evenodd;stroke:#000000;stroke-width:2.0px;stroke-linecap:butt;stroke-linejoin:miter;stroke-opacity:1" />
<path class="bond-6 atom-6 atom-7" d="M 45.6,358.5 L 38.8,367.9" style="fill:none;fill-rule:evenodd;stroke:#000000;stroke-width:2.0px;stroke-linecap:butt;stroke-linejoin:miter;stroke-opacity:1" />
<path class="bond-6 atom-6 atom-7" d="M 38.8,367.9 L 32.1,377.3" style="fill:none;fill-rule:evenodd;stroke:#0000FF;stroke-width:2.0px;stroke-linecap:butt;stroke-linejoin:miter;stroke-opacity:1" />
<path class="bond-6 atom-6 atom-7" d="M 40.1,358.5 L 34.3,366.6" style="fill:none;fill-rule:evenodd;stroke:#000000;stroke-width:2.0px;stroke-linecap:butt;stroke-linejoin:miter;stroke-opacity:1" />
<path class="bond-6 atom-6 atom-7" d="M 34.3,366.6 L 28.5,374.7" style="fill:none;fill-rule:evenodd;stroke:#0000FF;stroke-width:2.0px;stroke-linecap:butt;stroke-linejoin:miter;stroke-opacity:1" />
<path class="bond-7 atom-7 atom-8" d="M 24.0,381.1 L 14.6,378.1" style="fill:none;fill-rule:evenodd;stroke:#0000FF;stroke-width:2.0px;stroke-linecap:butt;stroke-linejoin:miter;stroke-opacity:1" />
<path class="bond-7 atom-7 atom-8" d="M 14.6,378.1 L 5.2,375.1" style="fill:none;fill-rule:evenodd;stroke:#FF0000;stroke-width:2.0px;stroke-linecap:butt;stroke-linejoin:miter;stroke-opacity:1" />
<path class="bond-8 atom-8 atom-9" d="M 0.1,368.2 L 0.1,358.7" style="fill:none;fill-rule:evenodd;stroke:#FF0000;stroke-width:2.0px;stroke-linecap:butt;stroke-linejoin:miter;stroke-opacity:1" />
<path class="bond-8 atom-8 atom-9" d="M 0.1,358.7 L 0.0,349.1" style="fill:none;fill-rule:evenodd;stroke:#0000FF;stroke-width:2.0px;stroke-linecap:butt;stroke-linejoin:miter;stroke-opacity:1" />
<path class="bond-9 atom-9 atom-10" d="M 4.3,342.5 L 16.2,338.6" style="fill:none;fill-rule:evenodd;stroke:#0000FF;stroke-width:2.0px;stroke-linecap:butt;stroke-linejoin:miter;stroke-opacity:1" />
<path class="bond-9 atom-9 atom-10" d="M 16.2,338.6 L 28.1,334.6" style="fill:none;fill-rule:evenodd;stroke:#000000;stroke-width:2.0px;stroke-linecap:butt;stroke-linejoin:miter;stroke-opacity:1" />
<path class="bond-9 atom-9 atom-10" d="M 5.7,346.7 L 16.1,343.3" style="fill:none;fill-rule:evenodd;stroke:#0000FF;stroke-width:2.0px;stroke-linecap:butt;stroke-linejoin:miter;stroke-opacity:1" />
<path class="bond-9 atom-9 atom-10" d="M 16.1,343.3 L 26.4,339.9" style="fill:none;fill-rule:evenodd;stroke:#000000;stroke-width:2.0px;stroke-linecap:butt;stroke-linejoin:miter;stroke-opacity:1" />
<path class="bond-10 atom-5 atom-11" d="M 74.9,355.2 L 92.5,379.0" style="fill:none;fill-rule:evenodd;stroke:#000000;stroke-width:2.0px;stroke-linecap:butt;stroke-linejoin:miter;stroke-opacity:1" />
<path class="bond-12 atom-11 atom-13" d="M 92.5,379.0 L 121.8,375.8" style="fill:none;fill-rule:evenodd;stroke:#000000;stroke-width:2.0px;stroke-linecap:butt;stroke-linejoin:miter;stroke-opacity:1" />
<path class="bond-12 atom-11 atom-13" d="M 94.5,374.4 L 118.8,371.7" style="fill:none;fill-rule:evenodd;stroke:#000000;stroke-width:2.0px;stroke-linecap:butt;stroke-linejoin:miter;stroke-opacity:1" />
<path class="bond-14 atom-13 atom-15" d="M 121.8,375.8 L 133.7,348.7" style="fill:none;fill-rule:evenodd;stroke:#000000;stroke-width:2.0px;stroke-linecap:butt;stroke-linejoin:miter;stroke-opacity:1" />
<path class="bond-15 atom-15 atom-16" d="M 133.7,348.7 L 145.6,344.8" style="fill:none;fill-rule:evenodd;stroke:#000000;stroke-width:2.0px;stroke-linecap:butt;stroke-linejoin:miter;stroke-opacity:1" />
<path class="bond-15 atom-15 atom-16" d="M 145.6,344.8 L 157.4,340.9" style="fill:none;fill-rule:evenodd;stroke:#0000FF;stroke-width:2.0px;stroke-linecap:butt;stroke-linejoin:miter;stroke-opacity:1" />
<path class="bond-15 atom-15 atom-16" d="M 135.4,343.5 L 145.7,340.1" style="fill:none;fill-rule:evenodd;stroke:#000000;stroke-width:2.0px;stroke-linecap:butt;stroke-linejoin:miter;stroke-opacity:1" />
<path class="bond-15 atom-15 atom-16" d="M 145.7,340.1 L 156.1,336.7" style="fill:none;fill-rule:evenodd;stroke:#0000FF;stroke-width:2.0px;stroke-linecap:butt;stroke-linejoin:miter;stroke-opacity:1" />
<path class="bond-16 atom-16 atom-17" d="M 161.7,334.2 L 161.7,324.8" style="fill:none;fill-rule:evenodd;stroke:#0000FF;stroke-width:2.0px;stroke-linecap:butt;stroke-linejoin:miter;stroke-opacity:1" />
<path class="bond-16 atom-16 atom-17" d="M 161.7,324.8 L 161.6,315.3" style="fill:none;fill-rule:evenodd;stroke:#FF0000;stroke-width:2.0px;stroke-linecap:butt;stroke-linejoin:miter;stroke-opacity:1" />
<path class="bond-17 atom-17 atom-18" d="M 156.5,308.3 L 147.2,305.3" style="fill:none;fill-rule:evenodd;stroke:#FF0000;stroke-width:2.0px;stroke-linecap:butt;stroke-linejoin:miter;stroke-opacity:1" />
<path class="bond-17 atom-17 atom-18" d="M 147.2,305.3 L 137.8,302.3" style="fill:none;fill-rule:evenodd;stroke:#0000FF;stroke-width:2.0px;stroke-linecap:butt;stroke-linejoin:miter;stroke-opacity:1" />
<path class="bond-18 atom-18 atom-19" d="M 129.7,306.1 L 123.0,315.5" style="fill:none;fill-rule:evenodd;stroke:#0000FF;stroke-width:2.0px;stroke-linecap:butt;stroke-linejoin:miter;stroke-opacity:1" />
<path class="bond-18 atom-18 atom-19" d="M 123.0,315.5 L 116.2,324.9" style="fill:none;fill-rule:evenodd;stroke:#000000;stroke-width:2.0px;stroke-linecap:butt;stroke-linejoin:miter;stroke-opacity:1" />
<path class="bond-18 atom-18 atom-19" d="M 133.3,308.7 L 127.5,316.8" style="fill:none;fill-rule:evenodd;stroke:#0000FF;stroke-width:2.0px;stroke-linecap:butt;stroke-linejoin:miter;stroke-opacity:1" />
<path class="bond-18 atom-18 atom-19" d="M 127.5,316.8 L 121.7,324.9" style="fill:none;fill-rule:evenodd;stroke:#000000;stroke-width:2.0px;stroke-linecap:butt;stroke-linejoin:miter;stroke-opacity:1" />
<path class="bond-19 atom-10 atom-1" d="M 28.1,334.6 L 39.9,307.6" style="fill:none;fill-rule:evenodd;stroke:#000000;stroke-width:2.0px;stroke-linecap:butt;stroke-linejoin:miter;stroke-opacity:1" />
<path class="bond-20 atom-19 atom-15" d="M 116.2,324.9 L 133.7,348.7" style="fill:none;fill-rule:evenodd;stroke:#000000;stroke-width:2.0px;stroke-linecap:butt;stroke-linejoin:miter;stroke-opacity:1" />
<path class="bond-21 atom-19 atom-4" d="M 116.2,324.9 L 86.8,328.2" style="fill:none;fill-rule:evenodd;stroke:#000000;stroke-width:2.0px;stroke-linecap:butt;stroke-linejoin:miter;stroke-opacity:1" />
<path class="bond-22 atom-10 atom-6" d="M 28.1,334.6 L 45.6,358.5" style="fill:none;fill-rule:evenodd;stroke:#000000;stroke-width:2.0px;stroke-linecap:butt;stroke-linejoin:miter;stroke-opacity:1" />
<path class="atom-7" d="M 25.0 386.7 L 25.0 378.2 L 26.6 378.2 L 30.1 383.9 L 30.1 378.2 L 31.7 378.2 L 31.7 386.7 L 30.0 386.7 L 26.5 381.2 L 26.5 386.7 L 25.0 386.7 " fill="#0000FF" />
<path class="atom-8" d="M -3.9 373.6 Q -3.9 372.3, -3.6 371.4 Q -3.3 370.8, -2.8 370.3 Q -2.3 369.8, -1.7 369.5 Q -0.9 369.2, 0.1 369.2 Q 2.0 369.2, 3.1 370.3 Q 4.3 371.5, 4.3 373.6 Q 4.3 375.6, 3.1 376.8 Q 2.0 377.9, 0.2 377.9 Q -1.7 377.9, -2.8 376.8 Q -3.9 375.6, -3.9 373.6 M -2.2 373.6 Q -2.2 375.0, -1.5 375.7 Q -0.9 376.5, 0.2 376.5 Q 1.2 376.5, 1.8 375.7 Q 2.5 375.0, 2.5 373.5 Q 2.5 372.1, 1.9 371.4 Q 1.2 370.6, 0.2 370.6 Q -0.9 370.6, -1.5 371.4 Q -2.2 372.1, -2.2 373.6 " fill="#FF0000" />
<path class="atom-9" d="M -3.4 348.2 L -3.4 339.7 L -1.7 339.7 L 1.8 345.4 L 1.8 339.7 L 3.4 339.7 L 3.4 348.2 L 1.6 348.2 L -1.8 342.6 L -1.8 348.2 L -3.4 348.2 " fill="#0000FF" />
<path class="atom-16" d="M 158.4 343.7 L 158.4 335.2 L 160.1 335.2 L 163.5 340.9 L 163.5 335.2 L 165.1 335.2 L 165.1 343.7 L 163.4 343.7 L 160.0 338.2 L 160.0 343.7 L 158.4 343.7 " fill="#0000FF" />
<path class="atom-17" d="M 157.5 310.0 Q 157.5 308.7, 157.9 307.8 Q 158.2 307.2, 158.7 306.7 Q 159.2 306.2, 159.8 305.9 Q 160.6 305.6, 161.6 305.6 Q 163.5 305.6, 164.6 306.7 Q 165.7 307.9, 165.7 310.0 Q 165.7 312.0, 164.6 313.2 Q 163.5 314.3, 161.6 314.3 Q 159.7 314.3, 158.6 313.2 Q 157.5 312.0, 157.5 310.0 M 159.3 310.0 Q 159.3 311.4, 159.9 312.1 Q 160.6 312.9, 161.6 312.9 Q 162.6 312.9, 163.3 312.1 Q 164.0 311.4, 164.0 309.9 Q 164.0 308.5, 163.3 307.8 Q 162.7 307.0, 161.6 307.0 Q 160.6 307.0, 159.9 307.8 Q 159.3 308.5, 159.3 310.0 " fill="#FF0000" />
<path class="atom-18" d="M 130.1 305.1 L 130.1 296.7 L 131.8 296.7 L 135.2 302.3 L 135.2 296.7 L 136.8 296.7 L 136.8 305.1 L 135.1 305.1 L 131.7 299.6 L 131.7 305.1 L 130.1 305.1 " fill="#0000FF" />
</svg>