<?xml version='1.0' encoding='iso-8859-1'?>
<svg xmlns="http://www.w3.org/2000/svg" version="1.1" baseProfile="full" xml:space="preserve" width="360" height="278" viewBox="75 117 360 278">

<rect style="opacity:1.0;fill:#FFFFFF;stroke:none" width="512.0" height="512.0" x="0.0" y="0.0"> </rect>
<path class="bond-1 atom-1 atom-2" d="M 223.0,370.5 L 206.5,348.0" style="fill:none;fill-rule:evenodd;stroke:#0000FF;stroke-width:2.0px;stroke-linecap:butt;stroke-linejoin:miter;stroke-opacity:1" />
<path class="bond-1 atom-1 atom-2" d="M 206.5,348.0 L 190.0,325.6" style="fill:none;fill-rule:evenodd;stroke:#000000;stroke-width:2.0px;stroke-linecap:butt;stroke-linejoin:miter;stroke-opacity:1" />
<path class="bond-2 atom-2 atom-3" d="M 190.0,325.6 L 219.0,259.7" style="fill:none;fill-rule:evenodd;stroke:#000000;stroke-width:2.0px;stroke-linecap:butt;stroke-linejoin:miter;stroke-opacity:1" />
<path class="bond-2 atom-2 atom-3" d="M 182.7,315.5 L 206.6,261.1" style="fill:none;fill-rule:evenodd;stroke:#000000;stroke-width:2.0px;stroke-linecap:butt;stroke-linejoin:miter;stroke-opacity:1" />
<path class="bond-3 atom-3 atom-4" d="M 219.0,259.7 L 290.5,251.9" style="fill:none;fill-rule:evenodd;stroke:#000000;stroke-width:2.0px;stroke-linecap:butt;stroke-linejoin:miter;stroke-opacity:1" />
<path class="bond-4 atom-4 atom-5" d="M 290.5,251.9 L 319.5,186.1" style="fill:none;fill-rule:evenodd;stroke:#000000;stroke-width:2.0px;stroke-linecap:butt;stroke-linejoin:miter;stroke-opacity:1" />
<path class="bond-4 atom-4 atom-5" d="M 302.9,250.5 L 326.8,196.1" style="fill:none;fill-rule:evenodd;stroke:#000000;stroke-width:2.0px;stroke-linecap:butt;stroke-linejoin:miter;stroke-opacity:1" />
<path class="bond-5 atom-5 atom-6" d="M 319.5,186.1 L 303.0,163.6" style="fill:none;fill-rule:evenodd;stroke:#000000;stroke-width:2.0px;stroke-linecap:butt;stroke-linejoin:miter;stroke-opacity:1" />
<path class="bond-5 atom-5 atom-6" d="M 303.0,163.6 L 286.6,141.2" style="fill:none;fill-rule:evenodd;stroke:#0000FF;stroke-width:2.0px;stroke-linecap:butt;stroke-linejoin:miter;stroke-opacity:1" />
<path class="bond-7 atom-6 atom-8" d="M 266.0,129.2 L 245.5,131.5" style="fill:none;fill-rule:evenodd;stroke:#0000FF;stroke-width:2.0px;stroke-linecap:butt;stroke-linejoin:miter;stroke-opacity:1" />
<path class="bond-7 atom-6 atom-8" d="M 245.5,131.5 L 224.9,133.7" style="fill:none;fill-rule:evenodd;stroke:#000000;stroke-width:2.0px;stroke-linecap:butt;stroke-linejoin:miter;stroke-opacity:1" />
<path class="bond-10 atom-8 atom-11" d="M 199.7,149.0 L 190.9,168.8" style="fill:none;fill-rule:evenodd;stroke:#000000;stroke-width:2.0px;stroke-linecap:butt;stroke-linejoin:miter;stroke-opacity:1" />
<path class="bond-10 atom-8 atom-11" d="M 190.9,168.8 L 182.2,188.6" style="fill:none;fill-rule:evenodd;stroke:#0000FF;stroke-width:2.0px;stroke-linecap:butt;stroke-linejoin:miter;stroke-opacity:1" />
<path class="bond-11 atom-11 atom-12" d="M 165.6,202.9 L 135.3,206.2" style="fill:none;fill-rule:evenodd;stroke:#0000FF;stroke-width:2.0px;stroke-linecap:butt;stroke-linejoin:miter;stroke-opacity:1" />
<path class="bond-11 atom-11 atom-12" d="M 135.3,206.2 L 105.0,209.6" style="fill:none;fill-rule:evenodd;stroke:#000000;stroke-width:2.0px;stroke-linecap:butt;stroke-linejoin:miter;stroke-opacity:1" />
<path class="bond-11 atom-11 atom-12" d="M 166.7,213.6 L 139.5,216.6" style="fill:none;fill-rule:evenodd;stroke:#0000FF;stroke-width:2.0px;stroke-linecap:butt;stroke-linejoin:miter;stroke-opacity:1" />
<path class="bond-11 atom-11 atom-12" d="M 139.5,216.6 L 112.3,219.6" style="fill:none;fill-rule:evenodd;stroke:#000000;stroke-width:2.0px;stroke-linecap:butt;stroke-linejoin:miter;stroke-opacity:1" />
<path class="bond-13 atom-12 atom-14" d="M 105.0,209.6 L 76.0,275.4" style="fill:none;fill-rule:evenodd;stroke:#000000;stroke-width:2.0px;stroke-linecap:butt;stroke-linejoin:miter;stroke-opacity:1" />
<path class="bond-15 atom-14 atom-16" d="M 76.0,275.4 L 118.5,333.4" style="fill:none;fill-rule:evenodd;stroke:#000000;stroke-width:2.0px;stroke-linecap:butt;stroke-linejoin:miter;stroke-opacity:1" />
<path class="bond-15 atom-14 atom-16" d="M 88.4,274.0 L 123.5,322.0" style="fill:none;fill-rule:evenodd;stroke:#000000;stroke-width:2.0px;stroke-linecap:butt;stroke-linejoin:miter;stroke-opacity:1" />
<path class="bond-17 atom-5 atom-18" d="M 319.5,186.1 L 391.0,178.2" style="fill:none;fill-rule:evenodd;stroke:#000000;stroke-width:2.0px;stroke-linecap:butt;stroke-linejoin:miter;stroke-opacity:1" />
<path class="bond-19 atom-18 atom-20" d="M 391.0,178.2 L 433.5,236.2" style="fill:none;fill-rule:evenodd;stroke:#000000;stroke-width:2.0px;stroke-linecap:butt;stroke-linejoin:miter;stroke-opacity:1" />
<path class="bond-19 atom-18 atom-20" d="M 386.0,189.6 L 421.1,237.6" style="fill:none;fill-rule:evenodd;stroke:#000000;stroke-width:2.0px;stroke-linecap:butt;stroke-linejoin:miter;stroke-opacity:1" />
<path class="bond-21 atom-20 atom-22" d="M 433.5,236.2 L 404.6,302.1" style="fill:none;fill-rule:evenodd;stroke:#000000;stroke-width:2.0px;stroke-linecap:butt;stroke-linejoin:miter;stroke-opacity:1" />
<path class="bond-23 atom-22 atom-24" d="M 404.6,302.1 L 381.2,304.6" style="fill:none;fill-rule:evenodd;stroke:#000000;stroke-width:2.0px;stroke-linecap:butt;stroke-linejoin:miter;stroke-opacity:1" />
<path class="bond-23 atom-22 atom-24" d="M 381.2,304.6 L 357.8,307.2" style="fill:none;fill-rule:evenodd;stroke:#0000FF;stroke-width:2.0px;stroke-linecap:butt;stroke-linejoin:miter;stroke-opacity:1" />
<path class="bond-23 atom-22 atom-24" d="M 397.2,292.0 L 376.9,294.2" style="fill:none;fill-rule:evenodd;stroke:#000000;stroke-width:2.0px;stroke-linecap:butt;stroke-linejoin:miter;stroke-opacity:1" />
<path class="bond-23 atom-22 atom-24" d="M 376.9,294.2 L 356.7,296.5" style="fill:none;fill-rule:evenodd;stroke:#0000FF;stroke-width:2.0px;stroke-linecap:butt;stroke-linejoin:miter;stroke-opacity:1" />
<path class="bond-24 atom-24 atom-25" d="M 327.3,323.0 L 318.6,342.8" style="fill:none;fill-rule:evenodd;stroke:#0000FF;stroke-width:2.0px;stroke-linecap:butt;stroke-linejoin:miter;stroke-opacity:1" />
<path class="bond-24 atom-24 atom-25" d="M 318.6,342.8 L 309.8,362.6" style="fill:none;fill-rule:evenodd;stroke:#000000;stroke-width:2.0px;stroke-linecap:butt;stroke-linejoin:miter;stroke-opacity:1" />
<path class="bond-27 atom-25 atom-1" d="M 292.7,377.0 L 268.1,379.7" style="fill:none;fill-rule:evenodd;stroke:#000000;stroke-width:2.0px;stroke-linecap:butt;stroke-linejoin:miter;stroke-opacity:1" />
<path class="bond-27 atom-25 atom-1" d="M 268.1,379.7 L 243.5,382.4" style="fill:none;fill-rule:evenodd;stroke:#0000FF;stroke-width:2.0px;stroke-linecap:butt;stroke-linejoin:miter;stroke-opacity:1" />
<path class="bond-28 atom-16 atom-2" d="M 118.5,333.4 L 190.0,325.6" style="fill:none;fill-rule:evenodd;stroke:#000000;stroke-width:2.0px;stroke-linecap:butt;stroke-linejoin:miter;stroke-opacity:1" />
<path class="bond-29 atom-11 atom-3" d="M 186.1,214.8 L 202.5,237.3" style="fill:none;fill-rule:evenodd;stroke:#0000FF;stroke-width:2.0px;stroke-linecap:butt;stroke-linejoin:miter;stroke-opacity:1" />
<path class="bond-29 atom-11 atom-3" d="M 202.5,237.3 L 219.0,259.7" style="fill:none;fill-rule:evenodd;stroke:#000000;stroke-width:2.0px;stroke-linecap:butt;stroke-linejoin:miter;stroke-opacity:1" />
<path class="bond-30 atom-24 atom-4" d="M 323.4,296.8 L 307.0,274.4" style="fill:none;fill-rule:evenodd;stroke:#0000FF;stroke-width:2.0px;stroke-linecap:butt;stroke-linejoin:miter;stroke-opacity:1" />
<path class="bond-30 atom-24 atom-4" d="M 307.0,274.4 L 290.5,251.9" style="fill:none;fill-rule:evenodd;stroke:#000000;stroke-width:2.0px;stroke-linecap:butt;stroke-linejoin:miter;stroke-opacity:1" />
<path class="atom-1" d="M 224.0 394.3 L 224.0 372.9 L 228.3 372.9 L 237.1 387.2 L 237.1 372.9 L 241.1 372.9 L 241.1 394.3 L 236.7 394.3 L 228.1 380.3 L 228.1 394.3 L 224.0 394.3 " fill="#0000FF" />
<path class="atom-6" d="M 268.4 138.8 L 268.4 117.3 L 272.6 117.3 L 281.4 131.6 L 281.4 117.3 L 285.5 117.3 L 285.5 138.8 L 281.1 138.8 L 272.4 124.8 L 272.4 138.8 L 268.4 138.8 " fill="#0000FF" />
<path class="atom-8" d="M 196.4 125.1 L 205.0 125.1 Q 207.6 125.1, 208.8 125.4 Q 210.1 125.6, 211.1 126.2 Q 212.1 126.9, 212.7 128.0 Q 213.4 129.2, 213.4 130.5 Q 213.4 132.1, 212.5 133.3 Q 211.7 134.6, 210.4 135.2 Q 212.3 135.8, 213.4 137.2 Q 214.4 138.5, 214.4 140.4 Q 214.4 141.9, 213.7 143.2 Q 213.1 144.6, 211.9 145.5 Q 210.7 146.3, 209.0 146.5 Q 207.9 146.6, 203.7 146.6 L 196.4 146.6 L 196.4 125.1 M 200.8 128.7 L 200.8 133.7 L 203.6 133.7 Q 206.1 133.7, 206.8 133.6 Q 207.9 133.5, 208.5 132.8 Q 209.2 132.2, 209.2 131.2 Q 209.2 130.2, 208.6 129.5 Q 208.1 128.9, 207.0 128.8 Q 206.3 128.7, 203.3 128.7 L 200.8 128.7 M 200.8 137.3 L 200.8 143.0 L 204.8 143.0 Q 207.1 143.0, 207.8 142.9 Q 208.7 142.7, 209.3 142.0 Q 209.9 141.3, 209.9 140.2 Q 209.9 139.2, 209.5 138.5 Q 209.0 137.9, 208.1 137.6 Q 207.2 137.3, 204.3 137.3 L 200.8 137.3 " fill="#000000" />
<path class="atom-8" d="M 217.2 132.1 L 217.2 129.4 L 222.5 129.4 L 222.5 132.1 L 217.2 132.1 " fill="#000000" />
<path class="atom-11" d="M 167.9 212.5 L 167.9 191.0 L 172.2 191.0 L 180.9 205.3 L 180.9 191.0 L 185.0 191.0 L 185.0 212.5 L 180.6 212.5 L 172.0 198.5 L 172.0 212.5 L 167.9 212.5 " fill="#0000FF" />
<path class="atom-11" d="M 192.7 199.7 L 192.7 196.0 L 189.0 196.0 L 189.0 193.5 L 192.7 193.5 L 192.7 189.8 L 195.2 189.8 L 195.2 193.5 L 198.9 193.5 L 198.9 196.0 L 195.2 196.0 L 195.2 199.7 L 192.7 199.7 " fill="#0000FF" />
<path class="atom-24" d="M 324.5 320.6 L 324.5 299.2 L 328.7 299.2 L 337.5 313.5 L 337.5 299.2 L 341.6 299.2 L 341.6 320.6 L 337.2 320.6 L 328.6 306.6 L 328.6 320.6 L 324.5 320.6 " fill="#0000FF" />
<path class="atom-24" d="M 349.3 307.9 L 349.3 304.2 L 345.6 304.2 L 345.6 301.6 L 349.3 301.6 L 349.3 298.0 L 351.8 298.0 L 351.8 301.6 L 355.5 301.6 L 355.5 304.2 L 351.8 304.2 L 351.8 307.9 L 349.3 307.9 " fill="#0000FF" />
<path class="atom-25" d="M 295.1 365.0 L 303.7 365.0 Q 306.2 365.0, 307.5 365.2 Q 308.7 365.4, 309.7 366.1 Q 310.7 366.8, 311.4 367.9 Q 312.0 369.0, 312.0 370.4 Q 312.0 371.9, 311.2 373.2 Q 310.4 374.5, 309.0 375.1 Q 311.0 375.7, 312.0 377.0 Q 313.1 378.4, 313.1 380.3 Q 313.1 381.7, 312.4 383.1 Q 311.7 384.5, 310.5 385.3 Q 309.3 386.2, 307.6 386.3 Q 306.5 386.5, 302.4 386.5 L 295.1 386.5 L 295.1 365.0 M 299.4 368.6 L 299.4 373.6 L 302.3 373.6 Q 304.8 373.6, 305.4 373.5 Q 306.5 373.4, 307.1 372.7 Q 307.8 372.1, 307.8 371.0 Q 307.8 370.0, 307.2 369.4 Q 306.7 368.8, 305.6 368.7 Q 305.0 368.6, 301.9 368.6 L 299.4 368.6 M 299.4 377.1 L 299.4 382.9 L 303.4 382.9 Q 305.8 382.9, 306.4 382.7 Q 307.4 382.6, 308.0 381.9 Q 308.6 381.2, 308.6 380.1 Q 308.6 379.1, 308.1 378.4 Q 307.6 377.7, 306.8 377.4 Q 305.9 377.1, 302.9 377.1 L 299.4 377.1 " fill="#000000" />
<path class="atom-25" d="M 315.8 372.0 L 315.8 369.3 L 321.2 369.3 L 321.2 372.0 L 315.8 372.0 " fill="#000000" />
</svg>