<?xml version='1.0' encoding='iso-8859-1'?>
<svg xmlns="http://www.w3.org/2000/svg" version="1.1" baseProfile="full" xml:space="preserve" width="150" height="115" viewBox="28 269 150 115">

<rect style="opacity:1.0;fill:#FFFFFF;stroke:none" width="512.0" height="512.0" x="0.0" y="0.0"> </rect>
<path class="bond-1 atom-1 atom-2" d="M 89.9,373.9 L 83.1,364.5" style="fill:none;fill-rule:evenodd;stroke:#0000FF;stroke-width:2.0px;stroke-linecap:butt;stroke-linejoin:miter;stroke-opacity:1" />
<path class="bond-1 atom-1 atom-2" d="M 83.1,364.5 L 76.2,355.2" style="fill:none;fill-rule:evenodd;stroke:#000000;stroke-width:2.0px;stroke-linecap:butt;stroke-linejoin:miter;stroke-opacity:1" />
<path class="bond-2 atom-2 atom-3" d="M 76.2,355.2 L 88.2,328.2" style="fill:none;fill-rule:evenodd;stroke:#000000;stroke-width:2.0px;stroke-linecap:butt;stroke-linejoin:miter;stroke-opacity:1" />
<path class="bond-2 atom-2 atom-3" d="M 73.2,351.1 L 83.1,328.7" style="fill:none;fill-rule:evenodd;stroke:#000000;stroke-width:2.0px;stroke-linecap:butt;stroke-linejoin:miter;stroke-opacity:1" />
<path class="bond-3 atom-3 atom-4" d="M 88.2,328.2 L 117.5,324.9" style="fill:none;fill-rule:evenodd;stroke:#000000;stroke-width:2.0px;stroke-linecap:butt;stroke-linejoin:miter;stroke-opacity:1" />
<path class="bond-4 atom-4 atom-5" d="M 117.5,324.9 L 129.4,297.9" style="fill:none;fill-rule:evenodd;stroke:#000000;stroke-width:2.0px;stroke-linecap:butt;stroke-linejoin:miter;stroke-opacity:1" />
<path class="bond-4 atom-4 atom-5" d="M 122.6,324.4 L 132.5,302.0" style="fill:none;fill-rule:evenodd;stroke:#000000;stroke-width:2.0px;stroke-linecap:butt;stroke-linejoin:miter;stroke-opacity:1" />
<path class="bond-5 atom-5 atom-6" d="M 129.4,297.9 L 122.6,288.6" style="fill:none;fill-rule:evenodd;stroke:#000000;stroke-width:2.0px;stroke-linecap:butt;stroke-linejoin:miter;stroke-opacity:1" />
<path class="bond-5 atom-5 atom-6" d="M 122.6,288.6 L 115.8,279.3" style="fill:none;fill-rule:evenodd;stroke:#0000FF;stroke-width:2.0px;stroke-linecap:butt;stroke-linejoin:miter;stroke-opacity:1" />
<path class="bond-7 atom-6 atom-8" d="M 107.6,274.5 L 99.0,275.5" style="fill:none;fill-rule:evenodd;stroke:#0000FF;stroke-width:2.0px;stroke-linecap:butt;stroke-linejoin:miter;stroke-opacity:1" />
<path class="bond-7 atom-6 atom-8" d="M 99.0,275.5 L 90.3,276.4" style="fill:none;fill-rule:evenodd;stroke:#000000;stroke-width:2.0px;stroke-linecap:butt;stroke-linejoin:miter;stroke-opacity:1" />
<path class="bond-10 atom-8 atom-11" d="M 80.3,282.5 L 76.6,290.8" style="fill:none;fill-rule:evenodd;stroke:#000000;stroke-width:2.0px;stroke-linecap:butt;stroke-linejoin:miter;stroke-opacity:1" />
<path class="bond-10 atom-8 atom-11" d="M 76.6,290.8 L 73.0,299.1" style="fill:none;fill-rule:evenodd;stroke:#0000FF;stroke-width:2.0px;stroke-linecap:butt;stroke-linejoin:miter;stroke-opacity:1" />
<path class="bond-11 atom-11 atom-12" d="M 66.3,304.8 L 53.8,306.2" style="fill:none;fill-rule:evenodd;stroke:#0000FF;stroke-width:2.0px;stroke-linecap:butt;stroke-linejoin:miter;stroke-opacity:1" />
<path class="bond-11 atom-11 atom-12" d="M 53.8,306.2 L 41.3,307.5" style="fill:none;fill-rule:evenodd;stroke:#000000;stroke-width:2.0px;stroke-linecap:butt;stroke-linejoin:miter;stroke-opacity:1" />
<path class="bond-11 atom-11 atom-12" d="M 66.8,309.2 L 55.6,310.4" style="fill:none;fill-rule:evenodd;stroke:#0000FF;stroke-width:2.0px;stroke-linecap:butt;stroke-linejoin:miter;stroke-opacity:1" />
<path class="bond-11 atom-11 atom-12" d="M 55.6,310.4 L 44.3,311.7" style="fill:none;fill-rule:evenodd;stroke:#000000;stroke-width:2.0px;stroke-linecap:butt;stroke-linejoin:miter;stroke-opacity:1" />
<path class="bond-13 atom-12 atom-14" d="M 41.3,307.5 L 29.4,334.6" style="fill:none;fill-rule:evenodd;stroke:#000000;stroke-width:2.0px;stroke-linecap:butt;stroke-linejoin:miter;stroke-opacity:1" />
<path class="bond-15 atom-14 atom-16" d="M 29.4,334.6 L 46.9,358.4" style="fill:none;fill-rule:evenodd;stroke:#000000;stroke-width:2.0px;stroke-linecap:butt;stroke-linejoin:miter;stroke-opacity:1" />
<path class="bond-15 atom-14 atom-16" d="M 34.5,334.0 L 48.9,353.8" style="fill:none;fill-rule:evenodd;stroke:#000000;stroke-width:2.0px;stroke-linecap:butt;stroke-linejoin:miter;stroke-opacity:1" />
<path class="bond-17 atom-5 atom-18" d="M 129.4,297.9 L 158.8,294.7" style="fill:none;fill-rule:evenodd;stroke:#000000;stroke-width:2.0px;stroke-linecap:butt;stroke-linejoin:miter;stroke-opacity:1" />
<path class="bond-19 atom-18 atom-20" d="M 158.8,294.7 L 176.3,318.5" style="fill:none;fill-rule:evenodd;stroke:#000000;stroke-width:2.0px;stroke-linecap:butt;stroke-linejoin:miter;stroke-opacity:1" />
<path class="bond-19 atom-18 atom-20" d="M 156.8,299.4 L 171.2,319.1" style="fill:none;fill-rule:evenodd;stroke:#000000;stroke-width:2.0px;stroke-linecap:butt;stroke-linejoin:miter;stroke-opacity:1" />
<path class="bond-21 atom-20 atom-22" d="M 176.3,318.5 L 164.4,345.6" style="fill:none;fill-rule:evenodd;stroke:#000000;stroke-width:2.0px;stroke-linecap:butt;stroke-linejoin:miter;stroke-opacity:1" />
<path class="bond-23 atom-22 atom-24" d="M 164.4,345.6 L 154.6,346.6" style="fill:none;fill-rule:evenodd;stroke:#000000;stroke-width:2.0px;stroke-linecap:butt;stroke-linejoin:miter;stroke-opacity:1" />
<path class="bond-23 atom-22 atom-24" d="M 154.6,346.6 L 144.8,347.7" style="fill:none;fill-rule:evenodd;stroke:#0000FF;stroke-width:2.0px;stroke-linecap:butt;stroke-linejoin:miter;stroke-opacity:1" />
<path class="bond-23 atom-22 atom-24" d="M 161.4,341.4 L 152.9,342.4" style="fill:none;fill-rule:evenodd;stroke:#000000;stroke-width:2.0px;stroke-linecap:butt;stroke-linejoin:miter;stroke-opacity:1" />
<path class="bond-23 atom-22 atom-24" d="M 152.9,342.4 L 144.4,343.3" style="fill:none;fill-rule:evenodd;stroke:#0000FF;stroke-width:2.0px;stroke-linecap:butt;stroke-linejoin:miter;stroke-opacity:1" />
<path class="bond-24 atom-24 atom-25" d="M 132.7,354.0 L 129.1,362.3" style="fill:none;fill-rule:evenodd;stroke:#0000FF;stroke-width:2.0px;stroke-linecap:butt;stroke-linejoin:miter;stroke-opacity:1" />
<path class="bond-24 atom-24 atom-25" d="M 129.1,362.3 L 125.4,370.6" style="fill:none;fill-rule:evenodd;stroke:#000000;stroke-width:2.0px;stroke-linecap:butt;stroke-linejoin:miter;stroke-opacity:1" />
<path class="bond-27 atom-25 atom-1" d="M 118.6,376.3 L 108.3,377.5" style="fill:none;fill-rule:evenodd;stroke:#000000;stroke-width:2.0px;stroke-linecap:butt;stroke-linejoin:miter;stroke-opacity:1" />
<path class="bond-27 atom-25 atom-1" d="M 108.3,377.5 L 98.1,378.6" style="fill:none;fill-rule:evenodd;stroke:#0000FF;stroke-width:2.0px;stroke-linecap:butt;stroke-linejoin:miter;stroke-opacity:1" />
<path class="bond-28 atom-16 atom-2" d="M 46.9,358.4 L 76.2,355.2" style="fill:none;fill-rule:evenodd;stroke:#000000;stroke-width:2.0px;stroke-linecap:butt;stroke-linejoin:miter;stroke-opacity:1" />
<path class="bond-29 atom-11 atom-3" d="M 74.5,309.5 L 81.3,318.8" style="fill:none;fill-rule:evenodd;stroke:#0000FF;stroke-width:2.0px;stroke-linecap:butt;stroke-linejoin:miter;stroke-opacity:1" />
<path class="bond-29 atom-11 atom-3" d="M 81.3,318.8 L 88.2,328.2" style="fill:none;fill-rule:evenodd;stroke:#000000;stroke-width:2.0px;stroke-linecap:butt;stroke-linejoin:miter;stroke-opacity:1" />
<path class="bond-30 atom-24 atom-4" d="M 131.2,343.6 L 124.4,334.3" style="fill:none;fill-rule:evenodd;stroke:#0000FF;stroke-width:2.0px;stroke-linecap:butt;stroke-linejoin:miter;stroke-opacity:1" />
<path class="bond-30 atom-24 atom-4" d="M 124.4,334.3 L 117.5,324.9" style="fill:none;fill-rule:evenodd;stroke:#000000;stroke-width:2.0px;stroke-linecap:butt;stroke-linejoin:miter;stroke-opacity:1" />
<path class="atom-1" d="M 90.4 383.3 L 90.4 374.8 L 92.0 374.8 L 95.5 380.5 L 95.5 374.8 L 97.1 374.8 L 97.1 383.3 L 95.4 383.3 L 92.0 377.8 L 92.0 383.3 L 90.4 383.3 " fill="#0000FF" />
<path class="atom-6" d="M 108.6 278.3 L 108.6 269.8 L 110.3 269.8 L 113.7 275.5 L 113.7 269.8 L 115.3 269.8 L 115.3 278.3 L 113.6 278.3 L 110.2 272.8 L 110.2 278.3 L 108.6 278.3 " fill="#0000FF" />
<path class="atom-8" d="M 79.0 273.0 L 82.4 273.0 Q 83.4 273.0, 83.9 273.1 Q 84.4 273.2, 84.8 273.5 Q 85.2 273.7, 85.4 274.2 Q 85.7 274.6, 85.7 275.2 Q 85.7 275.8, 85.4 276.3 Q 85.1 276.8, 84.5 277.0 Q 85.3 277.2, 85.7 277.8 Q 86.1 278.3, 86.1 279.0 Q 86.1 279.6, 85.9 280.2 Q 85.6 280.7, 85.1 281.0 Q 84.7 281.4, 84.0 281.4 Q 83.5 281.5, 81.9 281.5 L 79.0 281.5 L 79.0 273.0 M 80.7 274.4 L 80.7 276.4 L 81.9 276.4 Q 82.9 276.4, 83.1 276.4 Q 83.5 276.3, 83.8 276.1 Q 84.0 275.8, 84.0 275.4 Q 84.0 275.0, 83.8 274.8 Q 83.6 274.5, 83.2 274.5 Q 82.9 274.4, 81.7 274.4 L 80.7 274.4 M 80.7 277.8 L 80.7 280.1 L 82.3 280.1 Q 83.2 280.1, 83.5 280.0 Q 83.9 280.0, 84.1 279.7 Q 84.4 279.4, 84.4 279.0 Q 84.4 278.6, 84.2 278.3 Q 84.0 278.1, 83.6 277.9 Q 83.3 277.8, 82.1 277.8 L 80.7 277.8 " fill="#000000" />
<path class="atom-8" d="M 87.2 275.8 L 87.2 274.7 L 89.3 274.7 L 89.3 275.8 L 87.2 275.8 " fill="#000000" />
<path class="atom-11" d="M 67.3 308.6 L 67.3 300.1 L 69.0 300.1 L 72.4 305.7 L 72.4 300.1 L 74.0 300.1 L 74.0 308.6 L 72.3 308.6 L 68.9 303.0 L 68.9 308.6 L 67.3 308.6 " fill="#0000FF" />
<path class="atom-11" d="M 77.1 303.5 L 77.1 302.1 L 75.6 302.1 L 75.6 301.1 L 77.1 301.1 L 77.1 299.6 L 78.0 299.6 L 78.0 301.1 L 79.5 301.1 L 79.5 302.1 L 78.0 302.1 L 78.0 303.5 L 77.1 303.5 " fill="#0000FF" />
<path class="atom-24" d="M 131.7 353.0 L 131.7 344.6 L 133.3 344.6 L 136.8 350.2 L 136.8 344.6 L 138.4 344.6 L 138.4 353.0 L 136.7 353.0 L 133.2 347.5 L 133.2 353.0 L 131.7 353.0 " fill="#0000FF" />
<path class="atom-24" d="M 141.4 348.0 L 141.4 346.5 L 140.0 346.5 L 140.0 345.5 L 141.4 345.5 L 141.4 344.1 L 142.4 344.1 L 142.4 345.5 L 143.9 345.5 L 143.9 346.5 L 142.4 346.5 L 142.4 348.0 L 141.4 348.0 " fill="#0000FF" />
<path class="atom-25" d="M 119.6 371.6 L 123.0 371.6 Q 124.0 371.6, 124.4 371.7 Q 124.9 371.8, 125.3 372.0 Q 125.7 372.3, 126.0 372.8 Q 126.2 373.2, 126.2 373.7 Q 126.2 374.3, 125.9 374.8 Q 125.6 375.3, 125.1 375.6 Q 125.8 375.8, 126.2 376.3 Q 126.7 376.9, 126.7 377.6 Q 126.7 378.2, 126.4 378.7 Q 126.1 379.3, 125.7 379.6 Q 125.2 379.9, 124.5 380.0 Q 124.1 380.1, 122.4 380.1 L 119.6 380.1 L 119.6 371.6 M 121.3 373.0 L 121.3 375.0 L 122.4 375.0 Q 123.4 375.0, 123.6 374.9 Q 124.1 374.9, 124.3 374.6 Q 124.6 374.4, 124.6 374.0 Q 124.6 373.6, 124.4 373.3 Q 124.1 373.1, 123.7 373.0 Q 123.5 373.0, 122.3 373.0 L 121.3 373.0 M 121.3 376.4 L 121.3 378.6 L 122.9 378.6 Q 123.8 378.6, 124.0 378.6 Q 124.4 378.5, 124.6 378.3 Q 124.9 378.0, 124.9 377.5 Q 124.9 377.2, 124.7 376.9 Q 124.5 376.6, 124.2 376.5 Q 123.8 376.4, 122.7 376.4 L 121.3 376.4 " fill="#000000" />
<path class="atom-25" d="M 127.8 374.4 L 127.8 373.3 L 129.9 373.3 L 129.9 374.4 L 127.8 374.4 " fill="#000000" />
</svg>