<?xml version='1.0' encoding='iso-8859-1'?>
<svg xmlns="http://www.w3.org/2000/svg" version="1.1" baseProfile="full" xml:space="preserve" width="246" height="112" viewBox="25 273 246 112">

<rect style="opacity:1.0;fill:#FFFFFF;stroke:none" width="512.0" height="512.0" x="0.0" y="0.0"> </rect>
<path class="bond-1 atom-1 atom-2" d="M 263.0,334.5 L 257.1,344.7" style="fill:none;fill-rule:evenodd;stroke:#0000FF;stroke-width:2.0px;stroke-linecap:butt;stroke-linejoin:miter;stroke-opacity:1" />
<path class="bond-1 atom-1 atom-2" d="M 257.1,344.7 L 251.3,354.9" style="fill:none;fill-rule:evenodd;stroke:#000000;stroke-width:2.0px;stroke-linecap:butt;stroke-linejoin:miter;stroke-opacity:1" />
<path class="bond-2 atom-2 atom-3" d="M 248.7,354.9 L 254.9,365.6" style="fill:none;fill-rule:evenodd;stroke:#000000;stroke-width:2.0px;stroke-linecap:butt;stroke-linejoin:miter;stroke-opacity:1" />
<path class="bond-2 atom-2 atom-3" d="M 254.9,365.6 L 261.1,376.3" style="fill:none;fill-rule:evenodd;stroke:#FF0000;stroke-width:2.0px;stroke-linecap:butt;stroke-linejoin:miter;stroke-opacity:1" />
<path class="bond-2 atom-2 atom-3" d="M 252.5,352.7 L 258.7,363.4" style="fill:none;fill-rule:evenodd;stroke:#000000;stroke-width:2.0px;stroke-linecap:butt;stroke-linejoin:miter;stroke-opacity:1" />
<path class="bond-2 atom-2 atom-3" d="M 258.7,363.4 L 264.9,374.1" style="fill:none;fill-rule:evenodd;stroke:#FF0000;stroke-width:2.0px;stroke-linecap:butt;stroke-linejoin:miter;stroke-opacity:1" />
<path class="bond-3 atom-2 atom-4" d="M 251.3,354.9 L 221.7,354.9" style="fill:none;fill-rule:evenodd;stroke:#000000;stroke-width:2.0px;stroke-linecap:butt;stroke-linejoin:miter;stroke-opacity:1" />
<path class="bond-4 atom-4 atom-5" d="M 221.7,354.9 L 206.9,380.5" style="fill:none;fill-rule:evenodd;stroke:#000000;stroke-width:2.0px;stroke-linecap:butt;stroke-linejoin:miter;stroke-opacity:1" />
<path class="bond-4 atom-4 atom-5" d="M 216.6,354.9 L 204.4,376.1" style="fill:none;fill-rule:evenodd;stroke:#000000;stroke-width:2.0px;stroke-linecap:butt;stroke-linejoin:miter;stroke-opacity:1" />
<path class="bond-6 atom-5 atom-7" d="M 206.9,380.5 L 177.4,380.5" style="fill:none;fill-rule:evenodd;stroke:#000000;stroke-width:2.0px;stroke-linecap:butt;stroke-linejoin:miter;stroke-opacity:1" />
<path class="bond-8 atom-7 atom-9" d="M 177.4,380.5 L 162.6,354.9" style="fill:none;fill-rule:evenodd;stroke:#000000;stroke-width:2.0px;stroke-linecap:butt;stroke-linejoin:miter;stroke-opacity:1" />
<path class="bond-8 atom-7 atom-9" d="M 179.9,376.1 L 167.7,354.9" style="fill:none;fill-rule:evenodd;stroke:#000000;stroke-width:2.0px;stroke-linecap:butt;stroke-linejoin:miter;stroke-opacity:1" />
<path class="bond-9 atom-9 atom-10" d="M 162.6,354.9 L 133.0,354.9" style="fill:none;fill-rule:evenodd;stroke:#000000;stroke-width:2.0px;stroke-linecap:butt;stroke-linejoin:miter;stroke-opacity:1" />
<path class="bond-10 atom-10 atom-11" d="M 133.0,354.9 L 118.2,380.5" style="fill:none;fill-rule:evenodd;stroke:#000000;stroke-width:2.0px;stroke-linecap:butt;stroke-linejoin:miter;stroke-opacity:1" />
<path class="bond-10 atom-10 atom-11" d="M 127.9,354.9 L 115.7,376.1" style="fill:none;fill-rule:evenodd;stroke:#000000;stroke-width:2.0px;stroke-linecap:butt;stroke-linejoin:miter;stroke-opacity:1" />
<path class="bond-12 atom-11 atom-13" d="M 118.2,380.5 L 88.7,380.5" style="fill:none;fill-rule:evenodd;stroke:#000000;stroke-width:2.0px;stroke-linecap:butt;stroke-linejoin:miter;stroke-opacity:1" />
<path class="bond-14 atom-13 atom-15" d="M 88.7,380.5 L 73.9,354.9" style="fill:none;fill-rule:evenodd;stroke:#000000;stroke-width:2.0px;stroke-linecap:butt;stroke-linejoin:miter;stroke-opacity:1" />
<path class="bond-14 atom-13 atom-15" d="M 91.2,376.1 L 79.0,354.9" style="fill:none;fill-rule:evenodd;stroke:#000000;stroke-width:2.0px;stroke-linecap:butt;stroke-linejoin:miter;stroke-opacity:1" />
<path class="bond-15 atom-15 atom-16" d="M 73.9,354.9 L 44.3,354.9" style="fill:none;fill-rule:evenodd;stroke:#000000;stroke-width:2.0px;stroke-linecap:butt;stroke-linejoin:miter;stroke-opacity:1" />
<path class="bond-16 atom-16 atom-17" d="M 43.1,352.7 L 36.9,363.4" style="fill:none;fill-rule:evenodd;stroke:#000000;stroke-width:2.0px;stroke-linecap:butt;stroke-linejoin:miter;stroke-opacity:1" />
<path class="bond-16 atom-16 atom-17" d="M 36.9,363.4 L 30.7,374.1" style="fill:none;fill-rule:evenodd;stroke:#FF0000;stroke-width:2.0px;stroke-linecap:butt;stroke-linejoin:miter;stroke-opacity:1" />
<path class="bond-16 atom-16 atom-17" d="M 46.9,354.9 L 40.7,365.6" style="fill:none;fill-rule:evenodd;stroke:#000000;stroke-width:2.0px;stroke-linecap:butt;stroke-linejoin:miter;stroke-opacity:1" />
<path class="bond-16 atom-16 atom-17" d="M 40.7,365.6 L 34.5,376.3" style="fill:none;fill-rule:evenodd;stroke:#FF0000;stroke-width:2.0px;stroke-linecap:butt;stroke-linejoin:miter;stroke-opacity:1" />
<path class="bond-17 atom-16 atom-18" d="M 44.3,354.9 L 38.5,344.7" style="fill:none;fill-rule:evenodd;stroke:#000000;stroke-width:2.0px;stroke-linecap:butt;stroke-linejoin:miter;stroke-opacity:1" />
<path class="bond-17 atom-16 atom-18" d="M 38.5,344.7 L 32.6,334.5" style="fill:none;fill-rule:evenodd;stroke:#0000FF;stroke-width:2.0px;stroke-linecap:butt;stroke-linejoin:miter;stroke-opacity:1" />
<path class="bond-19 atom-18 atom-20" d="M 32.6,324.1 L 38.5,313.9" style="fill:none;fill-rule:evenodd;stroke:#0000FF;stroke-width:2.0px;stroke-linecap:butt;stroke-linejoin:miter;stroke-opacity:1" />
<path class="bond-19 atom-18 atom-20" d="M 38.5,313.9 L 44.3,303.7" style="fill:none;fill-rule:evenodd;stroke:#000000;stroke-width:2.0px;stroke-linecap:butt;stroke-linejoin:miter;stroke-opacity:1" />
<path class="bond-20 atom-20 atom-21" d="M 46.9,303.7 L 40.8,293.1" style="fill:none;fill-rule:evenodd;stroke:#000000;stroke-width:2.0px;stroke-linecap:butt;stroke-linejoin:miter;stroke-opacity:1" />
<path class="bond-20 atom-20 atom-21" d="M 40.8,293.1 L 34.6,282.4" style="fill:none;fill-rule:evenodd;stroke:#FF0000;stroke-width:2.0px;stroke-linecap:butt;stroke-linejoin:miter;stroke-opacity:1" />
<path class="bond-20 atom-20 atom-21" d="M 43.1,305.9 L 36.9,295.3" style="fill:none;fill-rule:evenodd;stroke:#000000;stroke-width:2.0px;stroke-linecap:butt;stroke-linejoin:miter;stroke-opacity:1" />
<path class="bond-20 atom-20 atom-21" d="M 36.9,295.3 L 30.8,284.6" style="fill:none;fill-rule:evenodd;stroke:#FF0000;stroke-width:2.0px;stroke-linecap:butt;stroke-linejoin:miter;stroke-opacity:1" />
<path class="bond-21 atom-20 atom-22" d="M 44.3,303.7 L 73.9,303.7" style="fill:none;fill-rule:evenodd;stroke:#000000;stroke-width:2.0px;stroke-linecap:butt;stroke-linejoin:miter;stroke-opacity:1" />
<path class="bond-22 atom-22 atom-23" d="M 73.9,303.7 L 88.7,329.3" style="fill:none;fill-rule:evenodd;stroke:#000000;stroke-width:2.0px;stroke-linecap:butt;stroke-linejoin:miter;stroke-opacity:1" />
<path class="bond-22 atom-22 atom-23" d="M 79.0,303.7 L 91.2,324.9" style="fill:none;fill-rule:evenodd;stroke:#000000;stroke-width:2.0px;stroke-linecap:butt;stroke-linejoin:miter;stroke-opacity:1" />
<path class="bond-23 atom-23 atom-24" d="M 88.7,329.3 L 118.2,329.3" style="fill:none;fill-rule:evenodd;stroke:#000000;stroke-width:2.0px;stroke-linecap:butt;stroke-linejoin:miter;stroke-opacity:1" />
<path class="bond-24 atom-24 atom-25" d="M 118.2,329.3 L 133.0,303.7" style="fill:none;fill-rule:evenodd;stroke:#000000;stroke-width:2.0px;stroke-linecap:butt;stroke-linejoin:miter;stroke-opacity:1" />
<path class="bond-24 atom-24 atom-25" d="M 115.7,324.9 L 127.9,303.7" style="fill:none;fill-rule:evenodd;stroke:#000000;stroke-width:2.0px;stroke-linecap:butt;stroke-linejoin:miter;stroke-opacity:1" />
<path class="bond-25 atom-25 atom-26" d="M 133.0,303.7 L 118.2,278.1" style="fill:none;fill-rule:evenodd;stroke:#000000;stroke-width:2.0px;stroke-linecap:butt;stroke-linejoin:miter;stroke-opacity:1" />
<path class="bond-27 atom-26 atom-28" d="M 118.2,278.1 L 88.7,278.1" style="fill:none;fill-rule:evenodd;stroke:#000000;stroke-width:2.0px;stroke-linecap:butt;stroke-linejoin:miter;stroke-opacity:1" />
<path class="bond-27 atom-26 atom-28" d="M 115.7,282.6 L 91.2,282.6" style="fill:none;fill-rule:evenodd;stroke:#000000;stroke-width:2.0px;stroke-linecap:butt;stroke-linejoin:miter;stroke-opacity:1" />
<path class="bond-29 atom-25 atom-30" d="M 133.0,303.7 L 162.6,303.7" style="fill:none;fill-rule:evenodd;stroke:#000000;stroke-width:2.0px;stroke-linecap:butt;stroke-linejoin:miter;stroke-opacity:1" />
<path class="bond-30 atom-30 atom-31" d="M 162.6,303.7 L 177.4,278.1" style="fill:none;fill-rule:evenodd;stroke:#000000;stroke-width:2.0px;stroke-linecap:butt;stroke-linejoin:miter;stroke-opacity:1" />
<path class="bond-30 atom-30 atom-31" d="M 167.7,303.7 L 179.9,282.6" style="fill:none;fill-rule:evenodd;stroke:#000000;stroke-width:2.0px;stroke-linecap:butt;stroke-linejoin:miter;stroke-opacity:1" />
<path class="bond-32 atom-31 atom-33" d="M 177.4,278.1 L 206.9,278.1" style="fill:none;fill-rule:evenodd;stroke:#000000;stroke-width:2.0px;stroke-linecap:butt;stroke-linejoin:miter;stroke-opacity:1" />
<path class="bond-34 atom-33 atom-35" d="M 206.9,278.1 L 221.7,303.7" style="fill:none;fill-rule:evenodd;stroke:#000000;stroke-width:2.0px;stroke-linecap:butt;stroke-linejoin:miter;stroke-opacity:1" />
<path class="bond-34 atom-33 atom-35" d="M 204.4,282.6 L 216.6,303.7" style="fill:none;fill-rule:evenodd;stroke:#000000;stroke-width:2.0px;stroke-linecap:butt;stroke-linejoin:miter;stroke-opacity:1" />
<path class="bond-35 atom-35 atom-36" d="M 221.7,303.7 L 251.3,303.7" style="fill:none;fill-rule:evenodd;stroke:#000000;stroke-width:2.0px;stroke-linecap:butt;stroke-linejoin:miter;stroke-opacity:1" />
<path class="bond-36 atom-36 atom-37" d="M 252.5,305.9 L 258.7,295.3" style="fill:none;fill-rule:evenodd;stroke:#000000;stroke-width:2.0px;stroke-linecap:butt;stroke-linejoin:miter;stroke-opacity:1" />
<path class="bond-36 atom-36 atom-37" d="M 258.7,295.3 L 264.8,284.6" style="fill:none;fill-rule:evenodd;stroke:#FF0000;stroke-width:2.0px;stroke-linecap:butt;stroke-linejoin:miter;stroke-opacity:1" />
<path class="bond-36 atom-36 atom-37" d="M 248.7,303.7 L 254.8,293.1" style="fill:none;fill-rule:evenodd;stroke:#000000;stroke-width:2.0px;stroke-linecap:butt;stroke-linejoin:miter;stroke-opacity:1" />
<path class="bond-36 atom-36 atom-37" d="M 254.8,293.1 L 261.0,282.4" style="fill:none;fill-rule:evenodd;stroke:#FF0000;stroke-width:2.0px;stroke-linecap:butt;stroke-linejoin:miter;stroke-opacity:1" />
<path class="bond-37 atom-35 atom-38" d="M 221.7,303.7 L 206.9,329.3" style="fill:none;fill-rule:evenodd;stroke:#000000;stroke-width:2.0px;stroke-linecap:butt;stroke-linejoin:miter;stroke-opacity:1" />
<path class="bond-38 atom-38 atom-39" d="M 206.9,329.3 L 177.4,329.3" style="fill:none;fill-rule:evenodd;stroke:#000000;stroke-width:2.0px;stroke-linecap:butt;stroke-linejoin:miter;stroke-opacity:1" />
<path class="bond-38 atom-38 atom-39" d="M 204.4,333.8 L 179.9,333.8" style="fill:none;fill-rule:evenodd;stroke:#000000;stroke-width:2.0px;stroke-linecap:butt;stroke-linejoin:miter;stroke-opacity:1" />
<path class="bond-39 atom-36 atom-1" d="M 251.3,303.7 L 257.1,313.9" style="fill:none;fill-rule:evenodd;stroke:#000000;stroke-width:2.0px;stroke-linecap:butt;stroke-linejoin:miter;stroke-opacity:1" />
<path class="bond-39 atom-36 atom-1" d="M 257.1,313.9 L 263.0,324.1" style="fill:none;fill-rule:evenodd;stroke:#0000FF;stroke-width:2.0px;stroke-linecap:butt;stroke-linejoin:miter;stroke-opacity:1" />
<path class="bond-40 atom-38 atom-4" d="M 206.9,329.3 L 221.7,354.9" style="fill:none;fill-rule:evenodd;stroke:#000000;stroke-width:2.0px;stroke-linecap:butt;stroke-linejoin:miter;stroke-opacity:1" />
<path class="bond-41 atom-39 atom-9" d="M 177.4,329.3 L 162.6,354.9" style="fill:none;fill-rule:evenodd;stroke:#000000;stroke-width:2.0px;stroke-linecap:butt;stroke-linejoin:miter;stroke-opacity:1" />
<path class="bond-42 atom-24 atom-10" d="M 118.2,329.3 L 133.0,354.9" style="fill:none;fill-rule:evenodd;stroke:#000000;stroke-width:2.0px;stroke-linecap:butt;stroke-linejoin:miter;stroke-opacity:1" />
<path class="bond-43 atom-39 atom-30" d="M 177.4,329.3 L 162.6,303.7" style="fill:none;fill-rule:evenodd;stroke:#000000;stroke-width:2.0px;stroke-linecap:butt;stroke-linejoin:miter;stroke-opacity:1" />
<path class="bond-44 atom-23 atom-15" d="M 88.7,329.3 L 73.9,354.9" style="fill:none;fill-rule:evenodd;stroke:#000000;stroke-width:2.0px;stroke-linecap:butt;stroke-linejoin:miter;stroke-opacity:1" />
<path class="bond-45 atom-28 atom-22" d="M 88.7,278.1 L 73.9,303.7" style="fill:none;fill-rule:evenodd;stroke:#000000;stroke-width:2.0px;stroke-linecap:butt;stroke-linejoin:miter;stroke-opacity:1" />
<path d="M 251.6,354.4 L 251.3,354.9 L 249.8,354.9" style="fill:none;stroke:#000000;stroke-width:2.0px;stroke-linecap:butt;stroke-linejoin:miter;stroke-opacity:1;" />
<path d="M 45.8,354.9 L 44.3,354.9 L 44.0,354.4" style="fill:none;stroke:#000000;stroke-width:2.0px;stroke-linecap:butt;stroke-linejoin:miter;stroke-opacity:1;" />
<path d="M 44.0,304.2 L 44.3,303.7 L 45.8,303.7" style="fill:none;stroke:#000000;stroke-width:2.0px;stroke-linecap:butt;stroke-linejoin:miter;stroke-opacity:1;" />
<path d="M 249.8,303.7 L 251.3,303.7 L 251.6,304.2" style="fill:none;stroke:#000000;stroke-width:2.0px;stroke-linecap:butt;stroke-linejoin:miter;stroke-opacity:1;" />
<path class="atom-1" d="M 262.7 333.5 L 262.7 325.1 L 264.3 325.1 L 267.8 330.7 L 267.8 325.1 L 269.4 325.1 L 269.4 333.5 L 267.7 333.5 L 264.3 328.0 L 264.3 333.5 L 262.7 333.5 " fill="#0000FF" />
<path class="atom-3" d="M 261.9 380.6 Q 261.9 379.3, 262.3 378.5 Q 262.6 377.8, 263.1 377.3 Q 263.6 376.8, 264.2 376.5 Q 265.0 376.2, 266.0 376.2 Q 267.9 376.2, 269.0 377.4 Q 270.1 378.5, 270.1 380.6 Q 270.1 382.6, 269.0 383.8 Q 267.9 385.0, 266.1 385.0 Q 264.2 385.0, 263.1 383.8 Q 261.9 382.7, 261.9 380.6 M 263.7 380.6 Q 263.7 382.0, 264.4 382.8 Q 265.0 383.5, 266.0 383.5 Q 267.1 383.5, 267.7 382.8 Q 268.4 382.0, 268.4 380.6 Q 268.4 379.1, 267.7 378.4 Q 267.1 377.7, 266.0 377.7 Q 265.0 377.7, 264.3 378.4 Q 263.7 379.1, 263.7 380.6 " fill="#FF0000" />
<path class="atom-17" d="M 25.5 380.6 Q 25.5 379.3, 25.8 378.5 Q 26.1 377.8, 26.6 377.3 Q 27.1 376.8, 27.7 376.5 Q 28.5 376.2, 29.5 376.2 Q 31.4 376.2, 32.5 377.4 Q 33.7 378.5, 33.7 380.6 Q 33.7 382.6, 32.6 383.8 Q 31.4 385.0, 29.6 385.0 Q 27.7 385.0, 26.6 383.8 Q 25.5 382.7, 25.5 380.6 M 27.2 380.6 Q 27.2 382.0, 27.9 382.8 Q 28.5 383.5, 29.6 383.5 Q 30.6 383.5, 31.2 382.8 Q 31.9 382.0, 31.9 380.6 Q 31.9 379.1, 31.3 378.4 Q 30.6 377.7, 29.6 377.7 Q 28.5 377.7, 27.9 378.4 Q 27.2 379.1, 27.2 380.6 " fill="#FF0000" />
<path class="atom-18" d="M 26.2 333.5 L 26.2 325.1 L 27.9 325.1 L 31.3 330.7 L 31.3 325.1 L 32.9 325.1 L 32.9 333.5 L 31.2 333.5 L 27.8 328.0 L 27.8 333.5 L 26.2 333.5 " fill="#0000FF" />
<path class="atom-21" d="M 25.5 278.2 Q 25.5 276.9, 25.8 276.1 Q 26.1 275.4, 26.6 274.9 Q 27.1 274.4, 27.7 274.1 Q 28.5 273.8, 29.5 273.8 Q 31.4 273.8, 32.5 275.0 Q 33.7 276.1, 33.7 278.2 Q 33.7 280.2, 32.6 281.4 Q 31.4 282.6, 29.6 282.6 Q 27.7 282.6, 26.6 281.4 Q 25.5 280.3, 25.5 278.2 M 27.2 278.2 Q 27.2 279.6, 27.9 280.4 Q 28.5 281.1, 29.6 281.1 Q 30.6 281.1, 31.2 280.4 Q 31.9 279.6, 31.9 278.2 Q 31.9 276.7, 31.3 276.0 Q 30.6 275.3, 29.6 275.3 Q 28.5 275.3, 27.9 276.0 Q 27.2 276.7, 27.2 278.2 " fill="#FF0000" />
<path class="atom-37" d="M 261.9 278.2 Q 261.9 276.9, 262.3 276.1 Q 262.6 275.4, 263.1 274.9 Q 263.6 274.4, 264.2 274.1 Q 265.0 273.8, 266.0 273.8 Q 267.9 273.8, 269.0 275.0 Q 270.1 276.1, 270.1 278.2 Q 270.1 280.2, 269.0 281.4 Q 267.9 282.6, 266.1 282.6 Q 264.2 282.6, 263.1 281.4 Q 261.9 280.3, 261.9 278.2 M 263.7 278.2 Q 263.7 279.6, 264.4 280.4 Q 265.0 281.1, 266.0 281.1 Q 267.1 281.1, 267.7 280.4 Q 268.4 279.6, 268.4 278.2 Q 268.4 276.7, 267.7 276.0 Q 267.1 275.3, 266.0 275.3 Q 265.0 275.3, 264.3 276.0 Q 263.7 276.7, 263.7 278.2 " fill="#FF0000" />
</svg>