<?xml version='1.0' encoding='iso-8859-1'?>
<svg xmlns="http://www.w3.org/2000/svg" version="1.1" baseProfile="full" xml:space="preserve" width="424" height="198" viewBox="44 157 424 198">

<rect style="opacity:1.0;fill:#FFFFFF;stroke:none" width="512.0" height="512.0" x="0.0" y="0.0"> </rect>
<path class="bond-1 atom-1 atom-2" d="M 449.8,268.2 L 440.8,283.8" style="fill:none;fill-rule:evenodd;stroke:#0000FF;stroke-width:2.0px;stroke-linecap:butt;stroke-linejoin:miter;stroke-opacity:1" />
<path class="bond-1 atom-1 atom-2" d="M 440.8,283.8 L 431.8,299.3" style="fill:none;fill-rule:evenodd;stroke:#000000;stroke-width:2.0px;stroke-linecap:butt;stroke-linejoin:miter;stroke-opacity:1" />
<path class="bond-2 atom-2 atom-3" d="M 427.4,299.3 L 436.9,315.7" style="fill:none;fill-rule:evenodd;stroke:#000000;stroke-width:2.0px;stroke-linecap:butt;stroke-linejoin:miter;stroke-opacity:1" />
<path class="bond-2 atom-2 atom-3" d="M 436.9,315.7 L 446.4,332.1" style="fill:none;fill-rule:evenodd;stroke:#FF0000;stroke-width:2.0px;stroke-linecap:butt;stroke-linejoin:miter;stroke-opacity:1" />
<path class="bond-2 atom-2 atom-3" d="M 434.0,295.5 L 443.4,312.0" style="fill:none;fill-rule:evenodd;stroke:#000000;stroke-width:2.0px;stroke-linecap:butt;stroke-linejoin:miter;stroke-opacity:1" />
<path class="bond-2 atom-2 atom-3" d="M 443.4,312.0 L 452.9,328.4" style="fill:none;fill-rule:evenodd;stroke:#FF0000;stroke-width:2.0px;stroke-linecap:butt;stroke-linejoin:miter;stroke-opacity:1" />
<path class="bond-3 atom-2 atom-4" d="M 431.8,299.3 L 381.6,299.3" style="fill:none;fill-rule:evenodd;stroke:#000000;stroke-width:2.0px;stroke-linecap:butt;stroke-linejoin:miter;stroke-opacity:1" />
<path class="bond-4 atom-4 atom-5" d="M 381.6,299.3 L 356.4,342.8" style="fill:none;fill-rule:evenodd;stroke:#000000;stroke-width:2.0px;stroke-linecap:butt;stroke-linejoin:miter;stroke-opacity:1" />
<path class="bond-4 atom-4 atom-5" d="M 372.9,299.3 L 352.1,335.3" style="fill:none;fill-rule:evenodd;stroke:#000000;stroke-width:2.0px;stroke-linecap:butt;stroke-linejoin:miter;stroke-opacity:1" />
<path class="bond-6 atom-5 atom-7" d="M 356.4,342.8 L 306.2,342.8" style="fill:none;fill-rule:evenodd;stroke:#000000;stroke-width:2.0px;stroke-linecap:butt;stroke-linejoin:miter;stroke-opacity:1" />
<path class="bond-8 atom-7 atom-9" d="M 306.2,342.8 L 281.1,299.3" style="fill:none;fill-rule:evenodd;stroke:#000000;stroke-width:2.0px;stroke-linecap:butt;stroke-linejoin:miter;stroke-opacity:1" />
<path class="bond-8 atom-7 atom-9" d="M 310.6,335.3 L 289.8,299.3" style="fill:none;fill-rule:evenodd;stroke:#000000;stroke-width:2.0px;stroke-linecap:butt;stroke-linejoin:miter;stroke-opacity:1" />
<path class="bond-9 atom-9 atom-10" d="M 281.1,299.3 L 230.9,299.3" style="fill:none;fill-rule:evenodd;stroke:#000000;stroke-width:2.0px;stroke-linecap:butt;stroke-linejoin:miter;stroke-opacity:1" />
<path class="bond-10 atom-10 atom-11" d="M 230.9,299.3 L 205.7,342.8" style="fill:none;fill-rule:evenodd;stroke:#000000;stroke-width:2.0px;stroke-linecap:butt;stroke-linejoin:miter;stroke-opacity:1" />
<path class="bond-10 atom-10 atom-11" d="M 222.2,299.3 L 201.4,335.3" style="fill:none;fill-rule:evenodd;stroke:#000000;stroke-width:2.0px;stroke-linecap:butt;stroke-linejoin:miter;stroke-opacity:1" />
<path class="bond-12 atom-11 atom-13" d="M 205.7,342.8 L 155.5,342.8" style="fill:none;fill-rule:evenodd;stroke:#000000;stroke-width:2.0px;stroke-linecap:butt;stroke-linejoin:miter;stroke-opacity:1" />
<path class="bond-14 atom-13 atom-15" d="M 155.5,342.8 L 130.4,299.3" style="fill:none;fill-rule:evenodd;stroke:#000000;stroke-width:2.0px;stroke-linecap:butt;stroke-linejoin:miter;stroke-opacity:1" />
<path class="bond-14 atom-13 atom-15" d="M 159.9,335.3 L 139.1,299.3" style="fill:none;fill-rule:evenodd;stroke:#000000;stroke-width:2.0px;stroke-linecap:butt;stroke-linejoin:miter;stroke-opacity:1" />
<path class="bond-15 atom-15 atom-16" d="M 130.4,299.3 L 80.1,299.3" style="fill:none;fill-rule:evenodd;stroke:#000000;stroke-width:2.0px;stroke-linecap:butt;stroke-linejoin:miter;stroke-opacity:1" />
<path class="bond-16 atom-16 atom-17" d="M 78.0,295.5 L 68.5,312.0" style="fill:none;fill-rule:evenodd;stroke:#000000;stroke-width:2.0px;stroke-linecap:butt;stroke-linejoin:miter;stroke-opacity:1" />
<path class="bond-16 atom-16 atom-17" d="M 68.5,312.0 L 59.0,328.4" style="fill:none;fill-rule:evenodd;stroke:#FF0000;stroke-width:2.0px;stroke-linecap:butt;stroke-linejoin:miter;stroke-opacity:1" />
<path class="bond-16 atom-16 atom-17" d="M 84.5,299.3 L 75.0,315.7" style="fill:none;fill-rule:evenodd;stroke:#000000;stroke-width:2.0px;stroke-linecap:butt;stroke-linejoin:miter;stroke-opacity:1" />
<path class="bond-16 atom-16 atom-17" d="M 75.0,315.7 L 65.6,332.1" style="fill:none;fill-rule:evenodd;stroke:#FF0000;stroke-width:2.0px;stroke-linecap:butt;stroke-linejoin:miter;stroke-opacity:1" />
<path class="bond-17 atom-16 atom-18" d="M 80.1,299.3 L 71.2,283.8" style="fill:none;fill-rule:evenodd;stroke:#000000;stroke-width:2.0px;stroke-linecap:butt;stroke-linejoin:miter;stroke-opacity:1" />
<path class="bond-17 atom-16 atom-18" d="M 71.2,283.8 L 62.2,268.2" style="fill:none;fill-rule:evenodd;stroke:#0000FF;stroke-width:2.0px;stroke-linecap:butt;stroke-linejoin:miter;stroke-opacity:1" />
<path class="bond-19 atom-18 atom-20" d="M 62.2,243.4 L 71.2,227.9" style="fill:none;fill-rule:evenodd;stroke:#0000FF;stroke-width:2.0px;stroke-linecap:butt;stroke-linejoin:miter;stroke-opacity:1" />
<path class="bond-19 atom-18 atom-20" d="M 71.2,227.9 L 80.1,212.3" style="fill:none;fill-rule:evenodd;stroke:#000000;stroke-width:2.0px;stroke-linecap:butt;stroke-linejoin:miter;stroke-opacity:1" />
<path class="bond-20 atom-20 atom-21" d="M 84.5,212.3 L 75.1,196.1" style="fill:none;fill-rule:evenodd;stroke:#000000;stroke-width:2.0px;stroke-linecap:butt;stroke-linejoin:miter;stroke-opacity:1" />
<path class="bond-20 atom-20 atom-21" d="M 75.1,196.1 L 65.8,179.9" style="fill:none;fill-rule:evenodd;stroke:#FF0000;stroke-width:2.0px;stroke-linecap:butt;stroke-linejoin:miter;stroke-opacity:1" />
<path class="bond-20 atom-20 atom-21" d="M 78.0,216.1 L 68.6,199.8" style="fill:none;fill-rule:evenodd;stroke:#000000;stroke-width:2.0px;stroke-linecap:butt;stroke-linejoin:miter;stroke-opacity:1" />
<path class="bond-20 atom-20 atom-21" d="M 68.6,199.8 L 59.2,183.6" style="fill:none;fill-rule:evenodd;stroke:#FF0000;stroke-width:2.0px;stroke-linecap:butt;stroke-linejoin:miter;stroke-opacity:1" />
<path class="bond-21 atom-20 atom-22" d="M 80.1,212.3 L 130.4,212.3" style="fill:none;fill-rule:evenodd;stroke:#000000;stroke-width:2.0px;stroke-linecap:butt;stroke-linejoin:miter;stroke-opacity:1" />
<path class="bond-22 atom-22 atom-23" d="M 130.4,212.3 L 155.5,255.8" style="fill:none;fill-rule:evenodd;stroke:#000000;stroke-width:2.0px;stroke-linecap:butt;stroke-linejoin:miter;stroke-opacity:1" />
<path class="bond-22 atom-22 atom-23" d="M 139.1,212.3 L 159.9,248.3" style="fill:none;fill-rule:evenodd;stroke:#000000;stroke-width:2.0px;stroke-linecap:butt;stroke-linejoin:miter;stroke-opacity:1" />
<path class="bond-23 atom-23 atom-24" d="M 155.5,255.8 L 205.7,255.8" style="fill:none;fill-rule:evenodd;stroke:#000000;stroke-width:2.0px;stroke-linecap:butt;stroke-linejoin:miter;stroke-opacity:1" />
<path class="bond-24 atom-24 atom-25" d="M 205.7,255.8 L 230.9,212.3" style="fill:none;fill-rule:evenodd;stroke:#000000;stroke-width:2.0px;stroke-linecap:butt;stroke-linejoin:miter;stroke-opacity:1" />
<path class="bond-24 atom-24 atom-25" d="M 201.4,248.3 L 222.2,212.3" style="fill:none;fill-rule:evenodd;stroke:#000000;stroke-width:2.0px;stroke-linecap:butt;stroke-linejoin:miter;stroke-opacity:1" />
<path class="bond-25 atom-25 atom-26" d="M 230.9,212.3 L 205.7,168.8" style="fill:none;fill-rule:evenodd;stroke:#000000;stroke-width:2.0px;stroke-linecap:butt;stroke-linejoin:miter;stroke-opacity:1" />
<path class="bond-27 atom-26 atom-28" d="M 205.7,168.8 L 155.5,168.8" style="fill:none;fill-rule:evenodd;stroke:#000000;stroke-width:2.0px;stroke-linecap:butt;stroke-linejoin:miter;stroke-opacity:1" />
<path class="bond-27 atom-26 atom-28" d="M 201.4,176.3 L 159.9,176.3" style="fill:none;fill-rule:evenodd;stroke:#000000;stroke-width:2.0px;stroke-linecap:butt;stroke-linejoin:miter;stroke-opacity:1" />
<path class="bond-29 atom-25 atom-30" d="M 230.9,212.3 L 281.1,212.3" style="fill:none;fill-rule:evenodd;stroke:#000000;stroke-width:2.0px;stroke-linecap:butt;stroke-linejoin:miter;stroke-opacity:1" />
<path class="bond-30 atom-30 atom-31" d="M 281.1,212.3 L 306.2,168.8" style="fill:none;fill-rule:evenodd;stroke:#000000;stroke-width:2.0px;stroke-linecap:butt;stroke-linejoin:miter;stroke-opacity:1" />
<path class="bond-30 atom-30 atom-31" d="M 289.8,212.3 L 310.6,176.3" style="fill:none;fill-rule:evenodd;stroke:#000000;stroke-width:2.0px;stroke-linecap:butt;stroke-linejoin:miter;stroke-opacity:1" />
<path class="bond-32 atom-31 atom-33" d="M 306.2,168.8 L 356.4,168.8" style="fill:none;fill-rule:evenodd;stroke:#000000;stroke-width:2.0px;stroke-linecap:butt;stroke-linejoin:miter;stroke-opacity:1" />
<path class="bond-34 atom-33 atom-35" d="M 356.4,168.8 L 381.6,212.3" style="fill:none;fill-rule:evenodd;stroke:#000000;stroke-width:2.0px;stroke-linecap:butt;stroke-linejoin:miter;stroke-opacity:1" />
<path class="bond-34 atom-33 atom-35" d="M 352.1,176.3 L 372.9,212.3" style="fill:none;fill-rule:evenodd;stroke:#000000;stroke-width:2.0px;stroke-linecap:butt;stroke-linejoin:miter;stroke-opacity:1" />
<path class="bond-35 atom-35 atom-36" d="M 381.6,212.3 L 431.8,212.3" style="fill:none;fill-rule:evenodd;stroke:#000000;stroke-width:2.0px;stroke-linecap:butt;stroke-linejoin:miter;stroke-opacity:1" />
<path class="bond-36 atom-36 atom-37" d="M 434.0,216.1 L 443.3,199.8" style="fill:none;fill-rule:evenodd;stroke:#000000;stroke-width:2.0px;stroke-linecap:butt;stroke-linejoin:miter;stroke-opacity:1" />
<path class="bond-36 atom-36 atom-37" d="M 443.3,199.8 L 452.7,183.6" style="fill:none;fill-rule:evenodd;stroke:#FF0000;stroke-width:2.0px;stroke-linecap:butt;stroke-linejoin:miter;stroke-opacity:1" />
<path class="bond-36 atom-36 atom-37" d="M 427.4,212.3 L 436.8,196.1" style="fill:none;fill-rule:evenodd;stroke:#000000;stroke-width:2.0px;stroke-linecap:butt;stroke-linejoin:miter;stroke-opacity:1" />
<path class="bond-36 atom-36 atom-37" d="M 436.8,196.1 L 446.2,179.9" style="fill:none;fill-rule:evenodd;stroke:#FF0000;stroke-width:2.0px;stroke-linecap:butt;stroke-linejoin:miter;stroke-opacity:1" />
<path class="bond-37 atom-35 atom-38" d="M 381.6,212.3 L 356.4,255.8" style="fill:none;fill-rule:evenodd;stroke:#000000;stroke-width:2.0px;stroke-linecap:butt;stroke-linejoin:miter;stroke-opacity:1" />
<path class="bond-38 atom-38 atom-39" d="M 356.4,255.8 L 306.2,255.8" style="fill:none;fill-rule:evenodd;stroke:#000000;stroke-width:2.0px;stroke-linecap:butt;stroke-linejoin:miter;stroke-opacity:1" />
<path class="bond-38 atom-38 atom-39" d="M 352.1,263.3 L 310.6,263.3" style="fill:none;fill-rule:evenodd;stroke:#000000;stroke-width:2.0px;stroke-linecap:butt;stroke-linejoin:miter;stroke-opacity:1" />
<path class="bond-39 atom-36 atom-1" d="M 431.8,212.3 L 440.8,227.9" style="fill:none;fill-rule:evenodd;stroke:#000000;stroke-width:2.0px;stroke-linecap:butt;stroke-linejoin:miter;stroke-opacity:1" />
<path class="bond-39 atom-36 atom-1" d="M 440.8,227.9 L 449.8,243.4" style="fill:none;fill-rule:evenodd;stroke:#0000FF;stroke-width:2.0px;stroke-linecap:butt;stroke-linejoin:miter;stroke-opacity:1" />
<path class="bond-40 atom-38 atom-4" d="M 356.4,255.8 L 381.6,299.3" style="fill:none;fill-rule:evenodd;stroke:#000000;stroke-width:2.0px;stroke-linecap:butt;stroke-linejoin:miter;stroke-opacity:1" />
<path class="bond-41 atom-39 atom-9" d="M 306.2,255.8 L 281.1,299.3" style="fill:none;fill-rule:evenodd;stroke:#000000;stroke-width:2.0px;stroke-linecap:butt;stroke-linejoin:miter;stroke-opacity:1" />
<path class="bond-42 atom-24 atom-10" d="M 205.7,255.8 L 230.9,299.3" style="fill:none;fill-rule:evenodd;stroke:#000000;stroke-width:2.0px;stroke-linecap:butt;stroke-linejoin:miter;stroke-opacity:1" />
<path class="bond-43 atom-39 atom-30" d="M 306.2,255.8 L 281.1,212.3" style="fill:none;fill-rule:evenodd;stroke:#000000;stroke-width:2.0px;stroke-linecap:butt;stroke-linejoin:miter;stroke-opacity:1" />
<path class="bond-44 atom-23 atom-15" d="M 155.5,255.8 L 130.4,299.3" style="fill:none;fill-rule:evenodd;stroke:#000000;stroke-width:2.0px;stroke-linecap:butt;stroke-linejoin:miter;stroke-opacity:1" />
<path class="bond-45 atom-28 atom-22" d="M 155.5,168.8 L 130.4,212.3" style="fill:none;fill-rule:evenodd;stroke:#000000;stroke-width:2.0px;stroke-linecap:butt;stroke-linejoin:miter;stroke-opacity:1" />
<path d="M 432.2,298.5 L 431.8,299.3 L 429.3,299.3" style="fill:none;stroke:#000000;stroke-width:2.0px;stroke-linecap:butt;stroke-linejoin:miter;stroke-opacity:1;" />
<path d="M 82.7,299.3 L 80.1,299.3 L 79.7,298.5" style="fill:none;stroke:#000000;stroke-width:2.0px;stroke-linecap:butt;stroke-linejoin:miter;stroke-opacity:1;" />
<path d="M 79.7,213.1 L 80.1,212.3 L 82.7,212.3" style="fill:none;stroke:#000000;stroke-width:2.0px;stroke-linecap:butt;stroke-linejoin:miter;stroke-opacity:1;" />
<path d="M 429.3,212.3 L 431.8,212.3 L 432.2,213.1" style="fill:none;stroke:#000000;stroke-width:2.0px;stroke-linecap:butt;stroke-linejoin:miter;stroke-opacity:1;" />
<path class="atom-1" d="M 448.4 266.5 L 448.4 245.1 L 452.6 245.1 L 461.4 259.4 L 461.4 245.1 L 465.4 245.1 L 465.4 266.5 L 461.1 266.5 L 452.4 252.5 L 452.4 266.5 L 448.4 266.5 " fill="#0000FF" />
<path class="atom-3" d="M 446.5 343.1 Q 446.5 339.9, 447.5 337.6 Q 448.2 336.0, 449.5 334.7 Q 450.8 333.4, 452.3 332.8 Q 454.3 331.9, 456.9 331.9 Q 461.6 331.9, 464.5 334.8 Q 467.3 337.8, 467.3 343.0 Q 467.3 348.2, 464.5 351.2 Q 461.7 354.1, 456.9 354.1 Q 452.2 354.1, 449.3 351.2 Q 446.5 348.3, 446.5 343.1 M 451.0 343.0 Q 451.0 346.6, 452.7 348.5 Q 454.3 350.4, 456.9 350.4 Q 459.5 350.4, 461.2 348.5 Q 462.9 346.7, 462.9 342.9 Q 462.9 339.2, 461.2 337.4 Q 459.6 335.6, 456.9 335.6 Q 454.3 335.6, 452.6 337.5 Q 451.0 339.3, 451.0 343.0 " fill="#FF0000" />
<path class="atom-17" d="M 44.6 343.1 Q 44.6 339.9, 45.6 337.6 Q 46.3 336.0, 47.6 334.7 Q 48.9 333.4, 50.4 332.8 Q 52.4 331.9, 55.0 331.9 Q 59.7 331.9, 62.6 334.8 Q 65.4 337.8, 65.4 343.0 Q 65.4 348.2, 62.6 351.2 Q 59.8 354.1, 55.1 354.1 Q 50.3 354.1, 47.4 351.2 Q 44.6 348.3, 44.6 343.1 M 49.1 343.0 Q 49.1 346.6, 50.8 348.5 Q 52.5 350.4, 55.0 350.4 Q 57.6 350.4, 59.3 348.5 Q 61.0 346.7, 61.0 342.9 Q 61.0 339.2, 59.3 337.4 Q 57.7 335.6, 55.0 335.6 Q 52.4 335.6, 50.7 337.5 Q 49.1 339.3, 49.1 343.0 " fill="#FF0000" />
<path class="atom-18" d="M 46.5 266.5 L 46.5 245.1 L 50.7 245.1 L 59.5 259.4 L 59.5 245.1 L 63.5 245.1 L 63.5 266.5 L 59.2 266.5 L 50.5 252.5 L 50.5 266.5 L 46.5 266.5 " fill="#0000FF" />
<path class="atom-21" d="M 44.6 169.1 Q 44.6 165.8, 45.6 163.6 Q 46.3 162.0, 47.6 160.7 Q 48.9 159.4, 50.4 158.7 Q 52.4 157.9, 55.0 157.9 Q 59.7 157.9, 62.6 160.8 Q 65.4 163.8, 65.4 169.0 Q 65.4 174.2, 62.6 177.2 Q 59.8 180.1, 55.1 180.1 Q 50.3 180.1, 47.4 177.2 Q 44.6 174.2, 44.6 169.1 M 49.1 169.0 Q 49.1 172.6, 50.8 174.5 Q 52.5 176.4, 55.0 176.4 Q 57.6 176.4, 59.3 174.5 Q 61.0 172.6, 61.0 168.9 Q 61.0 165.2, 59.3 163.4 Q 57.7 161.6, 55.0 161.6 Q 52.4 161.6, 50.7 163.4 Q 49.1 165.3, 49.1 169.0 " fill="#FF0000" />
<path class="atom-37" d="M 446.5 169.1 Q 446.5 165.8, 447.5 163.6 Q 448.2 162.0, 449.5 160.7 Q 450.8 159.4, 452.3 158.7 Q 454.3 157.9, 456.9 157.9 Q 461.6 157.9, 464.5 160.8 Q 467.3 163.8, 467.3 169.0 Q 467.3 174.2, 464.5 177.2 Q 461.7 180.1, 456.9 180.1 Q 452.2 180.1, 449.3 177.2 Q 446.5 174.2, 446.5 169.1 M 451.0 169.0 Q 451.0 172.6, 452.7 174.5 Q 454.3 176.4, 456.9 176.4 Q 459.5 176.4, 461.2 174.5 Q 462.9 172.6, 462.9 168.9 Q 462.9 165.2, 461.2 163.4 Q 459.6 161.6, 456.9 161.6 Q 454.3 161.6, 452.6 163.4 Q 451.0 165.3, 451.0 169.0 " fill="#FF0000" />
</svg>