<?xml version='1.0' encoding='iso-8859-1'?>
<svg xmlns="http://www.w3.org/2000/svg" version="1.1" baseProfile="full" xml:space="preserve" width="404" height="166" viewBox="55 173 404 166">

<rect style="opacity:1.0;fill:#FFFFFF;stroke:none" width="512.0" height="512.0" x="0.0" y="0.0"> </rect>
<path class="bond-1 atom-1 atom-2" d="M 458.0,301.6 L 449.6,245.0" style="fill:none;fill-rule:evenodd;stroke:#000000;stroke-width:2.0px;stroke-linecap:butt;stroke-linejoin:miter;stroke-opacity:1" />
<path class="bond-1 atom-1 atom-2" d="M 448.6,296.7 L 442.0,252.5" style="fill:none;fill-rule:evenodd;stroke:#000000;stroke-width:2.0px;stroke-linecap:butt;stroke-linejoin:miter;stroke-opacity:1" />
<path class="bond-3 atom-2 atom-4" d="M 449.6,245.0 L 393.2,235.6" style="fill:none;fill-rule:evenodd;stroke:#000000;stroke-width:2.0px;stroke-linecap:butt;stroke-linejoin:miter;stroke-opacity:1" />
<path class="bond-4 atom-4 atom-5" d="M 393.2,235.6 L 366.8,286.3" style="fill:none;fill-rule:evenodd;stroke:#000000;stroke-width:2.0px;stroke-linecap:butt;stroke-linejoin:miter;stroke-opacity:1" />
<path class="bond-4 atom-4 atom-5" d="M 397.9,245.1 L 377.3,284.7" style="fill:none;fill-rule:evenodd;stroke:#000000;stroke-width:2.0px;stroke-linecap:butt;stroke-linejoin:miter;stroke-opacity:1" />
<path class="bond-5 atom-5 atom-6" d="M 366.8,286.3 L 381.5,301.3" style="fill:none;fill-rule:evenodd;stroke:#000000;stroke-width:2.0px;stroke-linecap:butt;stroke-linejoin:miter;stroke-opacity:1" />
<path class="bond-5 atom-5 atom-6" d="M 381.5,301.3 L 396.2,316.2" style="fill:none;fill-rule:evenodd;stroke:#CCCC00;stroke-width:2.0px;stroke-linecap:butt;stroke-linejoin:miter;stroke-opacity:1" />
<path class="bond-6 atom-5 atom-7" d="M 366.8,286.3 L 310.4,276.8" style="fill:none;fill-rule:evenodd;stroke:#000000;stroke-width:2.0px;stroke-linecap:butt;stroke-linejoin:miter;stroke-opacity:1" />
<path class="bond-7 atom-7 atom-8" d="M 310.4,276.8 L 302.0,220.3" style="fill:none;fill-rule:evenodd;stroke:#000000;stroke-width:2.0px;stroke-linecap:butt;stroke-linejoin:miter;stroke-opacity:1" />
<path class="bond-7 atom-7 atom-8" d="M 301.2,273.2 L 294.3,226.4" style="fill:none;fill-rule:evenodd;stroke:#000000;stroke-width:2.0px;stroke-linecap:butt;stroke-linejoin:miter;stroke-opacity:1" />
<path class="bond-8 atom-8 atom-9" d="M 302.0,220.3 L 248.8,199.3" style="fill:none;fill-rule:evenodd;stroke:#000000;stroke-width:2.0px;stroke-linecap:butt;stroke-linejoin:miter;stroke-opacity:1" />
<path class="bond-10 atom-9 atom-11" d="M 248.8,199.3 L 204.1,234.8" style="fill:none;fill-rule:evenodd;stroke:#000000;stroke-width:2.0px;stroke-linecap:butt;stroke-linejoin:miter;stroke-opacity:1" />
<path class="bond-10 atom-9 atom-11" d="M 250.3,209.1 L 213.3,238.5" style="fill:none;fill-rule:evenodd;stroke:#000000;stroke-width:2.0px;stroke-linecap:butt;stroke-linejoin:miter;stroke-opacity:1" />
<path class="bond-11 atom-11 atom-12" d="M 204.1,234.8 L 147.7,225.4" style="fill:none;fill-rule:evenodd;stroke:#000000;stroke-width:2.0px;stroke-linecap:butt;stroke-linejoin:miter;stroke-opacity:1" />
<path class="bond-12 atom-12 atom-13" d="M 147.7,225.4 L 121.3,276.0" style="fill:none;fill-rule:evenodd;stroke:#000000;stroke-width:2.0px;stroke-linecap:butt;stroke-linejoin:miter;stroke-opacity:1" />
<path class="bond-12 atom-12 atom-13" d="M 137.2,226.9 L 116.6,266.6" style="fill:none;fill-rule:evenodd;stroke:#000000;stroke-width:2.0px;stroke-linecap:butt;stroke-linejoin:miter;stroke-opacity:1" />
<path class="bond-13 atom-13 atom-14" d="M 121.3,276.0 L 64.9,266.6" style="fill:none;fill-rule:evenodd;stroke:#000000;stroke-width:2.0px;stroke-linecap:butt;stroke-linejoin:miter;stroke-opacity:1" />
<path class="bond-15 atom-14 atom-16" d="M 64.9,266.6 L 56.5,210.0" style="fill:none;fill-rule:evenodd;stroke:#000000;stroke-width:2.0px;stroke-linecap:butt;stroke-linejoin:miter;stroke-opacity:1" />
<path class="bond-15 atom-14 atom-16" d="M 72.5,259.2 L 65.9,214.9" style="fill:none;fill-rule:evenodd;stroke:#000000;stroke-width:2.0px;stroke-linecap:butt;stroke-linejoin:miter;stroke-opacity:1" />
<path class="bond-17 atom-16 atom-18" d="M 56.5,210.0 L 76.8,199.9" style="fill:none;fill-rule:evenodd;stroke:#000000;stroke-width:2.0px;stroke-linecap:butt;stroke-linejoin:miter;stroke-opacity:1" />
<path class="bond-17 atom-16 atom-18" d="M 76.8,199.9 L 97.0,189.8" style="fill:none;fill-rule:evenodd;stroke:#CCCC00;stroke-width:2.0px;stroke-linecap:butt;stroke-linejoin:miter;stroke-opacity:1" />
<path class="bond-18 atom-13 atom-19" d="M 121.3,276.0 L 161.3,316.8" style="fill:none;fill-rule:evenodd;stroke:#000000;stroke-width:2.0px;stroke-linecap:butt;stroke-linejoin:miter;stroke-opacity:1" />
<path class="bond-21 atom-19 atom-22" d="M 161.3,316.8 L 212.5,291.4" style="fill:none;fill-rule:evenodd;stroke:#000000;stroke-width:2.0px;stroke-linecap:butt;stroke-linejoin:miter;stroke-opacity:1" />
<path class="bond-22 atom-22 atom-23" d="M 212.5,291.4 L 265.7,312.4" style="fill:none;fill-rule:evenodd;stroke:#000000;stroke-width:2.0px;stroke-linecap:butt;stroke-linejoin:miter;stroke-opacity:1" />
<path class="bond-22 atom-22 atom-23" d="M 220.2,285.2 L 264.2,302.6" style="fill:none;fill-rule:evenodd;stroke:#000000;stroke-width:2.0px;stroke-linecap:butt;stroke-linejoin:miter;stroke-opacity:1" />
<path class="bond-24 atom-8 atom-25" d="M 302.0,220.3 L 353.2,194.8" style="fill:none;fill-rule:evenodd;stroke:#000000;stroke-width:2.0px;stroke-linecap:butt;stroke-linejoin:miter;stroke-opacity:1" />
<path class="bond-27 atom-6 atom-1" d="M 417.5,321.8 L 437.7,311.7" style="fill:none;fill-rule:evenodd;stroke:#CCCC00;stroke-width:2.0px;stroke-linecap:butt;stroke-linejoin:miter;stroke-opacity:1" />
<path class="bond-27 atom-6 atom-1" d="M 437.7,311.7 L 458.0,301.6" style="fill:none;fill-rule:evenodd;stroke:#000000;stroke-width:2.0px;stroke-linecap:butt;stroke-linejoin:miter;stroke-opacity:1" />
<path class="bond-28 atom-23 atom-7" d="M 265.7,312.4 L 310.4,276.8" style="fill:none;fill-rule:evenodd;stroke:#000000;stroke-width:2.0px;stroke-linecap:butt;stroke-linejoin:miter;stroke-opacity:1" />
<path class="bond-29 atom-25 atom-4" d="M 353.2,194.8 L 393.2,235.6" style="fill:none;fill-rule:evenodd;stroke:#000000;stroke-width:2.0px;stroke-linecap:butt;stroke-linejoin:miter;stroke-opacity:1" />
<path class="bond-30 atom-22 atom-11" d="M 212.5,291.4 L 204.1,234.8" style="fill:none;fill-rule:evenodd;stroke:#000000;stroke-width:2.0px;stroke-linecap:butt;stroke-linejoin:miter;stroke-opacity:1" />
<path class="bond-31 atom-18 atom-12" d="M 118.3,195.4 L 133.0,210.4" style="fill:none;fill-rule:evenodd;stroke:#CCCC00;stroke-width:2.0px;stroke-linecap:butt;stroke-linejoin:miter;stroke-opacity:1" />
<path class="bond-31 atom-18 atom-12" d="M 133.0,210.4 L 147.7,225.4" style="fill:none;fill-rule:evenodd;stroke:#000000;stroke-width:2.0px;stroke-linecap:butt;stroke-linejoin:miter;stroke-opacity:1" />
<path class="atom-6" d="M 398.1 331.0 L 402.3 330.6 Q 402.7 332.7, 403.9 333.7 Q 405.0 334.7, 407.0 334.7 Q 409.1 334.7, 410.2 333.8 Q 411.2 332.9, 411.2 331.7 Q 411.2 331.0, 410.8 330.5 Q 410.3 329.9, 409.2 329.5 Q 408.5 329.2, 405.8 328.6 Q 402.3 327.7, 400.9 326.5 Q 398.9 324.7, 398.9 322.1 Q 398.9 320.5, 399.8 319.1 Q 400.7 317.6, 402.5 316.9 Q 404.2 316.1, 406.7 316.1 Q 410.8 316.1, 412.8 317.9 Q 414.9 319.7, 415.0 322.6 L 410.6 322.8 Q 410.3 321.2, 409.4 320.5 Q 408.5 319.7, 406.7 319.7 Q 404.8 319.7, 403.7 320.5 Q 403.0 321.0, 403.0 321.8 Q 403.0 322.6, 403.7 323.1 Q 404.5 323.8, 407.7 324.6 Q 410.8 325.3, 412.3 326.1 Q 413.9 326.9, 414.7 328.3 Q 415.6 329.7, 415.6 331.7 Q 415.6 333.6, 414.5 335.2 Q 413.5 336.8, 411.6 337.6 Q 409.8 338.4, 407.0 338.4 Q 402.9 338.4, 400.7 336.5 Q 398.5 334.6, 398.1 331.0 " fill="#CCCC00" />
<path class="atom-18" d="M 98.9 188.5 L 103.1 188.1 Q 103.5 190.2, 104.7 191.2 Q 105.9 192.2, 107.8 192.2 Q 109.9 192.2, 111.0 191.3 Q 112.1 190.4, 112.1 189.2 Q 112.1 188.5, 111.6 188.0 Q 111.2 187.4, 110.0 187.0 Q 109.3 186.7, 106.6 186.1 Q 103.1 185.2, 101.7 184.0 Q 99.7 182.2, 99.7 179.6 Q 99.7 178.0, 100.6 176.6 Q 101.6 175.1, 103.3 174.4 Q 105.1 173.6, 107.5 173.6 Q 111.6 173.6, 113.6 175.4 Q 115.7 177.2, 115.8 180.1 L 111.4 180.3 Q 111.2 178.7, 110.2 178.0 Q 109.3 177.2, 107.5 177.2 Q 105.6 177.2, 104.5 178.0 Q 103.9 178.5, 103.9 179.3 Q 103.9 180.1, 104.5 180.6 Q 105.3 181.3, 108.5 182.1 Q 111.6 182.8, 113.2 183.6 Q 114.7 184.4, 115.5 185.8 Q 116.4 187.2, 116.4 189.2 Q 116.4 191.1, 115.4 192.7 Q 114.3 194.3, 112.5 195.1 Q 110.6 195.9, 107.8 195.9 Q 103.7 195.9, 101.5 194.0 Q 99.4 192.1, 98.9 188.5 " fill="#CCCC00" />
</svg>