<?xml version='1.0' encoding='iso-8859-1'?>
<svg xmlns="http://www.w3.org/2000/svg" version="1.1" baseProfile="full" xml:space="preserve" width="210" height="83" viewBox="25 306 210 83">

<rect style="opacity:1.0;fill:#FFFFFF;stroke:none" width="512.0" height="512.0" x="0.0" y="0.0"> </rect>
<path class="bond-1 atom-1 atom-2" d="M 233.8,371.3 L 229.5,342.1" style="fill:none;fill-rule:evenodd;stroke:#000000;stroke-width:2.0px;stroke-linecap:butt;stroke-linejoin:miter;stroke-opacity:1" />
<path class="bond-1 atom-1 atom-2" d="M 229.0,368.8 L 225.6,345.9" style="fill:none;fill-rule:evenodd;stroke:#000000;stroke-width:2.0px;stroke-linecap:butt;stroke-linejoin:miter;stroke-opacity:1" />
<path class="bond-3 atom-2 atom-4" d="M 229.5,342.1 L 200.3,337.2" style="fill:none;fill-rule:evenodd;stroke:#000000;stroke-width:2.0px;stroke-linecap:butt;stroke-linejoin:miter;stroke-opacity:1" />
<path class="bond-4 atom-4 atom-5" d="M 200.3,337.2 L 186.7,363.4" style="fill:none;fill-rule:evenodd;stroke:#000000;stroke-width:2.0px;stroke-linecap:butt;stroke-linejoin:miter;stroke-opacity:1" />
<path class="bond-4 atom-4 atom-5" d="M 202.8,342.1 L 192.1,362.6" style="fill:none;fill-rule:evenodd;stroke:#000000;stroke-width:2.0px;stroke-linecap:butt;stroke-linejoin:miter;stroke-opacity:1" />
<path class="bond-5 atom-5 atom-6" d="M 186.7,363.4 L 194.8,371.7" style="fill:none;fill-rule:evenodd;stroke:#000000;stroke-width:2.0px;stroke-linecap:butt;stroke-linejoin:miter;stroke-opacity:1" />
<path class="bond-5 atom-5 atom-6" d="M 194.8,371.7 L 203.0,380.0" style="fill:none;fill-rule:evenodd;stroke:#CCCC00;stroke-width:2.0px;stroke-linecap:butt;stroke-linejoin:miter;stroke-opacity:1" />
<path class="bond-6 atom-5 atom-7" d="M 186.7,363.4 L 157.5,358.5" style="fill:none;fill-rule:evenodd;stroke:#000000;stroke-width:2.0px;stroke-linecap:butt;stroke-linejoin:miter;stroke-opacity:1" />
<path class="bond-7 atom-7 atom-8" d="M 157.5,358.5 L 153.2,329.3" style="fill:none;fill-rule:evenodd;stroke:#000000;stroke-width:2.0px;stroke-linecap:butt;stroke-linejoin:miter;stroke-opacity:1" />
<path class="bond-7 atom-7 atom-8" d="M 152.8,356.6 L 149.2,332.4" style="fill:none;fill-rule:evenodd;stroke:#000000;stroke-width:2.0px;stroke-linecap:butt;stroke-linejoin:miter;stroke-opacity:1" />
<path class="bond-8 atom-8 atom-9" d="M 153.2,329.3 L 125.7,318.4" style="fill:none;fill-rule:evenodd;stroke:#000000;stroke-width:2.0px;stroke-linecap:butt;stroke-linejoin:miter;stroke-opacity:1" />
<path class="bond-10 atom-9 atom-11" d="M 125.7,318.4 L 102.5,336.8" style="fill:none;fill-rule:evenodd;stroke:#000000;stroke-width:2.0px;stroke-linecap:butt;stroke-linejoin:miter;stroke-opacity:1" />
<path class="bond-10 atom-9 atom-11" d="M 126.4,323.5 L 107.3,338.7" style="fill:none;fill-rule:evenodd;stroke:#000000;stroke-width:2.0px;stroke-linecap:butt;stroke-linejoin:miter;stroke-opacity:1" />
<path class="bond-11 atom-11 atom-12" d="M 102.5,336.8 L 73.4,331.9" style="fill:none;fill-rule:evenodd;stroke:#000000;stroke-width:2.0px;stroke-linecap:butt;stroke-linejoin:miter;stroke-opacity:1" />
<path class="bond-12 atom-12 atom-13" d="M 73.4,331.9 L 59.7,358.1" style="fill:none;fill-rule:evenodd;stroke:#000000;stroke-width:2.0px;stroke-linecap:butt;stroke-linejoin:miter;stroke-opacity:1" />
<path class="bond-12 atom-12 atom-13" d="M 68.0,332.7 L 57.3,353.2" style="fill:none;fill-rule:evenodd;stroke:#000000;stroke-width:2.0px;stroke-linecap:butt;stroke-linejoin:miter;stroke-opacity:1" />
<path class="bond-13 atom-13 atom-14" d="M 59.7,358.1 L 30.6,353.2" style="fill:none;fill-rule:evenodd;stroke:#000000;stroke-width:2.0px;stroke-linecap:butt;stroke-linejoin:miter;stroke-opacity:1" />
<path class="bond-15 atom-14 atom-16" d="M 30.6,353.2 L 26.2,324.0" style="fill:none;fill-rule:evenodd;stroke:#000000;stroke-width:2.0px;stroke-linecap:butt;stroke-linejoin:miter;stroke-opacity:1" />
<path class="bond-15 atom-14 atom-16" d="M 34.5,349.4 L 31.1,326.5" style="fill:none;fill-rule:evenodd;stroke:#000000;stroke-width:2.0px;stroke-linecap:butt;stroke-linejoin:miter;stroke-opacity:1" />
<path class="bond-17 atom-16 atom-18" d="M 26.2,324.0 L 37.2,318.5" style="fill:none;fill-rule:evenodd;stroke:#000000;stroke-width:2.0px;stroke-linecap:butt;stroke-linejoin:miter;stroke-opacity:1" />
<path class="bond-17 atom-16 atom-18" d="M 37.2,318.5 L 48.3,313.0" style="fill:none;fill-rule:evenodd;stroke:#CCCC00;stroke-width:2.0px;stroke-linecap:butt;stroke-linejoin:miter;stroke-opacity:1" />
<path class="bond-18 atom-13 atom-19" d="M 59.7,358.1 L 80.4,379.2" style="fill:none;fill-rule:evenodd;stroke:#000000;stroke-width:2.0px;stroke-linecap:butt;stroke-linejoin:miter;stroke-opacity:1" />
<path class="bond-21 atom-19 atom-22" d="M 80.4,379.2 L 106.9,366.0" style="fill:none;fill-rule:evenodd;stroke:#000000;stroke-width:2.0px;stroke-linecap:butt;stroke-linejoin:miter;stroke-opacity:1" />
<path class="bond-22 atom-22 atom-23" d="M 106.9,366.0 L 134.4,376.9" style="fill:none;fill-rule:evenodd;stroke:#000000;stroke-width:2.0px;stroke-linecap:butt;stroke-linejoin:miter;stroke-opacity:1" />
<path class="bond-22 atom-22 atom-23" d="M 110.9,362.8 L 133.6,371.8" style="fill:none;fill-rule:evenodd;stroke:#000000;stroke-width:2.0px;stroke-linecap:butt;stroke-linejoin:miter;stroke-opacity:1" />
<path class="bond-24 atom-8 atom-25" d="M 153.2,329.3 L 179.6,316.1" style="fill:none;fill-rule:evenodd;stroke:#000000;stroke-width:2.0px;stroke-linecap:butt;stroke-linejoin:miter;stroke-opacity:1" />
<path class="bond-27 atom-6 atom-1" d="M 211.8,382.3 L 222.8,376.8" style="fill:none;fill-rule:evenodd;stroke:#CCCC00;stroke-width:2.0px;stroke-linecap:butt;stroke-linejoin:miter;stroke-opacity:1" />
<path class="bond-27 atom-6 atom-1" d="M 222.8,376.8 L 233.8,371.3" style="fill:none;fill-rule:evenodd;stroke:#000000;stroke-width:2.0px;stroke-linecap:butt;stroke-linejoin:miter;stroke-opacity:1" />
<path class="bond-28 atom-23 atom-7" d="M 134.4,376.9 L 157.5,358.5" style="fill:none;fill-rule:evenodd;stroke:#000000;stroke-width:2.0px;stroke-linecap:butt;stroke-linejoin:miter;stroke-opacity:1" />
<path class="bond-29 atom-25 atom-4" d="M 179.6,316.1 L 200.3,337.2" style="fill:none;fill-rule:evenodd;stroke:#000000;stroke-width:2.0px;stroke-linecap:butt;stroke-linejoin:miter;stroke-opacity:1" />
<path class="bond-30 atom-22 atom-11" d="M 106.9,366.0 L 102.5,336.8" style="fill:none;fill-rule:evenodd;stroke:#000000;stroke-width:2.0px;stroke-linecap:butt;stroke-linejoin:miter;stroke-opacity:1" />
<path class="bond-31 atom-18 atom-12" d="M 57.1,315.3 L 65.2,323.6" style="fill:none;fill-rule:evenodd;stroke:#CCCC00;stroke-width:2.0px;stroke-linecap:butt;stroke-linejoin:miter;stroke-opacity:1" />
<path class="bond-31 atom-18 atom-12" d="M 65.2,323.6 L 73.4,331.9" style="fill:none;fill-rule:evenodd;stroke:#000000;stroke-width:2.0px;stroke-linecap:butt;stroke-linejoin:miter;stroke-opacity:1" />
<path class="atom-6" d="M 203.9 386.0 L 205.6 385.9 Q 205.8 386.7, 206.2 387.1 Q 206.7 387.5, 207.5 387.5 Q 208.3 387.5, 208.7 387.1 Q 209.1 386.8, 209.1 386.3 Q 209.1 386.0, 208.9 385.8 Q 208.8 385.6, 208.3 385.5 Q 208.0 385.3, 207.0 385.1 Q 205.6 384.7, 205.0 384.2 Q 204.2 383.5, 204.2 382.5 Q 204.2 381.9, 204.6 381.3 Q 205.0 380.8, 205.7 380.5 Q 206.4 380.2, 207.3 380.2 Q 208.9 380.2, 209.7 380.9 Q 210.5 381.6, 210.6 382.7 L 208.9 382.8 Q 208.8 382.2, 208.4 381.9 Q 208.0 381.6, 207.3 381.6 Q 206.6 381.6, 206.2 381.9 Q 205.9 382.1, 205.9 382.4 Q 205.9 382.7, 206.1 382.9 Q 206.5 383.2, 207.7 383.5 Q 209.0 383.8, 209.5 384.1 Q 210.1 384.4, 210.5 385.0 Q 210.8 385.5, 210.8 386.3 Q 210.8 387.0, 210.4 387.7 Q 210.0 388.3, 209.3 388.6 Q 208.5 388.9, 207.4 388.9 Q 205.8 388.9, 205.0 388.2 Q 204.1 387.5, 203.9 386.0 " fill="#CCCC00" />
<path class="atom-18" d="M 49.2 312.3 L 50.9 312.2 Q 51.0 313.0, 51.5 313.4 Q 52.0 313.8, 52.7 313.8 Q 53.6 313.8, 54.0 313.5 Q 54.4 313.1, 54.4 312.6 Q 54.4 312.3, 54.2 312.1 Q 54.1 311.9, 53.6 311.8 Q 53.3 311.7, 52.2 311.4 Q 50.9 311.1, 50.3 310.6 Q 49.5 309.9, 49.5 308.9 Q 49.5 308.2, 49.9 307.6 Q 50.3 307.1, 51.0 306.8 Q 51.7 306.5, 52.6 306.5 Q 54.2 306.5, 55.0 307.2 Q 55.8 307.9, 55.9 309.1 L 54.2 309.1 Q 54.1 308.5, 53.7 308.2 Q 53.3 307.9, 52.6 307.9 Q 51.9 307.9, 51.4 308.2 Q 51.2 308.4, 51.2 308.7 Q 51.2 309.0, 51.4 309.3 Q 51.8 309.5, 53.0 309.8 Q 54.2 310.1, 54.8 310.4 Q 55.4 310.7, 55.8 311.3 Q 56.1 311.8, 56.1 312.6 Q 56.1 313.4, 55.7 314.0 Q 55.3 314.6, 54.6 314.9 Q 53.8 315.2, 52.7 315.2 Q 51.1 315.2, 50.3 314.5 Q 49.4 313.8, 49.2 312.3 " fill="#CCCC00" />
</svg>