<?xml version='1.0' encoding='iso-8859-1'?>
<svg xmlns="http://www.w3.org/2000/svg" version="1.1" baseProfile="full" xml:space="preserve" width="425" height="116" viewBox="42 198 425 116">

<rect style="opacity:1.0;fill:#FFFFFF;stroke:none" width="512.0" height="512.0" x="0.0" y="0.0"> </rect>
<path class="bond-1 atom-1 atom-2" d="M 465.7,264.9 L 448.2,226.1" style="fill:none;fill-rule:evenodd;stroke:#000000;stroke-width:2.0px;stroke-linecap:butt;stroke-linejoin:miter;stroke-opacity:1" />
<path class="bond-1 atom-1 atom-2" d="M 458.0,263.3 L 444.3,232.9" style="fill:none;fill-rule:evenodd;stroke:#000000;stroke-width:2.0px;stroke-linecap:butt;stroke-linejoin:miter;stroke-opacity:1" />
<path class="bond-3 atom-2 atom-4" d="M 448.2,226.1 L 405.9,230.7" style="fill:none;fill-rule:evenodd;stroke:#000000;stroke-width:2.0px;stroke-linecap:butt;stroke-linejoin:miter;stroke-opacity:1" />
<path class="bond-4 atom-4 atom-5" d="M 405.9,230.7 L 397.3,272.3" style="fill:none;fill-rule:evenodd;stroke:#000000;stroke-width:2.0px;stroke-linecap:butt;stroke-linejoin:miter;stroke-opacity:1" />
<path class="bond-4 atom-4 atom-5" d="M 411.2,236.5 L 404.4,269.1" style="fill:none;fill-rule:evenodd;stroke:#000000;stroke-width:2.0px;stroke-linecap:butt;stroke-linejoin:miter;stroke-opacity:1" />
<path class="bond-5 atom-5 atom-6" d="M 397.3,272.3 L 410.7,280.0" style="fill:none;fill-rule:evenodd;stroke:#000000;stroke-width:2.0px;stroke-linecap:butt;stroke-linejoin:miter;stroke-opacity:1" />
<path class="bond-5 atom-5 atom-6" d="M 410.7,280.0 L 424.1,287.7" style="fill:none;fill-rule:evenodd;stroke:#CCCC00;stroke-width:2.0px;stroke-linecap:butt;stroke-linejoin:miter;stroke-opacity:1" />
<path class="bond-6 atom-5 atom-7" d="M 397.3,272.3 L 354.9,277.0" style="fill:none;fill-rule:evenodd;stroke:#000000;stroke-width:2.0px;stroke-linecap:butt;stroke-linejoin:miter;stroke-opacity:1" />
<path class="bond-7 atom-7 atom-8" d="M 354.9,277.0 L 337.5,238.2" style="fill:none;fill-rule:evenodd;stroke:#000000;stroke-width:2.0px;stroke-linecap:butt;stroke-linejoin:miter;stroke-opacity:1" />
<path class="bond-7 atom-7 atom-8" d="M 358.9,270.1 L 345.2,239.8" style="fill:none;fill-rule:evenodd;stroke:#000000;stroke-width:2.0px;stroke-linecap:butt;stroke-linejoin:miter;stroke-opacity:1" />
<path class="bond-8 atom-8 atom-9" d="M 337.5,238.2 L 348.2,228.5" style="fill:none;fill-rule:evenodd;stroke:#000000;stroke-width:2.0px;stroke-linecap:butt;stroke-linejoin:miter;stroke-opacity:1" />
<path class="bond-8 atom-8 atom-9" d="M 348.2,228.5 L 358.9,218.8" style="fill:none;fill-rule:evenodd;stroke:#CCCC00;stroke-width:2.0px;stroke-linecap:butt;stroke-linejoin:miter;stroke-opacity:1" />
<path class="bond-9 atom-8 atom-10" d="M 337.5,238.2 L 295.2,242.8" style="fill:none;fill-rule:evenodd;stroke:#000000;stroke-width:2.0px;stroke-linecap:butt;stroke-linejoin:miter;stroke-opacity:1" />
<path class="bond-10 atom-10 atom-11" d="M 295.2,242.8 L 286.5,284.4" style="fill:none;fill-rule:evenodd;stroke:#000000;stroke-width:2.0px;stroke-linecap:butt;stroke-linejoin:miter;stroke-opacity:1" />
<path class="bond-10 atom-10 atom-11" d="M 288.2,245.1 L 281.0,279.5" style="fill:none;fill-rule:evenodd;stroke:#000000;stroke-width:2.0px;stroke-linecap:butt;stroke-linejoin:miter;stroke-opacity:1" />
<path class="bond-11 atom-11 atom-12" d="M 286.5,284.4 L 246.1,297.8" style="fill:none;fill-rule:evenodd;stroke:#000000;stroke-width:2.0px;stroke-linecap:butt;stroke-linejoin:miter;stroke-opacity:1" />
<path class="bond-13 atom-12 atom-14" d="M 246.1,297.8 L 214.3,269.4" style="fill:none;fill-rule:evenodd;stroke:#000000;stroke-width:2.0px;stroke-linecap:butt;stroke-linejoin:miter;stroke-opacity:1" />
<path class="bond-13 atom-12 atom-14" d="M 247.6,290.5 L 221.3,267.1" style="fill:none;fill-rule:evenodd;stroke:#000000;stroke-width:2.0px;stroke-linecap:butt;stroke-linejoin:miter;stroke-opacity:1" />
<path class="bond-14 atom-14 atom-15" d="M 214.3,269.4 L 172.0,274.0" style="fill:none;fill-rule:evenodd;stroke:#000000;stroke-width:2.0px;stroke-linecap:butt;stroke-linejoin:miter;stroke-opacity:1" />
<path class="bond-15 atom-15 atom-16" d="M 172.0,274.0 L 154.6,235.2" style="fill:none;fill-rule:evenodd;stroke:#000000;stroke-width:2.0px;stroke-linecap:butt;stroke-linejoin:miter;stroke-opacity:1" />
<path class="bond-15 atom-15 atom-16" d="M 164.3,272.4 L 150.6,242.1" style="fill:none;fill-rule:evenodd;stroke:#000000;stroke-width:2.0px;stroke-linecap:butt;stroke-linejoin:miter;stroke-opacity:1" />
<path class="bond-16 atom-16 atom-17" d="M 154.6,235.2 L 112.3,239.8" style="fill:none;fill-rule:evenodd;stroke:#000000;stroke-width:2.0px;stroke-linecap:butt;stroke-linejoin:miter;stroke-opacity:1" />
<path class="bond-17 atom-17 atom-18" d="M 112.3,239.8 L 103.6,281.5" style="fill:none;fill-rule:evenodd;stroke:#000000;stroke-width:2.0px;stroke-linecap:butt;stroke-linejoin:miter;stroke-opacity:1" />
<path class="bond-17 atom-17 atom-18" d="M 117.6,245.7 L 110.8,278.3" style="fill:none;fill-rule:evenodd;stroke:#000000;stroke-width:2.0px;stroke-linecap:butt;stroke-linejoin:miter;stroke-opacity:1" />
<path class="bond-18 atom-18 atom-19" d="M 103.6,281.5 L 117.0,289.2" style="fill:none;fill-rule:evenodd;stroke:#000000;stroke-width:2.0px;stroke-linecap:butt;stroke-linejoin:miter;stroke-opacity:1" />
<path class="bond-18 atom-18 atom-19" d="M 117.0,289.2 L 130.4,296.8" style="fill:none;fill-rule:evenodd;stroke:#CCCC00;stroke-width:2.0px;stroke-linecap:butt;stroke-linejoin:miter;stroke-opacity:1" />
<path class="bond-19 atom-18 atom-20" d="M 103.6,281.5 L 61.3,286.1" style="fill:none;fill-rule:evenodd;stroke:#000000;stroke-width:2.0px;stroke-linecap:butt;stroke-linejoin:miter;stroke-opacity:1" />
<path class="bond-21 atom-20 atom-22" d="M 61.3,286.1 L 43.8,247.3" style="fill:none;fill-rule:evenodd;stroke:#000000;stroke-width:2.0px;stroke-linecap:butt;stroke-linejoin:miter;stroke-opacity:1" />
<path class="bond-21 atom-20 atom-22" d="M 65.2,279.3 L 51.5,248.9" style="fill:none;fill-rule:evenodd;stroke:#000000;stroke-width:2.0px;stroke-linecap:butt;stroke-linejoin:miter;stroke-opacity:1" />
<path class="bond-23 atom-22 atom-24" d="M 43.8,247.3 L 54.5,237.6" style="fill:none;fill-rule:evenodd;stroke:#000000;stroke-width:2.0px;stroke-linecap:butt;stroke-linejoin:miter;stroke-opacity:1" />
<path class="bond-23 atom-22 atom-24" d="M 54.5,237.6 L 65.2,227.9" style="fill:none;fill-rule:evenodd;stroke:#CCCC00;stroke-width:2.0px;stroke-linecap:butt;stroke-linejoin:miter;stroke-opacity:1" />
<path class="bond-24 atom-16 atom-25" d="M 154.6,235.2 L 186.1,206.6" style="fill:none;fill-rule:evenodd;stroke:#000000;stroke-width:2.0px;stroke-linecap:butt;stroke-linejoin:miter;stroke-opacity:1" />
<path class="bond-27 atom-25 atom-28" d="M 186.1,206.6 L 223.0,227.7" style="fill:none;fill-rule:evenodd;stroke:#000000;stroke-width:2.0px;stroke-linecap:butt;stroke-linejoin:miter;stroke-opacity:1" />
<path class="bond-28 atom-28 atom-29" d="M 223.0,227.7 L 263.4,214.4" style="fill:none;fill-rule:evenodd;stroke:#000000;stroke-width:2.0px;stroke-linecap:butt;stroke-linejoin:miter;stroke-opacity:1" />
<path class="bond-28 atom-28 atom-29" d="M 228.5,232.7 L 261.9,221.6" style="fill:none;fill-rule:evenodd;stroke:#000000;stroke-width:2.0px;stroke-linecap:butt;stroke-linejoin:miter;stroke-opacity:1" />
<path class="bond-30 atom-11 atom-31" d="M 286.5,284.4 L 323.4,305.6" style="fill:none;fill-rule:evenodd;stroke:#000000;stroke-width:2.0px;stroke-linecap:butt;stroke-linejoin:miter;stroke-opacity:1" />
<path class="bond-33 atom-6 atom-1" d="M 444.3,284.3 L 455.0,274.6" style="fill:none;fill-rule:evenodd;stroke:#CCCC00;stroke-width:2.0px;stroke-linecap:butt;stroke-linejoin:miter;stroke-opacity:1" />
<path class="bond-33 atom-6 atom-1" d="M 455.0,274.6 L 465.7,264.9" style="fill:none;fill-rule:evenodd;stroke:#000000;stroke-width:2.0px;stroke-linecap:butt;stroke-linejoin:miter;stroke-opacity:1" />
<path class="bond-34 atom-31 atom-7" d="M 323.4,305.6 L 354.9,277.0" style="fill:none;fill-rule:evenodd;stroke:#000000;stroke-width:2.0px;stroke-linecap:butt;stroke-linejoin:miter;stroke-opacity:1" />
<path class="bond-35 atom-9 atom-4" d="M 379.1,215.4 L 392.5,223.0" style="fill:none;fill-rule:evenodd;stroke:#CCCC00;stroke-width:2.0px;stroke-linecap:butt;stroke-linejoin:miter;stroke-opacity:1" />
<path class="bond-35 atom-9 atom-4" d="M 392.5,223.0 L 405.9,230.7" style="fill:none;fill-rule:evenodd;stroke:#000000;stroke-width:2.0px;stroke-linecap:butt;stroke-linejoin:miter;stroke-opacity:1" />
<path class="bond-36 atom-29 atom-10" d="M 263.4,214.4 L 295.2,242.8" style="fill:none;fill-rule:evenodd;stroke:#000000;stroke-width:2.0px;stroke-linecap:butt;stroke-linejoin:miter;stroke-opacity:1" />
<path class="bond-37 atom-28 atom-14" d="M 223.0,227.7 L 214.3,269.4" style="fill:none;fill-rule:evenodd;stroke:#000000;stroke-width:2.0px;stroke-linecap:butt;stroke-linejoin:miter;stroke-opacity:1" />
<path class="bond-38 atom-19 atom-15" d="M 150.6,293.4 L 161.3,283.7" style="fill:none;fill-rule:evenodd;stroke:#CCCC00;stroke-width:2.0px;stroke-linecap:butt;stroke-linejoin:miter;stroke-opacity:1" />
<path class="bond-38 atom-19 atom-15" d="M 161.3,283.7 L 172.0,274.0" style="fill:none;fill-rule:evenodd;stroke:#000000;stroke-width:2.0px;stroke-linecap:butt;stroke-linejoin:miter;stroke-opacity:1" />
<path class="bond-39 atom-24 atom-17" d="M 85.4,224.5 L 98.8,232.2" style="fill:none;fill-rule:evenodd;stroke:#CCCC00;stroke-width:2.0px;stroke-linecap:butt;stroke-linejoin:miter;stroke-opacity:1" />
<path class="bond-39 atom-24 atom-17" d="M 98.8,232.2 L 112.3,239.8" style="fill:none;fill-rule:evenodd;stroke:#000000;stroke-width:2.0px;stroke-linecap:butt;stroke-linejoin:miter;stroke-opacity:1" />
<path class="atom-6" d="M 425.5 297.4 L 429.7 297.0 Q 430.1 299.1, 431.2 300.1 Q 432.4 301.1, 434.4 301.1 Q 436.5 301.1, 437.5 300.2 Q 438.6 299.3, 438.6 298.2 Q 438.6 297.4, 438.1 296.9 Q 437.7 296.3, 436.6 295.9 Q 435.8 295.7, 433.1 295.0 Q 429.6 294.1, 428.2 292.9 Q 426.2 291.1, 426.2 288.5 Q 426.2 286.9, 427.2 285.5 Q 428.1 284.1, 429.8 283.3 Q 431.6 282.6, 434.1 282.6 Q 438.1 282.6, 440.2 284.3 Q 442.2 286.1, 442.3 289.1 L 438.0 289.3 Q 437.7 287.6, 436.8 286.9 Q 435.9 286.1, 434.0 286.1 Q 432.1 286.1, 431.1 286.9 Q 430.4 287.4, 430.4 288.3 Q 430.4 289.0, 431.0 289.6 Q 431.8 290.2, 435.0 291.0 Q 438.2 291.7, 439.7 292.5 Q 441.2 293.3, 442.1 294.7 Q 442.9 296.1, 442.9 298.1 Q 442.9 300.0, 441.9 301.6 Q 440.9 303.2, 439.0 304.0 Q 437.1 304.8, 434.3 304.8 Q 430.3 304.8, 428.1 302.9 Q 425.9 301.0, 425.5 297.4 " fill="#CCCC00" />
<path class="atom-9" d="M 360.3 213.5 L 364.5 213.1 Q 364.9 215.2, 366.0 216.2 Q 367.2 217.2, 369.2 217.2 Q 371.3 217.2, 372.3 216.3 Q 373.4 215.4, 373.4 214.2 Q 373.4 213.5, 372.9 212.9 Q 372.5 212.4, 371.4 212.0 Q 370.6 211.7, 367.9 211.1 Q 364.4 210.2, 363.0 208.9 Q 361.0 207.2, 361.0 204.6 Q 361.0 203.0, 362.0 201.6 Q 362.9 200.1, 364.6 199.4 Q 366.4 198.6, 368.9 198.6 Q 372.9 198.6, 375.0 200.4 Q 377.0 202.2, 377.1 205.1 L 372.8 205.3 Q 372.5 203.7, 371.6 203.0 Q 370.7 202.2, 368.8 202.2 Q 366.9 202.2, 365.9 203.0 Q 365.2 203.5, 365.2 204.3 Q 365.2 205.1, 365.8 205.6 Q 366.6 206.3, 369.8 207.1 Q 373.0 207.8, 374.5 208.6 Q 376.0 209.4, 376.9 210.8 Q 377.7 212.2, 377.7 214.2 Q 377.7 216.1, 376.7 217.7 Q 375.7 219.3, 373.8 220.1 Q 371.9 220.9, 369.1 220.9 Q 365.0 220.9, 362.9 219.0 Q 360.7 217.1, 360.3 213.5 " fill="#CCCC00" />
<path class="atom-19" d="M 131.8 306.6 L 136.0 306.2 Q 136.4 308.3, 137.5 309.3 Q 138.7 310.3, 140.7 310.3 Q 142.8 310.3, 143.8 309.4 Q 144.9 308.5, 144.9 307.3 Q 144.9 306.6, 144.5 306.0 Q 144.0 305.5, 142.9 305.1 Q 142.1 304.8, 139.4 304.2 Q 135.9 303.3, 134.5 302.0 Q 132.6 300.3, 132.6 297.7 Q 132.6 296.1, 133.5 294.6 Q 134.4 293.2, 136.2 292.5 Q 137.9 291.7, 140.4 291.7 Q 144.4 291.7, 146.5 293.5 Q 148.5 295.3, 148.6 298.2 L 144.3 298.4 Q 144.0 296.8, 143.1 296.0 Q 142.2 295.3, 140.4 295.3 Q 138.5 295.3, 137.4 296.1 Q 136.7 296.6, 136.7 297.4 Q 136.7 298.2, 137.3 298.7 Q 138.2 299.4, 141.3 300.2 Q 144.5 300.9, 146.0 301.7 Q 147.5 302.5, 148.4 303.9 Q 149.2 305.3, 149.2 307.3 Q 149.2 309.1, 148.2 310.8 Q 147.2 312.4, 145.3 313.2 Q 143.4 313.9, 140.6 313.9 Q 136.6 313.9, 134.4 312.1 Q 132.2 310.2, 131.8 306.6 " fill="#CCCC00" />
<path class="atom-24" d="M 66.6 222.6 L 70.8 222.2 Q 71.2 224.4, 72.3 225.4 Q 73.5 226.4, 75.5 226.4 Q 77.6 226.4, 78.6 225.5 Q 79.7 224.6, 79.7 223.4 Q 79.7 222.6, 79.3 222.1 Q 78.8 221.6, 77.7 221.2 Q 76.9 220.9, 74.2 220.2 Q 70.7 219.4, 69.3 218.1 Q 67.4 216.3, 67.4 213.8 Q 67.4 212.1, 68.3 210.7 Q 69.2 209.3, 71.0 208.5 Q 72.7 207.8, 75.2 207.8 Q 79.2 207.8, 81.3 209.6 Q 83.3 211.3, 83.4 214.3 L 79.1 214.5 Q 78.8 212.8, 77.9 212.1 Q 77.0 211.4, 75.1 211.4 Q 73.3 211.4, 72.2 212.2 Q 71.5 212.7, 71.5 213.5 Q 71.5 214.3, 72.1 214.8 Q 73.0 215.5, 76.1 216.2 Q 79.3 217.0, 80.8 217.8 Q 82.3 218.6, 83.2 220.0 Q 84.0 221.3, 84.0 223.4 Q 84.0 225.2, 83.0 226.8 Q 82.0 228.4, 80.1 229.2 Q 78.2 230.0, 75.4 230.0 Q 71.4 230.0, 69.2 228.1 Q 67.0 226.2, 66.6 222.6 " fill="#CCCC00" />
</svg>