<?xml version='1.0' encoding='iso-8859-1'?>
<svg xmlns="http://www.w3.org/2000/svg" version="1.1" baseProfile="full" xml:space="preserve" width="295" height="74" viewBox="28 311 295 74">

<rect style="opacity:1.0;fill:#FFFFFF;stroke:none" width="512.0" height="512.0" x="0.0" y="0.0"> </rect>
<path class="bond-1 atom-1 atom-2" d="M 322.0,353.9 L 309.9,326.9" style="fill:none;fill-rule:evenodd;stroke:#000000;stroke-width:2.0px;stroke-linecap:butt;stroke-linejoin:miter;stroke-opacity:1" />
<path class="bond-1 atom-1 atom-2" d="M 316.6,352.7 L 307.1,331.7" style="fill:none;fill-rule:evenodd;stroke:#000000;stroke-width:2.0px;stroke-linecap:butt;stroke-linejoin:miter;stroke-opacity:1" />
<path class="bond-3 atom-2 atom-4" d="M 309.9,326.9 L 280.5,330.1" style="fill:none;fill-rule:evenodd;stroke:#000000;stroke-width:2.0px;stroke-linecap:butt;stroke-linejoin:miter;stroke-opacity:1" />
<path class="bond-4 atom-4 atom-5" d="M 280.5,330.1 L 274.4,359.1" style="fill:none;fill-rule:evenodd;stroke:#000000;stroke-width:2.0px;stroke-linecap:butt;stroke-linejoin:miter;stroke-opacity:1" />
<path class="bond-4 atom-4 atom-5" d="M 284.2,334.2 L 279.4,356.8" style="fill:none;fill-rule:evenodd;stroke:#000000;stroke-width:2.0px;stroke-linecap:butt;stroke-linejoin:miter;stroke-opacity:1" />
<path class="bond-5 atom-5 atom-6" d="M 274.4,359.1 L 285.1,365.1" style="fill:none;fill-rule:evenodd;stroke:#000000;stroke-width:2.0px;stroke-linecap:butt;stroke-linejoin:miter;stroke-opacity:1" />
<path class="bond-5 atom-5 atom-6" d="M 285.1,365.1 L 295.7,371.2" style="fill:none;fill-rule:evenodd;stroke:#CCCC00;stroke-width:2.0px;stroke-linecap:butt;stroke-linejoin:miter;stroke-opacity:1" />
<path class="bond-6 atom-5 atom-7" d="M 274.4,359.1 L 245.1,362.3" style="fill:none;fill-rule:evenodd;stroke:#000000;stroke-width:2.0px;stroke-linecap:butt;stroke-linejoin:miter;stroke-opacity:1" />
<path class="bond-7 atom-7 atom-8" d="M 245.1,362.3 L 232.9,335.3" style="fill:none;fill-rule:evenodd;stroke:#000000;stroke-width:2.0px;stroke-linecap:butt;stroke-linejoin:miter;stroke-opacity:1" />
<path class="bond-7 atom-7 atom-8" d="M 247.8,357.5 L 238.3,336.4" style="fill:none;fill-rule:evenodd;stroke:#000000;stroke-width:2.0px;stroke-linecap:butt;stroke-linejoin:miter;stroke-opacity:1" />
<path class="bond-8 atom-8 atom-9" d="M 232.9,335.3 L 241.7,327.4" style="fill:none;fill-rule:evenodd;stroke:#000000;stroke-width:2.0px;stroke-linecap:butt;stroke-linejoin:miter;stroke-opacity:1" />
<path class="bond-8 atom-8 atom-9" d="M 241.7,327.4 L 250.4,319.4" style="fill:none;fill-rule:evenodd;stroke:#CCCC00;stroke-width:2.0px;stroke-linecap:butt;stroke-linejoin:miter;stroke-opacity:1" />
<path class="bond-9 atom-8 atom-10" d="M 232.9,335.3 L 203.5,338.5" style="fill:none;fill-rule:evenodd;stroke:#000000;stroke-width:2.0px;stroke-linecap:butt;stroke-linejoin:miter;stroke-opacity:1" />
<path class="bond-10 atom-10 atom-11" d="M 203.5,338.5 L 197.5,367.5" style="fill:none;fill-rule:evenodd;stroke:#000000;stroke-width:2.0px;stroke-linecap:butt;stroke-linejoin:miter;stroke-opacity:1" />
<path class="bond-10 atom-10 atom-11" d="M 198.7,340.1 L 193.7,364.0" style="fill:none;fill-rule:evenodd;stroke:#000000;stroke-width:2.0px;stroke-linecap:butt;stroke-linejoin:miter;stroke-opacity:1" />
<path class="bond-11 atom-11 atom-12" d="M 197.5,367.5 L 169.4,376.7" style="fill:none;fill-rule:evenodd;stroke:#000000;stroke-width:2.0px;stroke-linecap:butt;stroke-linejoin:miter;stroke-opacity:1" />
<path class="bond-13 atom-12 atom-14" d="M 169.4,376.7 L 147.4,357.0" style="fill:none;fill-rule:evenodd;stroke:#000000;stroke-width:2.0px;stroke-linecap:butt;stroke-linejoin:miter;stroke-opacity:1" />
<path class="bond-13 atom-12 atom-14" d="M 170.5,371.7 L 152.3,355.4" style="fill:none;fill-rule:evenodd;stroke:#000000;stroke-width:2.0px;stroke-linecap:butt;stroke-linejoin:miter;stroke-opacity:1" />
<path class="bond-14 atom-14 atom-15" d="M 147.4,357.0 L 118.0,360.2" style="fill:none;fill-rule:evenodd;stroke:#000000;stroke-width:2.0px;stroke-linecap:butt;stroke-linejoin:miter;stroke-opacity:1" />
<path class="bond-15 atom-15 atom-16" d="M 118.0,360.2 L 105.9,333.3" style="fill:none;fill-rule:evenodd;stroke:#000000;stroke-width:2.0px;stroke-linecap:butt;stroke-linejoin:miter;stroke-opacity:1" />
<path class="bond-15 atom-15 atom-16" d="M 112.6,359.1 L 103.2,338.0" style="fill:none;fill-rule:evenodd;stroke:#000000;stroke-width:2.0px;stroke-linecap:butt;stroke-linejoin:miter;stroke-opacity:1" />
<path class="bond-16 atom-16 atom-17" d="M 105.9,333.3 L 76.5,336.5" style="fill:none;fill-rule:evenodd;stroke:#000000;stroke-width:2.0px;stroke-linecap:butt;stroke-linejoin:miter;stroke-opacity:1" />
<path class="bond-17 atom-17 atom-18" d="M 76.5,336.5 L 70.5,365.4" style="fill:none;fill-rule:evenodd;stroke:#000000;stroke-width:2.0px;stroke-linecap:butt;stroke-linejoin:miter;stroke-opacity:1" />
<path class="bond-17 atom-17 atom-18" d="M 80.2,340.5 L 75.5,363.2" style="fill:none;fill-rule:evenodd;stroke:#000000;stroke-width:2.0px;stroke-linecap:butt;stroke-linejoin:miter;stroke-opacity:1" />
<path class="bond-18 atom-18 atom-19" d="M 70.5,365.4 L 81.1,371.5" style="fill:none;fill-rule:evenodd;stroke:#000000;stroke-width:2.0px;stroke-linecap:butt;stroke-linejoin:miter;stroke-opacity:1" />
<path class="bond-18 atom-18 atom-19" d="M 81.1,371.5 L 91.7,377.6" style="fill:none;fill-rule:evenodd;stroke:#CCCC00;stroke-width:2.0px;stroke-linecap:butt;stroke-linejoin:miter;stroke-opacity:1" />
<path class="bond-19 atom-18 atom-20" d="M 70.5,365.4 L 41.1,368.6" style="fill:none;fill-rule:evenodd;stroke:#000000;stroke-width:2.0px;stroke-linecap:butt;stroke-linejoin:miter;stroke-opacity:1" />
<path class="bond-21 atom-20 atom-22" d="M 41.1,368.6 L 28.9,341.7" style="fill:none;fill-rule:evenodd;stroke:#000000;stroke-width:2.0px;stroke-linecap:butt;stroke-linejoin:miter;stroke-opacity:1" />
<path class="bond-21 atom-20 atom-22" d="M 43.8,363.9 L 34.3,342.8" style="fill:none;fill-rule:evenodd;stroke:#000000;stroke-width:2.0px;stroke-linecap:butt;stroke-linejoin:miter;stroke-opacity:1" />
<path class="bond-23 atom-22 atom-24" d="M 28.9,341.7 L 37.7,333.7" style="fill:none;fill-rule:evenodd;stroke:#000000;stroke-width:2.0px;stroke-linecap:butt;stroke-linejoin:miter;stroke-opacity:1" />
<path class="bond-23 atom-22 atom-24" d="M 37.7,333.7 L 46.4,325.8" style="fill:none;fill-rule:evenodd;stroke:#CCCC00;stroke-width:2.0px;stroke-linecap:butt;stroke-linejoin:miter;stroke-opacity:1" />
<path class="bond-24 atom-16 atom-25" d="M 105.9,333.3 L 127.8,313.4" style="fill:none;fill-rule:evenodd;stroke:#000000;stroke-width:2.0px;stroke-linecap:butt;stroke-linejoin:miter;stroke-opacity:1" />
<path class="bond-27 atom-25 atom-28" d="M 127.8,313.4 L 153.4,328.1" style="fill:none;fill-rule:evenodd;stroke:#000000;stroke-width:2.0px;stroke-linecap:butt;stroke-linejoin:miter;stroke-opacity:1" />
<path class="bond-28 atom-28 atom-29" d="M 153.4,328.1 L 181.5,318.8" style="fill:none;fill-rule:evenodd;stroke:#000000;stroke-width:2.0px;stroke-linecap:butt;stroke-linejoin:miter;stroke-opacity:1" />
<path class="bond-28 atom-28 atom-29" d="M 157.2,331.5 L 180.5,323.8" style="fill:none;fill-rule:evenodd;stroke:#000000;stroke-width:2.0px;stroke-linecap:butt;stroke-linejoin:miter;stroke-opacity:1" />
<path class="bond-30 atom-11 atom-31" d="M 197.5,367.5 L 223.2,382.1" style="fill:none;fill-rule:evenodd;stroke:#000000;stroke-width:2.0px;stroke-linecap:butt;stroke-linejoin:miter;stroke-opacity:1" />
<path class="bond-33 atom-6 atom-1" d="M 304.5,369.7 L 313.3,361.8" style="fill:none;fill-rule:evenodd;stroke:#CCCC00;stroke-width:2.0px;stroke-linecap:butt;stroke-linejoin:miter;stroke-opacity:1" />
<path class="bond-33 atom-6 atom-1" d="M 313.3,361.8 L 322.0,353.9" style="fill:none;fill-rule:evenodd;stroke:#000000;stroke-width:2.0px;stroke-linecap:butt;stroke-linejoin:miter;stroke-opacity:1" />
<path class="bond-34 atom-31 atom-7" d="M 223.2,382.1 L 245.1,362.3" style="fill:none;fill-rule:evenodd;stroke:#000000;stroke-width:2.0px;stroke-linecap:butt;stroke-linejoin:miter;stroke-opacity:1" />
<path class="bond-35 atom-9 atom-4" d="M 259.2,318.0 L 269.9,324.0" style="fill:none;fill-rule:evenodd;stroke:#CCCC00;stroke-width:2.0px;stroke-linecap:butt;stroke-linejoin:miter;stroke-opacity:1" />
<path class="bond-35 atom-9 atom-4" d="M 269.9,324.0 L 280.5,330.1" style="fill:none;fill-rule:evenodd;stroke:#000000;stroke-width:2.0px;stroke-linecap:butt;stroke-linejoin:miter;stroke-opacity:1" />
<path class="bond-36 atom-29 atom-10" d="M 181.5,318.8 L 203.5,338.5" style="fill:none;fill-rule:evenodd;stroke:#000000;stroke-width:2.0px;stroke-linecap:butt;stroke-linejoin:miter;stroke-opacity:1" />
<path class="bond-37 atom-28 atom-14" d="M 153.4,328.1 L 147.4,357.0" style="fill:none;fill-rule:evenodd;stroke:#000000;stroke-width:2.0px;stroke-linecap:butt;stroke-linejoin:miter;stroke-opacity:1" />
<path class="bond-38 atom-19 atom-15" d="M 100.5,376.1 L 109.3,368.2" style="fill:none;fill-rule:evenodd;stroke:#CCCC00;stroke-width:2.0px;stroke-linecap:butt;stroke-linejoin:miter;stroke-opacity:1" />
<path class="bond-38 atom-19 atom-15" d="M 109.3,368.2 L 118.0,360.2" style="fill:none;fill-rule:evenodd;stroke:#000000;stroke-width:2.0px;stroke-linecap:butt;stroke-linejoin:miter;stroke-opacity:1" />
<path class="bond-39 atom-24 atom-17" d="M 55.2,324.3 L 65.9,330.4" style="fill:none;fill-rule:evenodd;stroke:#CCCC00;stroke-width:2.0px;stroke-linecap:butt;stroke-linejoin:miter;stroke-opacity:1" />
<path class="bond-39 atom-24 atom-17" d="M 65.9,330.4 L 76.5,336.5" style="fill:none;fill-rule:evenodd;stroke:#000000;stroke-width:2.0px;stroke-linecap:butt;stroke-linejoin:miter;stroke-opacity:1" />
<path class="atom-6" d="M 296.7 375.3 L 298.3 375.1 Q 298.5 376.0, 298.9 376.3 Q 299.4 376.7, 300.2 376.7 Q 301.0 376.7, 301.4 376.4 Q 301.8 376.0, 301.8 375.6 Q 301.8 375.3, 301.7 375.1 Q 301.5 374.9, 301.0 374.7 Q 300.7 374.6, 299.7 374.3 Q 298.3 374.0, 297.8 373.5 Q 297.0 372.8, 297.0 371.8 Q 297.0 371.1, 297.3 370.6 Q 297.7 370.0, 298.4 369.7 Q 299.1 369.4, 300.1 369.4 Q 301.7 369.4, 302.5 370.1 Q 303.3 370.8, 303.3 372.0 L 301.6 372.1 Q 301.5 371.4, 301.1 371.1 Q 300.8 370.8, 300.0 370.8 Q 299.3 370.8, 298.9 371.1 Q 298.6 371.3, 298.6 371.7 Q 298.6 372.0, 298.9 372.2 Q 299.2 372.5, 300.4 372.8 Q 301.7 373.0, 302.3 373.4 Q 302.9 373.7, 303.2 374.2 Q 303.5 374.8, 303.5 375.6 Q 303.5 376.3, 303.1 376.9 Q 302.7 377.6, 302.0 377.9 Q 301.3 378.2, 300.2 378.2 Q 298.6 378.2, 297.7 377.4 Q 296.8 376.7, 296.7 375.3 " fill="#CCCC00" />
<path class="atom-9" d="M 251.4 317.0 L 253.0 316.8 Q 253.2 317.7, 253.6 318.1 Q 254.1 318.4, 254.9 318.4 Q 255.7 318.4, 256.1 318.1 Q 256.5 317.8, 256.5 317.3 Q 256.5 317.0, 256.4 316.8 Q 256.2 316.6, 255.8 316.4 Q 255.5 316.3, 254.4 316.0 Q 253.0 315.7, 252.5 315.2 Q 251.7 314.5, 251.7 313.5 Q 251.7 312.8, 252.0 312.3 Q 252.4 311.7, 253.1 311.4 Q 253.8 311.1, 254.8 311.1 Q 256.4 311.1, 257.2 311.8 Q 258.0 312.5, 258.0 313.7 L 256.3 313.8 Q 256.2 313.1, 255.8 312.8 Q 255.5 312.5, 254.8 312.5 Q 254.0 312.5, 253.6 312.9 Q 253.3 313.1, 253.3 313.4 Q 253.3 313.7, 253.6 313.9 Q 253.9 314.2, 255.1 314.5 Q 256.4 314.8, 257.0 315.1 Q 257.6 315.4, 257.9 315.9 Q 258.3 316.5, 258.3 317.3 Q 258.3 318.0, 257.9 318.6 Q 257.4 319.3, 256.7 319.6 Q 256.0 319.9, 254.9 319.9 Q 253.3 319.9, 252.4 319.2 Q 251.5 318.4, 251.4 317.0 " fill="#CCCC00" />
<path class="atom-19" d="M 92.7 381.6 L 94.3 381.5 Q 94.5 382.3, 94.9 382.7 Q 95.4 383.1, 96.2 383.1 Q 97.0 383.1, 97.4 382.8 Q 97.8 382.4, 97.8 381.9 Q 97.8 381.6, 97.7 381.4 Q 97.5 381.2, 97.1 381.1 Q 96.8 381.0, 95.7 380.7 Q 94.3 380.3, 93.8 379.9 Q 93.0 379.2, 93.0 378.1 Q 93.0 377.5, 93.3 376.9 Q 93.7 376.4, 94.4 376.1 Q 95.1 375.8, 96.1 375.8 Q 97.7 375.8, 98.5 376.5 Q 99.3 377.2, 99.3 378.3 L 97.6 378.4 Q 97.5 377.8, 97.1 377.5 Q 96.8 377.2, 96.1 377.2 Q 95.3 377.2, 94.9 377.5 Q 94.6 377.7, 94.6 378.0 Q 94.6 378.3, 94.9 378.5 Q 95.2 378.8, 96.4 379.1 Q 97.7 379.4, 98.3 379.7 Q 98.9 380.0, 99.2 380.6 Q 99.6 381.1, 99.6 381.9 Q 99.6 382.7, 99.2 383.3 Q 98.7 383.9, 98.0 384.2 Q 97.3 384.5, 96.2 384.5 Q 94.6 384.5, 93.7 383.8 Q 92.8 383.1, 92.7 381.6 " fill="#CCCC00" />
<path class="atom-24" d="M 47.4 323.3 L 49.0 323.2 Q 49.2 324.0, 49.7 324.4 Q 50.1 324.8, 50.9 324.8 Q 51.7 324.8, 52.1 324.5 Q 52.6 324.1, 52.6 323.6 Q 52.6 323.3, 52.4 323.1 Q 52.2 322.9, 51.8 322.8 Q 51.5 322.7, 50.4 322.4 Q 49.0 322.1, 48.5 321.6 Q 47.7 320.9, 47.7 319.9 Q 47.7 319.2, 48.1 318.6 Q 48.4 318.1, 49.1 317.8 Q 49.8 317.5, 50.8 317.5 Q 52.4 317.5, 53.2 318.2 Q 54.0 318.9, 54.0 320.1 L 52.3 320.1 Q 52.2 319.5, 51.8 319.2 Q 51.5 318.9, 50.8 318.9 Q 50.0 318.9, 49.6 319.2 Q 49.3 319.4, 49.3 319.7 Q 49.3 320.0, 49.6 320.3 Q 49.9 320.5, 51.1 320.8 Q 52.4 321.1, 53.0 321.4 Q 53.6 321.7, 53.9 322.3 Q 54.3 322.8, 54.3 323.6 Q 54.3 324.4, 53.9 325.0 Q 53.5 325.6, 52.7 325.9 Q 52.0 326.3, 50.9 326.3 Q 49.3 326.3, 48.4 325.5 Q 47.6 324.8, 47.4 323.3 " fill="#CCCC00" />
</svg>