<?xml version='1.0' encoding='iso-8859-1'?>
<svg xmlns="http://www.w3.org/2000/svg" version="1.1" baseProfile="full" xml:space="preserve" width="443" height="108" viewBox="33 202 443 108">

<rect style="opacity:1.0;fill:#FFFFFF;stroke:none" width="512.0" height="512.0" x="0.0" y="0.0"> </rect>
<path class="bond-1 atom-1 atom-2" d="M 474.9,279.3 L 466.4,244.7" style="fill:none;fill-rule:evenodd;stroke:#000000;stroke-width:2.0px;stroke-linecap:butt;stroke-linejoin:miter;stroke-opacity:1" />
<path class="bond-1 atom-1 atom-2" d="M 468.8,276.8 L 462.2,249.8" style="fill:none;fill-rule:evenodd;stroke:#000000;stroke-width:2.0px;stroke-linecap:butt;stroke-linejoin:miter;stroke-opacity:1" />
<path class="bond-3 atom-2 atom-4" d="M 466.4,244.7 L 430.9,242.1" style="fill:none;fill-rule:evenodd;stroke:#000000;stroke-width:2.0px;stroke-linecap:butt;stroke-linejoin:miter;stroke-opacity:1" />
<path class="bond-4 atom-4 atom-5" d="M 430.9,242.1 L 417.5,275.1" style="fill:none;fill-rule:evenodd;stroke:#000000;stroke-width:2.0px;stroke-linecap:butt;stroke-linejoin:miter;stroke-opacity:1" />
<path class="bond-4 atom-4 atom-5" d="M 434.4,247.7 L 423.9,273.5" style="fill:none;fill-rule:evenodd;stroke:#000000;stroke-width:2.0px;stroke-linecap:butt;stroke-linejoin:miter;stroke-opacity:1" />
<path class="bond-5 atom-5 atom-6" d="M 417.5,275.1 L 426.1,282.4" style="fill:none;fill-rule:evenodd;stroke:#000000;stroke-width:2.0px;stroke-linecap:butt;stroke-linejoin:miter;stroke-opacity:1" />
<path class="bond-5 atom-5 atom-6" d="M 426.1,282.4 L 434.8,289.7" style="fill:none;fill-rule:evenodd;stroke:#CCCC00;stroke-width:2.0px;stroke-linecap:butt;stroke-linejoin:miter;stroke-opacity:1" />
<path class="bond-6 atom-5 atom-7" d="M 417.5,275.1 L 381.9,272.5" style="fill:none;fill-rule:evenodd;stroke:#000000;stroke-width:2.0px;stroke-linecap:butt;stroke-linejoin:miter;stroke-opacity:1" />
<path class="bond-7 atom-7 atom-8" d="M 381.9,272.5 L 373.5,237.9" style="fill:none;fill-rule:evenodd;stroke:#000000;stroke-width:2.0px;stroke-linecap:butt;stroke-linejoin:miter;stroke-opacity:1" />
<path class="bond-7 atom-7 atom-8" d="M 386.2,267.4 L 379.6,240.4" style="fill:none;fill-rule:evenodd;stroke:#000000;stroke-width:2.0px;stroke-linecap:butt;stroke-linejoin:miter;stroke-opacity:1" />
<path class="bond-8 atom-8 atom-9" d="M 373.5,237.9 L 383.6,231.6" style="fill:none;fill-rule:evenodd;stroke:#000000;stroke-width:2.0px;stroke-linecap:butt;stroke-linejoin:miter;stroke-opacity:1" />
<path class="bond-8 atom-8 atom-9" d="M 383.6,231.6 L 393.8,225.3" style="fill:none;fill-rule:evenodd;stroke:#CCCC00;stroke-width:2.0px;stroke-linecap:butt;stroke-linejoin:miter;stroke-opacity:1" />
<path class="bond-9 atom-8 atom-10" d="M 373.5,237.9 L 337.9,235.3" style="fill:none;fill-rule:evenodd;stroke:#000000;stroke-width:2.0px;stroke-linecap:butt;stroke-linejoin:miter;stroke-opacity:1" />
<path class="bond-10 atom-10 atom-11" d="M 337.9,235.3 L 324.5,268.3" style="fill:none;fill-rule:evenodd;stroke:#000000;stroke-width:2.0px;stroke-linecap:butt;stroke-linejoin:miter;stroke-opacity:1" />
<path class="bond-10 atom-10 atom-11" d="M 341.4,240.9 L 330.9,266.7" style="fill:none;fill-rule:evenodd;stroke:#000000;stroke-width:2.0px;stroke-linecap:butt;stroke-linejoin:miter;stroke-opacity:1" />
<path class="bond-11 atom-11 atom-12" d="M 324.5,268.3 L 333.1,275.6" style="fill:none;fill-rule:evenodd;stroke:#000000;stroke-width:2.0px;stroke-linecap:butt;stroke-linejoin:miter;stroke-opacity:1" />
<path class="bond-11 atom-11 atom-12" d="M 333.1,275.6 L 341.8,282.9" style="fill:none;fill-rule:evenodd;stroke:#CCCC00;stroke-width:2.0px;stroke-linecap:butt;stroke-linejoin:miter;stroke-opacity:1" />
<path class="bond-12 atom-11 atom-13" d="M 324.5,268.3 L 289.0,265.7" style="fill:none;fill-rule:evenodd;stroke:#000000;stroke-width:2.0px;stroke-linecap:butt;stroke-linejoin:miter;stroke-opacity:1" />
<path class="bond-13 atom-13 atom-14" d="M 289.0,265.7 L 280.5,231.1" style="fill:none;fill-rule:evenodd;stroke:#000000;stroke-width:2.0px;stroke-linecap:butt;stroke-linejoin:miter;stroke-opacity:1" />
<path class="bond-13 atom-13 atom-14" d="M 283.0,263.9 L 276.0,235.3" style="fill:none;fill-rule:evenodd;stroke:#000000;stroke-width:2.0px;stroke-linecap:butt;stroke-linejoin:miter;stroke-opacity:1" />
<path class="bond-14 atom-14 atom-15" d="M 280.5,231.1 L 246.3,221.1" style="fill:none;fill-rule:evenodd;stroke:#000000;stroke-width:2.0px;stroke-linecap:butt;stroke-linejoin:miter;stroke-opacity:1" />
<path class="bond-16 atom-15 atom-17" d="M 246.3,221.1 L 220.5,245.8" style="fill:none;fill-rule:evenodd;stroke:#000000;stroke-width:2.0px;stroke-linecap:butt;stroke-linejoin:miter;stroke-opacity:1" />
<path class="bond-16 atom-15 atom-17" d="M 247.7,227.1 L 226.5,247.5" style="fill:none;fill-rule:evenodd;stroke:#000000;stroke-width:2.0px;stroke-linecap:butt;stroke-linejoin:miter;stroke-opacity:1" />
<path class="bond-17 atom-17 atom-18" d="M 220.5,245.8 L 185.0,243.2" style="fill:none;fill-rule:evenodd;stroke:#000000;stroke-width:2.0px;stroke-linecap:butt;stroke-linejoin:miter;stroke-opacity:1" />
<path class="bond-18 atom-18 atom-19" d="M 185.0,243.2 L 171.6,276.2" style="fill:none;fill-rule:evenodd;stroke:#000000;stroke-width:2.0px;stroke-linecap:butt;stroke-linejoin:miter;stroke-opacity:1" />
<path class="bond-18 atom-18 atom-19" d="M 178.6,244.8 L 168.1,270.5" style="fill:none;fill-rule:evenodd;stroke:#000000;stroke-width:2.0px;stroke-linecap:butt;stroke-linejoin:miter;stroke-opacity:1" />
<path class="bond-19 atom-19 atom-20" d="M 171.6,276.2 L 136.1,273.5" style="fill:none;fill-rule:evenodd;stroke:#000000;stroke-width:2.0px;stroke-linecap:butt;stroke-linejoin:miter;stroke-opacity:1" />
<path class="bond-20 atom-20 atom-21" d="M 136.1,273.5 L 127.6,239.0" style="fill:none;fill-rule:evenodd;stroke:#000000;stroke-width:2.0px;stroke-linecap:butt;stroke-linejoin:miter;stroke-opacity:1" />
<path class="bond-20 atom-20 atom-21" d="M 140.3,268.5 L 133.7,241.5" style="fill:none;fill-rule:evenodd;stroke:#000000;stroke-width:2.0px;stroke-linecap:butt;stroke-linejoin:miter;stroke-opacity:1" />
<path class="bond-21 atom-21 atom-22" d="M 127.6,239.0 L 137.7,232.6" style="fill:none;fill-rule:evenodd;stroke:#000000;stroke-width:2.0px;stroke-linecap:butt;stroke-linejoin:miter;stroke-opacity:1" />
<path class="bond-21 atom-21 atom-22" d="M 137.7,232.6 L 147.9,226.3" style="fill:none;fill-rule:evenodd;stroke:#CCCC00;stroke-width:2.0px;stroke-linecap:butt;stroke-linejoin:miter;stroke-opacity:1" />
<path class="bond-22 atom-21 atom-23" d="M 127.6,239.0 L 92.0,236.4" style="fill:none;fill-rule:evenodd;stroke:#000000;stroke-width:2.0px;stroke-linecap:butt;stroke-linejoin:miter;stroke-opacity:1" />
<path class="bond-23 atom-23 atom-24" d="M 92.0,236.4 L 78.6,269.3" style="fill:none;fill-rule:evenodd;stroke:#000000;stroke-width:2.0px;stroke-linecap:butt;stroke-linejoin:miter;stroke-opacity:1" />
<path class="bond-23 atom-23 atom-24" d="M 95.5,242.0 L 85.0,267.8" style="fill:none;fill-rule:evenodd;stroke:#000000;stroke-width:2.0px;stroke-linecap:butt;stroke-linejoin:miter;stroke-opacity:1" />
<path class="bond-24 atom-24 atom-25" d="M 78.6,269.3 L 87.2,276.6" style="fill:none;fill-rule:evenodd;stroke:#000000;stroke-width:2.0px;stroke-linecap:butt;stroke-linejoin:miter;stroke-opacity:1" />
<path class="bond-24 atom-24 atom-25" d="M 87.2,276.6 L 95.9,283.9" style="fill:none;fill-rule:evenodd;stroke:#CCCC00;stroke-width:2.0px;stroke-linecap:butt;stroke-linejoin:miter;stroke-opacity:1" />
<path class="bond-25 atom-24 atom-26" d="M 78.6,269.3 L 43.1,266.7" style="fill:none;fill-rule:evenodd;stroke:#000000;stroke-width:2.0px;stroke-linecap:butt;stroke-linejoin:miter;stroke-opacity:1" />
<path class="bond-27 atom-26 atom-28" d="M 43.1,266.7 L 34.6,232.1" style="fill:none;fill-rule:evenodd;stroke:#000000;stroke-width:2.0px;stroke-linecap:butt;stroke-linejoin:miter;stroke-opacity:1" />
<path class="bond-27 atom-26 atom-28" d="M 47.3,261.7 L 40.7,234.6" style="fill:none;fill-rule:evenodd;stroke:#000000;stroke-width:2.0px;stroke-linecap:butt;stroke-linejoin:miter;stroke-opacity:1" />
<path class="bond-29 atom-28 atom-30" d="M 34.6,232.1 L 44.7,225.8" style="fill:none;fill-rule:evenodd;stroke:#000000;stroke-width:2.0px;stroke-linecap:butt;stroke-linejoin:miter;stroke-opacity:1" />
<path class="bond-29 atom-28 atom-30" d="M 44.7,225.8 L 54.9,219.5" style="fill:none;fill-rule:evenodd;stroke:#CCCC00;stroke-width:2.0px;stroke-linecap:butt;stroke-linejoin:miter;stroke-opacity:1" />
<path class="bond-30 atom-19 atom-31" d="M 171.6,276.2 L 198.8,299.1" style="fill:none;fill-rule:evenodd;stroke:#000000;stroke-width:2.0px;stroke-linecap:butt;stroke-linejoin:miter;stroke-opacity:1" />
<path class="bond-33 atom-31 atom-34" d="M 198.8,299.1 L 229.0,280.4" style="fill:none;fill-rule:evenodd;stroke:#000000;stroke-width:2.0px;stroke-linecap:butt;stroke-linejoin:miter;stroke-opacity:1" />
<path class="bond-34 atom-34 atom-35" d="M 229.0,280.4 L 263.2,290.3" style="fill:none;fill-rule:evenodd;stroke:#000000;stroke-width:2.0px;stroke-linecap:butt;stroke-linejoin:miter;stroke-opacity:1" />
<path class="bond-34 atom-34 atom-35" d="M 233.5,276.1 L 261.8,284.3" style="fill:none;fill-rule:evenodd;stroke:#000000;stroke-width:2.0px;stroke-linecap:butt;stroke-linejoin:miter;stroke-opacity:1" />
<path class="bond-36 atom-14 atom-37" d="M 280.5,231.1 L 310.7,212.3" style="fill:none;fill-rule:evenodd;stroke:#000000;stroke-width:2.0px;stroke-linecap:butt;stroke-linejoin:miter;stroke-opacity:1" />
<path class="bond-39 atom-6 atom-1" d="M 454.6,291.9 L 464.8,285.6" style="fill:none;fill-rule:evenodd;stroke:#CCCC00;stroke-width:2.0px;stroke-linecap:butt;stroke-linejoin:miter;stroke-opacity:1" />
<path class="bond-39 atom-6 atom-1" d="M 464.8,285.6 L 474.9,279.3" style="fill:none;fill-rule:evenodd;stroke:#000000;stroke-width:2.0px;stroke-linecap:butt;stroke-linejoin:miter;stroke-opacity:1" />
<path class="bond-40 atom-12 atom-7" d="M 361.6,285.1 L 371.8,278.8" style="fill:none;fill-rule:evenodd;stroke:#CCCC00;stroke-width:2.0px;stroke-linecap:butt;stroke-linejoin:miter;stroke-opacity:1" />
<path class="bond-40 atom-12 atom-7" d="M 371.8,278.8 L 381.9,272.5" style="fill:none;fill-rule:evenodd;stroke:#000000;stroke-width:2.0px;stroke-linecap:butt;stroke-linejoin:miter;stroke-opacity:1" />
<path class="bond-41 atom-35 atom-13" d="M 263.2,290.3 L 289.0,265.7" style="fill:none;fill-rule:evenodd;stroke:#000000;stroke-width:2.0px;stroke-linecap:butt;stroke-linejoin:miter;stroke-opacity:1" />
<path class="bond-42 atom-9 atom-4" d="M 413.6,227.5 L 422.3,234.8" style="fill:none;fill-rule:evenodd;stroke:#CCCC00;stroke-width:2.0px;stroke-linecap:butt;stroke-linejoin:miter;stroke-opacity:1" />
<path class="bond-42 atom-9 atom-4" d="M 422.3,234.8 L 430.9,242.1" style="fill:none;fill-rule:evenodd;stroke:#000000;stroke-width:2.0px;stroke-linecap:butt;stroke-linejoin:miter;stroke-opacity:1" />
<path class="bond-43 atom-37 atom-10" d="M 310.7,212.3 L 337.9,235.3" style="fill:none;fill-rule:evenodd;stroke:#000000;stroke-width:2.0px;stroke-linecap:butt;stroke-linejoin:miter;stroke-opacity:1" />
<path class="bond-44 atom-34 atom-17" d="M 229.0,280.4 L 220.5,245.8" style="fill:none;fill-rule:evenodd;stroke:#000000;stroke-width:2.0px;stroke-linecap:butt;stroke-linejoin:miter;stroke-opacity:1" />
<path class="bond-45 atom-22 atom-18" d="M 167.7,228.6 L 176.4,235.9" style="fill:none;fill-rule:evenodd;stroke:#CCCC00;stroke-width:2.0px;stroke-linecap:butt;stroke-linejoin:miter;stroke-opacity:1" />
<path class="bond-45 atom-22 atom-18" d="M 176.4,235.9 L 185.0,243.2" style="fill:none;fill-rule:evenodd;stroke:#000000;stroke-width:2.0px;stroke-linecap:butt;stroke-linejoin:miter;stroke-opacity:1" />
<path class="bond-46 atom-30 atom-23" d="M 74.7,221.7 L 83.4,229.0" style="fill:none;fill-rule:evenodd;stroke:#CCCC00;stroke-width:2.0px;stroke-linecap:butt;stroke-linejoin:miter;stroke-opacity:1" />
<path class="bond-46 atom-30 atom-23" d="M 83.4,229.0 L 92.0,236.4" style="fill:none;fill-rule:evenodd;stroke:#000000;stroke-width:2.0px;stroke-linecap:butt;stroke-linejoin:miter;stroke-opacity:1" />
<path class="bond-47 atom-25 atom-20" d="M 115.7,286.2 L 125.9,279.9" style="fill:none;fill-rule:evenodd;stroke:#CCCC00;stroke-width:2.0px;stroke-linecap:butt;stroke-linejoin:miter;stroke-opacity:1" />
<path class="bond-47 atom-25 atom-20" d="M 125.9,279.9 L 136.1,273.5" style="fill:none;fill-rule:evenodd;stroke:#000000;stroke-width:2.0px;stroke-linecap:butt;stroke-linejoin:miter;stroke-opacity:1" />
<path class="atom-6" d="M 435.9 302.0 L 440.2 301.6 Q 440.5 303.7, 441.7 304.7 Q 442.9 305.7, 444.8 305.7 Q 446.9 305.7, 448.0 304.8 Q 449.1 303.9, 449.1 302.8 Q 449.1 302.0, 448.6 301.5 Q 448.2 300.9, 447.1 300.5 Q 446.3 300.3, 443.6 299.6 Q 440.1 298.7, 438.7 297.5 Q 436.7 295.7, 436.7 293.1 Q 436.7 291.5, 437.6 290.1 Q 438.6 288.7, 440.3 287.9 Q 442.1 287.2, 444.6 287.2 Q 448.6 287.2, 450.6 288.9 Q 452.7 290.7, 452.8 293.7 L 448.5 293.9 Q 448.2 292.2, 447.3 291.5 Q 446.3 290.7, 444.5 290.7 Q 442.6 290.7, 441.6 291.5 Q 440.9 292.0, 440.9 292.9 Q 440.9 293.6, 441.5 294.2 Q 442.3 294.8, 445.5 295.6 Q 448.7 296.3, 450.2 297.1 Q 451.7 297.9, 452.5 299.3 Q 453.4 300.7, 453.4 302.7 Q 453.4 304.6, 452.4 306.2 Q 451.4 307.8, 449.5 308.6 Q 447.6 309.4, 444.8 309.4 Q 440.7 309.4, 438.5 307.5 Q 436.4 305.6, 435.9 302.0 " fill="#CCCC00" />
<path class="atom-9" d="M 395.0 223.1 L 399.2 222.6 Q 399.6 224.8, 400.7 225.8 Q 401.9 226.8, 403.9 226.8 Q 406.0 226.8, 407.0 225.9 Q 408.1 225.0, 408.1 223.8 Q 408.1 223.0, 407.7 222.5 Q 407.2 222.0, 406.1 221.6 Q 405.3 221.3, 402.6 220.6 Q 399.1 219.8, 397.7 218.5 Q 395.8 216.7, 395.8 214.2 Q 395.8 212.6, 396.7 211.1 Q 397.6 209.7, 399.4 209.0 Q 401.1 208.2, 403.6 208.2 Q 407.6 208.2, 409.7 210.0 Q 411.7 211.8, 411.8 214.7 L 407.5 214.9 Q 407.2 213.2, 406.3 212.5 Q 405.4 211.8, 403.6 211.8 Q 401.7 211.8, 400.6 212.6 Q 399.9 213.1, 399.9 213.9 Q 399.9 214.7, 400.6 215.2 Q 401.4 215.9, 404.5 216.6 Q 407.7 217.4, 409.2 218.2 Q 410.7 219.0, 411.6 220.4 Q 412.5 221.8, 412.5 223.8 Q 412.5 225.6, 411.4 227.2 Q 410.4 228.9, 408.5 229.7 Q 406.6 230.4, 403.9 230.4 Q 399.8 230.4, 397.6 228.6 Q 395.4 226.7, 395.0 223.1 " fill="#CCCC00" />
<path class="atom-12" d="M 342.9 295.2 L 347.2 294.8 Q 347.5 296.9, 348.7 297.9 Q 349.9 298.9, 351.9 298.9 Q 353.9 298.9, 355.0 298.0 Q 356.1 297.1, 356.1 295.9 Q 356.1 295.2, 355.6 294.6 Q 355.2 294.1, 354.1 293.7 Q 353.3 293.4, 350.6 292.8 Q 347.1 291.9, 345.7 290.6 Q 343.7 288.9, 343.7 286.3 Q 343.7 284.7, 344.6 283.3 Q 345.6 281.8, 347.3 281.1 Q 349.1 280.3, 351.6 280.3 Q 355.6 280.3, 357.6 282.1 Q 359.7 283.9, 359.8 286.8 L 355.5 287.0 Q 355.2 285.4, 354.3 284.7 Q 353.3 283.9, 351.5 283.9 Q 349.6 283.9, 348.6 284.7 Q 347.9 285.2, 347.9 286.0 Q 347.9 286.8, 348.5 287.3 Q 349.3 288.0, 352.5 288.8 Q 355.7 289.5, 357.2 290.3 Q 358.7 291.1, 359.5 292.5 Q 360.4 293.9, 360.4 295.9 Q 360.4 297.8, 359.4 299.4 Q 358.4 301.0, 356.5 301.8 Q 354.6 302.6, 351.8 302.6 Q 347.7 302.6, 345.6 300.7 Q 343.4 298.8, 342.9 295.2 " fill="#CCCC00" />
<path class="atom-22" d="M 149.1 224.1 L 153.3 223.7 Q 153.7 225.8, 154.9 226.8 Q 156.0 227.8, 158.0 227.8 Q 160.1 227.8, 161.1 227.0 Q 162.2 226.1, 162.2 224.9 Q 162.2 224.1, 161.8 223.6 Q 161.3 223.0, 160.2 222.6 Q 159.4 222.4, 156.7 221.7 Q 153.3 220.8, 151.8 219.6 Q 149.9 217.8, 149.9 215.3 Q 149.9 213.6, 150.8 212.2 Q 151.7 210.8, 153.5 210.0 Q 155.2 209.3, 157.7 209.3 Q 161.7 209.3, 163.8 211.0 Q 165.8 212.8, 165.9 215.8 L 161.6 216.0 Q 161.3 214.3, 160.4 213.6 Q 159.5 212.9, 157.7 212.9 Q 155.8 212.9, 154.7 213.6 Q 154.0 214.1, 154.0 215.0 Q 154.0 215.7, 154.7 216.3 Q 155.5 217.0, 158.6 217.7 Q 161.8 218.5, 163.3 219.3 Q 164.8 220.1, 165.7 221.4 Q 166.6 222.8, 166.6 224.9 Q 166.6 226.7, 165.5 228.3 Q 164.5 229.9, 162.6 230.7 Q 160.8 231.5, 158.0 231.5 Q 153.9 231.5, 151.7 229.6 Q 149.5 227.7, 149.1 224.1 " fill="#CCCC00" />
<path class="atom-25" d="M 97.1 296.3 L 101.3 295.8 Q 101.7 298.0, 102.8 299.0 Q 104.0 300.0, 106.0 300.0 Q 108.1 300.0, 109.1 299.1 Q 110.2 298.2, 110.2 297.0 Q 110.2 296.2, 109.7 295.7 Q 109.3 295.2, 108.2 294.8 Q 107.4 294.5, 104.7 293.8 Q 101.2 293.0, 99.8 291.7 Q 97.8 289.9, 97.8 287.4 Q 97.8 285.7, 98.8 284.3 Q 99.7 282.9, 101.4 282.1 Q 103.2 281.4, 105.7 281.4 Q 109.7 281.4, 111.7 283.2 Q 113.8 284.9, 113.9 287.9 L 109.6 288.1 Q 109.3 286.4, 108.4 285.7 Q 107.5 285.0, 105.6 285.0 Q 103.7 285.0, 102.7 285.8 Q 102.0 286.3, 102.0 287.1 Q 102.0 287.9, 102.6 288.4 Q 103.4 289.1, 106.6 289.8 Q 109.8 290.6, 111.3 291.4 Q 112.8 292.2, 113.6 293.6 Q 114.5 294.9, 114.5 297.0 Q 114.5 298.8, 113.5 300.4 Q 112.5 302.1, 110.6 302.8 Q 108.7 303.6, 105.9 303.6 Q 101.8 303.6, 99.7 301.7 Q 97.5 299.9, 97.1 296.3 " fill="#CCCC00" />
<path class="atom-30" d="M 56.1 217.3 L 60.3 216.9 Q 60.7 219.0, 61.9 220.0 Q 63.0 221.0, 65.0 221.0 Q 67.1 221.0, 68.2 220.1 Q 69.2 219.2, 69.2 218.0 Q 69.2 217.3, 68.8 216.8 Q 68.3 216.2, 67.2 215.8 Q 66.5 215.6, 63.7 214.9 Q 60.3 214.0, 58.9 212.8 Q 56.9 211.0, 56.9 208.4 Q 56.9 206.8, 57.8 205.4 Q 58.7 203.9, 60.5 203.2 Q 62.2 202.4, 64.7 202.4 Q 68.8 202.4, 70.8 204.2 Q 72.8 206.0, 72.9 208.9 L 68.6 209.1 Q 68.3 207.5, 67.4 206.8 Q 66.5 206.0, 64.7 206.0 Q 62.8 206.0, 61.7 206.8 Q 61.0 207.3, 61.0 208.1 Q 61.0 208.9, 61.7 209.4 Q 62.5 210.1, 65.7 210.9 Q 68.8 211.6, 70.3 212.4 Q 71.8 213.2, 72.7 214.6 Q 73.6 216.0, 73.6 218.0 Q 73.6 219.9, 72.5 221.5 Q 71.5 223.1, 69.6 223.9 Q 67.8 224.7, 65.0 224.7 Q 60.9 224.7, 58.7 222.8 Q 56.5 220.9, 56.1 217.3 " fill="#CCCC00" />
</svg>