<?xml version='1.0' encoding='iso-8859-1'?>
<svg xmlns="http://www.w3.org/2000/svg" version="1.1" baseProfile="full" xml:space="preserve" width="368" height="80" viewBox="26 307 368 80">

<rect style="opacity:1.0;fill:#FFFFFF;stroke:none" width="512.0" height="512.0" x="0.0" y="0.0"> </rect>
<path class="bond-1 atom-1 atom-2" d="M 392.9,366.3 L 385.8,337.6" style="fill:none;fill-rule:evenodd;stroke:#000000;stroke-width:2.0px;stroke-linecap:butt;stroke-linejoin:miter;stroke-opacity:1" />
<path class="bond-1 atom-1 atom-2" d="M 387.8,364.2 L 382.3,341.8" style="fill:none;fill-rule:evenodd;stroke:#000000;stroke-width:2.0px;stroke-linecap:butt;stroke-linejoin:miter;stroke-opacity:1" />
<path class="bond-3 atom-2 atom-4" d="M 385.8,337.6 L 356.3,335.4" style="fill:none;fill-rule:evenodd;stroke:#000000;stroke-width:2.0px;stroke-linecap:butt;stroke-linejoin:miter;stroke-opacity:1" />
<path class="bond-4 atom-4 atom-5" d="M 356.3,335.4 L 345.2,362.8" style="fill:none;fill-rule:evenodd;stroke:#000000;stroke-width:2.0px;stroke-linecap:butt;stroke-linejoin:miter;stroke-opacity:1" />
<path class="bond-4 atom-4 atom-5" d="M 359.2,340.1 L 350.5,361.5" style="fill:none;fill-rule:evenodd;stroke:#000000;stroke-width:2.0px;stroke-linecap:butt;stroke-linejoin:miter;stroke-opacity:1" />
<path class="bond-5 atom-5 atom-6" d="M 345.2,362.8 L 354.3,370.5" style="fill:none;fill-rule:evenodd;stroke:#000000;stroke-width:2.0px;stroke-linecap:butt;stroke-linejoin:miter;stroke-opacity:1" />
<path class="bond-5 atom-5 atom-6" d="M 354.3,370.5 L 363.3,378.1" style="fill:none;fill-rule:evenodd;stroke:#CCCC00;stroke-width:2.0px;stroke-linecap:butt;stroke-linejoin:miter;stroke-opacity:1" />
<path class="bond-6 atom-5 atom-7" d="M 345.2,362.8 L 315.7,360.6" style="fill:none;fill-rule:evenodd;stroke:#000000;stroke-width:2.0px;stroke-linecap:butt;stroke-linejoin:miter;stroke-opacity:1" />
<path class="bond-7 atom-7 atom-8" d="M 315.7,360.6 L 308.6,331.9" style="fill:none;fill-rule:evenodd;stroke:#000000;stroke-width:2.0px;stroke-linecap:butt;stroke-linejoin:miter;stroke-opacity:1" />
<path class="bond-7 atom-7 atom-8" d="M 319.2,356.4 L 313.7,334.0" style="fill:none;fill-rule:evenodd;stroke:#000000;stroke-width:2.0px;stroke-linecap:butt;stroke-linejoin:miter;stroke-opacity:1" />
<path class="bond-8 atom-8 atom-9" d="M 308.6,331.9 L 319.0,325.5" style="fill:none;fill-rule:evenodd;stroke:#000000;stroke-width:2.0px;stroke-linecap:butt;stroke-linejoin:miter;stroke-opacity:1" />
<path class="bond-8 atom-8 atom-9" d="M 319.0,325.5 L 329.3,319.1" style="fill:none;fill-rule:evenodd;stroke:#CCCC00;stroke-width:2.0px;stroke-linecap:butt;stroke-linejoin:miter;stroke-opacity:1" />
<path class="bond-9 atom-8 atom-10" d="M 308.6,331.9 L 279.2,329.8" style="fill:none;fill-rule:evenodd;stroke:#000000;stroke-width:2.0px;stroke-linecap:butt;stroke-linejoin:miter;stroke-opacity:1" />
<path class="bond-10 atom-10 atom-11" d="M 279.2,329.8 L 268.0,357.1" style="fill:none;fill-rule:evenodd;stroke:#000000;stroke-width:2.0px;stroke-linecap:butt;stroke-linejoin:miter;stroke-opacity:1" />
<path class="bond-10 atom-10 atom-11" d="M 282.0,334.4 L 273.3,355.8" style="fill:none;fill-rule:evenodd;stroke:#000000;stroke-width:2.0px;stroke-linecap:butt;stroke-linejoin:miter;stroke-opacity:1" />
<path class="bond-11 atom-11 atom-12" d="M 268.0,357.1 L 277.1,364.8" style="fill:none;fill-rule:evenodd;stroke:#000000;stroke-width:2.0px;stroke-linecap:butt;stroke-linejoin:miter;stroke-opacity:1" />
<path class="bond-11 atom-11 atom-12" d="M 277.1,364.8 L 286.2,372.5" style="fill:none;fill-rule:evenodd;stroke:#CCCC00;stroke-width:2.0px;stroke-linecap:butt;stroke-linejoin:miter;stroke-opacity:1" />
<path class="bond-12 atom-11 atom-13" d="M 268.0,357.1 L 238.5,355.0" style="fill:none;fill-rule:evenodd;stroke:#000000;stroke-width:2.0px;stroke-linecap:butt;stroke-linejoin:miter;stroke-opacity:1" />
<path class="bond-13 atom-13 atom-14" d="M 238.5,355.0 L 231.5,326.3" style="fill:none;fill-rule:evenodd;stroke:#000000;stroke-width:2.0px;stroke-linecap:butt;stroke-linejoin:miter;stroke-opacity:1" />
<path class="bond-13 atom-13 atom-14" d="M 233.6,353.5 L 227.8,329.8" style="fill:none;fill-rule:evenodd;stroke:#000000;stroke-width:2.0px;stroke-linecap:butt;stroke-linejoin:miter;stroke-opacity:1" />
<path class="bond-14 atom-14 atom-15" d="M 231.5,326.3 L 203.1,318.0" style="fill:none;fill-rule:evenodd;stroke:#000000;stroke-width:2.0px;stroke-linecap:butt;stroke-linejoin:miter;stroke-opacity:1" />
<path class="bond-16 atom-15 atom-17" d="M 203.1,318.0 L 181.7,338.5" style="fill:none;fill-rule:evenodd;stroke:#000000;stroke-width:2.0px;stroke-linecap:butt;stroke-linejoin:miter;stroke-opacity:1" />
<path class="bond-16 atom-15 atom-17" d="M 204.3,323.0 L 186.7,339.9" style="fill:none;fill-rule:evenodd;stroke:#000000;stroke-width:2.0px;stroke-linecap:butt;stroke-linejoin:miter;stroke-opacity:1" />
<path class="bond-17 atom-17 atom-18" d="M 181.7,338.5 L 152.3,336.3" style="fill:none;fill-rule:evenodd;stroke:#000000;stroke-width:2.0px;stroke-linecap:butt;stroke-linejoin:miter;stroke-opacity:1" />
<path class="bond-18 atom-18 atom-19" d="M 152.3,336.3 L 141.1,363.7" style="fill:none;fill-rule:evenodd;stroke:#000000;stroke-width:2.0px;stroke-linecap:butt;stroke-linejoin:miter;stroke-opacity:1" />
<path class="bond-18 atom-18 atom-19" d="M 146.9,337.6 L 138.2,359.0" style="fill:none;fill-rule:evenodd;stroke:#000000;stroke-width:2.0px;stroke-linecap:butt;stroke-linejoin:miter;stroke-opacity:1" />
<path class="bond-19 atom-19 atom-20" d="M 141.1,363.7 L 111.6,361.5" style="fill:none;fill-rule:evenodd;stroke:#000000;stroke-width:2.0px;stroke-linecap:butt;stroke-linejoin:miter;stroke-opacity:1" />
<path class="bond-20 atom-20 atom-21" d="M 111.6,361.5 L 104.6,332.8" style="fill:none;fill-rule:evenodd;stroke:#000000;stroke-width:2.0px;stroke-linecap:butt;stroke-linejoin:miter;stroke-opacity:1" />
<path class="bond-20 atom-20 atom-21" d="M 115.1,357.3 L 109.6,334.9" style="fill:none;fill-rule:evenodd;stroke:#000000;stroke-width:2.0px;stroke-linecap:butt;stroke-linejoin:miter;stroke-opacity:1" />
<path class="bond-21 atom-21 atom-22" d="M 104.6,332.8 L 114.9,326.4" style="fill:none;fill-rule:evenodd;stroke:#000000;stroke-width:2.0px;stroke-linecap:butt;stroke-linejoin:miter;stroke-opacity:1" />
<path class="bond-21 atom-21 atom-22" d="M 114.9,326.4 L 125.3,320.0" style="fill:none;fill-rule:evenodd;stroke:#CCCC00;stroke-width:2.0px;stroke-linecap:butt;stroke-linejoin:miter;stroke-opacity:1" />
<path class="bond-22 atom-21 atom-23" d="M 104.6,332.8 L 75.1,330.6" style="fill:none;fill-rule:evenodd;stroke:#000000;stroke-width:2.0px;stroke-linecap:butt;stroke-linejoin:miter;stroke-opacity:1" />
<path class="bond-23 atom-23 atom-24" d="M 75.1,330.6 L 63.9,358.0" style="fill:none;fill-rule:evenodd;stroke:#000000;stroke-width:2.0px;stroke-linecap:butt;stroke-linejoin:miter;stroke-opacity:1" />
<path class="bond-23 atom-23 atom-24" d="M 78.0,335.3 L 69.2,356.7" style="fill:none;fill-rule:evenodd;stroke:#000000;stroke-width:2.0px;stroke-linecap:butt;stroke-linejoin:miter;stroke-opacity:1" />
<path class="bond-24 atom-24 atom-25" d="M 63.9,358.0 L 73.0,365.7" style="fill:none;fill-rule:evenodd;stroke:#000000;stroke-width:2.0px;stroke-linecap:butt;stroke-linejoin:miter;stroke-opacity:1" />
<path class="bond-24 atom-24 atom-25" d="M 73.0,365.7 L 82.1,373.4" style="fill:none;fill-rule:evenodd;stroke:#CCCC00;stroke-width:2.0px;stroke-linecap:butt;stroke-linejoin:miter;stroke-opacity:1" />
<path class="bond-25 atom-24 atom-26" d="M 63.9,358.0 L 34.4,355.9" style="fill:none;fill-rule:evenodd;stroke:#000000;stroke-width:2.0px;stroke-linecap:butt;stroke-linejoin:miter;stroke-opacity:1" />
<path class="bond-27 atom-26 atom-28" d="M 34.4,355.9 L 27.4,327.1" style="fill:none;fill-rule:evenodd;stroke:#000000;stroke-width:2.0px;stroke-linecap:butt;stroke-linejoin:miter;stroke-opacity:1" />
<path class="bond-27 atom-26 atom-28" d="M 38.0,351.7 L 32.4,329.2" style="fill:none;fill-rule:evenodd;stroke:#000000;stroke-width:2.0px;stroke-linecap:butt;stroke-linejoin:miter;stroke-opacity:1" />
<path class="bond-29 atom-28 atom-30" d="M 27.4,327.1 L 37.7,320.7" style="fill:none;fill-rule:evenodd;stroke:#000000;stroke-width:2.0px;stroke-linecap:butt;stroke-linejoin:miter;stroke-opacity:1" />
<path class="bond-29 atom-28 atom-30" d="M 37.7,320.7 L 48.1,314.3" style="fill:none;fill-rule:evenodd;stroke:#CCCC00;stroke-width:2.0px;stroke-linecap:butt;stroke-linejoin:miter;stroke-opacity:1" />
<path class="bond-30 atom-19 atom-31" d="M 141.1,363.7 L 163.7,382.8" style="fill:none;fill-rule:evenodd;stroke:#000000;stroke-width:2.0px;stroke-linecap:butt;stroke-linejoin:miter;stroke-opacity:1" />
<path class="bond-33 atom-31 atom-34" d="M 163.7,382.8 L 188.8,367.2" style="fill:none;fill-rule:evenodd;stroke:#000000;stroke-width:2.0px;stroke-linecap:butt;stroke-linejoin:miter;stroke-opacity:1" />
<path class="bond-34 atom-34 atom-35" d="M 188.8,367.2 L 217.2,375.4" style="fill:none;fill-rule:evenodd;stroke:#000000;stroke-width:2.0px;stroke-linecap:butt;stroke-linejoin:miter;stroke-opacity:1" />
<path class="bond-34 atom-34 atom-35" d="M 192.5,363.6 L 216.0,370.5" style="fill:none;fill-rule:evenodd;stroke:#000000;stroke-width:2.0px;stroke-linecap:butt;stroke-linejoin:miter;stroke-opacity:1" />
<path class="bond-36 atom-14 atom-37" d="M 231.5,326.3 L 256.6,310.7" style="fill:none;fill-rule:evenodd;stroke:#000000;stroke-width:2.0px;stroke-linecap:butt;stroke-linejoin:miter;stroke-opacity:1" />
<path class="bond-39 atom-6 atom-1" d="M 372.2,379.1 L 382.5,372.7" style="fill:none;fill-rule:evenodd;stroke:#CCCC00;stroke-width:2.0px;stroke-linecap:butt;stroke-linejoin:miter;stroke-opacity:1" />
<path class="bond-39 atom-6 atom-1" d="M 382.5,372.7 L 392.9,366.3" style="fill:none;fill-rule:evenodd;stroke:#000000;stroke-width:2.0px;stroke-linecap:butt;stroke-linejoin:miter;stroke-opacity:1" />
<path class="bond-40 atom-12 atom-7" d="M 295.0,373.5 L 305.3,367.1" style="fill:none;fill-rule:evenodd;stroke:#CCCC00;stroke-width:2.0px;stroke-linecap:butt;stroke-linejoin:miter;stroke-opacity:1" />
<path class="bond-40 atom-12 atom-7" d="M 305.3,367.1 L 315.7,360.6" style="fill:none;fill-rule:evenodd;stroke:#000000;stroke-width:2.0px;stroke-linecap:butt;stroke-linejoin:miter;stroke-opacity:1" />
<path class="bond-41 atom-35 atom-13" d="M 217.2,375.4 L 238.5,355.0" style="fill:none;fill-rule:evenodd;stroke:#000000;stroke-width:2.0px;stroke-linecap:butt;stroke-linejoin:miter;stroke-opacity:1" />
<path class="bond-42 atom-9 atom-4" d="M 338.2,320.1 L 347.3,327.8" style="fill:none;fill-rule:evenodd;stroke:#CCCC00;stroke-width:2.0px;stroke-linecap:butt;stroke-linejoin:miter;stroke-opacity:1" />
<path class="bond-42 atom-9 atom-4" d="M 347.3,327.8 L 356.3,335.4" style="fill:none;fill-rule:evenodd;stroke:#000000;stroke-width:2.0px;stroke-linecap:butt;stroke-linejoin:miter;stroke-opacity:1" />
<path class="bond-43 atom-37 atom-10" d="M 256.6,310.7 L 279.2,329.8" style="fill:none;fill-rule:evenodd;stroke:#000000;stroke-width:2.0px;stroke-linecap:butt;stroke-linejoin:miter;stroke-opacity:1" />
<path class="bond-44 atom-34 atom-17" d="M 188.8,367.2 L 181.7,338.5" style="fill:none;fill-rule:evenodd;stroke:#000000;stroke-width:2.0px;stroke-linecap:butt;stroke-linejoin:miter;stroke-opacity:1" />
<path class="bond-45 atom-22 atom-18" d="M 134.1,321.0 L 143.2,328.6" style="fill:none;fill-rule:evenodd;stroke:#CCCC00;stroke-width:2.0px;stroke-linecap:butt;stroke-linejoin:miter;stroke-opacity:1" />
<path class="bond-45 atom-22 atom-18" d="M 143.2,328.6 L 152.3,336.3" style="fill:none;fill-rule:evenodd;stroke:#000000;stroke-width:2.0px;stroke-linecap:butt;stroke-linejoin:miter;stroke-opacity:1" />
<path class="bond-46 atom-30 atom-23" d="M 56.9,315.3 L 66.0,323.0" style="fill:none;fill-rule:evenodd;stroke:#CCCC00;stroke-width:2.0px;stroke-linecap:butt;stroke-linejoin:miter;stroke-opacity:1" />
<path class="bond-46 atom-30 atom-23" d="M 66.0,323.0 L 75.1,330.6" style="fill:none;fill-rule:evenodd;stroke:#000000;stroke-width:2.0px;stroke-linecap:butt;stroke-linejoin:miter;stroke-opacity:1" />
<path class="bond-47 atom-25 atom-20" d="M 90.9,374.4 L 101.3,367.9" style="fill:none;fill-rule:evenodd;stroke:#CCCC00;stroke-width:2.0px;stroke-linecap:butt;stroke-linejoin:miter;stroke-opacity:1" />
<path class="bond-47 atom-25 atom-20" d="M 101.3,367.9 L 111.6,361.5" style="fill:none;fill-rule:evenodd;stroke:#000000;stroke-width:2.0px;stroke-linecap:butt;stroke-linejoin:miter;stroke-opacity:1" />
<path class="atom-6" d="M 364.3 383.4 L 366.0 383.3 Q 366.1 384.1, 366.6 384.5 Q 367.0 384.9, 367.8 384.9 Q 368.6 384.9, 369.1 384.5 Q 369.5 384.2, 369.5 383.7 Q 369.5 383.4, 369.3 383.2 Q 369.1 383.0, 368.7 382.8 Q 368.4 382.7, 367.3 382.5 Q 365.9 382.1, 365.4 381.6 Q 364.6 380.9, 364.6 379.9 Q 364.6 379.3, 365.0 378.7 Q 365.3 378.2, 366.0 377.9 Q 366.7 377.6, 367.7 377.6 Q 369.3 377.6, 370.1 378.3 Q 370.9 379.0, 370.9 380.1 L 369.2 380.2 Q 369.1 379.6, 368.8 379.3 Q 368.4 379.0, 367.7 379.0 Q 366.9 379.0, 366.5 379.3 Q 366.2 379.5, 366.2 379.8 Q 366.2 380.1, 366.5 380.3 Q 366.8 380.6, 368.1 380.9 Q 369.3 381.2, 369.9 381.5 Q 370.5 381.8, 370.9 382.4 Q 371.2 382.9, 371.2 383.7 Q 371.2 384.4, 370.8 385.1 Q 370.4 385.7, 369.6 386.0 Q 368.9 386.3, 367.8 386.3 Q 366.2 386.3, 365.3 385.6 Q 364.5 384.8, 364.3 383.4 " fill="#CCCC00" />
<path class="atom-9" d="M 330.3 317.9 L 332.0 317.7 Q 332.1 318.6, 332.6 319.0 Q 333.1 319.4, 333.8 319.4 Q 334.7 319.4, 335.1 319.0 Q 335.5 318.7, 335.5 318.2 Q 335.5 317.9, 335.3 317.7 Q 335.1 317.5, 334.7 317.3 Q 334.4 317.2, 333.3 316.9 Q 332.0 316.6, 331.4 316.1 Q 330.6 315.4, 330.6 314.4 Q 330.6 313.8, 331.0 313.2 Q 331.4 312.6, 332.0 312.3 Q 332.7 312.0, 333.7 312.0 Q 335.3 312.0, 336.1 312.7 Q 336.9 313.4, 337.0 314.6 L 335.3 314.7 Q 335.1 314.0, 334.8 313.7 Q 334.4 313.5, 333.7 313.5 Q 333.0 313.5, 332.5 313.8 Q 332.3 314.0, 332.3 314.3 Q 332.3 314.6, 332.5 314.8 Q 332.8 315.1, 334.1 315.4 Q 335.3 315.7, 335.9 316.0 Q 336.5 316.3, 336.9 316.8 Q 337.2 317.4, 337.2 318.2 Q 337.2 318.9, 336.8 319.5 Q 336.4 320.2, 335.7 320.5 Q 334.9 320.8, 333.8 320.8 Q 332.2 320.8, 331.3 320.1 Q 330.5 319.3, 330.3 317.9 " fill="#CCCC00" />
<path class="atom-12" d="M 287.1 377.8 L 288.8 377.6 Q 288.9 378.4, 289.4 378.8 Q 289.9 379.2, 290.6 379.2 Q 291.5 379.2, 291.9 378.9 Q 292.3 378.5, 292.3 378.1 Q 292.3 377.8, 292.1 377.5 Q 291.9 377.3, 291.5 377.2 Q 291.2 377.1, 290.1 376.8 Q 288.8 376.5, 288.2 376.0 Q 287.4 375.3, 287.4 374.3 Q 287.4 373.6, 287.8 373.1 Q 288.2 372.5, 288.9 372.2 Q 289.5 371.9, 290.5 371.9 Q 292.1 371.9, 292.9 372.6 Q 293.7 373.3, 293.8 374.5 L 292.1 374.5 Q 291.9 373.9, 291.6 373.6 Q 291.2 373.3, 290.5 373.3 Q 289.8 373.3, 289.3 373.6 Q 289.1 373.8, 289.1 374.2 Q 289.1 374.5, 289.3 374.7 Q 289.6 374.9, 290.9 375.2 Q 292.1 375.5, 292.7 375.8 Q 293.3 376.2, 293.7 376.7 Q 294.0 377.2, 294.0 378.0 Q 294.0 378.8, 293.6 379.4 Q 293.2 380.0, 292.5 380.4 Q 291.7 380.7, 290.6 380.7 Q 289.0 380.7, 288.2 379.9 Q 287.3 379.2, 287.1 377.8 " fill="#CCCC00" />
<path class="atom-22" d="M 126.2 318.8 L 127.9 318.6 Q 128.0 319.5, 128.5 319.9 Q 129.0 320.2, 129.7 320.2 Q 130.6 320.2, 131.0 319.9 Q 131.4 319.5, 131.4 319.1 Q 131.4 318.8, 131.2 318.6 Q 131.1 318.4, 130.6 318.2 Q 130.3 318.1, 129.2 317.8 Q 127.9 317.5, 127.3 317.0 Q 126.5 316.3, 126.5 315.3 Q 126.5 314.6, 126.9 314.1 Q 127.3 313.5, 128.0 313.2 Q 128.7 312.9, 129.6 312.9 Q 131.2 312.9, 132.0 313.6 Q 132.8 314.3, 132.9 315.5 L 131.2 315.6 Q 131.1 314.9, 130.7 314.6 Q 130.3 314.3, 129.6 314.3 Q 128.9 314.3, 128.4 314.6 Q 128.2 314.8, 128.2 315.2 Q 128.2 315.5, 128.4 315.7 Q 128.8 316.0, 130.0 316.3 Q 131.2 316.5, 131.8 316.9 Q 132.4 317.2, 132.8 317.7 Q 133.1 318.3, 133.1 319.1 Q 133.1 319.8, 132.7 320.4 Q 132.3 321.1, 131.6 321.4 Q 130.8 321.7, 129.7 321.7 Q 128.1 321.7, 127.3 320.9 Q 126.4 320.2, 126.2 318.8 " fill="#CCCC00" />
<path class="atom-25" d="M 83.0 378.6 L 84.7 378.5 Q 84.9 379.3, 85.3 379.7 Q 85.8 380.1, 86.6 380.1 Q 87.4 380.1, 87.8 379.8 Q 88.2 379.4, 88.2 378.9 Q 88.2 378.6, 88.0 378.4 Q 87.9 378.2, 87.4 378.1 Q 87.1 378.0, 86.1 377.7 Q 84.7 377.4, 84.1 376.9 Q 83.3 376.2, 83.3 375.2 Q 83.3 374.5, 83.7 373.9 Q 84.1 373.4, 84.8 373.1 Q 85.5 372.8, 86.4 372.8 Q 88.0 372.8, 88.8 373.5 Q 89.6 374.2, 89.7 375.4 L 88.0 375.4 Q 87.9 374.8, 87.5 374.5 Q 87.1 374.2, 86.4 374.2 Q 85.7 374.2, 85.3 374.5 Q 85.0 374.7, 85.0 375.0 Q 85.0 375.3, 85.2 375.5 Q 85.6 375.8, 86.8 376.1 Q 88.1 376.4, 88.6 376.7 Q 89.2 377.0, 89.6 377.6 Q 89.9 378.1, 89.9 378.9 Q 89.9 379.7, 89.5 380.3 Q 89.1 380.9, 88.4 381.2 Q 87.6 381.5, 86.5 381.5 Q 84.9 381.5, 84.1 380.8 Q 83.2 380.1, 83.0 378.6 " fill="#CCCC00" />
<path class="atom-30" d="M 49.1 313.1 L 50.7 313.0 Q 50.9 313.8, 51.3 314.2 Q 51.8 314.6, 52.6 314.6 Q 53.4 314.6, 53.8 314.2 Q 54.2 313.9, 54.2 313.4 Q 54.2 313.1, 54.0 312.9 Q 53.9 312.7, 53.4 312.5 Q 53.1 312.4, 52.1 312.2 Q 50.7 311.8, 50.1 311.3 Q 49.4 310.6, 49.4 309.6 Q 49.4 309.0, 49.7 308.4 Q 50.1 307.9, 50.8 307.6 Q 51.5 307.3, 52.4 307.3 Q 54.0 307.3, 54.8 308.0 Q 55.7 308.7, 55.7 309.8 L 54.0 309.9 Q 53.9 309.2, 53.5 309.0 Q 53.2 308.7, 52.4 308.7 Q 51.7 308.7, 51.3 309.0 Q 51.0 309.2, 51.0 309.5 Q 51.0 309.8, 51.2 310.0 Q 51.6 310.3, 52.8 310.6 Q 54.1 310.9, 54.7 311.2 Q 55.3 311.5, 55.6 312.1 Q 55.9 312.6, 55.9 313.4 Q 55.9 314.1, 55.5 314.8 Q 55.1 315.4, 54.4 315.7 Q 53.6 316.0, 52.5 316.0 Q 50.9 316.0, 50.1 315.3 Q 49.2 314.5, 49.1 313.1 " fill="#CCCC00" />
</svg>