<?xml version='1.0' encoding='iso-8859-1'?>
<svg xmlns="http://www.w3.org/2000/svg" version="1.1" baseProfile="full" xml:space="preserve" width="428" height="124" viewBox="43 194 428 124">

<rect style="opacity:1.0;fill:#FFFFFF;stroke:none" width="512.0" height="512.0" x="0.0" y="0.0"> </rect>
<path class="bond-1 atom-1 atom-2" d="M 267.2,212.6 L 279.2,221.3" style="fill:none;fill-rule:evenodd;stroke:#0000FF;stroke-width:2.0px;stroke-linecap:butt;stroke-linejoin:miter;stroke-opacity:1" />
<path class="bond-1 atom-1 atom-2" d="M 279.2,221.3 L 291.2,230.0" style="fill:none;fill-rule:evenodd;stroke:#000000;stroke-width:2.0px;stroke-linecap:butt;stroke-linejoin:miter;stroke-opacity:1" />
<path class="bond-2 atom-2 atom-3" d="M 291.2,230.0 L 278.2,269.9" style="fill:none;fill-rule:evenodd;stroke:#000000;stroke-width:2.0px;stroke-linecap:butt;stroke-linejoin:miter;stroke-opacity:1" />
<path class="bond-2 atom-2 atom-3" d="M 283.8,232.4 L 273.6,263.6" style="fill:none;fill-rule:evenodd;stroke:#000000;stroke-width:2.0px;stroke-linecap:butt;stroke-linejoin:miter;stroke-opacity:1" />
<path class="bond-3 atom-3 atom-4" d="M 278.2,269.9 L 236.3,269.9" style="fill:none;fill-rule:evenodd;stroke:#000000;stroke-width:2.0px;stroke-linecap:butt;stroke-linejoin:miter;stroke-opacity:1" />
<path class="bond-4 atom-4 atom-5" d="M 236.3,269.9 L 223.3,230.0" style="fill:none;fill-rule:evenodd;stroke:#000000;stroke-width:2.0px;stroke-linecap:butt;stroke-linejoin:miter;stroke-opacity:1" />
<path class="bond-4 atom-4 atom-5" d="M 240.9,263.6 L 230.7,232.4" style="fill:none;fill-rule:evenodd;stroke:#000000;stroke-width:2.0px;stroke-linecap:butt;stroke-linejoin:miter;stroke-opacity:1" />
<path class="bond-5 atom-5 atom-6" d="M 223.3,230.0 L 182.3,221.3" style="fill:none;fill-rule:evenodd;stroke:#000000;stroke-width:2.0px;stroke-linecap:butt;stroke-linejoin:miter;stroke-opacity:1" />
<path class="bond-7 atom-6 atom-8" d="M 182.3,221.3 L 154.2,252.5" style="fill:none;fill-rule:evenodd;stroke:#000000;stroke-width:2.0px;stroke-linecap:butt;stroke-linejoin:miter;stroke-opacity:1" />
<path class="bond-7 atom-6 atom-8" d="M 184.6,228.2 L 161.4,254.0" style="fill:none;fill-rule:evenodd;stroke:#000000;stroke-width:2.0px;stroke-linecap:butt;stroke-linejoin:miter;stroke-opacity:1" />
<path class="bond-8 atom-8 atom-9" d="M 154.2,252.5 L 112.3,252.5" style="fill:none;fill-rule:evenodd;stroke:#000000;stroke-width:2.0px;stroke-linecap:butt;stroke-linejoin:miter;stroke-opacity:1" />
<path class="bond-9 atom-9 atom-10" d="M 112.3,252.5 L 99.4,292.4" style="fill:none;fill-rule:evenodd;stroke:#000000;stroke-width:2.0px;stroke-linecap:butt;stroke-linejoin:miter;stroke-opacity:1" />
<path class="bond-9 atom-9 atom-10" d="M 104.9,254.9 L 94.8,286.1" style="fill:none;fill-rule:evenodd;stroke:#000000;stroke-width:2.0px;stroke-linecap:butt;stroke-linejoin:miter;stroke-opacity:1" />
<path class="bond-10 atom-10 atom-11" d="M 99.4,292.4 L 57.4,292.4" style="fill:none;fill-rule:evenodd;stroke:#000000;stroke-width:2.0px;stroke-linecap:butt;stroke-linejoin:miter;stroke-opacity:1" />
<path class="bond-12 atom-11 atom-13" d="M 57.4,292.4 L 44.5,252.5" style="fill:none;fill-rule:evenodd;stroke:#000000;stroke-width:2.0px;stroke-linecap:butt;stroke-linejoin:miter;stroke-opacity:1" />
<path class="bond-12 atom-11 atom-13" d="M 62.0,286.1 L 51.9,254.9" style="fill:none;fill-rule:evenodd;stroke:#000000;stroke-width:2.0px;stroke-linecap:butt;stroke-linejoin:miter;stroke-opacity:1" />
<path class="bond-14 atom-13 atom-15" d="M 44.5,252.5 L 56.4,243.8" style="fill:none;fill-rule:evenodd;stroke:#000000;stroke-width:2.0px;stroke-linecap:butt;stroke-linejoin:miter;stroke-opacity:1" />
<path class="bond-14 atom-13 atom-15" d="M 56.4,243.8 L 68.3,235.2" style="fill:none;fill-rule:evenodd;stroke:#CCCC00;stroke-width:2.0px;stroke-linecap:butt;stroke-linejoin:miter;stroke-opacity:1" />
<path class="bond-15 atom-10 atom-16" d="M 99.4,292.4 L 133.3,317.0" style="fill:none;fill-rule:evenodd;stroke:#000000;stroke-width:2.0px;stroke-linecap:butt;stroke-linejoin:miter;stroke-opacity:1" />
<path class="bond-18 atom-16 atom-19" d="M 133.3,317.0 L 167.2,292.4" style="fill:none;fill-rule:evenodd;stroke:#000000;stroke-width:2.0px;stroke-linecap:butt;stroke-linejoin:miter;stroke-opacity:1" />
<path class="bond-19 atom-19 atom-20" d="M 167.2,292.4 L 208.2,301.1" style="fill:none;fill-rule:evenodd;stroke:#000000;stroke-width:2.0px;stroke-linecap:butt;stroke-linejoin:miter;stroke-opacity:1" />
<path class="bond-19 atom-19 atom-20" d="M 172.1,287.0 L 206.0,294.2" style="fill:none;fill-rule:evenodd;stroke:#000000;stroke-width:2.0px;stroke-linecap:butt;stroke-linejoin:miter;stroke-opacity:1" />
<path class="bond-21 atom-3 atom-22" d="M 278.2,269.9 L 306.3,301.1" style="fill:none;fill-rule:evenodd;stroke:#000000;stroke-width:2.0px;stroke-linecap:butt;stroke-linejoin:miter;stroke-opacity:1" />
<path class="bond-23 atom-22 atom-24" d="M 306.3,301.1 L 347.3,292.4" style="fill:none;fill-rule:evenodd;stroke:#000000;stroke-width:2.0px;stroke-linecap:butt;stroke-linejoin:miter;stroke-opacity:1" />
<path class="bond-23 atom-22 atom-24" d="M 308.5,294.2 L 342.4,287.0" style="fill:none;fill-rule:evenodd;stroke:#000000;stroke-width:2.0px;stroke-linecap:butt;stroke-linejoin:miter;stroke-opacity:1" />
<path class="bond-24 atom-24 atom-25" d="M 347.3,292.4 L 360.2,252.5" style="fill:none;fill-rule:evenodd;stroke:#000000;stroke-width:2.0px;stroke-linecap:butt;stroke-linejoin:miter;stroke-opacity:1" />
<path class="bond-25 atom-25 atom-26" d="M 360.2,252.5 L 402.2,252.5" style="fill:none;fill-rule:evenodd;stroke:#000000;stroke-width:2.0px;stroke-linecap:butt;stroke-linejoin:miter;stroke-opacity:1" />
<path class="bond-26 atom-26 atom-27" d="M 402.2,252.5 L 415.1,292.4" style="fill:none;fill-rule:evenodd;stroke:#000000;stroke-width:2.0px;stroke-linecap:butt;stroke-linejoin:miter;stroke-opacity:1" />
<path class="bond-26 atom-26 atom-27" d="M 409.6,254.9 L 419.7,286.1" style="fill:none;fill-rule:evenodd;stroke:#000000;stroke-width:2.0px;stroke-linecap:butt;stroke-linejoin:miter;stroke-opacity:1" />
<path class="bond-27 atom-27 atom-28" d="M 415.1,292.4 L 457.1,292.4" style="fill:none;fill-rule:evenodd;stroke:#000000;stroke-width:2.0px;stroke-linecap:butt;stroke-linejoin:miter;stroke-opacity:1" />
<path class="bond-29 atom-28 atom-30" d="M 457.1,292.4 L 470.0,252.5" style="fill:none;fill-rule:evenodd;stroke:#000000;stroke-width:2.0px;stroke-linecap:butt;stroke-linejoin:miter;stroke-opacity:1" />
<path class="bond-29 atom-28 atom-30" d="M 452.5,286.1 L 462.6,254.9" style="fill:none;fill-rule:evenodd;stroke:#000000;stroke-width:2.0px;stroke-linecap:butt;stroke-linejoin:miter;stroke-opacity:1" />
<path class="bond-31 atom-30 atom-32" d="M 470.0,252.5 L 458.1,243.8" style="fill:none;fill-rule:evenodd;stroke:#000000;stroke-width:2.0px;stroke-linecap:butt;stroke-linejoin:miter;stroke-opacity:1" />
<path class="bond-31 atom-30 atom-32" d="M 458.1,243.8 L 446.2,235.2" style="fill:none;fill-rule:evenodd;stroke:#CCCC00;stroke-width:2.0px;stroke-linecap:butt;stroke-linejoin:miter;stroke-opacity:1" />
<path class="bond-32 atom-27 atom-33" d="M 415.1,292.4 L 381.2,317.0" style="fill:none;fill-rule:evenodd;stroke:#000000;stroke-width:2.0px;stroke-linecap:butt;stroke-linejoin:miter;stroke-opacity:1" />
<path class="bond-35 atom-25 atom-36" d="M 360.2,252.5 L 332.2,221.3" style="fill:none;fill-rule:evenodd;stroke:#000000;stroke-width:2.0px;stroke-linecap:butt;stroke-linejoin:miter;stroke-opacity:1" />
<path class="bond-35 atom-25 atom-36" d="M 353.1,254.0 L 329.9,228.2" style="fill:none;fill-rule:evenodd;stroke:#000000;stroke-width:2.0px;stroke-linecap:butt;stroke-linejoin:miter;stroke-opacity:1" />
<path class="bond-37 atom-5 atom-1" d="M 223.3,230.0 L 235.3,221.3" style="fill:none;fill-rule:evenodd;stroke:#000000;stroke-width:2.0px;stroke-linecap:butt;stroke-linejoin:miter;stroke-opacity:1" />
<path class="bond-37 atom-5 atom-1" d="M 235.3,221.3 L 247.3,212.6" style="fill:none;fill-rule:evenodd;stroke:#0000FF;stroke-width:2.0px;stroke-linecap:butt;stroke-linejoin:miter;stroke-opacity:1" />
<path class="bond-38 atom-19 atom-8" d="M 167.2,292.4 L 154.2,252.5" style="fill:none;fill-rule:evenodd;stroke:#000000;stroke-width:2.0px;stroke-linecap:butt;stroke-linejoin:miter;stroke-opacity:1" />
<path class="bond-39 atom-33 atom-24" d="M 381.2,317.0 L 347.3,292.4" style="fill:none;fill-rule:evenodd;stroke:#000000;stroke-width:2.0px;stroke-linecap:butt;stroke-linejoin:miter;stroke-opacity:1" />
<path class="bond-40 atom-36 atom-2" d="M 332.2,221.3 L 291.2,230.0" style="fill:none;fill-rule:evenodd;stroke:#000000;stroke-width:2.0px;stroke-linecap:butt;stroke-linejoin:miter;stroke-opacity:1" />
<path class="bond-41 atom-20 atom-4" d="M 208.2,301.1 L 236.3,269.9" style="fill:none;fill-rule:evenodd;stroke:#000000;stroke-width:2.0px;stroke-linecap:butt;stroke-linejoin:miter;stroke-opacity:1" />
<path class="bond-42 atom-32 atom-26" d="M 426.0,235.2 L 414.1,243.8" style="fill:none;fill-rule:evenodd;stroke:#CCCC00;stroke-width:2.0px;stroke-linecap:butt;stroke-linejoin:miter;stroke-opacity:1" />
<path class="bond-42 atom-32 atom-26" d="M 414.1,243.8 L 402.2,252.5" style="fill:none;fill-rule:evenodd;stroke:#000000;stroke-width:2.0px;stroke-linecap:butt;stroke-linejoin:miter;stroke-opacity:1" />
<path class="bond-43 atom-15 atom-9" d="M 88.5,235.2 L 100.4,243.8" style="fill:none;fill-rule:evenodd;stroke:#CCCC00;stroke-width:2.0px;stroke-linecap:butt;stroke-linejoin:miter;stroke-opacity:1" />
<path class="bond-43 atom-15 atom-9" d="M 100.4,243.8 L 112.3,252.5" style="fill:none;fill-rule:evenodd;stroke:#000000;stroke-width:2.0px;stroke-linecap:butt;stroke-linejoin:miter;stroke-opacity:1" />
<path class="atom-1" d="M 248.7 216.1 L 248.7 194.6 L 252.9 194.6 L 261.7 209.0 L 261.7 194.6 L 265.8 194.6 L 265.8 216.1 L 261.4 216.1 L 252.8 202.1 L 252.8 216.1 L 248.7 216.1 " fill="#0000FF" />
<path class="atom-15" d="M 69.7 231.8 L 73.9 231.4 Q 74.3 233.5, 75.4 234.5 Q 76.6 235.5, 78.6 235.5 Q 80.7 235.5, 81.7 234.6 Q 82.8 233.7, 82.8 232.5 Q 82.8 231.7, 82.3 231.2 Q 81.9 230.7, 80.8 230.3 Q 80.0 230.0, 77.3 229.3 Q 73.8 228.5, 72.4 227.2 Q 70.4 225.4, 70.4 222.9 Q 70.4 221.3, 71.4 219.8 Q 72.3 218.4, 74.0 217.7 Q 75.8 216.9, 78.3 216.9 Q 82.3 216.9, 84.4 218.7 Q 86.4 220.5, 86.5 223.4 L 82.2 223.6 Q 81.9 221.9, 81.0 221.2 Q 80.1 220.5, 78.2 220.5 Q 76.3 220.5, 75.3 221.3 Q 74.6 221.8, 74.6 222.6 Q 74.6 223.4, 75.2 223.9 Q 76.0 224.6, 79.2 225.3 Q 82.4 226.1, 83.9 226.9 Q 85.4 227.7, 86.3 229.1 Q 87.1 230.5, 87.1 232.5 Q 87.1 234.3, 86.1 236.0 Q 85.1 237.6, 83.2 238.4 Q 81.3 239.1, 78.5 239.1 Q 74.4 239.1, 72.3 237.3 Q 70.1 235.4, 69.7 231.8 " fill="#CCCC00" />
<path class="atom-32" d="M 427.4 231.8 L 431.6 231.4 Q 432.0 233.5, 433.1 234.5 Q 434.3 235.5, 436.3 235.5 Q 438.4 235.5, 439.4 234.6 Q 440.5 233.7, 440.5 232.5 Q 440.5 231.7, 440.0 231.2 Q 439.6 230.7, 438.5 230.3 Q 437.7 230.0, 435.0 229.3 Q 431.5 228.5, 430.1 227.2 Q 428.2 225.4, 428.2 222.9 Q 428.2 221.3, 429.1 219.8 Q 430.0 218.4, 431.8 217.7 Q 433.5 216.9, 436.0 216.9 Q 440.0 216.9, 442.1 218.7 Q 444.1 220.5, 444.2 223.4 L 439.9 223.6 Q 439.6 221.9, 438.7 221.2 Q 437.8 220.5, 435.9 220.5 Q 434.1 220.5, 433.0 221.3 Q 432.3 221.8, 432.3 222.6 Q 432.3 223.4, 432.9 223.9 Q 433.8 224.6, 436.9 225.3 Q 440.1 226.1, 441.6 226.9 Q 443.1 227.7, 444.0 229.1 Q 444.8 230.5, 444.8 232.5 Q 444.8 234.3, 443.8 236.0 Q 442.8 237.6, 440.9 238.4 Q 439.0 239.1, 436.2 239.1 Q 432.2 239.1, 430.0 237.3 Q 427.8 235.4, 427.4 231.8 " fill="#CCCC00" />
</svg>