<?xml version='1.0' encoding='iso-8859-1'?>
<svg xmlns="http://www.w3.org/2000/svg" version="1.1" baseProfile="full" xml:space="preserve" width="303" height="84" viewBox="27 301 303 84">

<rect style="opacity:1.0;fill:#FFFFFF;stroke:none" width="512.0" height="512.0" x="0.0" y="0.0"> </rect>
<path class="bond-1 atom-1 atom-2" d="M 182.4,308.6 L 192.2,315.7" style="fill:none;fill-rule:evenodd;stroke:#0000FF;stroke-width:2.0px;stroke-linecap:butt;stroke-linejoin:miter;stroke-opacity:1" />
<path class="bond-1 atom-1 atom-2" d="M 192.2,315.7 L 202.0,322.8" style="fill:none;fill-rule:evenodd;stroke:#000000;stroke-width:2.0px;stroke-linecap:butt;stroke-linejoin:miter;stroke-opacity:1" />
<path class="bond-2 atom-2 atom-3" d="M 202.0,322.8 L 192.9,351.0" style="fill:none;fill-rule:evenodd;stroke:#000000;stroke-width:2.0px;stroke-linecap:butt;stroke-linejoin:miter;stroke-opacity:1" />
<path class="bond-2 atom-2 atom-3" d="M 196.8,324.5 L 189.7,346.5" style="fill:none;fill-rule:evenodd;stroke:#000000;stroke-width:2.0px;stroke-linecap:butt;stroke-linejoin:miter;stroke-opacity:1" />
<path class="bond-3 atom-3 atom-4" d="M 192.9,351.0 L 163.3,351.0" style="fill:none;fill-rule:evenodd;stroke:#000000;stroke-width:2.0px;stroke-linecap:butt;stroke-linejoin:miter;stroke-opacity:1" />
<path class="bond-4 atom-4 atom-5" d="M 163.3,351.0 L 154.2,322.8" style="fill:none;fill-rule:evenodd;stroke:#000000;stroke-width:2.0px;stroke-linecap:butt;stroke-linejoin:miter;stroke-opacity:1" />
<path class="bond-4 atom-4 atom-5" d="M 166.6,346.5 L 159.4,324.5" style="fill:none;fill-rule:evenodd;stroke:#000000;stroke-width:2.0px;stroke-linecap:butt;stroke-linejoin:miter;stroke-opacity:1" />
<path class="bond-5 atom-5 atom-6" d="M 154.2,322.8 L 125.3,316.7" style="fill:none;fill-rule:evenodd;stroke:#000000;stroke-width:2.0px;stroke-linecap:butt;stroke-linejoin:miter;stroke-opacity:1" />
<path class="bond-7 atom-6 atom-8" d="M 125.3,316.7 L 105.5,338.7" style="fill:none;fill-rule:evenodd;stroke:#000000;stroke-width:2.0px;stroke-linecap:butt;stroke-linejoin:miter;stroke-opacity:1" />
<path class="bond-7 atom-6 atom-8" d="M 126.9,321.6 L 110.5,339.7" style="fill:none;fill-rule:evenodd;stroke:#000000;stroke-width:2.0px;stroke-linecap:butt;stroke-linejoin:miter;stroke-opacity:1" />
<path class="bond-8 atom-8 atom-9" d="M 105.5,338.7 L 75.9,338.7" style="fill:none;fill-rule:evenodd;stroke:#000000;stroke-width:2.0px;stroke-linecap:butt;stroke-linejoin:miter;stroke-opacity:1" />
<path class="bond-9 atom-9 atom-10" d="M 75.9,338.7 L 66.8,366.8" style="fill:none;fill-rule:evenodd;stroke:#000000;stroke-width:2.0px;stroke-linecap:butt;stroke-linejoin:miter;stroke-opacity:1" />
<path class="bond-9 atom-9 atom-10" d="M 70.7,340.4 L 63.6,362.3" style="fill:none;fill-rule:evenodd;stroke:#000000;stroke-width:2.0px;stroke-linecap:butt;stroke-linejoin:miter;stroke-opacity:1" />
<path class="bond-10 atom-10 atom-11" d="M 66.8,366.8 L 37.2,366.8" style="fill:none;fill-rule:evenodd;stroke:#000000;stroke-width:2.0px;stroke-linecap:butt;stroke-linejoin:miter;stroke-opacity:1" />
<path class="bond-12 atom-11 atom-13" d="M 37.2,366.8 L 28.1,338.7" style="fill:none;fill-rule:evenodd;stroke:#000000;stroke-width:2.0px;stroke-linecap:butt;stroke-linejoin:miter;stroke-opacity:1" />
<path class="bond-12 atom-11 atom-13" d="M 40.5,362.3 L 33.3,340.4" style="fill:none;fill-rule:evenodd;stroke:#000000;stroke-width:2.0px;stroke-linecap:butt;stroke-linejoin:miter;stroke-opacity:1" />
<path class="bond-14 atom-13 atom-15" d="M 28.1,338.7 L 37.9,331.6" style="fill:none;fill-rule:evenodd;stroke:#000000;stroke-width:2.0px;stroke-linecap:butt;stroke-linejoin:miter;stroke-opacity:1" />
<path class="bond-14 atom-13 atom-15" d="M 37.9,331.6 L 47.6,324.5" style="fill:none;fill-rule:evenodd;stroke:#CCCC00;stroke-width:2.0px;stroke-linecap:butt;stroke-linejoin:miter;stroke-opacity:1" />
<path class="bond-15 atom-10 atom-16" d="M 66.8,366.8 L 90.7,384.1" style="fill:none;fill-rule:evenodd;stroke:#000000;stroke-width:2.0px;stroke-linecap:butt;stroke-linejoin:miter;stroke-opacity:1" />
<path class="bond-18 atom-16 atom-19" d="M 90.7,384.1 L 114.6,366.8" style="fill:none;fill-rule:evenodd;stroke:#000000;stroke-width:2.0px;stroke-linecap:butt;stroke-linejoin:miter;stroke-opacity:1" />
<path class="bond-19 atom-19 atom-20" d="M 114.6,366.8 L 143.6,372.9" style="fill:none;fill-rule:evenodd;stroke:#000000;stroke-width:2.0px;stroke-linecap:butt;stroke-linejoin:miter;stroke-opacity:1" />
<path class="bond-19 atom-19 atom-20" d="M 118.1,363.0 L 142.0,368.0" style="fill:none;fill-rule:evenodd;stroke:#000000;stroke-width:2.0px;stroke-linecap:butt;stroke-linejoin:miter;stroke-opacity:1" />
<path class="bond-21 atom-3 atom-22" d="M 192.9,351.0 L 212.7,372.9" style="fill:none;fill-rule:evenodd;stroke:#000000;stroke-width:2.0px;stroke-linecap:butt;stroke-linejoin:miter;stroke-opacity:1" />
<path class="bond-23 atom-22 atom-24" d="M 212.7,372.9 L 241.6,366.8" style="fill:none;fill-rule:evenodd;stroke:#000000;stroke-width:2.0px;stroke-linecap:butt;stroke-linejoin:miter;stroke-opacity:1" />
<path class="bond-23 atom-22 atom-24" d="M 214.3,368.0 L 238.2,363.0" style="fill:none;fill-rule:evenodd;stroke:#000000;stroke-width:2.0px;stroke-linecap:butt;stroke-linejoin:miter;stroke-opacity:1" />
<path class="bond-24 atom-24 atom-25" d="M 241.6,366.8 L 250.7,338.7" style="fill:none;fill-rule:evenodd;stroke:#000000;stroke-width:2.0px;stroke-linecap:butt;stroke-linejoin:miter;stroke-opacity:1" />
<path class="bond-25 atom-25 atom-26" d="M 250.7,338.7 L 280.3,338.7" style="fill:none;fill-rule:evenodd;stroke:#000000;stroke-width:2.0px;stroke-linecap:butt;stroke-linejoin:miter;stroke-opacity:1" />
<path class="bond-26 atom-26 atom-27" d="M 280.3,338.7 L 289.4,366.8" style="fill:none;fill-rule:evenodd;stroke:#000000;stroke-width:2.0px;stroke-linecap:butt;stroke-linejoin:miter;stroke-opacity:1" />
<path class="bond-26 atom-26 atom-27" d="M 285.5,340.4 L 292.6,362.3" style="fill:none;fill-rule:evenodd;stroke:#000000;stroke-width:2.0px;stroke-linecap:butt;stroke-linejoin:miter;stroke-opacity:1" />
<path class="bond-27 atom-27 atom-28" d="M 289.4,366.8 L 319.0,366.8" style="fill:none;fill-rule:evenodd;stroke:#000000;stroke-width:2.0px;stroke-linecap:butt;stroke-linejoin:miter;stroke-opacity:1" />
<path class="bond-29 atom-28 atom-30" d="M 319.0,366.8 L 328.1,338.7" style="fill:none;fill-rule:evenodd;stroke:#000000;stroke-width:2.0px;stroke-linecap:butt;stroke-linejoin:miter;stroke-opacity:1" />
<path class="bond-29 atom-28 atom-30" d="M 315.8,362.3 L 322.9,340.4" style="fill:none;fill-rule:evenodd;stroke:#000000;stroke-width:2.0px;stroke-linecap:butt;stroke-linejoin:miter;stroke-opacity:1" />
<path class="bond-31 atom-30 atom-32" d="M 328.1,338.7 L 318.4,331.6" style="fill:none;fill-rule:evenodd;stroke:#000000;stroke-width:2.0px;stroke-linecap:butt;stroke-linejoin:miter;stroke-opacity:1" />
<path class="bond-31 atom-30 atom-32" d="M 318.4,331.6 L 308.6,324.5" style="fill:none;fill-rule:evenodd;stroke:#CCCC00;stroke-width:2.0px;stroke-linecap:butt;stroke-linejoin:miter;stroke-opacity:1" />
<path class="bond-32 atom-27 atom-33" d="M 289.4,366.8 L 265.5,384.1" style="fill:none;fill-rule:evenodd;stroke:#000000;stroke-width:2.0px;stroke-linecap:butt;stroke-linejoin:miter;stroke-opacity:1" />
<path class="bond-35 atom-25 atom-36" d="M 250.7,338.7 L 230.9,316.7" style="fill:none;fill-rule:evenodd;stroke:#000000;stroke-width:2.0px;stroke-linecap:butt;stroke-linejoin:miter;stroke-opacity:1" />
<path class="bond-35 atom-25 atom-36" d="M 245.7,339.7 L 229.4,321.6" style="fill:none;fill-rule:evenodd;stroke:#000000;stroke-width:2.0px;stroke-linecap:butt;stroke-linejoin:miter;stroke-opacity:1" />
<path class="bond-37 atom-5 atom-1" d="M 154.2,322.8 L 164.0,315.7" style="fill:none;fill-rule:evenodd;stroke:#000000;stroke-width:2.0px;stroke-linecap:butt;stroke-linejoin:miter;stroke-opacity:1" />
<path class="bond-37 atom-5 atom-1" d="M 164.0,315.7 L 173.8,308.6" style="fill:none;fill-rule:evenodd;stroke:#0000FF;stroke-width:2.0px;stroke-linecap:butt;stroke-linejoin:miter;stroke-opacity:1" />
<path class="bond-38 atom-19 atom-8" d="M 114.6,366.8 L 105.5,338.7" style="fill:none;fill-rule:evenodd;stroke:#000000;stroke-width:2.0px;stroke-linecap:butt;stroke-linejoin:miter;stroke-opacity:1" />
<path class="bond-39 atom-33 atom-24" d="M 265.5,384.1 L 241.6,366.8" style="fill:none;fill-rule:evenodd;stroke:#000000;stroke-width:2.0px;stroke-linecap:butt;stroke-linejoin:miter;stroke-opacity:1" />
<path class="bond-40 atom-36 atom-2" d="M 230.9,316.7 L 202.0,322.8" style="fill:none;fill-rule:evenodd;stroke:#000000;stroke-width:2.0px;stroke-linecap:butt;stroke-linejoin:miter;stroke-opacity:1" />
<path class="bond-41 atom-20 atom-4" d="M 143.6,372.9 L 163.3,351.0" style="fill:none;fill-rule:evenodd;stroke:#000000;stroke-width:2.0px;stroke-linecap:butt;stroke-linejoin:miter;stroke-opacity:1" />
<path class="bond-42 atom-32 atom-26" d="M 299.8,324.5 L 290.0,331.6" style="fill:none;fill-rule:evenodd;stroke:#CCCC00;stroke-width:2.0px;stroke-linecap:butt;stroke-linejoin:miter;stroke-opacity:1" />
<path class="bond-42 atom-32 atom-26" d="M 290.0,331.6 L 280.3,338.7" style="fill:none;fill-rule:evenodd;stroke:#000000;stroke-width:2.0px;stroke-linecap:butt;stroke-linejoin:miter;stroke-opacity:1" />
<path class="bond-43 atom-15 atom-9" d="M 56.4,324.5 L 66.2,331.6" style="fill:none;fill-rule:evenodd;stroke:#CCCC00;stroke-width:2.0px;stroke-linecap:butt;stroke-linejoin:miter;stroke-opacity:1" />
<path class="bond-43 atom-15 atom-9" d="M 66.2,331.6 L 75.9,338.7" style="fill:none;fill-rule:evenodd;stroke:#000000;stroke-width:2.0px;stroke-linecap:butt;stroke-linejoin:miter;stroke-opacity:1" />
<path class="atom-1" d="M 174.8 309.7 L 174.8 301.2 L 176.4 301.2 L 179.9 306.9 L 179.9 301.2 L 181.5 301.2 L 181.5 309.7 L 179.8 309.7 L 176.3 304.2 L 176.3 309.7 L 174.8 309.7 " fill="#0000FF" />
<path class="atom-15" d="M 48.6 322.8 L 50.3 322.7 Q 50.4 323.5, 50.9 323.9 Q 51.3 324.3, 52.1 324.3 Q 52.9 324.3, 53.3 323.9 Q 53.8 323.6, 53.8 323.1 Q 53.8 322.8, 53.6 322.6 Q 53.4 322.4, 53.0 322.3 Q 52.7 322.1, 51.6 321.9 Q 50.2 321.5, 49.7 321.0 Q 48.9 320.3, 48.9 319.3 Q 48.9 318.7, 49.3 318.1 Q 49.6 317.6, 50.3 317.3 Q 51.0 317.0, 52.0 317.0 Q 53.6 317.0, 54.4 317.7 Q 55.2 318.4, 55.2 319.5 L 53.5 319.6 Q 53.4 319.0, 53.0 318.7 Q 52.7 318.4, 52.0 318.4 Q 51.2 318.4, 50.8 318.7 Q 50.5 318.9, 50.5 319.2 Q 50.5 319.5, 50.8 319.7 Q 51.1 320.0, 52.4 320.3 Q 53.6 320.6, 54.2 320.9 Q 54.8 321.2, 55.1 321.8 Q 55.5 322.3, 55.5 323.1 Q 55.5 323.9, 55.1 324.5 Q 54.7 325.1, 53.9 325.4 Q 53.2 325.7, 52.1 325.7 Q 50.5 325.7, 49.6 325.0 Q 48.8 324.3, 48.6 322.8 " fill="#CCCC00" />
<path class="atom-32" d="M 300.8 322.8 L 302.4 322.7 Q 302.6 323.5, 303.0 323.9 Q 303.5 324.3, 304.3 324.3 Q 305.1 324.3, 305.5 323.9 Q 305.9 323.6, 305.9 323.1 Q 305.9 322.8, 305.7 322.6 Q 305.6 322.4, 305.1 322.3 Q 304.8 322.1, 303.8 321.9 Q 302.4 321.5, 301.8 321.0 Q 301.1 320.3, 301.1 319.3 Q 301.1 318.7, 301.4 318.1 Q 301.8 317.6, 302.5 317.3 Q 303.2 317.0, 304.2 317.0 Q 305.7 317.0, 306.5 317.7 Q 307.4 318.4, 307.4 319.5 L 305.7 319.6 Q 305.6 319.0, 305.2 318.7 Q 304.9 318.4, 304.1 318.4 Q 303.4 318.4, 303.0 318.7 Q 302.7 318.9, 302.7 319.2 Q 302.7 319.5, 302.9 319.7 Q 303.3 320.0, 304.5 320.3 Q 305.8 320.6, 306.4 320.9 Q 307.0 321.2, 307.3 321.8 Q 307.6 322.3, 307.6 323.1 Q 307.6 323.9, 307.2 324.5 Q 306.8 325.1, 306.1 325.4 Q 305.4 325.7, 304.2 325.7 Q 302.6 325.7, 301.8 325.0 Q 300.9 324.3, 300.8 322.8 " fill="#CCCC00" />
</svg>