<?xml version='1.0' encoding='iso-8859-1'?>
<svg xmlns="http://www.w3.org/2000/svg" version="1.1" baseProfile="full" xml:space="preserve" width="426" height="136" viewBox="44 188 426 136">

<rect style="opacity:1.0;fill:#FFFFFF;stroke:none" width="512.0" height="512.0" x="0.0" y="0.0"> </rect>
<path class="bond-1 atom-1 atom-2" d="M 468.7,285.2 L 454.9,244.5" style="fill:none;fill-rule:evenodd;stroke:#000000;stroke-width:2.0px;stroke-linecap:butt;stroke-linejoin:miter;stroke-opacity:1" />
<path class="bond-1 atom-1 atom-2" d="M 461.1,282.9 L 450.3,251.0" style="fill:none;fill-rule:evenodd;stroke:#000000;stroke-width:2.0px;stroke-linecap:butt;stroke-linejoin:miter;stroke-opacity:1" />
<path class="bond-3 atom-2 atom-4" d="M 454.9,244.5 L 411.9,245.0" style="fill:none;fill-rule:evenodd;stroke:#000000;stroke-width:2.0px;stroke-linecap:butt;stroke-linejoin:miter;stroke-opacity:1" />
<path class="bond-4 atom-4 atom-5" d="M 411.9,245.0 L 399.1,286.1" style="fill:none;fill-rule:evenodd;stroke:#000000;stroke-width:2.0px;stroke-linecap:butt;stroke-linejoin:miter;stroke-opacity:1" />
<path class="bond-4 atom-4 atom-5" d="M 416.7,251.4 L 406.7,283.5" style="fill:none;fill-rule:evenodd;stroke:#000000;stroke-width:2.0px;stroke-linecap:butt;stroke-linejoin:miter;stroke-opacity:1" />
<path class="bond-5 atom-5 atom-6" d="M 399.1,286.1 L 411.6,294.9" style="fill:none;fill-rule:evenodd;stroke:#000000;stroke-width:2.0px;stroke-linecap:butt;stroke-linejoin:miter;stroke-opacity:1" />
<path class="bond-5 atom-5 atom-6" d="M 411.6,294.9 L 424.1,303.8" style="fill:none;fill-rule:evenodd;stroke:#CCCC00;stroke-width:2.0px;stroke-linecap:butt;stroke-linejoin:miter;stroke-opacity:1" />
<path class="bond-6 atom-5 atom-7" d="M 399.1,286.1 L 356.1,286.6" style="fill:none;fill-rule:evenodd;stroke:#000000;stroke-width:2.0px;stroke-linecap:butt;stroke-linejoin:miter;stroke-opacity:1" />
<path class="bond-7 atom-7 atom-8" d="M 356.1,286.6 L 342.3,245.8" style="fill:none;fill-rule:evenodd;stroke:#000000;stroke-width:2.0px;stroke-linecap:butt;stroke-linejoin:miter;stroke-opacity:1" />
<path class="bond-7 atom-7 atom-8" d="M 348.4,284.2 L 337.7,252.4" style="fill:none;fill-rule:evenodd;stroke:#000000;stroke-width:2.0px;stroke-linecap:butt;stroke-linejoin:miter;stroke-opacity:1" />
<path class="bond-8 atom-8 atom-9" d="M 342.3,245.8 L 299.2,246.4" style="fill:none;fill-rule:evenodd;stroke:#000000;stroke-width:2.0px;stroke-linecap:butt;stroke-linejoin:miter;stroke-opacity:1" />
<path class="bond-9 atom-9 atom-10" d="M 299.2,246.4 L 286.4,287.5" style="fill:none;fill-rule:evenodd;stroke:#000000;stroke-width:2.0px;stroke-linecap:butt;stroke-linejoin:miter;stroke-opacity:1" />
<path class="bond-9 atom-9 atom-10" d="M 304.0,252.8 L 294.0,284.9" style="fill:none;fill-rule:evenodd;stroke:#000000;stroke-width:2.0px;stroke-linecap:butt;stroke-linejoin:miter;stroke-opacity:1" />
<path class="bond-10 atom-10 atom-11" d="M 286.4,287.5 L 298.9,296.3" style="fill:none;fill-rule:evenodd;stroke:#000000;stroke-width:2.0px;stroke-linecap:butt;stroke-linejoin:miter;stroke-opacity:1" />
<path class="bond-10 atom-10 atom-11" d="M 298.9,296.3 L 311.4,305.1" style="fill:none;fill-rule:evenodd;stroke:#CCCC00;stroke-width:2.0px;stroke-linecap:butt;stroke-linejoin:miter;stroke-opacity:1" />
<path class="bond-11 atom-10 atom-12" d="M 286.4,287.5 L 244.4,296.9" style="fill:none;fill-rule:evenodd;stroke:#000000;stroke-width:2.0px;stroke-linecap:butt;stroke-linejoin:miter;stroke-opacity:1" />
<path class="bond-13 atom-12 atom-14" d="M 244.4,296.9 L 215.3,265.3" style="fill:none;fill-rule:evenodd;stroke:#000000;stroke-width:2.0px;stroke-linecap:butt;stroke-linejoin:miter;stroke-opacity:1" />
<path class="bond-13 atom-12 atom-14" d="M 246.7,289.8 L 222.5,263.6" style="fill:none;fill-rule:evenodd;stroke:#000000;stroke-width:2.0px;stroke-linecap:butt;stroke-linejoin:miter;stroke-opacity:1" />
<path class="bond-14 atom-14 atom-15" d="M 215.3,265.3 L 228.1,224.2" style="fill:none;fill-rule:evenodd;stroke:#000000;stroke-width:2.0px;stroke-linecap:butt;stroke-linejoin:miter;stroke-opacity:1" />
<path class="bond-15 atom-15 atom-16" d="M 228.1,224.2 L 215.6,215.3" style="fill:none;fill-rule:evenodd;stroke:#000000;stroke-width:2.0px;stroke-linecap:butt;stroke-linejoin:miter;stroke-opacity:1" />
<path class="bond-15 atom-15 atom-16" d="M 215.6,215.3 L 203.1,206.5" style="fill:none;fill-rule:evenodd;stroke:#CCCC00;stroke-width:2.0px;stroke-linecap:butt;stroke-linejoin:miter;stroke-opacity:1" />
<path class="bond-16 atom-16 atom-17" d="M 182.8,206.9 L 170.6,215.9" style="fill:none;fill-rule:evenodd;stroke:#CCCC00;stroke-width:2.0px;stroke-linecap:butt;stroke-linejoin:miter;stroke-opacity:1" />
<path class="bond-16 atom-16 atom-17" d="M 170.6,215.9 L 158.4,225.0" style="fill:none;fill-rule:evenodd;stroke:#000000;stroke-width:2.0px;stroke-linecap:butt;stroke-linejoin:miter;stroke-opacity:1" />
<path class="bond-17 atom-17 atom-18" d="M 158.4,225.0 L 172.2,265.8" style="fill:none;fill-rule:evenodd;stroke:#000000;stroke-width:2.0px;stroke-linecap:butt;stroke-linejoin:miter;stroke-opacity:1" />
<path class="bond-17 atom-17 atom-18" d="M 166.1,227.4 L 176.8,259.3" style="fill:none;fill-rule:evenodd;stroke:#000000;stroke-width:2.0px;stroke-linecap:butt;stroke-linejoin:miter;stroke-opacity:1" />
<path class="bond-18 atom-18 atom-19" d="M 172.2,265.8 L 137.7,291.5" style="fill:none;fill-rule:evenodd;stroke:#000000;stroke-width:2.0px;stroke-linecap:butt;stroke-linejoin:miter;stroke-opacity:1" />
<path class="bond-21 atom-19 atom-22" d="M 137.7,291.5 L 102.6,266.6" style="fill:none;fill-rule:evenodd;stroke:#000000;stroke-width:2.0px;stroke-linecap:butt;stroke-linejoin:miter;stroke-opacity:1" />
<path class="bond-22 atom-22 atom-23" d="M 102.6,266.6 L 115.4,225.5" style="fill:none;fill-rule:evenodd;stroke:#000000;stroke-width:2.0px;stroke-linecap:butt;stroke-linejoin:miter;stroke-opacity:1" />
<path class="bond-22 atom-22 atom-23" d="M 97.8,260.2 L 107.8,228.1" style="fill:none;fill-rule:evenodd;stroke:#000000;stroke-width:2.0px;stroke-linecap:butt;stroke-linejoin:miter;stroke-opacity:1" />
<path class="bond-23 atom-23 atom-24" d="M 115.4,225.5 L 102.9,216.7" style="fill:none;fill-rule:evenodd;stroke:#000000;stroke-width:2.0px;stroke-linecap:butt;stroke-linejoin:miter;stroke-opacity:1" />
<path class="bond-23 atom-23 atom-24" d="M 102.9,216.7 L 90.4,207.9" style="fill:none;fill-rule:evenodd;stroke:#CCCC00;stroke-width:2.0px;stroke-linecap:butt;stroke-linejoin:miter;stroke-opacity:1" />
<path class="bond-24 atom-24 atom-25" d="M 70.1,208.2 L 57.9,217.3" style="fill:none;fill-rule:evenodd;stroke:#CCCC00;stroke-width:2.0px;stroke-linecap:butt;stroke-linejoin:miter;stroke-opacity:1" />
<path class="bond-24 atom-24 atom-25" d="M 57.9,217.3 L 45.8,226.4" style="fill:none;fill-rule:evenodd;stroke:#000000;stroke-width:2.0px;stroke-linecap:butt;stroke-linejoin:miter;stroke-opacity:1" />
<path class="bond-26 atom-25 atom-27" d="M 45.8,226.4 L 59.6,267.2" style="fill:none;fill-rule:evenodd;stroke:#000000;stroke-width:2.0px;stroke-linecap:butt;stroke-linejoin:miter;stroke-opacity:1" />
<path class="bond-26 atom-25 atom-27" d="M 53.4,228.8 L 64.2,260.6" style="fill:none;fill-rule:evenodd;stroke:#000000;stroke-width:2.0px;stroke-linecap:butt;stroke-linejoin:miter;stroke-opacity:1" />
<path class="bond-28 atom-15 atom-29" d="M 228.1,224.2 L 270.1,214.7" style="fill:none;fill-rule:evenodd;stroke:#000000;stroke-width:2.0px;stroke-linecap:butt;stroke-linejoin:miter;stroke-opacity:1" />
<path class="bond-28 atom-15 atom-29" d="M 233.1,229.7 L 267.8,221.8" style="fill:none;fill-rule:evenodd;stroke:#000000;stroke-width:2.0px;stroke-linecap:butt;stroke-linejoin:miter;stroke-opacity:1" />
<path class="bond-30 atom-8 atom-31" d="M 342.3,245.8 L 376.8,220.1" style="fill:none;fill-rule:evenodd;stroke:#000000;stroke-width:2.0px;stroke-linecap:butt;stroke-linejoin:miter;stroke-opacity:1" />
<path class="bond-33 atom-6 atom-1" d="M 444.4,303.4 L 456.6,294.3" style="fill:none;fill-rule:evenodd;stroke:#CCCC00;stroke-width:2.0px;stroke-linecap:butt;stroke-linejoin:miter;stroke-opacity:1" />
<path class="bond-33 atom-6 atom-1" d="M 456.6,294.3 L 468.7,285.2" style="fill:none;fill-rule:evenodd;stroke:#000000;stroke-width:2.0px;stroke-linecap:butt;stroke-linejoin:miter;stroke-opacity:1" />
<path class="bond-34 atom-11 atom-7" d="M 331.7,304.8 L 343.9,295.7" style="fill:none;fill-rule:evenodd;stroke:#CCCC00;stroke-width:2.0px;stroke-linecap:butt;stroke-linejoin:miter;stroke-opacity:1" />
<path class="bond-34 atom-11 atom-7" d="M 343.9,295.7 L 356.1,286.6" style="fill:none;fill-rule:evenodd;stroke:#000000;stroke-width:2.0px;stroke-linecap:butt;stroke-linejoin:miter;stroke-opacity:1" />
<path class="bond-35 atom-18 atom-14" d="M 172.2,265.8 L 215.3,265.3" style="fill:none;fill-rule:evenodd;stroke:#000000;stroke-width:2.0px;stroke-linecap:butt;stroke-linejoin:miter;stroke-opacity:1" />
<path class="bond-36 atom-27 atom-22" d="M 59.6,267.2 L 102.6,266.6" style="fill:none;fill-rule:evenodd;stroke:#000000;stroke-width:2.0px;stroke-linecap:butt;stroke-linejoin:miter;stroke-opacity:1" />
<path class="bond-37 atom-31 atom-4" d="M 376.8,220.1 L 411.9,245.0" style="fill:none;fill-rule:evenodd;stroke:#000000;stroke-width:2.0px;stroke-linecap:butt;stroke-linejoin:miter;stroke-opacity:1" />
<path class="bond-38 atom-29 atom-9" d="M 270.1,214.7 L 299.2,246.4" style="fill:none;fill-rule:evenodd;stroke:#000000;stroke-width:2.0px;stroke-linecap:butt;stroke-linejoin:miter;stroke-opacity:1" />
<path class="bond-39 atom-23 atom-17" d="M 115.4,225.5 L 158.4,225.0" style="fill:none;fill-rule:evenodd;stroke:#000000;stroke-width:2.0px;stroke-linecap:butt;stroke-linejoin:miter;stroke-opacity:1" />
<path class="atom-6" d="M 425.5 314.9 L 429.7 314.5 Q 430.1 316.6, 431.3 317.6 Q 432.4 318.6, 434.4 318.6 Q 436.5 318.6, 437.5 317.7 Q 438.6 316.8, 438.6 315.6 Q 438.6 314.9, 438.2 314.4 Q 437.7 313.8, 436.6 313.4 Q 435.9 313.2, 433.1 312.5 Q 429.7 311.6, 428.2 310.4 Q 426.3 308.6, 426.3 306.0 Q 426.3 304.4, 427.2 303.0 Q 428.1 301.5, 429.9 300.8 Q 431.6 300.0, 434.1 300.0 Q 438.1 300.0, 440.2 301.8 Q 442.2 303.6, 442.3 306.5 L 438.0 306.7 Q 437.7 305.1, 436.8 304.4 Q 435.9 303.6, 434.1 303.6 Q 432.2 303.6, 431.1 304.4 Q 430.4 304.9, 430.4 305.7 Q 430.4 306.5, 431.1 307.0 Q 431.9 307.7, 435.0 308.5 Q 438.2 309.2, 439.7 310.0 Q 441.2 310.8, 442.1 312.2 Q 443.0 313.6, 443.0 315.6 Q 443.0 317.5, 441.9 319.1 Q 440.9 320.7, 439.0 321.5 Q 437.2 322.3, 434.4 322.3 Q 430.3 322.3, 428.1 320.4 Q 425.9 318.5, 425.5 314.9 " fill="#CCCC00" />
<path class="atom-11" d="M 312.8 316.3 L 317.0 315.8 Q 317.4 318.0, 318.6 319.0 Q 319.8 320.0, 321.7 320.0 Q 323.8 320.0, 324.9 319.1 Q 325.9 318.2, 325.9 317.0 Q 325.9 316.2, 325.5 315.7 Q 325.1 315.2, 323.9 314.8 Q 323.2 314.5, 320.5 313.8 Q 317.0 313.0, 315.6 311.7 Q 313.6 309.9, 313.6 307.4 Q 313.6 305.8, 314.5 304.3 Q 315.5 302.9, 317.2 302.2 Q 319.0 301.4, 321.4 301.4 Q 325.5 301.4, 327.5 303.2 Q 329.6 305.0, 329.7 307.9 L 325.3 308.1 Q 325.1 306.4, 324.1 305.7 Q 323.2 305.0, 321.4 305.0 Q 319.5 305.0, 318.4 305.8 Q 317.7 306.3, 317.7 307.1 Q 317.7 307.9, 318.4 308.4 Q 319.2 309.1, 322.4 309.8 Q 325.5 310.6, 327.0 311.4 Q 328.6 312.2, 329.4 313.6 Q 330.3 315.0, 330.3 317.0 Q 330.3 318.8, 329.3 320.4 Q 328.2 322.1, 326.4 322.9 Q 324.5 323.6, 321.7 323.6 Q 317.6 323.6, 315.4 321.8 Q 313.2 319.9, 312.8 316.3 " fill="#CCCC00" />
<path class="atom-16" d="M 184.2 203.2 L 188.4 202.8 Q 188.8 205.0, 190.0 206.0 Q 191.1 206.9, 193.1 206.9 Q 195.2 206.9, 196.3 206.1 Q 197.3 205.2, 197.3 204.0 Q 197.3 203.2, 196.9 202.7 Q 196.4 202.2, 195.3 201.8 Q 194.6 201.5, 191.9 200.8 Q 188.4 200.0, 187.0 198.7 Q 185.0 196.9, 185.0 194.4 Q 185.0 192.7, 185.9 191.3 Q 186.8 189.9, 188.6 189.1 Q 190.4 188.4, 192.8 188.4 Q 196.9 188.4, 198.9 190.2 Q 201.0 191.9, 201.1 194.9 L 196.7 195.1 Q 196.4 193.4, 195.5 192.7 Q 194.6 192.0, 192.8 192.0 Q 190.9 192.0, 189.8 192.8 Q 189.1 193.3, 189.1 194.1 Q 189.1 194.8, 189.8 195.4 Q 190.6 196.1, 193.8 196.8 Q 196.9 197.6, 198.4 198.4 Q 200.0 199.2, 200.8 200.6 Q 201.7 201.9, 201.7 204.0 Q 201.7 205.8, 200.6 207.4 Q 199.6 209.0, 197.7 209.8 Q 195.9 210.6, 193.1 210.6 Q 189.0 210.6, 186.8 208.7 Q 184.6 206.8, 184.2 203.2 " fill="#CCCC00" />
<path class="atom-24" d="M 71.5 204.6 L 75.8 204.2 Q 76.1 206.3, 77.3 207.3 Q 78.5 208.3, 80.4 208.3 Q 82.5 208.3, 83.6 207.4 Q 84.7 206.5, 84.7 205.4 Q 84.7 204.6, 84.2 204.1 Q 83.8 203.5, 82.7 203.1 Q 81.9 202.9, 79.2 202.2 Q 75.7 201.3, 74.3 200.1 Q 72.3 198.3, 72.3 195.7 Q 72.3 194.1, 73.2 192.7 Q 74.2 191.2, 75.9 190.5 Q 77.7 189.7, 80.2 189.7 Q 84.2 189.7, 86.2 191.5 Q 88.3 193.3, 88.4 196.3 L 84.1 196.4 Q 83.8 194.8, 82.9 194.1 Q 81.9 193.3, 80.1 193.3 Q 78.2 193.3, 77.2 194.1 Q 76.5 194.6, 76.5 195.4 Q 76.5 196.2, 77.1 196.8 Q 77.9 197.4, 81.1 198.2 Q 84.3 198.9, 85.8 199.7 Q 87.3 200.5, 88.1 201.9 Q 89.0 203.3, 89.0 205.3 Q 89.0 207.2, 88.0 208.8 Q 87.0 210.4, 85.1 211.2 Q 83.2 212.0, 80.4 212.0 Q 76.3 212.0, 74.2 210.1 Q 72.0 208.2, 71.5 204.6 " fill="#CCCC00" />
</svg>