<?xml version='1.0' encoding='iso-8859-1'?>
<svg xmlns="http://www.w3.org/2000/svg" version="1.1" baseProfile="full" xml:space="preserve" width="293" height="87" viewBox="27 306 293 87">

<rect style="opacity:1.0;fill:#FFFFFF;stroke:none" width="512.0" height="512.0" x="0.0" y="0.0"> </rect>
<path class="bond-1 atom-1 atom-2" d="M 318.7,369.9 L 309.3,341.9" style="fill:none;fill-rule:evenodd;stroke:#000000;stroke-width:2.0px;stroke-linecap:butt;stroke-linejoin:miter;stroke-opacity:1" />
<path class="bond-1 atom-1 atom-2" d="M 313.5,368.3 L 306.1,346.4" style="fill:none;fill-rule:evenodd;stroke:#000000;stroke-width:2.0px;stroke-linecap:butt;stroke-linejoin:miter;stroke-opacity:1" />
<path class="bond-3 atom-2 atom-4" d="M 309.3,341.9 L 279.7,342.2" style="fill:none;fill-rule:evenodd;stroke:#000000;stroke-width:2.0px;stroke-linecap:butt;stroke-linejoin:miter;stroke-opacity:1" />
<path class="bond-4 atom-4 atom-5" d="M 279.7,342.2 L 270.9,370.5" style="fill:none;fill-rule:evenodd;stroke:#000000;stroke-width:2.0px;stroke-linecap:butt;stroke-linejoin:miter;stroke-opacity:1" />
<path class="bond-4 atom-4 atom-5" d="M 283.0,346.6 L 276.1,368.7" style="fill:none;fill-rule:evenodd;stroke:#000000;stroke-width:2.0px;stroke-linecap:butt;stroke-linejoin:miter;stroke-opacity:1" />
<path class="bond-5 atom-5 atom-6" d="M 270.9,370.5 L 280.8,377.4" style="fill:none;fill-rule:evenodd;stroke:#000000;stroke-width:2.0px;stroke-linecap:butt;stroke-linejoin:miter;stroke-opacity:1" />
<path class="bond-5 atom-5 atom-6" d="M 280.8,377.4 L 290.6,384.4" style="fill:none;fill-rule:evenodd;stroke:#CCCC00;stroke-width:2.0px;stroke-linecap:butt;stroke-linejoin:miter;stroke-opacity:1" />
<path class="bond-6 atom-5 atom-7" d="M 270.9,370.5 L 241.3,370.8" style="fill:none;fill-rule:evenodd;stroke:#000000;stroke-width:2.0px;stroke-linecap:butt;stroke-linejoin:miter;stroke-opacity:1" />
<path class="bond-7 atom-7 atom-8" d="M 241.3,370.8 L 231.9,342.8" style="fill:none;fill-rule:evenodd;stroke:#000000;stroke-width:2.0px;stroke-linecap:butt;stroke-linejoin:miter;stroke-opacity:1" />
<path class="bond-7 atom-7 atom-8" d="M 236.1,369.2 L 228.7,347.3" style="fill:none;fill-rule:evenodd;stroke:#000000;stroke-width:2.0px;stroke-linecap:butt;stroke-linejoin:miter;stroke-opacity:1" />
<path class="bond-8 atom-8 atom-9" d="M 231.9,342.8 L 202.3,343.2" style="fill:none;fill-rule:evenodd;stroke:#000000;stroke-width:2.0px;stroke-linecap:butt;stroke-linejoin:miter;stroke-opacity:1" />
<path class="bond-9 atom-9 atom-10" d="M 202.3,343.2 L 193.5,371.4" style="fill:none;fill-rule:evenodd;stroke:#000000;stroke-width:2.0px;stroke-linecap:butt;stroke-linejoin:miter;stroke-opacity:1" />
<path class="bond-9 atom-9 atom-10" d="M 205.6,347.6 L 198.7,369.6" style="fill:none;fill-rule:evenodd;stroke:#000000;stroke-width:2.0px;stroke-linecap:butt;stroke-linejoin:miter;stroke-opacity:1" />
<path class="bond-10 atom-10 atom-11" d="M 193.5,371.4 L 203.4,378.4" style="fill:none;fill-rule:evenodd;stroke:#000000;stroke-width:2.0px;stroke-linecap:butt;stroke-linejoin:miter;stroke-opacity:1" />
<path class="bond-10 atom-10 atom-11" d="M 203.4,378.4 L 213.2,385.4" style="fill:none;fill-rule:evenodd;stroke:#CCCC00;stroke-width:2.0px;stroke-linecap:butt;stroke-linejoin:miter;stroke-opacity:1" />
<path class="bond-11 atom-10 atom-12" d="M 193.5,371.4 L 164.7,377.9" style="fill:none;fill-rule:evenodd;stroke:#000000;stroke-width:2.0px;stroke-linecap:butt;stroke-linejoin:miter;stroke-opacity:1" />
<path class="bond-13 atom-12 atom-14" d="M 164.7,377.9 L 144.6,356.2" style="fill:none;fill-rule:evenodd;stroke:#000000;stroke-width:2.0px;stroke-linecap:butt;stroke-linejoin:miter;stroke-opacity:1" />
<path class="bond-13 atom-12 atom-14" d="M 166.2,373.0 L 149.6,355.0" style="fill:none;fill-rule:evenodd;stroke:#000000;stroke-width:2.0px;stroke-linecap:butt;stroke-linejoin:miter;stroke-opacity:1" />
<path class="bond-14 atom-14 atom-15" d="M 144.6,356.2 L 153.4,327.9" style="fill:none;fill-rule:evenodd;stroke:#000000;stroke-width:2.0px;stroke-linecap:butt;stroke-linejoin:miter;stroke-opacity:1" />
<path class="bond-15 atom-15 atom-16" d="M 153.4,327.9 L 143.6,321.0" style="fill:none;fill-rule:evenodd;stroke:#000000;stroke-width:2.0px;stroke-linecap:butt;stroke-linejoin:miter;stroke-opacity:1" />
<path class="bond-15 atom-15 atom-16" d="M 143.6,321.0 L 133.7,314.0" style="fill:none;fill-rule:evenodd;stroke:#CCCC00;stroke-width:2.0px;stroke-linecap:butt;stroke-linejoin:miter;stroke-opacity:1" />
<path class="bond-16 atom-16 atom-17" d="M 124.9,314.2 L 115.2,321.3" style="fill:none;fill-rule:evenodd;stroke:#CCCC00;stroke-width:2.0px;stroke-linecap:butt;stroke-linejoin:miter;stroke-opacity:1" />
<path class="bond-16 atom-16 atom-17" d="M 115.2,321.3 L 105.6,328.5" style="fill:none;fill-rule:evenodd;stroke:#000000;stroke-width:2.0px;stroke-linecap:butt;stroke-linejoin:miter;stroke-opacity:1" />
<path class="bond-17 atom-17 atom-18" d="M 105.6,328.5 L 115.1,356.5" style="fill:none;fill-rule:evenodd;stroke:#000000;stroke-width:2.0px;stroke-linecap:butt;stroke-linejoin:miter;stroke-opacity:1" />
<path class="bond-17 atom-17 atom-18" d="M 110.8,330.2 L 118.2,352.1" style="fill:none;fill-rule:evenodd;stroke:#000000;stroke-width:2.0px;stroke-linecap:butt;stroke-linejoin:miter;stroke-opacity:1" />
<path class="bond-18 atom-18 atom-19" d="M 115.1,356.5 L 91.4,374.2" style="fill:none;fill-rule:evenodd;stroke:#000000;stroke-width:2.0px;stroke-linecap:butt;stroke-linejoin:miter;stroke-opacity:1" />
<path class="bond-21 atom-19 atom-22" d="M 91.4,374.2 L 67.3,357.1" style="fill:none;fill-rule:evenodd;stroke:#000000;stroke-width:2.0px;stroke-linecap:butt;stroke-linejoin:miter;stroke-opacity:1" />
<path class="bond-22 atom-22 atom-23" d="M 67.3,357.1 L 76.0,328.9" style="fill:none;fill-rule:evenodd;stroke:#000000;stroke-width:2.0px;stroke-linecap:butt;stroke-linejoin:miter;stroke-opacity:1" />
<path class="bond-22 atom-22 atom-23" d="M 64.0,352.7 L 70.9,330.6" style="fill:none;fill-rule:evenodd;stroke:#000000;stroke-width:2.0px;stroke-linecap:butt;stroke-linejoin:miter;stroke-opacity:1" />
<path class="bond-23 atom-23 atom-24" d="M 76.0,328.9 L 66.2,321.9" style="fill:none;fill-rule:evenodd;stroke:#000000;stroke-width:2.0px;stroke-linecap:butt;stroke-linejoin:miter;stroke-opacity:1" />
<path class="bond-23 atom-23 atom-24" d="M 66.2,321.9 L 56.3,314.9" style="fill:none;fill-rule:evenodd;stroke:#CCCC00;stroke-width:2.0px;stroke-linecap:butt;stroke-linejoin:miter;stroke-opacity:1" />
<path class="bond-24 atom-24 atom-25" d="M 47.5,315.1 L 37.9,322.3" style="fill:none;fill-rule:evenodd;stroke:#CCCC00;stroke-width:2.0px;stroke-linecap:butt;stroke-linejoin:miter;stroke-opacity:1" />
<path class="bond-24 atom-24 atom-25" d="M 37.9,322.3 L 28.2,329.5" style="fill:none;fill-rule:evenodd;stroke:#000000;stroke-width:2.0px;stroke-linecap:butt;stroke-linejoin:miter;stroke-opacity:1" />
<path class="bond-26 atom-25 atom-27" d="M 28.2,329.5 L 37.7,357.5" style="fill:none;fill-rule:evenodd;stroke:#000000;stroke-width:2.0px;stroke-linecap:butt;stroke-linejoin:miter;stroke-opacity:1" />
<path class="bond-26 atom-25 atom-27" d="M 33.5,331.1 L 40.9,353.0" style="fill:none;fill-rule:evenodd;stroke:#000000;stroke-width:2.0px;stroke-linecap:butt;stroke-linejoin:miter;stroke-opacity:1" />
<path class="bond-28 atom-15 atom-29" d="M 153.4,327.9 L 182.3,321.5" style="fill:none;fill-rule:evenodd;stroke:#000000;stroke-width:2.0px;stroke-linecap:butt;stroke-linejoin:miter;stroke-opacity:1" />
<path class="bond-28 atom-15 atom-29" d="M 156.9,331.7 L 180.7,326.3" style="fill:none;fill-rule:evenodd;stroke:#000000;stroke-width:2.0px;stroke-linecap:butt;stroke-linejoin:miter;stroke-opacity:1" />
<path class="bond-30 atom-8 atom-31" d="M 231.9,342.8 L 255.6,325.2" style="fill:none;fill-rule:evenodd;stroke:#000000;stroke-width:2.0px;stroke-linecap:butt;stroke-linejoin:miter;stroke-opacity:1" />
<path class="bond-33 atom-6 atom-1" d="M 299.4,384.3 L 309.1,377.1" style="fill:none;fill-rule:evenodd;stroke:#CCCC00;stroke-width:2.0px;stroke-linecap:butt;stroke-linejoin:miter;stroke-opacity:1" />
<path class="bond-33 atom-6 atom-1" d="M 309.1,377.1 L 318.7,369.9" style="fill:none;fill-rule:evenodd;stroke:#000000;stroke-width:2.0px;stroke-linecap:butt;stroke-linejoin:miter;stroke-opacity:1" />
<path class="bond-34 atom-11 atom-7" d="M 222.1,385.2 L 231.7,378.0" style="fill:none;fill-rule:evenodd;stroke:#CCCC00;stroke-width:2.0px;stroke-linecap:butt;stroke-linejoin:miter;stroke-opacity:1" />
<path class="bond-34 atom-11 atom-7" d="M 231.7,378.0 L 241.3,370.8" style="fill:none;fill-rule:evenodd;stroke:#000000;stroke-width:2.0px;stroke-linecap:butt;stroke-linejoin:miter;stroke-opacity:1" />
<path class="bond-35 atom-18 atom-14" d="M 115.1,356.5 L 144.6,356.2" style="fill:none;fill-rule:evenodd;stroke:#000000;stroke-width:2.0px;stroke-linecap:butt;stroke-linejoin:miter;stroke-opacity:1" />
<path class="bond-36 atom-27 atom-22" d="M 37.7,357.5 L 67.3,357.1" style="fill:none;fill-rule:evenodd;stroke:#000000;stroke-width:2.0px;stroke-linecap:butt;stroke-linejoin:miter;stroke-opacity:1" />
<path class="bond-37 atom-31 atom-4" d="M 255.6,325.2 L 279.7,342.2" style="fill:none;fill-rule:evenodd;stroke:#000000;stroke-width:2.0px;stroke-linecap:butt;stroke-linejoin:miter;stroke-opacity:1" />
<path class="bond-38 atom-29 atom-9" d="M 182.3,321.5 L 202.3,343.2" style="fill:none;fill-rule:evenodd;stroke:#000000;stroke-width:2.0px;stroke-linecap:butt;stroke-linejoin:miter;stroke-opacity:1" />
<path class="bond-39 atom-23 atom-17" d="M 76.0,328.9 L 105.6,328.5" style="fill:none;fill-rule:evenodd;stroke:#000000;stroke-width:2.0px;stroke-linecap:butt;stroke-linejoin:miter;stroke-opacity:1" />
<path class="atom-6" d="M 291.6 389.1 L 293.2 388.9 Q 293.4 389.8, 293.9 390.2 Q 294.3 390.6, 295.1 390.6 Q 295.9 390.6, 296.3 390.2 Q 296.8 389.9, 296.8 389.4 Q 296.8 389.1, 296.6 388.9 Q 296.4 388.7, 296.0 388.5 Q 295.7 388.4, 294.6 388.1 Q 293.2 387.8, 292.7 387.3 Q 291.9 386.6, 291.9 385.6 Q 291.9 385.0, 292.3 384.4 Q 292.6 383.8, 293.3 383.5 Q 294.0 383.2, 295.0 383.2 Q 296.6 383.2, 297.4 383.9 Q 298.2 384.6, 298.2 385.8 L 296.5 385.9 Q 296.4 385.2, 296.0 384.9 Q 295.7 384.7, 295.0 384.7 Q 294.2 384.7, 293.8 385.0 Q 293.5 385.2, 293.5 385.5 Q 293.5 385.8, 293.8 386.0 Q 294.1 386.3, 295.4 386.6 Q 296.6 386.9, 297.2 387.2 Q 297.8 387.5, 298.1 388.0 Q 298.5 388.6, 298.5 389.4 Q 298.5 390.1, 298.1 390.7 Q 297.7 391.4, 296.9 391.7 Q 296.2 392.0, 295.1 392.0 Q 293.5 392.0, 292.6 391.3 Q 291.8 390.5, 291.6 389.1 " fill="#CCCC00" />
<path class="atom-11" d="M 214.2 390.0 L 215.9 389.9 Q 216.0 390.7, 216.5 391.1 Q 216.9 391.5, 217.7 391.5 Q 218.5 391.5, 219.0 391.1 Q 219.4 390.8, 219.4 390.3 Q 219.4 390.0, 219.2 389.8 Q 219.0 389.6, 218.6 389.5 Q 218.3 389.3, 217.2 389.1 Q 215.8 388.7, 215.3 388.2 Q 214.5 387.5, 214.5 386.5 Q 214.5 385.9, 214.9 385.3 Q 215.2 384.8, 215.9 384.5 Q 216.6 384.2, 217.6 384.2 Q 219.2 384.2, 220.0 384.9 Q 220.8 385.6, 220.8 386.7 L 219.1 386.8 Q 219.0 386.2, 218.7 385.9 Q 218.3 385.6, 217.6 385.6 Q 216.8 385.6, 216.4 385.9 Q 216.1 386.1, 216.1 386.4 Q 216.1 386.7, 216.4 386.9 Q 216.7 387.2, 218.0 387.5 Q 219.2 387.8, 219.8 388.1 Q 220.4 388.4, 220.7 389.0 Q 221.1 389.5, 221.1 390.3 Q 221.1 391.1, 220.7 391.7 Q 220.3 392.3, 219.5 392.6 Q 218.8 392.9, 217.7 392.9 Q 216.1 392.9, 215.2 392.2 Q 214.4 391.5, 214.2 390.0 " fill="#CCCC00" />
<path class="atom-16" d="M 125.9 312.4 L 127.5 312.2 Q 127.7 313.1, 128.1 313.5 Q 128.6 313.9, 129.4 313.9 Q 130.2 313.9, 130.6 313.5 Q 131.0 313.2, 131.0 312.7 Q 131.0 312.4, 130.9 312.2 Q 130.7 312.0, 130.3 311.8 Q 130.0 311.7, 128.9 311.5 Q 127.5 311.1, 127.0 310.6 Q 126.2 309.9, 126.2 308.9 Q 126.2 308.3, 126.5 307.7 Q 126.9 307.1, 127.6 306.9 Q 128.3 306.6, 129.3 306.6 Q 130.9 306.6, 131.7 307.3 Q 132.5 308.0, 132.5 309.1 L 130.8 309.2 Q 130.7 308.5, 130.3 308.3 Q 130.0 308.0, 129.2 308.0 Q 128.5 308.0, 128.1 308.3 Q 127.8 308.5, 127.8 308.8 Q 127.8 309.1, 128.1 309.3 Q 128.4 309.6, 129.6 309.9 Q 130.9 310.2, 131.5 310.5 Q 132.1 310.8, 132.4 311.4 Q 132.8 311.9, 132.8 312.7 Q 132.8 313.4, 132.3 314.1 Q 131.9 314.7, 131.2 315.0 Q 130.5 315.3, 129.4 315.3 Q 127.8 315.3, 126.9 314.6 Q 126.0 313.8, 125.9 312.4 " fill="#CCCC00" />
<path class="atom-24" d="M 48.5 313.3 L 50.1 313.2 Q 50.3 314.0, 50.8 314.4 Q 51.2 314.8, 52.0 314.8 Q 52.8 314.8, 53.2 314.5 Q 53.7 314.1, 53.7 313.6 Q 53.7 313.3, 53.5 313.1 Q 53.3 312.9, 52.9 312.8 Q 52.6 312.7, 51.5 312.4 Q 50.1 312.1, 49.6 311.6 Q 48.8 310.9, 48.8 309.9 Q 48.8 309.2, 49.2 308.6 Q 49.5 308.1, 50.2 307.8 Q 50.9 307.5, 51.9 307.5 Q 53.5 307.5, 54.3 308.2 Q 55.1 308.9, 55.1 310.1 L 53.4 310.1 Q 53.3 309.5, 52.9 309.2 Q 52.6 308.9, 51.9 308.9 Q 51.1 308.9, 50.7 309.2 Q 50.4 309.4, 50.4 309.7 Q 50.4 310.0, 50.7 310.3 Q 51.0 310.5, 52.2 310.8 Q 53.5 311.1, 54.1 311.4 Q 54.7 311.7, 55.0 312.3 Q 55.4 312.8, 55.4 313.6 Q 55.4 314.4, 55.0 315.0 Q 54.6 315.6, 53.8 315.9 Q 53.1 316.3, 52.0 316.3 Q 50.4 316.3, 49.5 315.5 Q 48.7 314.8, 48.5 313.3 " fill="#CCCC00" />
</svg>