<?xml version='1.0' encoding='iso-8859-1'?>
<svg xmlns="http://www.w3.org/2000/svg" version="1.1" baseProfile="full" xml:space="preserve" width="303" height="81" viewBox="27 304 303 81">

<rect style="opacity:1.0;fill:#FFFFFF;stroke:none" width="512.0" height="512.0" x="0.0" y="0.0"> </rect>
<path class="bond-1 atom-1 atom-2" d="M 328.1,351.0 L 319.0,322.8" style="fill:none;fill-rule:evenodd;stroke:#000000;stroke-width:2.0px;stroke-linecap:butt;stroke-linejoin:miter;stroke-opacity:1" />
<path class="bond-1 atom-1 atom-2" d="M 322.9,349.3 L 315.8,327.3" style="fill:none;fill-rule:evenodd;stroke:#000000;stroke-width:2.0px;stroke-linecap:butt;stroke-linejoin:miter;stroke-opacity:1" />
<path class="bond-3 atom-2 atom-4" d="M 319.0,322.8 L 289.4,322.8" style="fill:none;fill-rule:evenodd;stroke:#000000;stroke-width:2.0px;stroke-linecap:butt;stroke-linejoin:miter;stroke-opacity:1" />
<path class="bond-4 atom-4 atom-5" d="M 289.4,322.8 L 280.3,351.0" style="fill:none;fill-rule:evenodd;stroke:#000000;stroke-width:2.0px;stroke-linecap:butt;stroke-linejoin:miter;stroke-opacity:1" />
<path class="bond-4 atom-4 atom-5" d="M 292.6,327.3 L 285.5,349.3" style="fill:none;fill-rule:evenodd;stroke:#000000;stroke-width:2.0px;stroke-linecap:butt;stroke-linejoin:miter;stroke-opacity:1" />
<path class="bond-5 atom-5 atom-6" d="M 280.3,351.0 L 290.0,358.0" style="fill:none;fill-rule:evenodd;stroke:#000000;stroke-width:2.0px;stroke-linecap:butt;stroke-linejoin:miter;stroke-opacity:1" />
<path class="bond-5 atom-5 atom-6" d="M 290.0,358.0 L 299.8,365.1" style="fill:none;fill-rule:evenodd;stroke:#CCCC00;stroke-width:2.0px;stroke-linecap:butt;stroke-linejoin:miter;stroke-opacity:1" />
<path class="bond-6 atom-5 atom-7" d="M 280.3,351.0 L 250.7,351.0" style="fill:none;fill-rule:evenodd;stroke:#000000;stroke-width:2.0px;stroke-linecap:butt;stroke-linejoin:miter;stroke-opacity:1" />
<path class="bond-7 atom-7 atom-8" d="M 250.7,351.0 L 230.9,372.9" style="fill:none;fill-rule:evenodd;stroke:#000000;stroke-width:2.0px;stroke-linecap:butt;stroke-linejoin:miter;stroke-opacity:1" />
<path class="bond-7 atom-7 atom-8" d="M 245.7,349.9 L 229.4,368.0" style="fill:none;fill-rule:evenodd;stroke:#000000;stroke-width:2.0px;stroke-linecap:butt;stroke-linejoin:miter;stroke-opacity:1" />
<path class="bond-9 atom-8 atom-10" d="M 230.9,372.9 L 202.0,366.8" style="fill:none;fill-rule:evenodd;stroke:#000000;stroke-width:2.0px;stroke-linecap:butt;stroke-linejoin:miter;stroke-opacity:1" />
<path class="bond-10 atom-10 atom-11" d="M 202.0,366.8 L 192.9,338.7" style="fill:none;fill-rule:evenodd;stroke:#000000;stroke-width:2.0px;stroke-linecap:butt;stroke-linejoin:miter;stroke-opacity:1" />
<path class="bond-10 atom-10 atom-11" d="M 205.5,363.0 L 197.9,339.7" style="fill:none;fill-rule:evenodd;stroke:#000000;stroke-width:2.0px;stroke-linecap:butt;stroke-linejoin:miter;stroke-opacity:1" />
<path class="bond-11 atom-11 atom-12" d="M 192.9,338.7 L 163.3,338.7" style="fill:none;fill-rule:evenodd;stroke:#000000;stroke-width:2.0px;stroke-linecap:butt;stroke-linejoin:miter;stroke-opacity:1" />
<path class="bond-12 atom-12 atom-13" d="M 163.3,338.7 L 154.2,366.8" style="fill:none;fill-rule:evenodd;stroke:#000000;stroke-width:2.0px;stroke-linecap:butt;stroke-linejoin:miter;stroke-opacity:1" />
<path class="bond-12 atom-12 atom-13" d="M 158.3,339.7 L 150.8,363.0" style="fill:none;fill-rule:evenodd;stroke:#000000;stroke-width:2.0px;stroke-linecap:butt;stroke-linejoin:miter;stroke-opacity:1" />
<path class="bond-13 atom-13 atom-14" d="M 154.2,366.8 L 125.3,372.9" style="fill:none;fill-rule:evenodd;stroke:#000000;stroke-width:2.0px;stroke-linecap:butt;stroke-linejoin:miter;stroke-opacity:1" />
<path class="bond-15 atom-14 atom-16" d="M 125.3,372.9 L 105.5,351.0" style="fill:none;fill-rule:evenodd;stroke:#000000;stroke-width:2.0px;stroke-linecap:butt;stroke-linejoin:miter;stroke-opacity:1" />
<path class="bond-15 atom-14 atom-16" d="M 126.9,368.0 L 110.5,349.9" style="fill:none;fill-rule:evenodd;stroke:#000000;stroke-width:2.0px;stroke-linecap:butt;stroke-linejoin:miter;stroke-opacity:1" />
<path class="bond-16 atom-16 atom-17" d="M 105.5,351.0 L 75.9,351.0" style="fill:none;fill-rule:evenodd;stroke:#000000;stroke-width:2.0px;stroke-linecap:butt;stroke-linejoin:miter;stroke-opacity:1" />
<path class="bond-17 atom-17 atom-18" d="M 75.9,351.0 L 66.8,322.8" style="fill:none;fill-rule:evenodd;stroke:#000000;stroke-width:2.0px;stroke-linecap:butt;stroke-linejoin:miter;stroke-opacity:1" />
<path class="bond-17 atom-17 atom-18" d="M 70.7,349.3 L 63.6,327.3" style="fill:none;fill-rule:evenodd;stroke:#000000;stroke-width:2.0px;stroke-linecap:butt;stroke-linejoin:miter;stroke-opacity:1" />
<path class="bond-18 atom-18 atom-19" d="M 66.8,322.8 L 37.2,322.8" style="fill:none;fill-rule:evenodd;stroke:#000000;stroke-width:2.0px;stroke-linecap:butt;stroke-linejoin:miter;stroke-opacity:1" />
<path class="bond-20 atom-19 atom-21" d="M 37.2,322.8 L 28.1,351.0" style="fill:none;fill-rule:evenodd;stroke:#000000;stroke-width:2.0px;stroke-linecap:butt;stroke-linejoin:miter;stroke-opacity:1" />
<path class="bond-20 atom-19 atom-21" d="M 40.5,327.3 L 33.3,349.3" style="fill:none;fill-rule:evenodd;stroke:#000000;stroke-width:2.0px;stroke-linecap:butt;stroke-linejoin:miter;stroke-opacity:1" />
<path class="bond-22 atom-21 atom-23" d="M 28.1,351.0 L 37.9,358.0" style="fill:none;fill-rule:evenodd;stroke:#000000;stroke-width:2.0px;stroke-linecap:butt;stroke-linejoin:miter;stroke-opacity:1" />
<path class="bond-22 atom-21 atom-23" d="M 37.9,358.0 L 47.6,365.1" style="fill:none;fill-rule:evenodd;stroke:#CCCC00;stroke-width:2.0px;stroke-linecap:butt;stroke-linejoin:miter;stroke-opacity:1" />
<path class="bond-23 atom-18 atom-24" d="M 66.8,322.8 L 90.7,305.5" style="fill:none;fill-rule:evenodd;stroke:#000000;stroke-width:2.0px;stroke-linecap:butt;stroke-linejoin:miter;stroke-opacity:1" />
<path class="bond-26 atom-24 atom-27" d="M 90.7,305.5 L 114.6,322.8" style="fill:none;fill-rule:evenodd;stroke:#000000;stroke-width:2.0px;stroke-linecap:butt;stroke-linejoin:miter;stroke-opacity:1" />
<path class="bond-27 atom-27 atom-28" d="M 114.6,322.8 L 143.6,316.7" style="fill:none;fill-rule:evenodd;stroke:#000000;stroke-width:2.0px;stroke-linecap:butt;stroke-linejoin:miter;stroke-opacity:1" />
<path class="bond-27 atom-27 atom-28" d="M 118.1,326.6 L 142.0,321.6" style="fill:none;fill-rule:evenodd;stroke:#000000;stroke-width:2.0px;stroke-linecap:butt;stroke-linejoin:miter;stroke-opacity:1" />
<path class="bond-29 atom-13 atom-30" d="M 154.2,366.8 L 178.1,384.1" style="fill:none;fill-rule:evenodd;stroke:#000000;stroke-width:2.0px;stroke-linecap:butt;stroke-linejoin:miter;stroke-opacity:1" />
<path class="bond-32 atom-11 atom-33" d="M 192.9,338.7 L 212.7,316.7" style="fill:none;fill-rule:evenodd;stroke:#000000;stroke-width:2.0px;stroke-linecap:butt;stroke-linejoin:miter;stroke-opacity:1" />
<path class="bond-34 atom-33 atom-35" d="M 212.7,316.7 L 241.6,322.8" style="fill:none;fill-rule:evenodd;stroke:#000000;stroke-width:2.0px;stroke-linecap:butt;stroke-linejoin:miter;stroke-opacity:1" />
<path class="bond-34 atom-33 atom-35" d="M 214.3,321.6 L 238.2,326.6" style="fill:none;fill-rule:evenodd;stroke:#000000;stroke-width:2.0px;stroke-linecap:butt;stroke-linejoin:miter;stroke-opacity:1" />
<path class="bond-35 atom-35 atom-36" d="M 241.6,322.8 L 265.5,305.5" style="fill:none;fill-rule:evenodd;stroke:#000000;stroke-width:2.0px;stroke-linecap:butt;stroke-linejoin:miter;stroke-opacity:1" />
<path class="bond-38 atom-6 atom-1" d="M 308.6,365.1 L 318.4,358.0" style="fill:none;fill-rule:evenodd;stroke:#CCCC00;stroke-width:2.0px;stroke-linecap:butt;stroke-linejoin:miter;stroke-opacity:1" />
<path class="bond-38 atom-6 atom-1" d="M 318.4,358.0 L 328.1,351.0" style="fill:none;fill-rule:evenodd;stroke:#000000;stroke-width:2.0px;stroke-linecap:butt;stroke-linejoin:miter;stroke-opacity:1" />
<path class="bond-39 atom-35 atom-7" d="M 241.6,322.8 L 250.7,351.0" style="fill:none;fill-rule:evenodd;stroke:#000000;stroke-width:2.0px;stroke-linecap:butt;stroke-linejoin:miter;stroke-opacity:1" />
<path class="bond-40 atom-36 atom-4" d="M 265.5,305.5 L 289.4,322.8" style="fill:none;fill-rule:evenodd;stroke:#000000;stroke-width:2.0px;stroke-linecap:butt;stroke-linejoin:miter;stroke-opacity:1" />
<path class="bond-41 atom-30 atom-10" d="M 178.1,384.1 L 202.0,366.8" style="fill:none;fill-rule:evenodd;stroke:#000000;stroke-width:2.0px;stroke-linecap:butt;stroke-linejoin:miter;stroke-opacity:1" />
<path class="bond-42 atom-28 atom-12" d="M 143.6,316.7 L 163.3,338.7" style="fill:none;fill-rule:evenodd;stroke:#000000;stroke-width:2.0px;stroke-linecap:butt;stroke-linejoin:miter;stroke-opacity:1" />
<path class="bond-43 atom-27 atom-16" d="M 114.6,322.8 L 105.5,351.0" style="fill:none;fill-rule:evenodd;stroke:#000000;stroke-width:2.0px;stroke-linecap:butt;stroke-linejoin:miter;stroke-opacity:1" />
<path class="bond-44 atom-23 atom-17" d="M 56.4,365.1 L 66.2,358.0" style="fill:none;fill-rule:evenodd;stroke:#CCCC00;stroke-width:2.0px;stroke-linecap:butt;stroke-linejoin:miter;stroke-opacity:1" />
<path class="bond-44 atom-23 atom-17" d="M 66.2,358.0 L 75.9,351.0" style="fill:none;fill-rule:evenodd;stroke:#000000;stroke-width:2.0px;stroke-linecap:butt;stroke-linejoin:miter;stroke-opacity:1" />
<path class="atom-6" d="M 300.8 369.9 L 302.4 369.7 Q 302.6 370.6, 303.0 370.9 Q 303.5 371.3, 304.3 371.3 Q 305.1 371.3, 305.5 371.0 Q 305.9 370.6, 305.9 370.2 Q 305.9 369.9, 305.7 369.7 Q 305.6 369.4, 305.1 369.3 Q 304.8 369.2, 303.8 368.9 Q 302.4 368.6, 301.8 368.1 Q 301.1 367.4, 301.1 366.4 Q 301.1 365.7, 301.4 365.2 Q 301.8 364.6, 302.5 364.3 Q 303.2 364.0, 304.2 364.0 Q 305.7 364.0, 306.5 364.7 Q 307.4 365.4, 307.4 366.6 L 305.7 366.7 Q 305.6 366.0, 305.2 365.7 Q 304.9 365.4, 304.1 365.4 Q 303.4 365.4, 303.0 365.7 Q 302.7 365.9, 302.7 366.3 Q 302.7 366.6, 302.9 366.8 Q 303.3 367.1, 304.5 367.3 Q 305.8 367.6, 306.4 368.0 Q 307.0 368.3, 307.3 368.8 Q 307.6 369.4, 307.6 370.2 Q 307.6 370.9, 307.2 371.5 Q 306.8 372.2, 306.1 372.5 Q 305.4 372.8, 304.2 372.8 Q 302.6 372.8, 301.8 372.0 Q 300.9 371.3, 300.8 369.9 " fill="#CCCC00" />
<path class="atom-23" d="M 48.6 369.9 L 50.3 369.7 Q 50.4 370.6, 50.9 370.9 Q 51.3 371.3, 52.1 371.3 Q 52.9 371.3, 53.3 371.0 Q 53.8 370.6, 53.8 370.2 Q 53.8 369.9, 53.6 369.7 Q 53.4 369.4, 53.0 369.3 Q 52.7 369.2, 51.6 368.9 Q 50.2 368.6, 49.7 368.1 Q 48.9 367.4, 48.9 366.4 Q 48.9 365.7, 49.3 365.2 Q 49.6 364.6, 50.3 364.3 Q 51.0 364.0, 52.0 364.0 Q 53.6 364.0, 54.4 364.7 Q 55.2 365.4, 55.2 366.6 L 53.5 366.7 Q 53.4 366.0, 53.0 365.7 Q 52.7 365.4, 52.0 365.4 Q 51.2 365.4, 50.8 365.7 Q 50.5 365.9, 50.5 366.3 Q 50.5 366.6, 50.8 366.8 Q 51.1 367.1, 52.4 367.3 Q 53.6 367.6, 54.2 368.0 Q 54.8 368.3, 55.1 368.8 Q 55.5 369.4, 55.5 370.2 Q 55.5 370.9, 55.1 371.5 Q 54.7 372.2, 53.9 372.5 Q 53.2 372.8, 52.1 372.8 Q 50.5 372.8, 49.6 372.0 Q 48.8 371.3, 48.6 369.9 " fill="#CCCC00" />
</svg>