<?xml version='1.0' encoding='iso-8859-1'?>
<svg xmlns="http://www.w3.org/2000/svg" version="1.1" baseProfile="full" xml:space="preserve" width="428" height="114" viewBox="43 199 428 114">

<rect style="opacity:1.0;fill:#FFFFFF;stroke:none" width="512.0" height="512.0" x="0.0" y="0.0"> </rect>
<path class="bond-1 atom-1 atom-2" d="M 470.0,264.5 L 457.1,224.7" style="fill:none;fill-rule:evenodd;stroke:#000000;stroke-width:2.0px;stroke-linecap:butt;stroke-linejoin:miter;stroke-opacity:1" />
<path class="bond-1 atom-1 atom-2" d="M 462.6,262.1 L 452.5,230.9" style="fill:none;fill-rule:evenodd;stroke:#000000;stroke-width:2.0px;stroke-linecap:butt;stroke-linejoin:miter;stroke-opacity:1" />
<path class="bond-3 atom-2 atom-4" d="M 457.1,224.7 L 415.1,224.7" style="fill:none;fill-rule:evenodd;stroke:#000000;stroke-width:2.0px;stroke-linecap:butt;stroke-linejoin:miter;stroke-opacity:1" />
<path class="bond-4 atom-4 atom-5" d="M 415.1,224.7 L 402.2,264.5" style="fill:none;fill-rule:evenodd;stroke:#000000;stroke-width:2.0px;stroke-linecap:butt;stroke-linejoin:miter;stroke-opacity:1" />
<path class="bond-4 atom-4 atom-5" d="M 419.7,230.9 L 409.6,262.1" style="fill:none;fill-rule:evenodd;stroke:#000000;stroke-width:2.0px;stroke-linecap:butt;stroke-linejoin:miter;stroke-opacity:1" />
<path class="bond-5 atom-5 atom-6" d="M 402.2,264.5 L 414.1,273.2" style="fill:none;fill-rule:evenodd;stroke:#000000;stroke-width:2.0px;stroke-linecap:butt;stroke-linejoin:miter;stroke-opacity:1" />
<path class="bond-5 atom-5 atom-6" d="M 414.1,273.2 L 426.0,281.8" style="fill:none;fill-rule:evenodd;stroke:#CCCC00;stroke-width:2.0px;stroke-linecap:butt;stroke-linejoin:miter;stroke-opacity:1" />
<path class="bond-6 atom-5 atom-7" d="M 402.2,264.5 L 360.2,264.5" style="fill:none;fill-rule:evenodd;stroke:#000000;stroke-width:2.0px;stroke-linecap:butt;stroke-linejoin:miter;stroke-opacity:1" />
<path class="bond-7 atom-7 atom-8" d="M 360.2,264.5 L 332.2,295.7" style="fill:none;fill-rule:evenodd;stroke:#000000;stroke-width:2.0px;stroke-linecap:butt;stroke-linejoin:miter;stroke-opacity:1" />
<path class="bond-7 atom-7 atom-8" d="M 353.1,263.0 L 329.9,288.8" style="fill:none;fill-rule:evenodd;stroke:#000000;stroke-width:2.0px;stroke-linecap:butt;stroke-linejoin:miter;stroke-opacity:1" />
<path class="bond-9 atom-8 atom-10" d="M 332.2,295.7 L 291.2,287.0" style="fill:none;fill-rule:evenodd;stroke:#000000;stroke-width:2.0px;stroke-linecap:butt;stroke-linejoin:miter;stroke-opacity:1" />
<path class="bond-10 atom-10 atom-11" d="M 291.2,287.0 L 278.2,247.1" style="fill:none;fill-rule:evenodd;stroke:#000000;stroke-width:2.0px;stroke-linecap:butt;stroke-linejoin:miter;stroke-opacity:1" />
<path class="bond-10 atom-10 atom-11" d="M 296.0,281.6 L 285.3,248.6" style="fill:none;fill-rule:evenodd;stroke:#000000;stroke-width:2.0px;stroke-linecap:butt;stroke-linejoin:miter;stroke-opacity:1" />
<path class="bond-11 atom-11 atom-12" d="M 278.2,247.1 L 236.3,247.1" style="fill:none;fill-rule:evenodd;stroke:#000000;stroke-width:2.0px;stroke-linecap:butt;stroke-linejoin:miter;stroke-opacity:1" />
<path class="bond-12 atom-12 atom-13" d="M 236.3,247.1 L 223.3,287.0" style="fill:none;fill-rule:evenodd;stroke:#000000;stroke-width:2.0px;stroke-linecap:butt;stroke-linejoin:miter;stroke-opacity:1" />
<path class="bond-12 atom-12 atom-13" d="M 229.2,248.6 L 218.5,281.6" style="fill:none;fill-rule:evenodd;stroke:#000000;stroke-width:2.0px;stroke-linecap:butt;stroke-linejoin:miter;stroke-opacity:1" />
<path class="bond-13 atom-13 atom-14" d="M 223.3,287.0 L 182.3,295.7" style="fill:none;fill-rule:evenodd;stroke:#000000;stroke-width:2.0px;stroke-linecap:butt;stroke-linejoin:miter;stroke-opacity:1" />
<path class="bond-15 atom-14 atom-16" d="M 182.3,295.7 L 154.2,264.5" style="fill:none;fill-rule:evenodd;stroke:#000000;stroke-width:2.0px;stroke-linecap:butt;stroke-linejoin:miter;stroke-opacity:1" />
<path class="bond-15 atom-14 atom-16" d="M 184.6,288.8 L 161.4,263.0" style="fill:none;fill-rule:evenodd;stroke:#000000;stroke-width:2.0px;stroke-linecap:butt;stroke-linejoin:miter;stroke-opacity:1" />
<path class="bond-16 atom-16 atom-17" d="M 154.2,264.5 L 112.3,264.5" style="fill:none;fill-rule:evenodd;stroke:#000000;stroke-width:2.0px;stroke-linecap:butt;stroke-linejoin:miter;stroke-opacity:1" />
<path class="bond-17 atom-17 atom-18" d="M 112.3,264.5 L 99.4,224.7" style="fill:none;fill-rule:evenodd;stroke:#000000;stroke-width:2.0px;stroke-linecap:butt;stroke-linejoin:miter;stroke-opacity:1" />
<path class="bond-17 atom-17 atom-18" d="M 104.9,262.1 L 94.8,230.9" style="fill:none;fill-rule:evenodd;stroke:#000000;stroke-width:2.0px;stroke-linecap:butt;stroke-linejoin:miter;stroke-opacity:1" />
<path class="bond-18 atom-18 atom-19" d="M 99.4,224.7 L 57.4,224.7" style="fill:none;fill-rule:evenodd;stroke:#000000;stroke-width:2.0px;stroke-linecap:butt;stroke-linejoin:miter;stroke-opacity:1" />
<path class="bond-20 atom-19 atom-21" d="M 57.4,224.7 L 44.5,264.5" style="fill:none;fill-rule:evenodd;stroke:#000000;stroke-width:2.0px;stroke-linecap:butt;stroke-linejoin:miter;stroke-opacity:1" />
<path class="bond-20 atom-19 atom-21" d="M 62.0,230.9 L 51.9,262.1" style="fill:none;fill-rule:evenodd;stroke:#000000;stroke-width:2.0px;stroke-linecap:butt;stroke-linejoin:miter;stroke-opacity:1" />
<path class="bond-22 atom-21 atom-23" d="M 44.5,264.5 L 56.4,273.2" style="fill:none;fill-rule:evenodd;stroke:#000000;stroke-width:2.0px;stroke-linecap:butt;stroke-linejoin:miter;stroke-opacity:1" />
<path class="bond-22 atom-21 atom-23" d="M 56.4,273.2 L 68.3,281.8" style="fill:none;fill-rule:evenodd;stroke:#CCCC00;stroke-width:2.0px;stroke-linecap:butt;stroke-linejoin:miter;stroke-opacity:1" />
<path class="bond-23 atom-18 atom-24" d="M 99.4,224.7 L 133.3,200.0" style="fill:none;fill-rule:evenodd;stroke:#000000;stroke-width:2.0px;stroke-linecap:butt;stroke-linejoin:miter;stroke-opacity:1" />
<path class="bond-26 atom-24 atom-27" d="M 133.3,200.0 L 167.2,224.7" style="fill:none;fill-rule:evenodd;stroke:#000000;stroke-width:2.0px;stroke-linecap:butt;stroke-linejoin:miter;stroke-opacity:1" />
<path class="bond-27 atom-27 atom-28" d="M 167.2,224.7 L 208.2,215.9" style="fill:none;fill-rule:evenodd;stroke:#000000;stroke-width:2.0px;stroke-linecap:butt;stroke-linejoin:miter;stroke-opacity:1" />
<path class="bond-27 atom-27 atom-28" d="M 172.1,230.1 L 206.0,222.8" style="fill:none;fill-rule:evenodd;stroke:#000000;stroke-width:2.0px;stroke-linecap:butt;stroke-linejoin:miter;stroke-opacity:1" />
<path class="bond-29 atom-13 atom-30" d="M 223.3,287.0 L 257.2,311.6" style="fill:none;fill-rule:evenodd;stroke:#000000;stroke-width:2.0px;stroke-linecap:butt;stroke-linejoin:miter;stroke-opacity:1" />
<path class="bond-32 atom-11 atom-33" d="M 278.2,247.1 L 306.3,215.9" style="fill:none;fill-rule:evenodd;stroke:#000000;stroke-width:2.0px;stroke-linecap:butt;stroke-linejoin:miter;stroke-opacity:1" />
<path class="bond-34 atom-33 atom-35" d="M 306.3,215.9 L 347.3,224.7" style="fill:none;fill-rule:evenodd;stroke:#000000;stroke-width:2.0px;stroke-linecap:butt;stroke-linejoin:miter;stroke-opacity:1" />
<path class="bond-34 atom-33 atom-35" d="M 308.5,222.8 L 342.4,230.1" style="fill:none;fill-rule:evenodd;stroke:#000000;stroke-width:2.0px;stroke-linecap:butt;stroke-linejoin:miter;stroke-opacity:1" />
<path class="bond-35 atom-35 atom-36" d="M 347.3,224.7 L 381.2,200.0" style="fill:none;fill-rule:evenodd;stroke:#000000;stroke-width:2.0px;stroke-linecap:butt;stroke-linejoin:miter;stroke-opacity:1" />
<path class="bond-38 atom-6 atom-1" d="M 446.2,281.8 L 458.1,273.2" style="fill:none;fill-rule:evenodd;stroke:#CCCC00;stroke-width:2.0px;stroke-linecap:butt;stroke-linejoin:miter;stroke-opacity:1" />
<path class="bond-38 atom-6 atom-1" d="M 458.1,273.2 L 470.0,264.5" style="fill:none;fill-rule:evenodd;stroke:#000000;stroke-width:2.0px;stroke-linecap:butt;stroke-linejoin:miter;stroke-opacity:1" />
<path class="bond-39 atom-35 atom-7" d="M 347.3,224.7 L 360.2,264.5" style="fill:none;fill-rule:evenodd;stroke:#000000;stroke-width:2.0px;stroke-linecap:butt;stroke-linejoin:miter;stroke-opacity:1" />
<path class="bond-40 atom-36 atom-4" d="M 381.2,200.0 L 415.1,224.7" style="fill:none;fill-rule:evenodd;stroke:#000000;stroke-width:2.0px;stroke-linecap:butt;stroke-linejoin:miter;stroke-opacity:1" />
<path class="bond-41 atom-30 atom-10" d="M 257.2,311.6 L 291.2,287.0" style="fill:none;fill-rule:evenodd;stroke:#000000;stroke-width:2.0px;stroke-linecap:butt;stroke-linejoin:miter;stroke-opacity:1" />
<path class="bond-42 atom-28 atom-12" d="M 208.2,215.9 L 236.3,247.1" style="fill:none;fill-rule:evenodd;stroke:#000000;stroke-width:2.0px;stroke-linecap:butt;stroke-linejoin:miter;stroke-opacity:1" />
<path class="bond-43 atom-27 atom-16" d="M 167.2,224.7 L 154.2,264.5" style="fill:none;fill-rule:evenodd;stroke:#000000;stroke-width:2.0px;stroke-linecap:butt;stroke-linejoin:miter;stroke-opacity:1" />
<path class="bond-44 atom-23 atom-17" d="M 88.5,281.8 L 100.4,273.2" style="fill:none;fill-rule:evenodd;stroke:#CCCC00;stroke-width:2.0px;stroke-linecap:butt;stroke-linejoin:miter;stroke-opacity:1" />
<path class="bond-44 atom-23 atom-17" d="M 100.4,273.2 L 112.3,264.5" style="fill:none;fill-rule:evenodd;stroke:#000000;stroke-width:2.0px;stroke-linecap:butt;stroke-linejoin:miter;stroke-opacity:1" />
<path class="atom-6" d="M 427.4 293.1 L 431.6 292.7 Q 432.0 294.8, 433.1 295.8 Q 434.3 296.8, 436.3 296.8 Q 438.4 296.8, 439.4 295.9 Q 440.5 295.0, 440.5 293.9 Q 440.5 293.1, 440.0 292.6 Q 439.6 292.0, 438.5 291.6 Q 437.7 291.4, 435.0 290.7 Q 431.5 289.8, 430.1 288.6 Q 428.2 286.8, 428.2 284.3 Q 428.2 282.6, 429.1 281.2 Q 430.0 279.8, 431.8 279.0 Q 433.5 278.3, 436.0 278.3 Q 440.0 278.3, 442.1 280.0 Q 444.1 281.8, 444.2 284.8 L 439.9 285.0 Q 439.6 283.3, 438.7 282.6 Q 437.8 281.9, 435.9 281.9 Q 434.1 281.9, 433.0 282.6 Q 432.3 283.1, 432.3 284.0 Q 432.3 284.7, 432.9 285.3 Q 433.8 286.0, 436.9 286.7 Q 440.1 287.4, 441.6 288.3 Q 443.1 289.0, 444.0 290.4 Q 444.8 291.8, 444.8 293.8 Q 444.8 295.7, 443.8 297.3 Q 442.8 298.9, 440.9 299.7 Q 439.0 300.5, 436.2 300.5 Q 432.2 300.5, 430.0 298.6 Q 427.8 296.7, 427.4 293.1 " fill="#CCCC00" />
<path class="atom-23" d="M 69.7 293.1 L 73.9 292.7 Q 74.3 294.8, 75.4 295.8 Q 76.6 296.8, 78.6 296.8 Q 80.7 296.8, 81.7 295.9 Q 82.8 295.0, 82.8 293.9 Q 82.8 293.1, 82.3 292.6 Q 81.9 292.0, 80.8 291.6 Q 80.0 291.4, 77.3 290.7 Q 73.8 289.8, 72.4 288.6 Q 70.4 286.8, 70.4 284.3 Q 70.4 282.6, 71.4 281.2 Q 72.3 279.8, 74.0 279.0 Q 75.8 278.3, 78.3 278.3 Q 82.3 278.3, 84.4 280.0 Q 86.4 281.8, 86.5 284.8 L 82.2 285.0 Q 81.9 283.3, 81.0 282.6 Q 80.1 281.9, 78.2 281.9 Q 76.3 281.9, 75.3 282.6 Q 74.6 283.1, 74.6 284.0 Q 74.6 284.7, 75.2 285.3 Q 76.0 286.0, 79.2 286.7 Q 82.4 287.4, 83.9 288.3 Q 85.4 289.0, 86.3 290.4 Q 87.1 291.8, 87.1 293.8 Q 87.1 295.7, 86.1 297.3 Q 85.1 298.9, 83.2 299.7 Q 81.3 300.5, 78.5 300.5 Q 74.4 300.5, 72.3 298.6 Q 70.1 296.7, 69.7 293.1 " fill="#CCCC00" />
</svg>