<?xml version='1.0' encoding='iso-8859-1'?>
<svg xmlns="http://www.w3.org/2000/svg" version="1.1" baseProfile="full" xml:space="preserve" width="242" height="200" viewBox="28 181 242 200">

<rect style="opacity:1.0;fill:#FFFFFF;stroke:none" width="512.0" height="512.0" x="0.0" y="0.0"> </rect>
<path class="bond-1 atom-1 atom-2" d="M 47.6,243.3 L 29.3,220.1" style="fill:none;fill-rule:evenodd;stroke:#000000;stroke-width:2.0px;stroke-linecap:butt;stroke-linejoin:miter;stroke-opacity:1" />
<path class="bond-1 atom-1 atom-2" d="M 49.5,238.5 L 34.4,219.3" style="fill:none;fill-rule:evenodd;stroke:#000000;stroke-width:2.0px;stroke-linecap:butt;stroke-linejoin:miter;stroke-opacity:1" />
<path class="bond-3 atom-2 atom-4" d="M 29.3,220.1 L 40.2,192.6" style="fill:none;fill-rule:evenodd;stroke:#000000;stroke-width:2.0px;stroke-linecap:butt;stroke-linejoin:miter;stroke-opacity:1" />
<path class="bond-5 atom-4 atom-6" d="M 40.2,192.6 L 69.4,188.4" style="fill:none;fill-rule:evenodd;stroke:#000000;stroke-width:2.0px;stroke-linecap:butt;stroke-linejoin:miter;stroke-opacity:1" />
<path class="bond-5 atom-4 atom-6" d="M 43.4,196.7 L 67.5,193.2" style="fill:none;fill-rule:evenodd;stroke:#000000;stroke-width:2.0px;stroke-linecap:butt;stroke-linejoin:miter;stroke-opacity:1" />
<path class="bond-7 atom-6 atom-8" d="M 69.4,188.4 L 87.8,211.6" style="fill:none;fill-rule:evenodd;stroke:#000000;stroke-width:2.0px;stroke-linecap:butt;stroke-linejoin:miter;stroke-opacity:1" />
<path class="bond-8 atom-8 atom-9" d="M 87.8,211.6 L 76.8,239.0" style="fill:none;fill-rule:evenodd;stroke:#000000;stroke-width:2.0px;stroke-linecap:butt;stroke-linejoin:miter;stroke-opacity:1" />
<path class="bond-8 atom-8 atom-9" d="M 82.6,212.3 L 73.6,235.0" style="fill:none;fill-rule:evenodd;stroke:#000000;stroke-width:2.0px;stroke-linecap:butt;stroke-linejoin:miter;stroke-opacity:1" />
<path class="bond-9 atom-9 atom-10" d="M 76.8,239.0 L 99.6,257.9" style="fill:none;fill-rule:evenodd;stroke:#000000;stroke-width:2.0px;stroke-linecap:butt;stroke-linejoin:miter;stroke-opacity:1" />
<path class="bond-10 atom-10 atom-11" d="M 99.6,257.9 L 100.0,270.1" style="fill:none;fill-rule:evenodd;stroke:#000000;stroke-width:2.0px;stroke-linecap:butt;stroke-linejoin:miter;stroke-opacity:1" />
<path class="bond-10 atom-10 atom-11" d="M 100.0,270.1 L 100.5,282.2" style="fill:none;fill-rule:evenodd;stroke:#0000FF;stroke-width:2.0px;stroke-linecap:butt;stroke-linejoin:miter;stroke-opacity:1" />
<path class="bond-10 atom-10 atom-11" d="M 104.1,260.3 L 104.6,271.2" style="fill:none;fill-rule:evenodd;stroke:#000000;stroke-width:2.0px;stroke-linecap:butt;stroke-linejoin:miter;stroke-opacity:1" />
<path class="bond-10 atom-10 atom-11" d="M 104.6,271.2 L 105.0,282.1" style="fill:none;fill-rule:evenodd;stroke:#0000FF;stroke-width:2.0px;stroke-linecap:butt;stroke-linejoin:miter;stroke-opacity:1" />
<path class="bond-11 atom-11 atom-12" d="M 105.1,289.7 L 116.0,295.5" style="fill:none;fill-rule:evenodd;stroke:#0000FF;stroke-width:2.0px;stroke-linecap:butt;stroke-linejoin:miter;stroke-opacity:1" />
<path class="bond-11 atom-11 atom-12" d="M 116.0,295.5 L 126.9,301.2" style="fill:none;fill-rule:evenodd;stroke:#000000;stroke-width:2.0px;stroke-linecap:butt;stroke-linejoin:miter;stroke-opacity:1" />
<path class="bond-12 atom-12 atom-13" d="M 126.9,301.2 L 140.5,328.8" style="fill:none;fill-rule:evenodd;stroke:#000000;stroke-width:2.0px;stroke-linecap:butt;stroke-linejoin:miter;stroke-opacity:1" />
<path class="bond-12 atom-12 atom-13" d="M 132.7,302.8 L 143.3,324.2" style="fill:none;fill-rule:evenodd;stroke:#000000;stroke-width:2.0px;stroke-linecap:butt;stroke-linejoin:miter;stroke-opacity:1" />
<path class="bond-13 atom-13 atom-14" d="M 140.5,328.8 L 170.1,327.6" style="fill:none;fill-rule:evenodd;stroke:#000000;stroke-width:2.0px;stroke-linecap:butt;stroke-linejoin:miter;stroke-opacity:1" />
<path class="bond-14 atom-14 atom-15" d="M 170.1,327.6 L 178.1,299.1" style="fill:none;fill-rule:evenodd;stroke:#000000;stroke-width:2.0px;stroke-linecap:butt;stroke-linejoin:miter;stroke-opacity:1" />
<path class="bond-14 atom-14 atom-15" d="M 166.6,323.3 L 172.8,301.4" style="fill:none;fill-rule:evenodd;stroke:#000000;stroke-width:2.0px;stroke-linecap:butt;stroke-linejoin:miter;stroke-opacity:1" />
<path class="bond-15 atom-15 atom-16" d="M 178.1,299.1 L 188.4,292.6" style="fill:none;fill-rule:evenodd;stroke:#000000;stroke-width:2.0px;stroke-linecap:butt;stroke-linejoin:miter;stroke-opacity:1" />
<path class="bond-15 atom-15 atom-16" d="M 188.4,292.6 L 198.7,286.1" style="fill:none;fill-rule:evenodd;stroke:#0000FF;stroke-width:2.0px;stroke-linecap:butt;stroke-linejoin:miter;stroke-opacity:1" />
<path class="bond-16 atom-16 atom-17" d="M 202.9,278.1 L 202.4,266.0" style="fill:none;fill-rule:evenodd;stroke:#0000FF;stroke-width:2.0px;stroke-linecap:butt;stroke-linejoin:miter;stroke-opacity:1" />
<path class="bond-16 atom-16 atom-17" d="M 202.4,266.0 L 201.9,253.8" style="fill:none;fill-rule:evenodd;stroke:#000000;stroke-width:2.0px;stroke-linecap:butt;stroke-linejoin:miter;stroke-opacity:1" />
<path class="bond-16 atom-16 atom-17" d="M 198.4,278.3 L 198.0,267.4" style="fill:none;fill-rule:evenodd;stroke:#0000FF;stroke-width:2.0px;stroke-linecap:butt;stroke-linejoin:miter;stroke-opacity:1" />
<path class="bond-16 atom-16 atom-17" d="M 198.0,267.4 L 197.5,256.6" style="fill:none;fill-rule:evenodd;stroke:#000000;stroke-width:2.0px;stroke-linecap:butt;stroke-linejoin:miter;stroke-opacity:1" />
<path class="bond-17 atom-17 atom-18" d="M 201.9,253.8 L 223.0,233.2" style="fill:none;fill-rule:evenodd;stroke:#000000;stroke-width:2.0px;stroke-linecap:butt;stroke-linejoin:miter;stroke-opacity:1" />
<path class="bond-18 atom-18 atom-19" d="M 223.0,233.2 L 209.9,206.7" style="fill:none;fill-rule:evenodd;stroke:#000000;stroke-width:2.0px;stroke-linecap:butt;stroke-linejoin:miter;stroke-opacity:1" />
<path class="bond-18 atom-18 atom-19" d="M 225.9,228.9 L 215.1,207.0" style="fill:none;fill-rule:evenodd;stroke:#000000;stroke-width:2.0px;stroke-linecap:butt;stroke-linejoin:miter;stroke-opacity:1" />
<path class="bond-19 atom-19 atom-20" d="M 209.9,206.7 L 180.7,210.9" style="fill:none;fill-rule:evenodd;stroke:#000000;stroke-width:2.0px;stroke-linecap:butt;stroke-linejoin:miter;stroke-opacity:1" />
<path class="bond-20 atom-20 atom-21" d="M 180.7,210.9 L 178.6,222.9" style="fill:none;fill-rule:evenodd;stroke:#000000;stroke-width:2.0px;stroke-linecap:butt;stroke-linejoin:miter;stroke-opacity:1" />
<path class="bond-20 atom-20 atom-21" d="M 178.6,222.9 L 176.6,234.9" style="fill:none;fill-rule:evenodd;stroke:#0000FF;stroke-width:2.0px;stroke-linecap:butt;stroke-linejoin:miter;stroke-opacity:1" />
<path class="bond-20 atom-20 atom-21" d="M 184.6,214.9 L 182.8,225.3" style="fill:none;fill-rule:evenodd;stroke:#000000;stroke-width:2.0px;stroke-linecap:butt;stroke-linejoin:miter;stroke-opacity:1" />
<path class="bond-20 atom-20 atom-21" d="M 182.8,225.3 L 181.0,235.6" style="fill:none;fill-rule:evenodd;stroke:#0000FF;stroke-width:2.0px;stroke-linecap:butt;stroke-linejoin:miter;stroke-opacity:1" />
<path class="bond-21 atom-21 atom-22" d="M 171.4,242.8 L 163.8,247.6" style="fill:none;fill-rule:evenodd;stroke:#0000FF;stroke-width:2.0px;stroke-linecap:butt;stroke-linejoin:miter;stroke-opacity:1" />
<path class="bond-21 atom-21 atom-22" d="M 163.8,247.6 L 156.3,252.3" style="fill:none;fill-rule:evenodd;stroke:#000000;stroke-width:2.0px;stroke-linecap:butt;stroke-linejoin:miter;stroke-opacity:1" />
<path class="bond-23 atom-22 atom-24" d="M 146.2,253.5 L 137.5,248.9" style="fill:none;fill-rule:evenodd;stroke:#000000;stroke-width:2.0px;stroke-linecap:butt;stroke-linejoin:miter;stroke-opacity:1" />
<path class="bond-23 atom-22 atom-24" d="M 137.5,248.9 L 128.9,244.4" style="fill:none;fill-rule:evenodd;stroke:#0000FF;stroke-width:2.0px;stroke-linecap:butt;stroke-linejoin:miter;stroke-opacity:1" />
<path class="bond-24 atom-24 atom-25" d="M 123.2,236.9 L 120.2,225.2" style="fill:none;fill-rule:evenodd;stroke:#0000FF;stroke-width:2.0px;stroke-linecap:butt;stroke-linejoin:miter;stroke-opacity:1" />
<path class="bond-24 atom-24 atom-25" d="M 120.2,225.2 L 117.3,213.5" style="fill:none;fill-rule:evenodd;stroke:#000000;stroke-width:2.0px;stroke-linecap:butt;stroke-linejoin:miter;stroke-opacity:1" />
<path class="bond-25 atom-25 atom-26" d="M 117.3,213.5 L 133.7,206.3" style="fill:none;fill-rule:evenodd;stroke:#000000;stroke-width:2.0px;stroke-linecap:butt;stroke-linejoin:miter;stroke-opacity:1" />
<path class="bond-25 atom-25 atom-26" d="M 133.7,206.3 L 150.2,199.1" style="fill:none;fill-rule:evenodd;stroke:#0000FF;stroke-width:2.0px;stroke-linecap:butt;stroke-linejoin:miter;stroke-opacity:1" />
<path class="bond-25 atom-25 atom-26" d="M 122.5,216.1 L 137.2,209.6" style="fill:none;fill-rule:evenodd;stroke:#000000;stroke-width:2.0px;stroke-linecap:butt;stroke-linejoin:miter;stroke-opacity:1" />
<path class="bond-25 atom-25 atom-26" d="M 137.2,209.6 L 152.0,203.2" style="fill:none;fill-rule:evenodd;stroke:#0000FF;stroke-width:2.0px;stroke-linecap:butt;stroke-linejoin:miter;stroke-opacity:1" />
<path class="bond-26 atom-22 atom-27" d="M 150.9,261.1 L 151.3,270.6" style="fill:none;fill-rule:evenodd;stroke:#000000;stroke-width:2.0px;stroke-linecap:butt;stroke-linejoin:miter;stroke-opacity:1" />
<path class="bond-26 atom-22 atom-27" d="M 151.3,270.6 L 151.7,280.2" style="fill:none;fill-rule:evenodd;stroke:#0000FF;stroke-width:2.0px;stroke-linecap:butt;stroke-linejoin:miter;stroke-opacity:1" />
<path class="bond-27 atom-19 atom-28" d="M 209.9,206.7 L 226.3,182.1" style="fill:none;fill-rule:evenodd;stroke:#000000;stroke-width:2.0px;stroke-linecap:butt;stroke-linejoin:miter;stroke-opacity:1" />
<path class="bond-29 atom-28 atom-30" d="M 226.3,182.1 L 255.8,184.0" style="fill:none;fill-rule:evenodd;stroke:#000000;stroke-width:2.0px;stroke-linecap:butt;stroke-linejoin:miter;stroke-opacity:1" />
<path class="bond-29 atom-28 atom-30" d="M 228.6,186.7 L 253.0,188.3" style="fill:none;fill-rule:evenodd;stroke:#000000;stroke-width:2.0px;stroke-linecap:butt;stroke-linejoin:miter;stroke-opacity:1" />
<path class="bond-31 atom-30 atom-32" d="M 255.8,184.0 L 268.9,210.5" style="fill:none;fill-rule:evenodd;stroke:#000000;stroke-width:2.0px;stroke-linecap:butt;stroke-linejoin:miter;stroke-opacity:1" />
<path class="bond-33 atom-32 atom-34" d="M 268.9,210.5 L 252.5,235.1" style="fill:none;fill-rule:evenodd;stroke:#000000;stroke-width:2.0px;stroke-linecap:butt;stroke-linejoin:miter;stroke-opacity:1" />
<path class="bond-33 atom-32 atom-34" d="M 263.8,210.2 L 250.3,230.5" style="fill:none;fill-rule:evenodd;stroke:#000000;stroke-width:2.0px;stroke-linecap:butt;stroke-linejoin:miter;stroke-opacity:1" />
<path class="bond-35 atom-14 atom-36" d="M 170.1,327.6 L 185.9,352.6" style="fill:none;fill-rule:evenodd;stroke:#000000;stroke-width:2.0px;stroke-linecap:butt;stroke-linejoin:miter;stroke-opacity:1" />
<path class="bond-37 atom-36 atom-38" d="M 185.9,352.6 L 172.1,378.8" style="fill:none;fill-rule:evenodd;stroke:#000000;stroke-width:2.0px;stroke-linecap:butt;stroke-linejoin:miter;stroke-opacity:1" />
<path class="bond-37 atom-36 atom-38" d="M 180.7,352.8 L 169.4,374.4" style="fill:none;fill-rule:evenodd;stroke:#000000;stroke-width:2.0px;stroke-linecap:butt;stroke-linejoin:miter;stroke-opacity:1" />
<path class="bond-39 atom-38 atom-40" d="M 172.1,378.8 L 142.6,379.9" style="fill:none;fill-rule:evenodd;stroke:#000000;stroke-width:2.0px;stroke-linecap:butt;stroke-linejoin:miter;stroke-opacity:1" />
<path class="bond-41 atom-40 atom-42" d="M 142.6,379.9 L 126.8,355.0" style="fill:none;fill-rule:evenodd;stroke:#000000;stroke-width:2.0px;stroke-linecap:butt;stroke-linejoin:miter;stroke-opacity:1" />
<path class="bond-41 atom-40 atom-42" d="M 145.0,375.4 L 131.9,354.8" style="fill:none;fill-rule:evenodd;stroke:#000000;stroke-width:2.0px;stroke-linecap:butt;stroke-linejoin:miter;stroke-opacity:1" />
<path class="bond-43 atom-9 atom-1" d="M 76.8,239.0 L 47.6,243.3" style="fill:none;fill-rule:evenodd;stroke:#000000;stroke-width:2.0px;stroke-linecap:butt;stroke-linejoin:miter;stroke-opacity:1" />
<path class="bond-44 atom-24 atom-10" d="M 120.2,244.9 L 109.9,251.4" style="fill:none;fill-rule:evenodd;stroke:#0000FF;stroke-width:2.0px;stroke-linecap:butt;stroke-linejoin:miter;stroke-opacity:1" />
<path class="bond-44 atom-24 atom-10" d="M 109.9,251.4 L 99.6,257.9" style="fill:none;fill-rule:evenodd;stroke:#000000;stroke-width:2.0px;stroke-linecap:butt;stroke-linejoin:miter;stroke-opacity:1" />
<path class="bond-45 atom-25 atom-8" d="M 117.3,213.5 L 87.8,211.6" style="fill:none;fill-rule:evenodd;stroke:#000000;stroke-width:2.0px;stroke-linecap:butt;stroke-linejoin:miter;stroke-opacity:1" />
<path class="bond-46 atom-27 atom-12" d="M 147.6,288.1 L 137.2,294.7" style="fill:none;fill-rule:evenodd;stroke:#0000FF;stroke-width:2.0px;stroke-linecap:butt;stroke-linejoin:miter;stroke-opacity:1" />
<path class="bond-46 atom-27 atom-12" d="M 137.2,294.7 L 126.9,301.2" style="fill:none;fill-rule:evenodd;stroke:#000000;stroke-width:2.0px;stroke-linecap:butt;stroke-linejoin:miter;stroke-opacity:1" />
<path class="bond-47 atom-42 atom-13" d="M 126.8,355.0 L 140.5,328.8" style="fill:none;fill-rule:evenodd;stroke:#000000;stroke-width:2.0px;stroke-linecap:butt;stroke-linejoin:miter;stroke-opacity:1" />
<path class="bond-48 atom-27 atom-15" d="M 156.2,287.7 L 167.2,293.4" style="fill:none;fill-rule:evenodd;stroke:#0000FF;stroke-width:2.0px;stroke-linecap:butt;stroke-linejoin:miter;stroke-opacity:1" />
<path class="bond-48 atom-27 atom-15" d="M 167.2,293.4 L 178.1,299.1" style="fill:none;fill-rule:evenodd;stroke:#000000;stroke-width:2.0px;stroke-linecap:butt;stroke-linejoin:miter;stroke-opacity:1" />
<path class="bond-49 atom-21 atom-17" d="M 180.0,242.4 L 191.0,248.1" style="fill:none;fill-rule:evenodd;stroke:#0000FF;stroke-width:2.0px;stroke-linecap:butt;stroke-linejoin:miter;stroke-opacity:1" />
<path class="bond-49 atom-21 atom-17" d="M 191.0,248.1 L 201.9,253.8" style="fill:none;fill-rule:evenodd;stroke:#000000;stroke-width:2.0px;stroke-linecap:butt;stroke-linejoin:miter;stroke-opacity:1" />
<path class="bond-50 atom-34 atom-18" d="M 252.5,235.1 L 223.0,233.2" style="fill:none;fill-rule:evenodd;stroke:#000000;stroke-width:2.0px;stroke-linecap:butt;stroke-linejoin:miter;stroke-opacity:1" />
<path class="bond-51 atom-26 atom-20" d="M 158.9,199.5 L 169.8,205.2" style="fill:none;fill-rule:evenodd;stroke:#0000FF;stroke-width:2.0px;stroke-linecap:butt;stroke-linejoin:miter;stroke-opacity:1" />
<path class="bond-51 atom-26 atom-20" d="M 169.8,205.2 L 180.7,210.9" style="fill:none;fill-rule:evenodd;stroke:#000000;stroke-width:2.0px;stroke-linecap:butt;stroke-linejoin:miter;stroke-opacity:1" />
<path class="atom-11" d="M 97.4 291.7 L 97.4 283.2 L 99.1 283.2 L 102.5 288.9 L 102.5 283.2 L 104.1 283.2 L 104.1 291.7 L 102.4 291.7 L 99.0 286.2 L 99.0 291.7 L 97.4 291.7 " fill="#0000FF" />
<path class="atom-16" d="M 199.7 287.6 L 199.7 279.1 L 201.4 279.1 L 204.8 284.8 L 204.8 279.1 L 206.4 279.1 L 206.4 287.6 L 204.7 287.6 L 201.3 282.1 L 201.3 287.6 L 199.7 287.6 " fill="#0000FF" />
<path class="atom-21" d="M 172.4 244.3 L 172.4 235.8 L 174.0 235.8 L 177.5 241.5 L 177.5 235.8 L 179.1 235.8 L 179.1 244.3 L 177.4 244.3 L 173.9 238.8 L 173.9 244.3 L 172.4 244.3 " fill="#0000FF" />
<path class="atom-21" d="M 182.1 239.3 L 182.1 237.8 L 180.6 237.8 L 180.6 236.8 L 182.1 236.8 L 182.1 235.4 L 183.1 235.4 L 183.1 236.8 L 184.6 236.8 L 184.6 237.8 L 183.1 237.8 L 183.1 239.3 L 182.1 239.3 " fill="#0000FF" />
<path class="atom-22" d="M 147.2 251.6 L 150.6 251.6 Q 151.6 251.6, 152.1 251.7 Q 152.6 251.8, 152.9 252.1 Q 153.3 252.3, 153.6 252.8 Q 153.9 253.2, 153.9 253.8 Q 153.9 254.4, 153.5 254.9 Q 153.2 255.4, 152.7 255.6 Q 153.4 255.8, 153.9 256.4 Q 154.3 256.9, 154.3 257.6 Q 154.3 258.2, 154.0 258.8 Q 153.7 259.3, 153.3 259.6 Q 152.8 260.0, 152.1 260.0 Q 151.7 260.1, 150.1 260.1 L 147.2 260.1 L 147.2 251.6 M 148.9 253.0 L 148.9 255.0 L 150.0 255.0 Q 151.0 255.0, 151.2 255.0 Q 151.7 254.9, 151.9 254.7 Q 152.2 254.4, 152.2 254.0 Q 152.2 253.6, 152.0 253.4 Q 151.8 253.1, 151.3 253.1 Q 151.1 253.0, 149.9 253.0 L 148.9 253.0 M 148.9 256.4 L 148.9 258.7 L 150.5 258.7 Q 151.4 258.7, 151.6 258.6 Q 152.0 258.6, 152.3 258.3 Q 152.5 258.0, 152.5 257.6 Q 152.5 257.2, 152.3 256.9 Q 152.1 256.7, 151.8 256.5 Q 151.4 256.4, 150.3 256.4 L 148.9 256.4 " fill="#000000" />
<path class="atom-22" d="M 155.4 254.4 L 155.4 253.3 L 157.5 253.3 L 157.5 254.4 L 155.4 254.4 " fill="#000000" />
<path class="atom-24" d="M 121.2 246.4 L 121.2 237.9 L 122.9 237.9 L 126.3 243.5 L 126.3 237.9 L 127.9 237.9 L 127.9 246.4 L 126.2 246.4 L 122.8 240.8 L 122.8 246.4 L 121.2 246.4 " fill="#0000FF" />
<path class="atom-26" d="M 151.2 201.4 L 151.2 193.0 L 152.8 193.0 L 156.3 198.6 L 156.3 193.0 L 157.9 193.0 L 157.9 201.4 L 156.2 201.4 L 152.8 195.9 L 152.8 201.4 L 151.2 201.4 " fill="#0000FF" />
<path class="atom-27" d="M 148.5 289.6 L 148.5 281.2 L 150.2 281.2 L 153.7 286.8 L 153.7 281.2 L 155.3 281.2 L 155.3 289.6 L 153.5 289.6 L 150.1 284.1 L 150.1 289.6 L 148.5 289.6 " fill="#0000FF" />
</svg>