<?xml version='1.0' encoding='iso-8859-1'?>
<svg xmlns="http://www.w3.org/2000/svg" version="1.1" baseProfile="full" xml:space="preserve" width="50" height="52" viewBox="27 359 50 52">

<rect style="opacity:1.0;fill:#FFFFFF;stroke:none" width="512.0" height="512.0" x="0.0" y="0.0"> </rect>
<path class="bond-1 atom-1 atom-2" d="M 75.9,388.7 L 66.8,360.6" style="fill:none;fill-rule:evenodd;stroke:#000000;stroke-width:2.0px;stroke-linecap:butt;stroke-linejoin:miter;stroke-opacity:1" />
<path class="bond-1 atom-1 atom-2" d="M 70.7,387.0 L 63.6,365.1" style="fill:none;fill-rule:evenodd;stroke:#000000;stroke-width:2.0px;stroke-linecap:butt;stroke-linejoin:miter;stroke-opacity:1" />
<path class="bond-3 atom-2 atom-4" d="M 66.8,360.6 L 37.2,360.6" style="fill:none;fill-rule:evenodd;stroke:#000000;stroke-width:2.0px;stroke-linecap:butt;stroke-linejoin:miter;stroke-opacity:1" />
<path class="bond-5 atom-4 atom-6" d="M 37.2,360.6 L 28.1,388.7" style="fill:none;fill-rule:evenodd;stroke:#000000;stroke-width:2.0px;stroke-linecap:butt;stroke-linejoin:miter;stroke-opacity:1" />
<path class="bond-5 atom-4 atom-6" d="M 40.5,365.1 L 33.3,387.0" style="fill:none;fill-rule:evenodd;stroke:#000000;stroke-width:2.0px;stroke-linecap:butt;stroke-linejoin:miter;stroke-opacity:1" />
<path class="bond-7 atom-6 atom-8" d="M 28.1,388.7 L 37.9,395.8" style="fill:none;fill-rule:evenodd;stroke:#000000;stroke-width:2.0px;stroke-linecap:butt;stroke-linejoin:miter;stroke-opacity:1" />
<path class="bond-7 atom-6 atom-8" d="M 37.9,395.8 L 47.6,402.9" style="fill:none;fill-rule:evenodd;stroke:#CCCC00;stroke-width:2.0px;stroke-linecap:butt;stroke-linejoin:miter;stroke-opacity:1" />
<path class="bond-8 atom-8 atom-1" d="M 56.4,402.9 L 66.2,395.8" style="fill:none;fill-rule:evenodd;stroke:#CCCC00;stroke-width:2.0px;stroke-linecap:butt;stroke-linejoin:miter;stroke-opacity:1" />
<path class="bond-8 atom-8 atom-1" d="M 66.2,395.8 L 75.9,388.7" style="fill:none;fill-rule:evenodd;stroke:#000000;stroke-width:2.0px;stroke-linecap:butt;stroke-linejoin:miter;stroke-opacity:1" />
<path class="atom-8" d="M 48.6 407.7 L 50.3 407.5 Q 50.4 408.3, 50.9 408.7 Q 51.3 409.1, 52.1 409.1 Q 52.9 409.1, 53.3 408.8 Q 53.8 408.4, 53.8 408.0 Q 53.8 407.7, 53.6 407.5 Q 53.4 407.2, 53.0 407.1 Q 52.7 407.0, 51.6 406.7 Q 50.2 406.4, 49.7 405.9 Q 48.9 405.2, 48.9 404.2 Q 48.9 403.5, 49.3 403.0 Q 49.6 402.4, 50.3 402.1 Q 51.0 401.8, 52.0 401.8 Q 53.6 401.8, 54.4 402.5 Q 55.2 403.2, 55.2 404.4 L 53.5 404.5 Q 53.4 403.8, 53.0 403.5 Q 52.7 403.2, 52.0 403.2 Q 51.2 403.2, 50.8 403.5 Q 50.5 403.7, 50.5 404.1 Q 50.5 404.4, 50.8 404.6 Q 51.1 404.8, 52.4 405.1 Q 53.6 405.4, 54.2 405.7 Q 54.8 406.1, 55.1 406.6 Q 55.5 407.2, 55.5 408.0 Q 55.5 408.7, 55.1 409.3 Q 54.7 410.0, 53.9 410.3 Q 53.2 410.6, 52.1 410.6 Q 50.5 410.6, 49.6 409.8 Q 48.8 409.1, 48.6 407.7 " fill="#CCCC00" />
</svg>