<?xml version='1.0' encoding='iso-8859-1'?>
<svg xmlns="http://www.w3.org/2000/svg" version="1.1" baseProfile="full" xml:space="preserve" width="91" height="71" viewBox="27 330 91 71">

<rect style="opacity:1.0;fill:#FFFFFF;stroke:none" width="512.0" height="512.0" x="0.0" y="0.0"> </rect>
<path class="bond-1 atom-1 atom-2" d="M 116.3,377.6 L 105.8,350.0" style="fill:none;fill-rule:evenodd;stroke:#000000;stroke-width:2.0px;stroke-linecap:butt;stroke-linejoin:miter;stroke-opacity:1" />
<path class="bond-1 atom-1 atom-2" d="M 111.0,376.2 L 102.8,354.6" style="fill:none;fill-rule:evenodd;stroke:#000000;stroke-width:2.0px;stroke-linecap:butt;stroke-linejoin:miter;stroke-opacity:1" />
<path class="bond-3 atom-2 atom-4" d="M 105.8,350.0 L 76.3,351.4" style="fill:none;fill-rule:evenodd;stroke:#000000;stroke-width:2.0px;stroke-linecap:butt;stroke-linejoin:miter;stroke-opacity:1" />
<path class="bond-4 atom-4 atom-5" d="M 76.3,351.4 L 68.5,379.9" style="fill:none;fill-rule:evenodd;stroke:#000000;stroke-width:2.0px;stroke-linecap:butt;stroke-linejoin:miter;stroke-opacity:1" />
<path class="bond-4 atom-4 atom-5" d="M 79.7,355.7 L 73.7,378.0" style="fill:none;fill-rule:evenodd;stroke:#000000;stroke-width:2.0px;stroke-linecap:butt;stroke-linejoin:miter;stroke-opacity:1" />
<path class="bond-5 atom-5 atom-6" d="M 68.5,379.9 L 78.7,386.6" style="fill:none;fill-rule:evenodd;stroke:#000000;stroke-width:2.0px;stroke-linecap:butt;stroke-linejoin:miter;stroke-opacity:1" />
<path class="bond-5 atom-5 atom-6" d="M 78.7,386.6 L 88.9,393.2" style="fill:none;fill-rule:evenodd;stroke:#CCCC00;stroke-width:2.0px;stroke-linecap:butt;stroke-linejoin:miter;stroke-opacity:1" />
<path class="bond-6 atom-5 atom-7" d="M 68.5,379.9 L 39.0,381.4" style="fill:none;fill-rule:evenodd;stroke:#000000;stroke-width:2.0px;stroke-linecap:butt;stroke-linejoin:miter;stroke-opacity:1" />
<path class="bond-8 atom-7 atom-9" d="M 39.0,381.4 L 28.5,353.7" style="fill:none;fill-rule:evenodd;stroke:#000000;stroke-width:2.0px;stroke-linecap:butt;stroke-linejoin:miter;stroke-opacity:1" />
<path class="bond-8 atom-7 atom-9" d="M 42.0,376.8 L 33.8,355.2" style="fill:none;fill-rule:evenodd;stroke:#000000;stroke-width:2.0px;stroke-linecap:butt;stroke-linejoin:miter;stroke-opacity:1" />
<path class="bond-10 atom-9 atom-11" d="M 28.5,353.7 L 37.8,346.3" style="fill:none;fill-rule:evenodd;stroke:#000000;stroke-width:2.0px;stroke-linecap:butt;stroke-linejoin:miter;stroke-opacity:1" />
<path class="bond-10 atom-9 atom-11" d="M 37.8,346.3 L 47.1,338.8" style="fill:none;fill-rule:evenodd;stroke:#CCCC00;stroke-width:2.0px;stroke-linecap:butt;stroke-linejoin:miter;stroke-opacity:1" />
<path class="bond-11 atom-6 atom-1" d="M 97.7,392.6 L 107.0,385.1" style="fill:none;fill-rule:evenodd;stroke:#CCCC00;stroke-width:2.0px;stroke-linecap:butt;stroke-linejoin:miter;stroke-opacity:1" />
<path class="bond-11 atom-6 atom-1" d="M 107.0,385.1 L 116.3,377.6" style="fill:none;fill-rule:evenodd;stroke:#000000;stroke-width:2.0px;stroke-linecap:butt;stroke-linejoin:miter;stroke-opacity:1" />
<path class="bond-12 atom-11 atom-4" d="M 56.0,338.1 L 66.1,344.8" style="fill:none;fill-rule:evenodd;stroke:#CCCC00;stroke-width:2.0px;stroke-linecap:butt;stroke-linejoin:miter;stroke-opacity:1" />
<path class="bond-12 atom-11 atom-4" d="M 66.1,344.8 L 76.3,351.4" style="fill:none;fill-rule:evenodd;stroke:#000000;stroke-width:2.0px;stroke-linecap:butt;stroke-linejoin:miter;stroke-opacity:1" />
<path class="atom-6" d="M 89.8 397.7 L 91.5 397.5 Q 91.6 398.4, 92.1 398.8 Q 92.6 399.1, 93.3 399.1 Q 94.2 399.1, 94.6 398.8 Q 95.0 398.4, 95.0 398.0 Q 95.0 397.7, 94.8 397.5 Q 94.7 397.3, 94.2 397.1 Q 93.9 397.0, 92.8 396.7 Q 91.5 396.4, 90.9 395.9 Q 90.1 395.2, 90.1 394.2 Q 90.1 393.5, 90.5 393.0 Q 90.9 392.4, 91.6 392.1 Q 92.3 391.8, 93.2 391.8 Q 94.8 391.8, 95.6 392.5 Q 96.4 393.2, 96.5 394.4 L 94.8 394.5 Q 94.7 393.8, 94.3 393.5 Q 93.9 393.2, 93.2 393.2 Q 92.5 393.2, 92.0 393.6 Q 91.8 393.7, 91.8 394.1 Q 91.8 394.4, 92.0 394.6 Q 92.3 394.9, 93.6 395.2 Q 94.8 395.5, 95.4 395.8 Q 96.0 396.1, 96.4 396.6 Q 96.7 397.2, 96.7 398.0 Q 96.7 398.7, 96.3 399.3 Q 95.9 400.0, 95.2 400.3 Q 94.4 400.6, 93.3 400.6 Q 91.7 400.6, 90.9 399.9 Q 90.0 399.1, 89.8 397.7 " fill="#CCCC00" />
<path class="atom-11" d="M 48.1 336.8 L 49.8 336.6 Q 49.9 337.5, 50.4 337.8 Q 50.9 338.2, 51.6 338.2 Q 52.5 338.2, 52.9 337.9 Q 53.3 337.5, 53.3 337.1 Q 53.3 336.8, 53.1 336.6 Q 52.9 336.4, 52.5 336.2 Q 52.2 336.1, 51.1 335.8 Q 49.8 335.5, 49.2 335.0 Q 48.4 334.3, 48.4 333.3 Q 48.4 332.6, 48.8 332.1 Q 49.2 331.5, 49.9 331.2 Q 50.5 330.9, 51.5 330.9 Q 53.1 330.9, 53.9 331.6 Q 54.7 332.3, 54.8 333.5 L 53.1 333.6 Q 52.9 332.9, 52.6 332.6 Q 52.2 332.3, 51.5 332.3 Q 50.8 332.3, 50.3 332.6 Q 50.1 332.8, 50.1 333.2 Q 50.1 333.5, 50.3 333.7 Q 50.6 334.0, 51.9 334.3 Q 53.1 334.5, 53.7 334.9 Q 54.3 335.2, 54.7 335.7 Q 55.0 336.3, 55.0 337.1 Q 55.0 337.8, 54.6 338.4 Q 54.2 339.1, 53.5 339.4 Q 52.7 339.7, 51.6 339.7 Q 50.0 339.7, 49.2 338.9 Q 48.3 338.2, 48.1 336.8 " fill="#CCCC00" />
</svg>