<?xml version='1.0' encoding='iso-8859-1'?>
<svg xmlns="http://www.w3.org/2000/svg" version="1.1" baseProfile="full" xml:space="preserve" width="303" height="239" viewBox="106 137 303 239">

<rect style="opacity:1.0;fill:#FFFFFF;stroke:none" width="512.0" height="512.0" x="0.0" y="0.0"> </rect>
<path class="bond-1 atom-1 atom-2" d="M 408.0,296.9 L 372.0,202.2" style="fill:none;fill-rule:evenodd;stroke:#000000;stroke-width:2.0px;stroke-linecap:butt;stroke-linejoin:miter;stroke-opacity:1" />
<path class="bond-1 atom-1 atom-2" d="M 389.8,291.9 L 361.8,217.9" style="fill:none;fill-rule:evenodd;stroke:#000000;stroke-width:2.0px;stroke-linecap:butt;stroke-linejoin:miter;stroke-opacity:1" />
<path class="bond-3 atom-2 atom-4" d="M 372.0,202.2 L 270.9,207.2" style="fill:none;fill-rule:evenodd;stroke:#000000;stroke-width:2.0px;stroke-linecap:butt;stroke-linejoin:miter;stroke-opacity:1" />
<path class="bond-4 atom-4 atom-5" d="M 270.9,207.2 L 244.4,304.8" style="fill:none;fill-rule:evenodd;stroke:#000000;stroke-width:2.0px;stroke-linecap:butt;stroke-linejoin:miter;stroke-opacity:1" />
<path class="bond-4 atom-4 atom-5" d="M 282.7,221.8 L 261.9,298.2" style="fill:none;fill-rule:evenodd;stroke:#000000;stroke-width:2.0px;stroke-linecap:butt;stroke-linejoin:miter;stroke-opacity:1" />
<path class="bond-5 atom-5 atom-6" d="M 244.4,304.8 L 279.2,327.6" style="fill:none;fill-rule:evenodd;stroke:#000000;stroke-width:2.0px;stroke-linecap:butt;stroke-linejoin:miter;stroke-opacity:1" />
<path class="bond-5 atom-5 atom-6" d="M 279.2,327.6 L 314.1,350.5" style="fill:none;fill-rule:evenodd;stroke:#CCCC00;stroke-width:2.0px;stroke-linecap:butt;stroke-linejoin:miter;stroke-opacity:1" />
<path class="bond-6 atom-5 atom-7" d="M 244.4,304.8 L 143.3,309.8" style="fill:none;fill-rule:evenodd;stroke:#000000;stroke-width:2.0px;stroke-linecap:butt;stroke-linejoin:miter;stroke-opacity:1" />
<path class="bond-8 atom-7 atom-9" d="M 143.3,309.8 L 107.4,215.1" style="fill:none;fill-rule:evenodd;stroke:#000000;stroke-width:2.0px;stroke-linecap:butt;stroke-linejoin:miter;stroke-opacity:1" />
<path class="bond-8 atom-7 atom-9" d="M 153.6,294.1 L 125.5,220.1" style="fill:none;fill-rule:evenodd;stroke:#000000;stroke-width:2.0px;stroke-linecap:butt;stroke-linejoin:miter;stroke-opacity:1" />
<path class="bond-10 atom-9 atom-11" d="M 107.4,215.1 L 139.3,189.5" style="fill:none;fill-rule:evenodd;stroke:#000000;stroke-width:2.0px;stroke-linecap:butt;stroke-linejoin:miter;stroke-opacity:1" />
<path class="bond-10 atom-9 atom-11" d="M 139.3,189.5 L 171.3,163.8" style="fill:none;fill-rule:evenodd;stroke:#CCCC00;stroke-width:2.0px;stroke-linecap:butt;stroke-linejoin:miter;stroke-opacity:1" />
<path class="bond-11 atom-6 atom-1" d="M 344.0,348.2 L 376.0,322.5" style="fill:none;fill-rule:evenodd;stroke:#CCCC00;stroke-width:2.0px;stroke-linecap:butt;stroke-linejoin:miter;stroke-opacity:1" />
<path class="bond-11 atom-6 atom-1" d="M 376.0,322.5 L 408.0,296.9" style="fill:none;fill-rule:evenodd;stroke:#000000;stroke-width:2.0px;stroke-linecap:butt;stroke-linejoin:miter;stroke-opacity:1" />
<path class="bond-12 atom-11 atom-4" d="M 201.2,161.5 L 236.1,184.4" style="fill:none;fill-rule:evenodd;stroke:#CCCC00;stroke-width:2.0px;stroke-linecap:butt;stroke-linejoin:miter;stroke-opacity:1" />
<path class="bond-12 atom-11 atom-4" d="M 236.1,184.4 L 270.9,207.2" style="fill:none;fill-rule:evenodd;stroke:#000000;stroke-width:2.0px;stroke-linecap:butt;stroke-linejoin:miter;stroke-opacity:1" />
<path class="atom-6" d="M 317.4 365.5 L 323.0 365.0 Q 323.6 367.8, 325.1 369.1 Q 326.7 370.5, 329.3 370.5 Q 332.1 370.5, 333.5 369.3 Q 334.9 368.1, 334.9 366.5 Q 334.9 365.5, 334.3 364.8 Q 333.7 364.1, 332.2 363.5 Q 331.2 363.2, 327.6 362.3 Q 323.0 361.1, 321.1 359.5 Q 318.5 357.1, 318.5 353.7 Q 318.5 351.5, 319.7 349.6 Q 320.9 347.7, 323.3 346.7 Q 325.6 345.7, 328.9 345.7 Q 334.3 345.7, 337.0 348.1 Q 339.7 350.4, 339.9 354.4 L 334.1 354.6 Q 333.7 352.4, 332.5 351.5 Q 331.3 350.5, 328.8 350.5 Q 326.3 350.5, 324.9 351.5 Q 324.0 352.2, 324.0 353.3 Q 324.0 354.3, 324.8 355.0 Q 325.9 356.0, 330.2 357.0 Q 334.4 358.0, 336.4 359.0 Q 338.4 360.1, 339.6 361.9 Q 340.7 363.8, 340.7 366.5 Q 340.7 368.9, 339.3 371.1 Q 338.0 373.2, 335.5 374.3 Q 333.0 375.3, 329.2 375.3 Q 323.8 375.3, 320.9 372.8 Q 318.0 370.3, 317.4 365.5 " fill="#CCCC00" />
<path class="atom-11" d="M 174.6 157.0 L 180.2 156.4 Q 180.8 159.3, 182.3 160.6 Q 183.9 161.9, 186.5 161.9 Q 189.3 161.9, 190.7 160.7 Q 192.1 159.6, 192.1 158.0 Q 192.1 157.0, 191.5 156.3 Q 190.9 155.5, 189.4 155.0 Q 188.4 154.7, 184.8 153.8 Q 180.2 152.6, 178.3 150.9 Q 175.7 148.6, 175.7 145.2 Q 175.7 143.0, 176.9 141.1 Q 178.1 139.2, 180.5 138.2 Q 182.8 137.2, 186.1 137.2 Q 191.5 137.2, 194.2 139.5 Q 196.9 141.9, 197.1 145.8 L 191.3 146.1 Q 190.9 143.9, 189.7 142.9 Q 188.5 142.0, 186.1 142.0 Q 183.5 142.0, 182.1 143.0 Q 181.2 143.7, 181.2 144.8 Q 181.2 145.8, 182.0 146.5 Q 183.1 147.4, 187.4 148.4 Q 191.6 149.4, 193.6 150.5 Q 195.6 151.5, 196.8 153.4 Q 197.9 155.2, 197.9 158.0 Q 197.9 160.4, 196.5 162.6 Q 195.2 164.7, 192.7 165.8 Q 190.2 166.8, 186.4 166.8 Q 181.0 166.8, 178.1 164.3 Q 175.2 161.8, 174.6 157.0 " fill="#CCCC00" />
</svg>