<?xml version='1.0' encoding='iso-8859-1'?>
<svg xmlns="http://www.w3.org/2000/svg" version="1.1" baseProfile="full" xml:space="preserve" width="7" height="9" viewBox="22 387 7 9">

<rect style="opacity:1.0;fill:#FFFFFF;stroke:none" width="512.0" height="512.0" x="0.0" y="0.0"> </rect>
<path class="atom-1" d="M 22.2 392.9 L 23.8 392.7 Q 24.0 393.6, 24.4 394.0 Q 24.9 394.3, 25.7 394.3 Q 26.5 394.3, 26.9 394.0 Q 27.3 393.6, 27.3 393.2 Q 27.3 392.9, 27.2 392.7 Q 27.0 392.5, 26.5 392.3 Q 26.2 392.2, 25.2 391.9 Q 23.8 391.6, 23.2 391.1 Q 22.5 390.4, 22.5 389.4 Q 22.5 388.7, 22.8 388.2 Q 23.2 387.6, 23.9 387.3 Q 24.6 387.0, 25.6 387.0 Q 27.1 387.0, 27.9 387.7 Q 28.8 388.4, 28.8 389.6 L 27.1 389.7 Q 27.0 389.0, 26.6 388.7 Q 26.3 388.4, 25.5 388.4 Q 24.8 388.4, 24.4 388.8 Q 24.1 388.9, 24.1 389.3 Q 24.1 389.6, 24.4 389.8 Q 24.7 390.1, 25.9 390.4 Q 27.2 390.7, 27.8 391.0 Q 28.4 391.3, 28.7 391.8 Q 29.0 392.4, 29.0 393.2 Q 29.0 393.9, 28.6 394.5 Q 28.2 395.2, 27.5 395.5 Q 26.8 395.8, 25.7 395.8 Q 24.0 395.8, 23.2 395.1 Q 22.3 394.3, 22.2 392.9 " fill="#CCCC00" />
</svg>