<?xml version='1.0' encoding='iso-8859-1'?>
<svg xmlns="http://www.w3.org/2000/svg" version="1.1" baseProfile="full" xml:space="preserve" width="24" height="31" viewBox="242 173 24 31">

<rect style="opacity:1.0;fill:#FFFFFF;stroke:none" width="512.0" height="512.0" x="0.0" y="0.0"> </rect>
<path class="atom-1" d="M 242.7 193.7 L 248.3 193.1 Q 248.8 195.9, 250.4 197.3 Q 251.9 198.6, 254.6 198.6 Q 257.4 198.6, 258.8 197.4 Q 260.2 196.2, 260.2 194.6 Q 260.2 193.6, 259.6 192.9 Q 259.0 192.2, 257.5 191.7 Q 256.5 191.3, 252.9 190.4 Q 248.2 189.3, 246.4 187.6 Q 243.7 185.2, 243.7 181.8 Q 243.7 179.6, 245.0 177.8 Q 246.2 175.8, 248.5 174.8 Q 250.9 173.8, 254.2 173.8 Q 259.6 173.8, 262.3 176.2 Q 265.0 178.6, 265.2 182.5 L 259.4 182.8 Q 259.0 180.6, 257.8 179.6 Q 256.6 178.6, 254.1 178.6 Q 251.6 178.6, 250.2 179.7 Q 249.3 180.3, 249.3 181.4 Q 249.3 182.5, 250.1 183.2 Q 251.2 184.1, 255.4 185.1 Q 259.6 186.1, 261.7 187.2 Q 263.7 188.2, 264.8 190.1 Q 266.0 191.9, 266.0 194.6 Q 266.0 197.1, 264.6 199.2 Q 263.2 201.4, 260.7 202.4 Q 258.2 203.5, 254.5 203.5 Q 249.1 203.5, 246.2 201.0 Q 243.3 198.5, 242.7 193.7 " fill="#CCCC00" />
</svg>