<?xml version='1.0' encoding='iso-8859-1'?>
<svg xmlns="http://www.w3.org/2000/svg" version="1.1" baseProfile="full" xml:space="preserve" width="29" height="31" viewBox="240 173 29 31">

<rect style="opacity:1.0;fill:#FFFFFF;stroke:none" width="512.0" height="512.0" x="0.0" y="0.0"> </rect>
<path class="atom-1" d="M 240.4 188.8 Q 240.4 184.5, 241.8 181.5 Q 242.7 179.3, 244.4 177.6 Q 246.1 175.8, 248.1 175.0 Q 250.8 173.8, 254.3 173.8 Q 260.6 173.8, 264.4 177.8 Q 268.2 181.7, 268.2 188.7 Q 268.2 195.6, 264.5 199.6 Q 260.7 203.5, 254.4 203.5 Q 248.0 203.5, 244.2 199.6 Q 240.4 195.7, 240.4 188.8 M 246.4 188.6 Q 246.4 193.5, 248.7 196.0 Q 250.9 198.5, 254.4 198.5 Q 257.8 198.5, 260.0 196.0 Q 262.2 193.5, 262.2 188.6 Q 262.2 183.6, 260.1 181.2 Q 257.9 178.8, 254.4 178.8 Q 250.8 178.8, 248.6 181.3 Q 246.4 183.7, 246.4 188.6 " fill="#FF0000" />
</svg>