<?xml version='1.0' encoding='iso-8859-1'?>
<svg xmlns="http://www.w3.org/2000/svg" version="1.1" baseProfile="full" xml:space="preserve" width="9" height="9" viewBox="21 387 9 9">

<rect style="opacity:1.0;fill:#FFFFFF;stroke:none" width="512.0" height="512.0" x="0.0" y="0.0"> </rect>
<path class="atom-1" d="M 21.5 391.5 Q 21.5 390.2, 21.9 389.3 Q 22.2 388.6, 22.7 388.1 Q 23.2 387.6, 23.8 387.4 Q 24.6 387.0, 25.6 387.0 Q 27.5 387.0, 28.6 388.2 Q 29.7 389.4, 29.7 391.4 Q 29.7 393.5, 28.6 394.6 Q 27.5 395.8, 25.6 395.8 Q 23.7 395.8, 22.6 394.6 Q 21.5 393.5, 21.5 391.5 M 23.3 391.4 Q 23.3 392.8, 23.9 393.6 Q 24.6 394.3, 25.6 394.3 Q 26.6 394.3, 27.3 393.6 Q 27.9 392.9, 27.9 391.4 Q 27.9 389.9, 27.3 389.2 Q 26.7 388.5, 25.6 388.5 Q 24.5 388.5, 23.9 389.2 Q 23.3 389.9, 23.3 391.4 " fill="#FF0000" />
</svg>