<?xml version='1.0' encoding='iso-8859-1'?>
<svg xmlns="http://www.w3.org/2000/svg" version="1.1" baseProfile="full" xml:space="preserve" width="15" height="9" viewBox="18 387 15 9">

<rect style="opacity:1.0;fill:#FFFFFF;stroke:none" width="512.0" height="512.0" x="0.0" y="0.0"> </rect>
<path class="atom-1" d="M 18.7 392.9 L 20.4 392.7 Q 20.5 393.6, 21.0 394.0 Q 21.4 394.3, 22.2 394.3 Q 23.0 394.3, 23.4 394.0 Q 23.9 393.6, 23.9 393.2 Q 23.9 392.9, 23.7 392.7 Q 23.5 392.5, 23.1 392.3 Q 22.8 392.2, 21.7 391.9 Q 20.3 391.6, 19.8 391.1 Q 19.0 390.4, 19.0 389.4 Q 19.0 388.7, 19.4 388.2 Q 19.7 387.6, 20.4 387.3 Q 21.1 387.0, 22.1 387.0 Q 23.7 387.0, 24.5 387.7 Q 25.3 388.4, 25.3 389.6 L 23.6 389.7 Q 23.5 389.0, 23.1 388.7 Q 22.8 388.4, 22.1 388.4 Q 21.3 388.4, 20.9 388.8 Q 20.6 388.9, 20.6 389.3 Q 20.6 389.6, 20.9 389.8 Q 21.2 390.1, 22.5 390.4 Q 23.7 390.7, 24.3 391.0 Q 24.9 391.3, 25.2 391.8 Q 25.6 392.4, 25.6 393.2 Q 25.6 393.9, 25.2 394.5 Q 24.8 395.2, 24.0 395.5 Q 23.3 395.8, 22.2 395.8 Q 20.6 395.8, 19.7 395.1 Q 18.9 394.3, 18.7 392.9 " fill="#000000" />
<path class="atom-1" d="M 30.8 393.7 L 32.4 394.0 Q 32.1 394.8, 31.4 395.3 Q 30.8 395.8, 29.8 395.8 Q 28.2 395.8, 27.4 394.7 Q 26.8 393.9, 26.8 392.6 Q 26.8 391.1, 27.6 390.2 Q 28.4 389.4, 29.6 389.4 Q 31.0 389.4, 31.8 390.3 Q 32.5 391.2, 32.5 393.0 L 28.4 393.0 Q 28.5 393.8, 28.8 394.2 Q 29.2 394.6, 29.8 394.6 Q 30.2 394.6, 30.4 394.4 Q 30.7 394.2, 30.8 393.7 M 30.9 392.0 Q 30.9 391.3, 30.5 391.0 Q 30.2 390.6, 29.7 390.6 Q 29.2 390.6, 28.8 391.0 Q 28.5 391.4, 28.5 392.0 L 30.9 392.0 " fill="#000000" />
</svg>