<?xml version='1.0' encoding='iso-8859-1'?>
<svg xmlns="http://www.w3.org/2000/svg" version="1.1" baseProfile="full" xml:space="preserve" width="47" height="31" viewBox="231 173 47 31">

<rect style="opacity:1.0;fill:#FFFFFF;stroke:none" width="512.0" height="512.0" x="0.0" y="0.0"> </rect>
<path class="atom-1" d="M 231.0 193.7 L 236.6 193.1 Q 237.1 195.9, 238.6 197.3 Q 240.2 198.6, 242.8 198.6 Q 245.6 198.6, 247.0 197.4 Q 248.5 196.2, 248.5 194.6 Q 248.5 193.6, 247.9 192.9 Q 247.3 192.2, 245.8 191.7 Q 244.8 191.3, 241.2 190.4 Q 236.5 189.3, 234.6 187.6 Q 232.0 185.2, 232.0 181.8 Q 232.0 179.6, 233.2 177.8 Q 234.5 175.8, 236.8 174.8 Q 239.1 173.8, 242.4 173.8 Q 247.8 173.8, 250.6 176.2 Q 253.3 178.6, 253.4 182.5 L 247.6 182.8 Q 247.3 180.6, 246.0 179.6 Q 244.8 178.6, 242.4 178.6 Q 239.9 178.6, 238.4 179.7 Q 237.5 180.3, 237.5 181.4 Q 237.5 182.5, 238.4 183.2 Q 239.5 184.1, 243.7 185.1 Q 247.9 186.1, 249.9 187.2 Q 252.0 188.2, 253.1 190.1 Q 254.2 191.9, 254.2 194.6 Q 254.2 197.1, 252.9 199.2 Q 251.5 201.4, 249.0 202.4 Q 246.5 203.5, 242.8 203.5 Q 237.4 203.5, 234.4 201.0 Q 231.5 198.5, 231.0 193.7 " fill="#000000" />
<path class="atom-1" d="M 271.9 196.4 L 277.4 197.3 Q 276.4 200.3, 274.1 201.9 Q 271.8 203.4, 268.4 203.4 Q 263.0 203.4, 260.4 199.9 Q 258.3 197.1, 258.3 192.8 Q 258.3 187.6, 261.0 184.7 Q 263.7 181.8, 267.8 181.8 Q 272.5 181.8, 275.1 184.8 Q 277.8 187.9, 277.7 194.2 L 264.0 194.2 Q 264.0 196.6, 265.3 198.0 Q 266.6 199.3, 268.4 199.3 Q 269.7 199.3, 270.6 198.6 Q 271.5 197.9, 271.9 196.4 M 272.3 190.8 Q 272.2 188.4, 271.0 187.2 Q 269.9 186.0, 268.2 186.0 Q 266.4 186.0, 265.2 187.3 Q 264.0 188.6, 264.1 190.8 L 272.3 190.8 " fill="#000000" />
</svg>