<?xml version='1.0' encoding='iso-8859-1'?>
<svg xmlns="http://www.w3.org/2000/svg" version="1.1" baseProfile="full" xml:space="preserve" width="98" height="102" viewBox="6 309 98 102">

<rect style="opacity:1.0;fill:#FFFFFF;stroke:none" width="512.0" height="512.0" x="0.0" y="0.0"> </rect>
<path class="bond-1 atom-1 atom-2" d="M 102.8,360.6 L 73.6,356.0" style="fill:none;fill-rule:evenodd;stroke:#000000;stroke-width:2.0px;stroke-linecap:butt;stroke-linejoin:miter;stroke-opacity:1" />
<path class="bond-1 atom-1 atom-2" d="M 100.9,355.9 L 76.5,352.0" style="fill:none;fill-rule:evenodd;stroke:#000000;stroke-width:2.0px;stroke-linecap:butt;stroke-linejoin:miter;stroke-opacity:1" />
<path class="bond-2 atom-2 atom-3" d="M 73.6,356.0 L 68.3,345.6" style="fill:none;fill-rule:evenodd;stroke:#000000;stroke-width:2.0px;stroke-linecap:butt;stroke-linejoin:miter;stroke-opacity:1" />
<path class="bond-2 atom-2 atom-3" d="M 68.3,345.6 L 62.9,335.1" style="fill:none;fill-rule:evenodd;stroke:#CCCC00;stroke-width:2.0px;stroke-linecap:butt;stroke-linejoin:miter;stroke-opacity:1" />
<path class="bond-3 atom-3 atom-4" d="M 55.7,330.4 L 43.4,332.3" style="fill:none;fill-rule:evenodd;stroke:#CCCC00;stroke-width:2.0px;stroke-linecap:butt;stroke-linejoin:miter;stroke-opacity:1" />
<path class="bond-3 atom-3 atom-4" d="M 43.4,332.3 L 31.0,334.3" style="fill:none;fill-rule:evenodd;stroke:#000000;stroke-width:2.0px;stroke-linecap:butt;stroke-linejoin:miter;stroke-opacity:1" />
<path class="bond-4 atom-4 atom-5" d="M 33.7,333.9 L 24.9,325.1" style="fill:none;fill-rule:evenodd;stroke:#000000;stroke-width:2.0px;stroke-linecap:butt;stroke-linejoin:miter;stroke-opacity:1" />
<path class="bond-4 atom-4 atom-5" d="M 24.9,325.1 L 16.0,316.2" style="fill:none;fill-rule:evenodd;stroke:#CCCC00;stroke-width:2.0px;stroke-linecap:butt;stroke-linejoin:miter;stroke-opacity:1" />
<path class="bond-4 atom-4 atom-5" d="M 30.5,337.0 L 21.7,328.2" style="fill:none;fill-rule:evenodd;stroke:#000000;stroke-width:2.0px;stroke-linecap:butt;stroke-linejoin:miter;stroke-opacity:1" />
<path class="bond-4 atom-4 atom-5" d="M 21.7,328.2 L 12.9,319.4" style="fill:none;fill-rule:evenodd;stroke:#CCCC00;stroke-width:2.0px;stroke-linecap:butt;stroke-linejoin:miter;stroke-opacity:1" />
<path class="bond-5 atom-4 atom-6" d="M 31.0,334.3 L 29.1,346.3" style="fill:none;fill-rule:evenodd;stroke:#000000;stroke-width:2.0px;stroke-linecap:butt;stroke-linejoin:miter;stroke-opacity:1" />
<path class="bond-5 atom-4 atom-6" d="M 29.1,346.3 L 27.2,358.3" style="fill:none;fill-rule:evenodd;stroke:#0000FF;stroke-width:2.0px;stroke-linecap:butt;stroke-linejoin:miter;stroke-opacity:1" />
<path class="bond-7 atom-6 atom-8" d="M 30.7,365.7 L 41.7,371.3" style="fill:none;fill-rule:evenodd;stroke:#0000FF;stroke-width:2.0px;stroke-linecap:butt;stroke-linejoin:miter;stroke-opacity:1" />
<path class="bond-7 atom-6 atom-8" d="M 41.7,371.3 L 52.7,376.9" style="fill:none;fill-rule:evenodd;stroke:#000000;stroke-width:2.0px;stroke-linecap:butt;stroke-linejoin:miter;stroke-opacity:1" />
<path class="bond-8 atom-8 atom-9" d="M 50.2,375.7 L 52.3,388.4" style="fill:none;fill-rule:evenodd;stroke:#000000;stroke-width:2.0px;stroke-linecap:butt;stroke-linejoin:miter;stroke-opacity:1" />
<path class="bond-8 atom-8 atom-9" d="M 52.3,388.4 L 54.3,401.2" style="fill:none;fill-rule:evenodd;stroke:#FF0000;stroke-width:2.0px;stroke-linecap:butt;stroke-linejoin:miter;stroke-opacity:1" />
<path class="bond-8 atom-8 atom-9" d="M 54.6,375.0 L 56.6,387.7" style="fill:none;fill-rule:evenodd;stroke:#000000;stroke-width:2.0px;stroke-linecap:butt;stroke-linejoin:miter;stroke-opacity:1" />
<path class="bond-8 atom-8 atom-9" d="M 56.6,387.7 L 58.7,400.5" style="fill:none;fill-rule:evenodd;stroke:#FF0000;stroke-width:2.0px;stroke-linecap:butt;stroke-linejoin:miter;stroke-opacity:1" />
<path class="bond-9 atom-8 atom-2" d="M 52.7,376.9 L 73.6,356.0" style="fill:none;fill-rule:evenodd;stroke:#000000;stroke-width:2.0px;stroke-linecap:butt;stroke-linejoin:miter;stroke-opacity:1" />
<path d="M 103.2,360.2 L 102.8,360.6 L 101.3,360.4" style="fill:none;stroke:#000000;stroke-width:2.0px;stroke-linecap:butt;stroke-linejoin:miter;stroke-opacity:1;" />
<path d="M 31.6,334.2 L 31.0,334.3 L 30.9,334.9" style="fill:none;stroke:#000000;stroke-width:2.0px;stroke-linecap:butt;stroke-linejoin:miter;stroke-opacity:1;" />
<path d="M 52.1,376.6 L 52.7,376.9 L 53.7,375.9" style="fill:none;stroke:#000000;stroke-width:2.0px;stroke-linecap:butt;stroke-linejoin:miter;stroke-opacity:1;" />
<path class="atom-3" d="M 56.7 331.2 L 58.4 331.1 Q 58.5 331.9, 59.0 332.3 Q 59.5 332.7, 60.2 332.7 Q 61.1 332.7, 61.5 332.3 Q 61.9 332.0, 61.9 331.5 Q 61.9 331.2, 61.7 331.0 Q 61.5 330.8, 61.1 330.6 Q 60.8 330.5, 59.7 330.3 Q 58.4 329.9, 57.8 329.4 Q 57.0 328.7, 57.0 327.7 Q 57.0 327.1, 57.4 326.5 Q 57.8 326.0, 58.4 325.7 Q 59.1 325.4, 60.1 325.4 Q 61.7 325.4, 62.5 326.1 Q 63.3 326.8, 63.4 327.9 L 61.7 328.0 Q 61.5 327.4, 61.2 327.1 Q 60.8 326.8, 60.1 326.8 Q 59.4 326.8, 58.9 327.1 Q 58.7 327.3, 58.7 327.6 Q 58.7 327.9, 58.9 328.1 Q 59.2 328.4, 60.5 328.7 Q 61.7 329.0, 62.3 329.3 Q 62.9 329.6, 63.3 330.2 Q 63.6 330.7, 63.6 331.5 Q 63.6 332.2, 63.2 332.9 Q 62.8 333.5, 62.1 333.8 Q 61.3 334.1, 60.2 334.1 Q 58.6 334.1, 57.7 333.4 Q 56.9 332.6, 56.7 331.2 " fill="#CCCC00" />
<path class="atom-5" d="M 6.6 314.9 L 8.3 314.8 Q 8.4 315.6, 8.9 316.0 Q 9.4 316.4, 10.1 316.4 Q 11.0 316.4, 11.4 316.1 Q 11.8 315.7, 11.8 315.2 Q 11.8 314.9, 11.6 314.7 Q 11.4 314.5, 11.0 314.4 Q 10.7 314.3, 9.6 314.0 Q 8.3 313.7, 7.7 313.2 Q 6.9 312.5, 6.9 311.5 Q 6.9 310.8, 7.3 310.2 Q 7.7 309.7, 8.4 309.4 Q 9.0 309.1, 10.0 309.1 Q 11.6 309.1, 12.4 309.8 Q 13.2 310.5, 13.3 311.7 L 11.6 311.7 Q 11.4 311.1, 11.1 310.8 Q 10.7 310.5, 10.0 310.5 Q 9.3 310.5, 8.8 310.8 Q 8.6 311.0, 8.6 311.3 Q 8.6 311.6, 8.8 311.9 Q 9.1 312.1, 10.4 312.4 Q 11.6 312.7, 12.2 313.0 Q 12.8 313.3, 13.2 313.9 Q 13.5 314.4, 13.5 315.2 Q 13.5 316.0, 13.1 316.6 Q 12.7 317.2, 12.0 317.5 Q 11.2 317.9, 10.1 317.9 Q 8.5 317.9, 7.7 317.1 Q 6.8 316.4, 6.6 314.9 " fill="#CCCC00" />
<path class="atom-6" d="M 23.0 367.7 L 23.0 359.3 L 24.6 359.3 L 28.1 364.9 L 28.1 359.3 L 29.7 359.3 L 29.7 367.7 L 28.0 367.7 L 24.6 362.2 L 24.6 367.7 L 23.0 367.7 " fill="#0000FF" />
<path class="atom-9" d="M 53.2 406.2 Q 53.2 404.9, 53.6 404.1 Q 53.9 403.4, 54.4 402.9 Q 54.9 402.4, 55.5 402.1 Q 56.3 401.8, 57.3 401.8 Q 59.2 401.8, 60.3 403.0 Q 61.4 404.1, 61.4 406.2 Q 61.4 408.2, 60.3 409.4 Q 59.2 410.6, 57.3 410.6 Q 55.4 410.6, 54.3 409.4 Q 53.2 408.3, 53.2 406.2 M 55.0 406.2 Q 55.0 407.6, 55.6 408.4 Q 56.3 409.1, 57.3 409.1 Q 58.3 409.1, 59.0 408.4 Q 59.6 407.6, 59.6 406.2 Q 59.6 404.7, 59.0 404.0 Q 58.4 403.3, 57.3 403.3 Q 56.2 403.3, 55.6 404.0 Q 55.0 404.7, 55.0 406.2 " fill="#FF0000" />
</svg>