<?xml version='1.0' encoding='iso-8859-1'?>
<svg xmlns="http://www.w3.org/2000/svg" version="1.1" baseProfile="full" xml:space="preserve" width="391" height="408" viewBox="40 52 391 408">

<rect style="opacity:1.0;fill:#FFFFFF;stroke:none" width="512.0" height="512.0" x="0.0" y="0.0"> </rect>
<path class="bond-1 atom-1 atom-2" d="M 428.6,259.4 L 310.0,240.6" style="fill:none;fill-rule:evenodd;stroke:#000000;stroke-width:2.0px;stroke-linecap:butt;stroke-linejoin:miter;stroke-opacity:1" />
<path class="bond-1 atom-1 atom-2" d="M 421.1,240.0 L 321.9,224.2" style="fill:none;fill-rule:evenodd;stroke:#000000;stroke-width:2.0px;stroke-linecap:butt;stroke-linejoin:miter;stroke-opacity:1" />
<path class="bond-2 atom-2 atom-3" d="M 310.0,240.6 L 287.6,196.6" style="fill:none;fill-rule:evenodd;stroke:#000000;stroke-width:2.0px;stroke-linecap:butt;stroke-linejoin:miter;stroke-opacity:1" />
<path class="bond-2 atom-2 atom-3" d="M 287.6,196.6 L 265.2,152.6" style="fill:none;fill-rule:evenodd;stroke:#CCCC00;stroke-width:2.0px;stroke-linecap:butt;stroke-linejoin:miter;stroke-opacity:1" />
<path class="bond-3 atom-3 atom-4" d="M 239.9,136.1 L 188.4,144.2" style="fill:none;fill-rule:evenodd;stroke:#CCCC00;stroke-width:2.0px;stroke-linecap:butt;stroke-linejoin:miter;stroke-opacity:1" />
<path class="bond-3 atom-3 atom-4" d="M 188.4,144.2 L 137.0,152.4" style="fill:none;fill-rule:evenodd;stroke:#000000;stroke-width:2.0px;stroke-linecap:butt;stroke-linejoin:miter;stroke-opacity:1" />
<path class="bond-4 atom-4 atom-5" d="M 148.0,150.6 L 111.0,113.7" style="fill:none;fill-rule:evenodd;stroke:#000000;stroke-width:2.0px;stroke-linecap:butt;stroke-linejoin:miter;stroke-opacity:1" />
<path class="bond-4 atom-4 atom-5" d="M 111.0,113.7 L 74.1,76.7" style="fill:none;fill-rule:evenodd;stroke:#CCCC00;stroke-width:2.0px;stroke-linecap:butt;stroke-linejoin:miter;stroke-opacity:1" />
<path class="bond-4 atom-4 atom-5" d="M 135.2,163.4 L 98.3,126.4" style="fill:none;fill-rule:evenodd;stroke:#000000;stroke-width:2.0px;stroke-linecap:butt;stroke-linejoin:miter;stroke-opacity:1" />
<path class="bond-4 atom-4 atom-5" d="M 98.3,126.4 L 61.3,89.5" style="fill:none;fill-rule:evenodd;stroke:#CCCC00;stroke-width:2.0px;stroke-linecap:butt;stroke-linejoin:miter;stroke-opacity:1" />
<path class="bond-5 atom-4 atom-6" d="M 137.0,152.4 L 129.0,202.5" style="fill:none;fill-rule:evenodd;stroke:#000000;stroke-width:2.0px;stroke-linecap:butt;stroke-linejoin:miter;stroke-opacity:1" />
<path class="bond-5 atom-4 atom-6" d="M 129.0,202.5 L 121.1,252.7" style="fill:none;fill-rule:evenodd;stroke:#0000FF;stroke-width:2.0px;stroke-linecap:butt;stroke-linejoin:miter;stroke-opacity:1" />
<path class="bond-7 atom-6 atom-8" d="M 133.5,278.8 L 179.3,302.1" style="fill:none;fill-rule:evenodd;stroke:#0000FF;stroke-width:2.0px;stroke-linecap:butt;stroke-linejoin:miter;stroke-opacity:1" />
<path class="bond-7 atom-6 atom-8" d="M 179.3,302.1 L 225.1,325.4" style="fill:none;fill-rule:evenodd;stroke:#000000;stroke-width:2.0px;stroke-linecap:butt;stroke-linejoin:miter;stroke-opacity:1" />
<path class="bond-8 atom-8 atom-9" d="M 215.2,320.4 L 223.6,373.6" style="fill:none;fill-rule:evenodd;stroke:#000000;stroke-width:2.0px;stroke-linecap:butt;stroke-linejoin:miter;stroke-opacity:1" />
<path class="bond-8 atom-8 atom-9" d="M 223.6,373.6 L 232.1,426.9" style="fill:none;fill-rule:evenodd;stroke:#FF0000;stroke-width:2.0px;stroke-linecap:butt;stroke-linejoin:miter;stroke-opacity:1" />
<path class="bond-8 atom-8 atom-9" d="M 233.0,317.6 L 241.4,370.8" style="fill:none;fill-rule:evenodd;stroke:#000000;stroke-width:2.0px;stroke-linecap:butt;stroke-linejoin:miter;stroke-opacity:1" />
<path class="bond-8 atom-8 atom-9" d="M 241.4,370.8 L 249.9,424.1" style="fill:none;fill-rule:evenodd;stroke:#FF0000;stroke-width:2.0px;stroke-linecap:butt;stroke-linejoin:miter;stroke-opacity:1" />
<path class="bond-9 atom-8 atom-2" d="M 225.1,325.4 L 310.0,240.6" style="fill:none;fill-rule:evenodd;stroke:#000000;stroke-width:2.0px;stroke-linecap:butt;stroke-linejoin:miter;stroke-opacity:1" />
<path d="M 430.2,257.3 L 428.6,259.4 L 422.6,258.4" style="fill:none;stroke:#000000;stroke-width:2.0px;stroke-linecap:butt;stroke-linejoin:miter;stroke-opacity:1;" />
<path d="M 139.5,152.0 L 137.0,152.4 L 136.6,154.9" style="fill:none;stroke:#000000;stroke-width:2.0px;stroke-linecap:butt;stroke-linejoin:miter;stroke-opacity:1;" />
<path d="M 222.8,324.3 L 225.1,325.4 L 229.4,321.2" style="fill:none;stroke:#000000;stroke-width:2.0px;stroke-linecap:butt;stroke-linejoin:miter;stroke-opacity:1;" />
<path class="atom-3" d="M 243.9 138.9 L 249.5 138.3 Q 250.0 141.1, 251.6 142.5 Q 253.1 143.8, 255.8 143.8 Q 258.5 143.8, 260.0 142.6 Q 261.4 141.4, 261.4 139.9 Q 261.4 138.8, 260.8 138.1 Q 260.2 137.4, 258.7 136.9 Q 257.7 136.5, 254.1 135.6 Q 249.4 134.5, 247.6 132.8 Q 244.9 130.4, 244.9 127.0 Q 244.9 124.9, 246.1 123.0 Q 247.4 121.0, 249.7 120.1 Q 252.1 119.1, 255.4 119.1 Q 260.8 119.1, 263.5 121.4 Q 266.2 123.8, 266.3 127.7 L 260.6 128.0 Q 260.2 125.8, 259.0 124.8 Q 257.7 123.8, 255.3 123.8 Q 252.8 123.8, 251.4 124.9 Q 250.4 125.5, 250.4 126.7 Q 250.4 127.7, 251.3 128.4 Q 252.4 129.3, 256.6 130.3 Q 260.8 131.3, 262.8 132.4 Q 264.9 133.4, 266.0 135.3 Q 267.2 137.1, 267.2 139.8 Q 267.2 142.3, 265.8 144.4 Q 264.4 146.6, 261.9 147.7 Q 259.4 148.7, 255.7 148.7 Q 250.3 148.7, 247.4 146.2 Q 244.4 143.7, 243.9 138.9 " fill="#CCCC00" />
<path class="atom-5" d="M 40.4 72.7 L 46.1 72.2 Q 46.6 75.0, 48.1 76.4 Q 49.7 77.7, 52.3 77.7 Q 55.1 77.7, 56.5 76.5 Q 57.9 75.3, 57.9 73.7 Q 57.9 72.7, 57.3 72.0 Q 56.8 71.3, 55.3 70.8 Q 54.3 70.4, 50.6 69.5 Q 46.0 68.4, 44.1 66.7 Q 41.5 64.3, 41.5 60.9 Q 41.5 58.7, 42.7 56.8 Q 44.0 54.9, 46.3 53.9 Q 48.6 52.9, 51.9 52.9 Q 57.3 52.9, 60.0 55.3 Q 62.8 57.7, 62.9 61.6 L 57.1 61.9 Q 56.8 59.7, 55.5 58.7 Q 54.3 57.7, 51.9 57.7 Q 49.4 57.7, 47.9 58.8 Q 47.0 59.4, 47.0 60.5 Q 47.0 61.6, 47.9 62.3 Q 49.0 63.2, 53.2 64.2 Q 57.4 65.2, 59.4 66.3 Q 61.4 67.3, 62.6 69.2 Q 63.7 71.0, 63.7 73.7 Q 63.7 76.2, 62.4 78.3 Q 61.0 80.5, 58.5 81.5 Q 56.0 82.6, 52.3 82.6 Q 46.8 82.6, 43.9 80.1 Q 41.0 77.5, 40.4 72.7 " fill="#CCCC00" />
<path class="atom-6" d="M 106.8 285.3 L 106.8 256.6 L 112.4 256.6 L 124.2 275.8 L 124.2 256.6 L 129.5 256.6 L 129.5 285.3 L 123.7 285.3 L 112.2 266.6 L 112.2 285.3 L 106.8 285.3 " fill="#0000FF" />
<path class="atom-9" d="M 230.0 444.4 Q 230.0 440.1, 231.3 437.1 Q 232.3 434.9, 234.0 433.2 Q 235.7 431.4, 237.7 430.6 Q 240.4 429.5, 243.9 429.5 Q 250.2 429.5, 254.0 433.4 Q 257.8 437.3, 257.8 444.3 Q 257.8 451.2, 254.0 455.2 Q 250.2 459.1, 243.9 459.1 Q 237.5 459.1, 233.8 455.2 Q 230.0 451.3, 230.0 444.4 M 236.0 444.2 Q 236.0 449.1, 238.2 451.6 Q 240.5 454.1, 243.9 454.1 Q 247.4 454.1, 249.6 451.6 Q 251.8 449.1, 251.8 444.2 Q 251.8 439.2, 249.6 436.8 Q 247.5 434.4, 243.9 434.4 Q 240.3 434.4, 238.1 436.9 Q 236.0 439.3, 236.0 444.2 " fill="#FF0000" />
</svg>