<?xml version='1.0' encoding='iso-8859-1'?>
<svg xmlns="http://www.w3.org/2000/svg" version="1.1" baseProfile="full" xml:space="preserve" width="35" height="30" viewBox="436 241 35 30">

<rect style="opacity:1.0;fill:#FFFFFF;stroke:none" width="512.0" height="512.0" x="0.0" y="0.0"> </rect>
<path class="atom-1" d="M 455.5 259.8 L 461.1 261.6 Q 459.8 266.3, 456.8 268.5 Q 453.8 270.8, 449.2 270.8 Q 443.5 270.8, 439.9 266.9 Q 436.2 263.0, 436.2 256.3 Q 436.2 249.1, 439.9 245.2 Q 443.6 241.2, 449.6 241.2 Q 454.8 241.2, 458.1 244.3 Q 460.1 246.1, 461.1 249.6 L 455.3 250.9 Q 454.8 248.7, 453.2 247.4 Q 451.6 246.1, 449.3 246.1 Q 446.1 246.1, 444.1 248.4 Q 442.1 250.7, 442.1 255.8 Q 442.1 261.3, 444.1 263.6 Q 446.1 265.9, 449.2 265.9 Q 451.5 265.9, 453.1 264.4 Q 454.8 262.9, 455.5 259.8 " fill="#00CC00" />
<path class="atom-1" d="M 464.7 270.3 L 464.7 241.7 L 470.2 241.7 L 470.2 270.3 L 464.7 270.3 " fill="#00CC00" />
</svg>