<?xml version='1.0' encoding='iso-8859-1'?>
<svg xmlns="http://www.w3.org/2000/svg" version="1.1" baseProfile="full" xml:space="preserve" width="11" height="10" viewBox="25 401 11 10">

<rect style="opacity:1.0;fill:#FFFFFF;stroke:none" width="512.0" height="512.0" x="0.0" y="0.0"> </rect>
<path class="atom-1" d="M 31.6 407.3 L 33.2 407.8 Q 32.9 409.2, 32.0 409.9 Q 31.1 410.6, 29.7 410.6 Q 28.0 410.6, 27.0 409.4 Q 25.9 408.3, 25.9 406.3 Q 25.9 404.2, 27.0 403.0 Q 28.1 401.8, 29.8 401.8 Q 31.4 401.8, 32.4 402.7 Q 32.9 403.3, 33.2 404.3 L 31.5 404.7 Q 31.4 404.0, 30.9 403.7 Q 30.4 403.3, 29.7 403.3 Q 28.8 403.3, 28.2 403.9 Q 27.6 404.6, 27.6 406.1 Q 27.6 407.7, 28.2 408.4 Q 28.8 409.1, 29.7 409.1 Q 30.4 409.1, 30.9 408.7 Q 31.4 408.2, 31.6 407.3 " fill="#00CC00" />
<path class="atom-1" d="M 34.3 410.4 L 34.3 402.0 L 35.9 402.0 L 35.9 410.4 L 34.3 410.4 " fill="#00CC00" />
</svg>