<?xml version='1.0' encoding='iso-8859-1'?>
<svg xmlns="http://www.w3.org/2000/svg" version="1.1" baseProfile="full" xml:space="preserve" width="42" height="30" viewBox="421 241 42 30">

<rect style="opacity:1.0;fill:#FFFFFF;stroke:none" width="512.0" height="512.0" x="0.0" y="0.0"> </rect>
<path class="atom-1" d="M 421.4 241.7 L 432.8 241.7 Q 436.2 241.7, 437.9 242.0 Q 439.5 242.3, 440.9 243.1 Q 442.2 244.0, 443.1 245.6 Q 443.9 247.0, 443.9 248.9 Q 443.9 250.9, 442.8 252.6 Q 441.8 254.3, 439.9 255.1 Q 442.5 255.9, 443.9 257.7 Q 445.3 259.5, 445.3 262.0 Q 445.3 264.0, 444.4 265.8 Q 443.5 267.7, 441.9 268.8 Q 440.4 269.9, 438.1 270.1 Q 436.6 270.3, 431.1 270.3 L 421.4 270.3 L 421.4 241.7 M 427.1 246.4 L 427.1 253.1 L 430.9 253.1 Q 434.3 253.1, 435.1 253.0 Q 436.6 252.8, 437.5 252.0 Q 438.3 251.1, 438.3 249.7 Q 438.3 248.4, 437.6 247.6 Q 436.8 246.7, 435.4 246.5 Q 434.5 246.4, 430.5 246.4 L 427.1 246.4 M 427.1 257.8 L 427.1 265.5 L 432.5 265.5 Q 435.6 265.5, 436.5 265.3 Q 437.7 265.1, 438.5 264.2 Q 439.4 263.3, 439.4 261.7 Q 439.4 260.5, 438.7 259.6 Q 438.1 258.7, 436.9 258.2 Q 435.8 257.8, 431.8 257.8 L 427.1 257.8 " fill="#7F4C19" />
<path class="atom-1" d="M 454.7 270.3 L 449.2 270.3 L 449.2 249.6 L 454.3 249.6 L 454.3 252.5 Q 455.6 250.4, 456.6 249.8 Q 457.7 249.1, 459.0 249.1 Q 460.9 249.1, 462.6 250.1 L 460.9 254.9 Q 459.5 254.0, 458.3 254.0 Q 457.2 254.0, 456.4 254.7 Q 455.6 255.3, 455.1 257.0 Q 454.7 258.6, 454.7 263.9 L 454.7 270.3 " fill="#7F4C19" />
</svg>