<?xml version='1.0' encoding='iso-8859-1'?>
<svg xmlns="http://www.w3.org/2000/svg" version="1.1" baseProfile="full" xml:space="preserve" width="13" height="10" viewBox="26 401 13 10">

<rect style="opacity:1.0;fill:#FFFFFF;stroke:none" width="512.0" height="512.0" x="0.0" y="0.0"> </rect>
<path class="atom-1" d="M 26.0 401.9 L 29.4 401.9 Q 30.4 401.9, 30.9 402.0 Q 31.4 402.1, 31.8 402.3 Q 32.2 402.6, 32.4 403.0 Q 32.7 403.5, 32.7 404.0 Q 32.7 404.6, 32.4 405.1 Q 32.0 405.6, 31.5 405.9 Q 32.3 406.1, 32.7 406.6 Q 33.1 407.2, 33.1 407.9 Q 33.1 408.5, 32.8 409.0 Q 32.6 409.6, 32.1 409.9 Q 31.6 410.2, 31.0 410.3 Q 30.5 410.3, 28.9 410.3 L 26.0 410.3 L 26.0 401.9 M 27.7 403.3 L 27.7 405.3 L 28.8 405.3 Q 29.8 405.3, 30.1 405.2 Q 30.5 405.2, 30.8 404.9 Q 31.0 404.7, 31.0 404.3 Q 31.0 403.9, 30.8 403.6 Q 30.6 403.4, 30.2 403.3 Q 29.9 403.3, 28.7 403.3 L 27.7 403.3 M 27.7 406.7 L 27.7 408.9 L 29.3 408.9 Q 30.2 408.9, 30.5 408.9 Q 30.9 408.8, 31.1 408.5 Q 31.3 408.3, 31.3 407.8 Q 31.3 407.4, 31.2 407.2 Q 31.0 406.9, 30.6 406.8 Q 30.3 406.7, 29.1 406.7 L 27.7 406.7 " fill="#7F4C19" />
<path class="atom-1" d="M 35.9 410.3 L 34.2 410.3 L 34.2 404.2 L 35.7 404.2 L 35.7 405.1 Q 36.1 404.5, 36.4 404.3 Q 36.8 404.1, 37.1 404.1 Q 37.7 404.1, 38.2 404.4 L 37.7 405.8 Q 37.3 405.5, 36.9 405.5 Q 36.6 405.5, 36.4 405.7 Q 36.1 405.9, 36.0 406.4 Q 35.9 406.9, 35.9 408.5 L 35.9 410.3 " fill="#7F4C19" />
</svg>