<?xml version='1.0' encoding='iso-8859-1'?>
<svg xmlns="http://www.w3.org/2000/svg" version="1.1" baseProfile="full" xml:space="preserve" width="150" height="122" viewBox="3 289 150 122">

<rect style="opacity:1.0;fill:#FFFFFF;stroke:none" width="512.0" height="512.0" x="0.0" y="0.0"> </rect>
<path class="bond-1 atom-1 atom-2" d="M 4.2,356.0 L 31.7,345.1" style="fill:none;fill-rule:evenodd;stroke:#000000;stroke-width:2.0px;stroke-linecap:butt;stroke-linejoin:miter;stroke-opacity:1" />
<path class="bond-1 atom-1 atom-2" d="M 8.3,359.2 L 31.2,350.0" style="fill:none;fill-rule:evenodd;stroke:#000000;stroke-width:2.0px;stroke-linecap:butt;stroke-linejoin:miter;stroke-opacity:1" />
<path class="bond-2 atom-2 atom-3" d="M 31.7,345.1 L 42.0,351.6" style="fill:none;fill-rule:evenodd;stroke:#000000;stroke-width:2.0px;stroke-linecap:butt;stroke-linejoin:miter;stroke-opacity:1" />
<path class="bond-2 atom-2 atom-3" d="M 42.0,351.6 L 52.3,358.0" style="fill:none;fill-rule:evenodd;stroke:#CCCC00;stroke-width:2.0px;stroke-linecap:butt;stroke-linejoin:miter;stroke-opacity:1" />
<path class="bond-3 atom-3 atom-4" d="M 61.1,357.2 L 70.3,349.5" style="fill:none;fill-rule:evenodd;stroke:#CCCC00;stroke-width:2.0px;stroke-linecap:butt;stroke-linejoin:miter;stroke-opacity:1" />
<path class="bond-3 atom-3 atom-4" d="M 70.3,349.5 L 79.4,341.9" style="fill:none;fill-rule:evenodd;stroke:#000000;stroke-width:2.0px;stroke-linecap:butt;stroke-linejoin:miter;stroke-opacity:1" />
<path class="bond-4 atom-4 atom-5" d="M 79.4,341.9 L 75.0,330.8" style="fill:none;fill-rule:evenodd;stroke:#000000;stroke-width:2.0px;stroke-linecap:butt;stroke-linejoin:miter;stroke-opacity:1" />
<path class="bond-4 atom-4 atom-5" d="M 75.0,330.8 L 70.6,319.7" style="fill:none;fill-rule:evenodd;stroke:#0000FF;stroke-width:2.0px;stroke-linecap:butt;stroke-linejoin:miter;stroke-opacity:1" />
<path class="bond-6 atom-5 atom-7" d="M 64.1,314.8 L 51.6,315.6" style="fill:none;fill-rule:evenodd;stroke:#0000FF;stroke-width:2.0px;stroke-linecap:butt;stroke-linejoin:miter;stroke-opacity:1" />
<path class="bond-6 atom-5 atom-7" d="M 51.6,315.6 L 39.0,316.4" style="fill:none;fill-rule:evenodd;stroke:#000000;stroke-width:2.0px;stroke-linecap:butt;stroke-linejoin:miter;stroke-opacity:1" />
<path class="bond-7 atom-7 atom-8" d="M 41.7,316.2 L 34.0,307.0" style="fill:none;fill-rule:evenodd;stroke:#000000;stroke-width:2.0px;stroke-linecap:butt;stroke-linejoin:miter;stroke-opacity:1" />
<path class="bond-7 atom-7 atom-8" d="M 34.0,307.0 L 26.3,297.7" style="fill:none;fill-rule:evenodd;stroke:#FF0000;stroke-width:2.0px;stroke-linecap:butt;stroke-linejoin:miter;stroke-opacity:1" />
<path class="bond-7 atom-7 atom-8" d="M 38.3,319.1 L 30.6,309.8" style="fill:none;fill-rule:evenodd;stroke:#000000;stroke-width:2.0px;stroke-linecap:butt;stroke-linejoin:miter;stroke-opacity:1" />
<path class="bond-7 atom-7 atom-8" d="M 30.6,309.8 L 22.9,300.5" style="fill:none;fill-rule:evenodd;stroke:#FF0000;stroke-width:2.0px;stroke-linecap:butt;stroke-linejoin:miter;stroke-opacity:1" />
<path class="bond-8 atom-4 atom-9" d="M 79.4,341.9 L 108.1,349.2" style="fill:none;fill-rule:evenodd;stroke:#000000;stroke-width:2.0px;stroke-linecap:butt;stroke-linejoin:miter;stroke-opacity:1" />
<path class="bond-8 atom-4 atom-9" d="M 80.5,346.8 L 104.5,352.9" style="fill:none;fill-rule:evenodd;stroke:#000000;stroke-width:2.0px;stroke-linecap:butt;stroke-linejoin:miter;stroke-opacity:1" />
<path class="bond-9 atom-9 atom-10" d="M 108.1,349.2 L 116.1,377.7" style="fill:none;fill-rule:evenodd;stroke:#000000;stroke-width:2.0px;stroke-linecap:butt;stroke-linejoin:miter;stroke-opacity:1" />
<path class="bond-10 atom-10 atom-11" d="M 116.1,377.7 L 119.4,389.3" style="fill:none;fill-rule:evenodd;stroke:#000000;stroke-width:2.0px;stroke-linecap:butt;stroke-linejoin:miter;stroke-opacity:1" />
<path class="bond-10 atom-10 atom-11" d="M 119.4,389.3 L 122.7,400.9" style="fill:none;fill-rule:evenodd;stroke:#0000FF;stroke-width:2.0px;stroke-linecap:butt;stroke-linejoin:miter;stroke-opacity:1" />
<path class="bond-10 atom-10 atom-11" d="M 120.4,376.5 L 123.6,388.1" style="fill:none;fill-rule:evenodd;stroke:#000000;stroke-width:2.0px;stroke-linecap:butt;stroke-linejoin:miter;stroke-opacity:1" />
<path class="bond-10 atom-10 atom-11" d="M 123.6,388.1 L 126.9,399.7" style="fill:none;fill-rule:evenodd;stroke:#0000FF;stroke-width:2.0px;stroke-linecap:butt;stroke-linejoin:miter;stroke-opacity:1" />
<path class="bond-10 atom-10 atom-11" d="M 111.8,378.9 L 115.1,390.5" style="fill:none;fill-rule:evenodd;stroke:#000000;stroke-width:2.0px;stroke-linecap:butt;stroke-linejoin:miter;stroke-opacity:1" />
<path class="bond-10 atom-10 atom-11" d="M 115.1,390.5 L 118.4,402.1" style="fill:none;fill-rule:evenodd;stroke:#0000FF;stroke-width:2.0px;stroke-linecap:butt;stroke-linejoin:miter;stroke-opacity:1" />
<path class="bond-11 atom-9 atom-12" d="M 108.1,349.2 L 128.7,328.0" style="fill:none;fill-rule:evenodd;stroke:#000000;stroke-width:2.0px;stroke-linecap:butt;stroke-linejoin:miter;stroke-opacity:1" />
<path class="bond-12 atom-12 atom-13" d="M 128.7,328.0 L 136.9,319.7" style="fill:none;fill-rule:evenodd;stroke:#000000;stroke-width:2.0px;stroke-linecap:butt;stroke-linejoin:miter;stroke-opacity:1" />
<path class="bond-12 atom-12 atom-13" d="M 136.9,319.7 L 145.0,311.3" style="fill:none;fill-rule:evenodd;stroke:#0000FF;stroke-width:2.0px;stroke-linecap:butt;stroke-linejoin:miter;stroke-opacity:1" />
<path class="bond-12 atom-12 atom-13" d="M 125.5,324.9 L 133.7,316.6" style="fill:none;fill-rule:evenodd;stroke:#000000;stroke-width:2.0px;stroke-linecap:butt;stroke-linejoin:miter;stroke-opacity:1" />
<path class="bond-12 atom-12 atom-13" d="M 133.7,316.6 L 141.8,308.2" style="fill:none;fill-rule:evenodd;stroke:#0000FF;stroke-width:2.0px;stroke-linecap:butt;stroke-linejoin:miter;stroke-opacity:1" />
<path class="bond-12 atom-12 atom-13" d="M 131.9,331.1 L 140.0,322.8" style="fill:none;fill-rule:evenodd;stroke:#000000;stroke-width:2.0px;stroke-linecap:butt;stroke-linejoin:miter;stroke-opacity:1" />
<path class="bond-12 atom-12 atom-13" d="M 140.0,322.8 L 148.2,314.4" style="fill:none;fill-rule:evenodd;stroke:#0000FF;stroke-width:2.0px;stroke-linecap:butt;stroke-linejoin:miter;stroke-opacity:1" />
<path class="bond-13 atom-7 atom-2" d="M 39.0,316.4 L 31.7,345.1" style="fill:none;fill-rule:evenodd;stroke:#000000;stroke-width:2.0px;stroke-linecap:butt;stroke-linejoin:miter;stroke-opacity:1" />
<path d="M 4.2,356.6 L 4.2,356.0 L 5.6,355.5" style="fill:none;stroke:#000000;stroke-width:2.0px;stroke-linecap:butt;stroke-linejoin:miter;stroke-opacity:1;" />
<path d="M 39.6,316.4 L 39.0,316.4 L 38.6,317.8" style="fill:none;stroke:#000000;stroke-width:2.0px;stroke-linecap:butt;stroke-linejoin:miter;stroke-opacity:1;" />
<path d="M 115.7,376.2 L 116.1,377.7 L 116.3,378.2" style="fill:none;stroke:#000000;stroke-width:2.0px;stroke-linecap:butt;stroke-linejoin:miter;stroke-opacity:1;" />
<path d="M 127.7,329.1 L 128.7,328.0 L 129.1,327.6" style="fill:none;stroke:#000000;stroke-width:2.0px;stroke-linecap:butt;stroke-linejoin:miter;stroke-opacity:1;" />
<path class="atom-3" d="M 53.3 362.4 L 54.9 362.2 Q 55.1 363.1, 55.5 363.5 Q 56.0 363.8, 56.8 363.8 Q 57.6 363.8, 58.0 363.5 Q 58.4 363.1, 58.4 362.7 Q 58.4 362.4, 58.3 362.2 Q 58.1 362.0, 57.6 361.8 Q 57.3 361.7, 56.3 361.4 Q 54.9 361.1, 54.3 360.6 Q 53.6 359.9, 53.6 358.9 Q 53.6 358.2, 53.9 357.7 Q 54.3 357.1, 55.0 356.8 Q 55.7 356.5, 56.7 356.5 Q 58.2 356.5, 59.0 357.2 Q 59.9 357.9, 59.9 359.1 L 58.2 359.2 Q 58.1 358.5, 57.7 358.2 Q 57.4 357.9, 56.6 357.9 Q 55.9 357.9, 55.5 358.3 Q 55.2 358.4, 55.2 358.8 Q 55.2 359.1, 55.5 359.3 Q 55.8 359.6, 57.0 359.9 Q 58.3 360.2, 58.9 360.5 Q 59.5 360.8, 59.8 361.3 Q 60.1 361.9, 60.1 362.7 Q 60.1 363.4, 59.7 364.0 Q 59.3 364.7, 58.6 365.0 Q 57.9 365.3, 56.8 365.3 Q 55.1 365.3, 54.3 364.6 Q 53.4 363.8, 53.3 362.4 " fill="#CCCC00" />
<path class="atom-5" d="M 65.1 318.7 L 65.1 310.2 L 66.8 310.2 L 70.2 315.9 L 70.2 310.2 L 71.8 310.2 L 71.8 318.7 L 70.1 318.7 L 66.7 313.2 L 66.7 318.7 L 65.1 318.7 " fill="#0000FF" />
<path class="atom-8" d="M 16.0 293.8 Q 16.0 292.5, 16.4 291.6 Q 16.6 291.0, 17.1 290.5 Q 17.6 290.0, 18.2 289.7 Q 19.0 289.4, 20.1 289.4 Q 21.9 289.4, 23.1 290.5 Q 24.2 291.7, 24.2 293.8 Q 24.2 295.8, 23.1 297.0 Q 22.0 298.1, 20.1 298.1 Q 18.2 298.1, 17.1 297.0 Q 16.0 295.8, 16.0 293.8 M 17.7 293.7 Q 17.7 295.2, 18.4 295.9 Q 19.1 296.7, 20.1 296.7 Q 21.1 296.7, 21.8 295.9 Q 22.4 295.2, 22.4 293.7 Q 22.4 292.3, 21.8 291.6 Q 21.1 290.8, 20.1 290.8 Q 19.0 290.8, 18.4 291.6 Q 17.7 292.3, 17.7 293.7 " fill="#FF0000" />
<path class="atom-11" d="M 120.8 410.3 L 120.8 401.9 L 122.4 401.9 L 125.9 407.5 L 125.9 401.9 L 127.5 401.9 L 127.5 410.3 L 125.8 410.3 L 122.4 404.8 L 122.4 410.3 L 120.8 410.3 " fill="#0000FF" />
<path class="atom-13" d="M 146.0 311.1 L 146.0 302.6 L 147.6 302.6 L 151.1 308.3 L 151.1 302.6 L 152.7 302.6 L 152.7 311.1 L 151.0 311.1 L 147.6 305.6 L 147.6 311.1 L 146.0 311.1 " fill="#0000FF" />
</svg>