<?xml version='1.0' encoding='iso-8859-1'?>
<svg xmlns="http://www.w3.org/2000/svg" version="1.1" baseProfile="full" xml:space="preserve" width="259" height="21" viewBox="24 387 259 21">

<rect style="opacity:1.0;fill:#FFFFFF;stroke:none" width="512.0" height="512.0" x="0.0" y="0.0"> </rect>
<path class="bond-1 atom-1 atom-2" d="M 25.8,388.5 L 51.2,403.6" style="fill:none;fill-rule:evenodd;stroke:#000000;stroke-width:2.0px;stroke-linecap:butt;stroke-linejoin:miter;stroke-opacity:1" />
<path class="bond-2 atom-2 atom-3" d="M 51.2,403.6 L 77.0,389.2" style="fill:none;fill-rule:evenodd;stroke:#000000;stroke-width:2.0px;stroke-linecap:butt;stroke-linejoin:miter;stroke-opacity:1" />
<path class="bond-3 atom-3 atom-4" d="M 77.0,389.2 L 102.4,404.2" style="fill:none;fill-rule:evenodd;stroke:#000000;stroke-width:2.0px;stroke-linecap:butt;stroke-linejoin:miter;stroke-opacity:1" />
<path class="bond-4 atom-4 atom-5" d="M 102.4,404.2 L 128.2,389.8" style="fill:none;fill-rule:evenodd;stroke:#000000;stroke-width:2.0px;stroke-linecap:butt;stroke-linejoin:miter;stroke-opacity:1" />
<path class="bond-5 atom-5 atom-6" d="M 128.2,389.8 L 153.6,404.9" style="fill:none;fill-rule:evenodd;stroke:#000000;stroke-width:2.0px;stroke-linecap:butt;stroke-linejoin:miter;stroke-opacity:1" />
<path class="bond-6 atom-6 atom-7" d="M 153.6,404.9 L 179.4,390.4" style="fill:none;fill-rule:evenodd;stroke:#000000;stroke-width:2.0px;stroke-linecap:butt;stroke-linejoin:miter;stroke-opacity:1" />
<path class="bond-7 atom-7 atom-8" d="M 179.4,390.4 L 204.8,405.5" style="fill:none;fill-rule:evenodd;stroke:#000000;stroke-width:2.0px;stroke-linecap:butt;stroke-linejoin:miter;stroke-opacity:1" />
<path class="bond-8 atom-8 atom-9" d="M 204.8,405.5 L 230.6,391.0" style="fill:none;fill-rule:evenodd;stroke:#000000;stroke-width:2.0px;stroke-linecap:butt;stroke-linejoin:miter;stroke-opacity:1" />
<path class="bond-9 atom-9 atom-10" d="M 230.6,391.0 L 256.0,406.1" style="fill:none;fill-rule:evenodd;stroke:#000000;stroke-width:2.0px;stroke-linecap:butt;stroke-linejoin:miter;stroke-opacity:1" />
<path class="bond-10 atom-10 atom-11" d="M 256.0,406.1 L 281.8,391.6" style="fill:none;fill-rule:evenodd;stroke:#000000;stroke-width:2.0px;stroke-linecap:butt;stroke-linejoin:miter;stroke-opacity:1" />
<path d="M 25.2,388.8 L 25.8,388.5 L 27.0,389.3" style="fill:none;stroke:#000000;stroke-width:2.0px;stroke-linecap:butt;stroke-linejoin:miter;stroke-opacity:1;" />
<path d="M 49.9,402.9 L 51.2,403.6 L 52.5,402.9" style="fill:none;stroke:#000000;stroke-width:2.0px;stroke-linecap:butt;stroke-linejoin:miter;stroke-opacity:1;" />
<path d="M 75.7,389.9 L 77.0,389.2 L 78.2,389.9" style="fill:none;stroke:#000000;stroke-width:2.0px;stroke-linecap:butt;stroke-linejoin:miter;stroke-opacity:1;" />
<path d="M 101.1,403.5 L 102.4,404.2 L 103.7,403.5" style="fill:none;stroke:#000000;stroke-width:2.0px;stroke-linecap:butt;stroke-linejoin:miter;stroke-opacity:1;" />
<path d="M 126.9,390.5 L 128.2,389.8 L 129.4,390.5" style="fill:none;stroke:#000000;stroke-width:2.0px;stroke-linecap:butt;stroke-linejoin:miter;stroke-opacity:1;" />
<path d="M 152.3,404.1 L 153.6,404.9 L 154.9,404.1" style="fill:none;stroke:#000000;stroke-width:2.0px;stroke-linecap:butt;stroke-linejoin:miter;stroke-opacity:1;" />
<path d="M 178.1,391.1 L 179.4,390.4 L 180.6,391.2" style="fill:none;stroke:#000000;stroke-width:2.0px;stroke-linecap:butt;stroke-linejoin:miter;stroke-opacity:1;" />
<path d="M 203.5,404.7 L 204.8,405.5 L 206.1,404.8" style="fill:none;stroke:#000000;stroke-width:2.0px;stroke-linecap:butt;stroke-linejoin:miter;stroke-opacity:1;" />
<path d="M 229.3,391.7 L 230.6,391.0 L 231.8,391.8" style="fill:none;stroke:#000000;stroke-width:2.0px;stroke-linecap:butt;stroke-linejoin:miter;stroke-opacity:1;" />
<path d="M 254.7,405.4 L 256.0,406.1 L 257.3,405.4" style="fill:none;stroke:#000000;stroke-width:2.0px;stroke-linecap:butt;stroke-linejoin:miter;stroke-opacity:1;" />
</svg>