<?xml version='1.0' encoding='iso-8859-1'?>
<svg xmlns="http://www.w3.org/2000/svg" version="1.1" baseProfile="full" xml:space="preserve" width="428" height="232" viewBox="41 150 428 232">

<rect style="opacity:1.0;fill:#FFFFFF;stroke:none" width="512.0" height="512.0" x="0.0" y="0.0"> </rect>
<path class="bond-1 atom-1 atom-2" d="M 191.2,190.7 L 175.3,197.8" style="fill:none;fill-rule:evenodd;stroke:#0000FF;stroke-width:2.0px;stroke-linecap:butt;stroke-linejoin:miter;stroke-opacity:1" />
<path class="bond-1 atom-1 atom-2" d="M 175.3,197.8 L 159.4,204.8" style="fill:none;fill-rule:evenodd;stroke:#000000;stroke-width:2.0px;stroke-linecap:butt;stroke-linejoin:miter;stroke-opacity:1" />
<path class="bond-2 atom-2 atom-3" d="M 159.4,204.8 L 164.1,250.4" style="fill:none;fill-rule:evenodd;stroke:#000000;stroke-width:2.0px;stroke-linecap:butt;stroke-linejoin:miter;stroke-opacity:1" />
<path class="bond-2 atom-2 atom-3" d="M 166.7,209.1 L 170.5,244.7" style="fill:none;fill-rule:evenodd;stroke:#000000;stroke-width:2.0px;stroke-linecap:butt;stroke-linejoin:miter;stroke-opacity:1" />
<path class="bond-3 atom-3 atom-4" d="M 164.1,250.4 L 148.3,257.4" style="fill:none;fill-rule:evenodd;stroke:#000000;stroke-width:2.0px;stroke-linecap:butt;stroke-linejoin:miter;stroke-opacity:1" />
<path class="bond-3 atom-3 atom-4" d="M 148.3,257.4 L 132.5,264.5" style="fill:none;fill-rule:evenodd;stroke:#CCCC00;stroke-width:2.0px;stroke-linecap:butt;stroke-linejoin:miter;stroke-opacity:1" />
<path class="bond-4 atom-4 atom-5" d="M 112.1,257.7 L 101.9,246.3" style="fill:none;fill-rule:evenodd;stroke:#CCCC00;stroke-width:2.0px;stroke-linecap:butt;stroke-linejoin:miter;stroke-opacity:1" />
<path class="bond-4 atom-4 atom-5" d="M 101.9,246.3 L 91.7,235.0" style="fill:none;fill-rule:evenodd;stroke:#000000;stroke-width:2.0px;stroke-linecap:butt;stroke-linejoin:miter;stroke-opacity:1" />
<path class="bond-5 atom-5 atom-6" d="M 91.7,235.0 L 114.6,195.3" style="fill:none;fill-rule:evenodd;stroke:#000000;stroke-width:2.0px;stroke-linecap:butt;stroke-linejoin:miter;stroke-opacity:1" />
<path class="bond-5 atom-5 atom-6" d="M 100.1,234.1 L 118.0,203.1" style="fill:none;fill-rule:evenodd;stroke:#000000;stroke-width:2.0px;stroke-linecap:butt;stroke-linejoin:miter;stroke-opacity:1" />
<path class="bond-6 atom-6 atom-7" d="M 114.6,195.3 L 104.4,184.0" style="fill:none;fill-rule:evenodd;stroke:#000000;stroke-width:2.0px;stroke-linecap:butt;stroke-linejoin:miter;stroke-opacity:1" />
<path class="bond-6 atom-6 atom-7" d="M 104.4,184.0 L 94.1,172.7" style="fill:none;fill-rule:evenodd;stroke:#CCCC00;stroke-width:2.0px;stroke-linecap:butt;stroke-linejoin:miter;stroke-opacity:1" />
<path class="bond-7 atom-7 atom-8" d="M 73.7,165.8 L 57.9,172.9" style="fill:none;fill-rule:evenodd;stroke:#CCCC00;stroke-width:2.0px;stroke-linecap:butt;stroke-linejoin:miter;stroke-opacity:1" />
<path class="bond-7 atom-7 atom-8" d="M 57.9,172.9 L 42.1,179.9" style="fill:none;fill-rule:evenodd;stroke:#000000;stroke-width:2.0px;stroke-linecap:butt;stroke-linejoin:miter;stroke-opacity:1" />
<path class="bond-9 atom-8 atom-10" d="M 42.1,179.9 L 46.8,225.5" style="fill:none;fill-rule:evenodd;stroke:#000000;stroke-width:2.0px;stroke-linecap:butt;stroke-linejoin:miter;stroke-opacity:1" />
<path class="bond-9 atom-8 atom-10" d="M 49.4,184.2 L 53.2,219.8" style="fill:none;fill-rule:evenodd;stroke:#000000;stroke-width:2.0px;stroke-linecap:butt;stroke-linejoin:miter;stroke-opacity:1" />
<path class="bond-11 atom-3 atom-12" d="M 164.1,250.4 L 208.9,259.9" style="fill:none;fill-rule:evenodd;stroke:#000000;stroke-width:2.0px;stroke-linecap:butt;stroke-linejoin:miter;stroke-opacity:1" />
<path class="bond-12 atom-12 atom-13" d="M 208.9,259.9 L 231.8,220.3" style="fill:none;fill-rule:evenodd;stroke:#000000;stroke-width:2.0px;stroke-linecap:butt;stroke-linejoin:miter;stroke-opacity:1" />
<path class="bond-12 atom-12 atom-13" d="M 205.5,252.2 L 223.4,221.1" style="fill:none;fill-rule:evenodd;stroke:#000000;stroke-width:2.0px;stroke-linecap:butt;stroke-linejoin:miter;stroke-opacity:1" />
<path class="bond-13 atom-13 atom-14" d="M 231.8,220.3 L 277.7,220.3" style="fill:none;fill-rule:evenodd;stroke:#000000;stroke-width:2.0px;stroke-linecap:butt;stroke-linejoin:miter;stroke-opacity:1" />
<path class="bond-14 atom-14 atom-15" d="M 277.7,220.3 L 300.6,259.9" style="fill:none;fill-rule:evenodd;stroke:#000000;stroke-width:2.0px;stroke-linecap:butt;stroke-linejoin:miter;stroke-opacity:1" />
<path class="bond-14 atom-14 atom-15" d="M 286.1,221.1 L 304.0,252.2" style="fill:none;fill-rule:evenodd;stroke:#000000;stroke-width:2.0px;stroke-linecap:butt;stroke-linejoin:miter;stroke-opacity:1" />
<path class="bond-15 atom-15 atom-16" d="M 300.6,259.9 L 345.4,250.4" style="fill:none;fill-rule:evenodd;stroke:#000000;stroke-width:2.0px;stroke-linecap:butt;stroke-linejoin:miter;stroke-opacity:1" />
<path class="bond-16 atom-16 atom-17" d="M 345.4,250.4 L 350.1,204.8" style="fill:none;fill-rule:evenodd;stroke:#000000;stroke-width:2.0px;stroke-linecap:butt;stroke-linejoin:miter;stroke-opacity:1" />
<path class="bond-16 atom-16 atom-17" d="M 339.0,244.7 L 342.8,209.1" style="fill:none;fill-rule:evenodd;stroke:#000000;stroke-width:2.0px;stroke-linecap:butt;stroke-linejoin:miter;stroke-opacity:1" />
<path class="bond-17 atom-17 atom-18" d="M 350.1,204.8 L 334.2,197.8" style="fill:none;fill-rule:evenodd;stroke:#000000;stroke-width:2.0px;stroke-linecap:butt;stroke-linejoin:miter;stroke-opacity:1" />
<path class="bond-17 atom-17 atom-18" d="M 334.2,197.8 L 318.3,190.7" style="fill:none;fill-rule:evenodd;stroke:#0000FF;stroke-width:2.0px;stroke-linecap:butt;stroke-linejoin:miter;stroke-opacity:1" />
<path class="bond-19 atom-17 atom-20" d="M 350.1,204.8 L 394.9,195.3" style="fill:none;fill-rule:evenodd;stroke:#000000;stroke-width:2.0px;stroke-linecap:butt;stroke-linejoin:miter;stroke-opacity:1" />
<path class="bond-20 atom-20 atom-21" d="M 394.9,195.3 L 417.9,235.0" style="fill:none;fill-rule:evenodd;stroke:#000000;stroke-width:2.0px;stroke-linecap:butt;stroke-linejoin:miter;stroke-opacity:1" />
<path class="bond-20 atom-20 atom-21" d="M 391.5,203.1 L 409.4,234.1" style="fill:none;fill-rule:evenodd;stroke:#000000;stroke-width:2.0px;stroke-linecap:butt;stroke-linejoin:miter;stroke-opacity:1" />
<path class="bond-21 atom-21 atom-22" d="M 417.9,235.0 L 407.6,246.3" style="fill:none;fill-rule:evenodd;stroke:#000000;stroke-width:2.0px;stroke-linecap:butt;stroke-linejoin:miter;stroke-opacity:1" />
<path class="bond-21 atom-21 atom-22" d="M 407.6,246.3 L 397.4,257.7" style="fill:none;fill-rule:evenodd;stroke:#CCCC00;stroke-width:2.0px;stroke-linecap:butt;stroke-linejoin:miter;stroke-opacity:1" />
<path class="bond-22 atom-21 atom-23" d="M 417.9,235.0 L 462.7,225.5" style="fill:none;fill-rule:evenodd;stroke:#000000;stroke-width:2.0px;stroke-linecap:butt;stroke-linejoin:miter;stroke-opacity:1" />
<path class="bond-24 atom-23 atom-25" d="M 462.7,225.5 L 467.4,179.9" style="fill:none;fill-rule:evenodd;stroke:#000000;stroke-width:2.0px;stroke-linecap:butt;stroke-linejoin:miter;stroke-opacity:1" />
<path class="bond-24 atom-23 atom-25" d="M 456.3,219.8 L 460.1,184.2" style="fill:none;fill-rule:evenodd;stroke:#000000;stroke-width:2.0px;stroke-linecap:butt;stroke-linejoin:miter;stroke-opacity:1" />
<path class="bond-26 atom-25 atom-27" d="M 467.4,179.9 L 451.6,172.9" style="fill:none;fill-rule:evenodd;stroke:#000000;stroke-width:2.0px;stroke-linecap:butt;stroke-linejoin:miter;stroke-opacity:1" />
<path class="bond-26 atom-25 atom-27" d="M 451.6,172.9 L 435.8,165.8" style="fill:none;fill-rule:evenodd;stroke:#CCCC00;stroke-width:2.0px;stroke-linecap:butt;stroke-linejoin:miter;stroke-opacity:1" />
<path class="bond-27 atom-15 atom-28" d="M 300.6,259.9 L 277.7,299.6" style="fill:none;fill-rule:evenodd;stroke:#000000;stroke-width:2.0px;stroke-linecap:butt;stroke-linejoin:miter;stroke-opacity:1" />
<path class="bond-28 atom-28 atom-29" d="M 277.7,299.6 L 282.7,315.2" style="fill:none;fill-rule:evenodd;stroke:#000000;stroke-width:2.0px;stroke-linecap:butt;stroke-linejoin:miter;stroke-opacity:1" />
<path class="bond-28 atom-28 atom-29" d="M 282.7,315.2 L 287.8,330.9" style="fill:none;fill-rule:evenodd;stroke:#0000FF;stroke-width:2.0px;stroke-linecap:butt;stroke-linejoin:miter;stroke-opacity:1" />
<path class="bond-28 atom-28 atom-29" d="M 272.7,306.5 L 277.0,319.7" style="fill:none;fill-rule:evenodd;stroke:#000000;stroke-width:2.0px;stroke-linecap:butt;stroke-linejoin:miter;stroke-opacity:1" />
<path class="bond-28 atom-28 atom-29" d="M 277.0,319.7 L 281.3,333.0" style="fill:none;fill-rule:evenodd;stroke:#0000FF;stroke-width:2.0px;stroke-linecap:butt;stroke-linejoin:miter;stroke-opacity:1" />
<path class="bond-29 atom-29 atom-30" d="M 281.8,350.4 L 273.4,356.5" style="fill:none;fill-rule:evenodd;stroke:#0000FF;stroke-width:2.0px;stroke-linecap:butt;stroke-linejoin:miter;stroke-opacity:1" />
<path class="bond-29 atom-29 atom-30" d="M 273.4,356.5 L 265.0,362.6" style="fill:none;fill-rule:evenodd;stroke:#CCCC00;stroke-width:2.0px;stroke-linecap:butt;stroke-linejoin:miter;stroke-opacity:1" />
<path class="bond-30 atom-30 atom-31" d="M 244.5,362.6 L 236.1,356.5" style="fill:none;fill-rule:evenodd;stroke:#CCCC00;stroke-width:2.0px;stroke-linecap:butt;stroke-linejoin:miter;stroke-opacity:1" />
<path class="bond-30 atom-30 atom-31" d="M 236.1,356.5 L 227.7,350.4" style="fill:none;fill-rule:evenodd;stroke:#0000FF;stroke-width:2.0px;stroke-linecap:butt;stroke-linejoin:miter;stroke-opacity:1" />
<path class="bond-31 atom-31 atom-32" d="M 221.7,330.9 L 226.8,315.2" style="fill:none;fill-rule:evenodd;stroke:#0000FF;stroke-width:2.0px;stroke-linecap:butt;stroke-linejoin:miter;stroke-opacity:1" />
<path class="bond-31 atom-31 atom-32" d="M 226.8,315.2 L 231.8,299.6" style="fill:none;fill-rule:evenodd;stroke:#000000;stroke-width:2.0px;stroke-linecap:butt;stroke-linejoin:miter;stroke-opacity:1" />
<path class="bond-31 atom-31 atom-32" d="M 228.2,333.0 L 232.5,319.7" style="fill:none;fill-rule:evenodd;stroke:#0000FF;stroke-width:2.0px;stroke-linecap:butt;stroke-linejoin:miter;stroke-opacity:1" />
<path class="bond-31 atom-31 atom-32" d="M 232.5,319.7 L 236.8,306.5" style="fill:none;fill-rule:evenodd;stroke:#000000;stroke-width:2.0px;stroke-linecap:butt;stroke-linejoin:miter;stroke-opacity:1" />
<path class="bond-32 atom-13 atom-1" d="M 231.8,220.3 L 221.5,208.8" style="fill:none;fill-rule:evenodd;stroke:#000000;stroke-width:2.0px;stroke-linecap:butt;stroke-linejoin:miter;stroke-opacity:1" />
<path class="bond-32 atom-13 atom-1" d="M 221.5,208.8 L 211.2,197.4" style="fill:none;fill-rule:evenodd;stroke:#0000FF;stroke-width:2.0px;stroke-linecap:butt;stroke-linejoin:miter;stroke-opacity:1" />
<path class="bond-33 atom-18 atom-14" d="M 298.3,197.4 L 288.0,208.8" style="fill:none;fill-rule:evenodd;stroke:#0000FF;stroke-width:2.0px;stroke-linecap:butt;stroke-linejoin:miter;stroke-opacity:1" />
<path class="bond-33 atom-18 atom-14" d="M 288.0,208.8 L 277.7,220.3" style="fill:none;fill-rule:evenodd;stroke:#000000;stroke-width:2.0px;stroke-linecap:butt;stroke-linejoin:miter;stroke-opacity:1" />
<path class="bond-34 atom-27 atom-20" d="M 415.4,172.7 L 405.2,184.0" style="fill:none;fill-rule:evenodd;stroke:#CCCC00;stroke-width:2.0px;stroke-linecap:butt;stroke-linejoin:miter;stroke-opacity:1" />
<path class="bond-34 atom-27 atom-20" d="M 405.2,184.0 L 394.9,195.3" style="fill:none;fill-rule:evenodd;stroke:#000000;stroke-width:2.0px;stroke-linecap:butt;stroke-linejoin:miter;stroke-opacity:1" />
<path class="bond-35 atom-32 atom-28" d="M 231.8,299.6 L 277.7,299.6" style="fill:none;fill-rule:evenodd;stroke:#000000;stroke-width:2.0px;stroke-linecap:butt;stroke-linejoin:miter;stroke-opacity:1" />
<path class="bond-36 atom-6 atom-2" d="M 114.6,195.3 L 159.4,204.8" style="fill:none;fill-rule:evenodd;stroke:#000000;stroke-width:2.0px;stroke-linecap:butt;stroke-linejoin:miter;stroke-opacity:1" />
<path class="bond-37 atom-32 atom-12" d="M 231.8,299.6 L 208.9,259.9" style="fill:none;fill-rule:evenodd;stroke:#000000;stroke-width:2.0px;stroke-linecap:butt;stroke-linejoin:miter;stroke-opacity:1" />
<path class="bond-38 atom-10 atom-5" d="M 46.8,225.5 L 91.7,235.0" style="fill:none;fill-rule:evenodd;stroke:#000000;stroke-width:2.0px;stroke-linecap:butt;stroke-linejoin:miter;stroke-opacity:1" />
<path class="bond-39 atom-22 atom-16" d="M 377.0,264.5 L 361.2,257.4" style="fill:none;fill-rule:evenodd;stroke:#CCCC00;stroke-width:2.0px;stroke-linecap:butt;stroke-linejoin:miter;stroke-opacity:1" />
<path class="bond-39 atom-22 atom-16" d="M 361.2,257.4 L 345.4,250.4" style="fill:none;fill-rule:evenodd;stroke:#000000;stroke-width:2.0px;stroke-linecap:butt;stroke-linejoin:miter;stroke-opacity:1" />
<path class="atom-1" d="M 192.7 196.9 L 192.7 175.5 L 196.9 175.5 L 205.7 189.8 L 205.7 175.5 L 209.7 175.5 L 209.7 196.9 L 205.4 196.9 L 196.7 182.9 L 196.7 196.9 L 192.7 196.9 " fill="#0000FF" />
<path class="atom-4" d="M 113.6 273.0 L 117.8 272.5 Q 118.2 274.7, 119.3 275.7 Q 120.5 276.7, 122.5 276.7 Q 124.6 276.7, 125.6 275.8 Q 126.7 274.9, 126.7 273.7 Q 126.7 272.9, 126.2 272.4 Q 125.8 271.9, 124.7 271.5 Q 123.9 271.2, 121.2 270.5 Q 117.7 269.7, 116.3 268.4 Q 114.3 266.6, 114.3 264.1 Q 114.3 262.5, 115.3 261.0 Q 116.2 259.6, 118.0 258.9 Q 119.7 258.1, 122.2 258.1 Q 126.2 258.1, 128.3 259.9 Q 130.3 261.6, 130.4 264.6 L 126.1 264.8 Q 125.8 263.1, 124.9 262.4 Q 124.0 261.7, 122.1 261.7 Q 120.3 261.7, 119.2 262.5 Q 118.5 263.0, 118.5 263.8 Q 118.5 264.6, 119.1 265.1 Q 120.0 265.8, 123.1 266.5 Q 126.3 267.3, 127.8 268.1 Q 129.3 268.9, 130.2 270.3 Q 131.0 271.7, 131.0 273.7 Q 131.0 275.5, 130.0 277.1 Q 129.0 278.8, 127.1 279.6 Q 125.2 280.3, 122.4 280.3 Q 118.4 280.3, 116.2 278.5 Q 114.0 276.6, 113.6 273.0 " fill="#CCCC00" />
<path class="atom-7" d="M 75.2 165.2 L 79.4 164.8 Q 79.8 166.9, 80.9 167.9 Q 82.1 168.9, 84.1 168.9 Q 86.2 168.9, 87.2 168.0 Q 88.3 167.1, 88.3 166.0 Q 88.3 165.2, 87.8 164.7 Q 87.4 164.1, 86.3 163.7 Q 85.5 163.5, 82.8 162.8 Q 79.3 161.9, 77.9 160.7 Q 76.0 158.9, 76.0 156.4 Q 76.0 154.7, 76.9 153.3 Q 77.8 151.9, 79.6 151.1 Q 81.3 150.4, 83.8 150.4 Q 87.8 150.4, 89.9 152.1 Q 91.9 153.9, 92.0 156.9 L 87.7 157.1 Q 87.4 155.4, 86.5 154.7 Q 85.6 153.9, 83.7 153.9 Q 81.9 153.9, 80.8 154.7 Q 80.1 155.2, 80.1 156.1 Q 80.1 156.8, 80.7 157.4 Q 81.6 158.1, 84.7 158.8 Q 87.9 159.5, 89.4 160.4 Q 90.9 161.1, 91.8 162.5 Q 92.6 163.9, 92.6 165.9 Q 92.6 167.8, 91.6 169.4 Q 90.6 171.0, 88.7 171.8 Q 86.8 172.6, 84.0 172.6 Q 80.0 172.6, 77.8 170.7 Q 75.6 168.8, 75.2 165.2 " fill="#CCCC00" />
<path class="atom-18" d="M 299.8 196.9 L 299.8 175.5 L 304.0 175.5 L 312.8 189.8 L 312.8 175.5 L 316.8 175.5 L 316.8 196.9 L 312.5 196.9 L 303.8 182.9 L 303.8 196.9 L 299.8 196.9 " fill="#0000FF" />
<path class="atom-22" d="M 378.5 273.0 L 382.7 272.5 Q 383.1 274.7, 384.2 275.7 Q 385.4 276.7, 387.4 276.7 Q 389.5 276.7, 390.5 275.8 Q 391.6 274.9, 391.6 273.7 Q 391.6 272.9, 391.1 272.4 Q 390.7 271.9, 389.6 271.5 Q 388.8 271.2, 386.1 270.5 Q 382.6 269.7, 381.2 268.4 Q 379.2 266.6, 379.2 264.1 Q 379.2 262.5, 380.2 261.0 Q 381.1 259.6, 382.9 258.9 Q 384.6 258.1, 387.1 258.1 Q 391.1 258.1, 393.2 259.9 Q 395.2 261.6, 395.3 264.6 L 391.0 264.8 Q 390.7 263.1, 389.8 262.4 Q 388.9 261.7, 387.0 261.7 Q 385.2 261.7, 384.1 262.5 Q 383.4 263.0, 383.4 263.8 Q 383.4 264.6, 384.0 265.1 Q 384.9 265.8, 388.0 266.5 Q 391.2 267.3, 392.7 268.1 Q 394.2 268.9, 395.1 270.3 Q 395.9 271.7, 395.9 273.7 Q 395.9 275.5, 394.9 277.1 Q 393.9 278.8, 392.0 279.6 Q 390.1 280.3, 387.3 280.3 Q 383.3 280.3, 381.1 278.5 Q 378.9 276.6, 378.5 273.0 " fill="#CCCC00" />
<path class="atom-27" d="M 416.9 165.2 L 421.1 164.8 Q 421.5 166.9, 422.6 167.9 Q 423.8 168.9, 425.8 168.9 Q 427.9 168.9, 428.9 168.0 Q 430.0 167.1, 430.0 166.0 Q 430.0 165.2, 429.5 164.7 Q 429.1 164.1, 428.0 163.7 Q 427.2 163.5, 424.5 162.8 Q 421.0 161.9, 419.6 160.7 Q 417.6 158.9, 417.6 156.4 Q 417.6 154.7, 418.6 153.3 Q 419.5 151.9, 421.2 151.1 Q 423.0 150.4, 425.5 150.4 Q 429.5 150.4, 431.6 152.1 Q 433.6 153.9, 433.7 156.9 L 429.4 157.1 Q 429.1 155.4, 428.2 154.7 Q 427.3 153.9, 425.4 153.9 Q 423.5 153.9, 422.5 154.7 Q 421.8 155.2, 421.8 156.1 Q 421.8 156.8, 422.4 157.4 Q 423.3 158.1, 426.4 158.8 Q 429.6 159.5, 431.1 160.4 Q 432.6 161.1, 433.5 162.5 Q 434.3 163.9, 434.3 165.9 Q 434.3 167.8, 433.3 169.4 Q 432.3 171.0, 430.4 171.8 Q 428.5 172.6, 425.7 172.6 Q 421.7 172.6, 419.5 170.7 Q 417.3 168.8, 416.9 165.2 " fill="#CCCC00" />
<path class="atom-29" d="M 283.3 353.9 L 283.3 332.4 L 287.5 332.4 L 296.3 346.8 L 296.3 332.4 L 300.3 332.4 L 300.3 353.9 L 296.0 353.9 L 287.3 339.9 L 287.3 353.9 L 283.3 353.9 " fill="#0000FF" />
<path class="atom-30" d="M 246.0 374.0 L 250.2 373.6 Q 250.6 375.7, 251.8 376.7 Q 252.9 377.7, 254.9 377.7 Q 257.0 377.7, 258.1 376.8 Q 259.1 375.9, 259.1 374.8 Q 259.1 374.0, 258.7 373.5 Q 258.3 372.9, 257.1 372.5 Q 256.4 372.3, 253.7 371.6 Q 250.2 370.7, 248.8 369.5 Q 246.8 367.7, 246.8 365.1 Q 246.8 363.5, 247.7 362.1 Q 248.7 360.6, 250.4 359.9 Q 252.2 359.1, 254.6 359.1 Q 258.7 359.1, 260.7 360.9 Q 262.8 362.7, 262.9 365.7 L 258.5 365.8 Q 258.3 364.2, 257.3 363.5 Q 256.4 362.7, 254.6 362.7 Q 252.7 362.7, 251.6 363.5 Q 250.9 364.0, 250.9 364.8 Q 250.9 365.6, 251.6 366.2 Q 252.4 366.8, 255.6 367.6 Q 258.7 368.3, 260.2 369.1 Q 261.8 369.9, 262.6 371.3 Q 263.5 372.7, 263.5 374.7 Q 263.5 376.6, 262.5 378.2 Q 261.4 379.8, 259.6 380.6 Q 257.7 381.4, 254.9 381.4 Q 250.8 381.4, 248.6 379.5 Q 246.4 377.6, 246.0 374.0 " fill="#CCCC00" />
<path class="atom-31" d="M 209.2 353.9 L 209.2 332.4 L 213.4 332.4 L 222.2 346.8 L 222.2 332.4 L 226.2 332.4 L 226.2 353.9 L 221.9 353.9 L 213.2 339.9 L 213.2 353.9 L 209.2 353.9 " fill="#0000FF" />
</svg>