<?xml version='1.0' encoding='iso-8859-1'?>
<svg xmlns="http://www.w3.org/2000/svg" version="1.1" baseProfile="full" xml:space="preserve" width="278" height="144" viewBox="24 267 278 144">

<rect style="opacity:1.0;fill:#FFFFFF;stroke:none" width="512.0" height="512.0" x="0.0" y="0.0"> </rect>
<path class="bond-1 atom-1 atom-2" d="M 124.0,289.4 L 112.6,294.4" style="fill:none;fill-rule:evenodd;stroke:#0000FF;stroke-width:2.0px;stroke-linecap:butt;stroke-linejoin:miter;stroke-opacity:1" />
<path class="bond-1 atom-1 atom-2" d="M 112.6,294.4 L 101.3,299.5" style="fill:none;fill-rule:evenodd;stroke:#000000;stroke-width:2.0px;stroke-linecap:butt;stroke-linejoin:miter;stroke-opacity:1" />
<path class="bond-2 atom-2 atom-3" d="M 101.3,299.5 L 104.4,328.9" style="fill:none;fill-rule:evenodd;stroke:#000000;stroke-width:2.0px;stroke-linecap:butt;stroke-linejoin:miter;stroke-opacity:1" />
<path class="bond-2 atom-2 atom-3" d="M 106.0,302.2 L 108.5,325.2" style="fill:none;fill-rule:evenodd;stroke:#000000;stroke-width:2.0px;stroke-linecap:butt;stroke-linejoin:miter;stroke-opacity:1" />
<path class="bond-3 atom-3 atom-4" d="M 104.4,328.9 L 93.1,333.9" style="fill:none;fill-rule:evenodd;stroke:#000000;stroke-width:2.0px;stroke-linecap:butt;stroke-linejoin:miter;stroke-opacity:1" />
<path class="bond-3 atom-3 atom-4" d="M 93.1,333.9 L 81.8,338.9" style="fill:none;fill-rule:evenodd;stroke:#CCCC00;stroke-width:2.0px;stroke-linecap:butt;stroke-linejoin:miter;stroke-opacity:1" />
<path class="bond-4 atom-4 atom-5" d="M 73.0,336.0 L 65.3,327.5" style="fill:none;fill-rule:evenodd;stroke:#CCCC00;stroke-width:2.0px;stroke-linecap:butt;stroke-linejoin:miter;stroke-opacity:1" />
<path class="bond-4 atom-4 atom-5" d="M 65.3,327.5 L 57.6,318.9" style="fill:none;fill-rule:evenodd;stroke:#000000;stroke-width:2.0px;stroke-linecap:butt;stroke-linejoin:miter;stroke-opacity:1" />
<path class="bond-5 atom-5 atom-6" d="M 57.6,318.9 L 72.4,293.3" style="fill:none;fill-rule:evenodd;stroke:#000000;stroke-width:2.0px;stroke-linecap:butt;stroke-linejoin:miter;stroke-opacity:1" />
<path class="bond-5 atom-5 atom-6" d="M 63.1,318.4 L 74.6,298.3" style="fill:none;fill-rule:evenodd;stroke:#000000;stroke-width:2.0px;stroke-linecap:butt;stroke-linejoin:miter;stroke-opacity:1" />
<path class="bond-6 atom-6 atom-7" d="M 72.4,293.3 L 64.7,284.8" style="fill:none;fill-rule:evenodd;stroke:#000000;stroke-width:2.0px;stroke-linecap:butt;stroke-linejoin:miter;stroke-opacity:1" />
<path class="bond-6 atom-6 atom-7" d="M 64.7,284.8 L 57.0,276.3" style="fill:none;fill-rule:evenodd;stroke:#CCCC00;stroke-width:2.0px;stroke-linecap:butt;stroke-linejoin:miter;stroke-opacity:1" />
<path class="bond-7 atom-7 atom-8" d="M 48.2,273.3 L 36.9,278.4" style="fill:none;fill-rule:evenodd;stroke:#CCCC00;stroke-width:2.0px;stroke-linecap:butt;stroke-linejoin:miter;stroke-opacity:1" />
<path class="bond-7 atom-7 atom-8" d="M 36.9,278.4 L 25.6,283.4" style="fill:none;fill-rule:evenodd;stroke:#000000;stroke-width:2.0px;stroke-linecap:butt;stroke-linejoin:miter;stroke-opacity:1" />
<path class="bond-9 atom-8 atom-10" d="M 25.6,283.4 L 28.7,312.8" style="fill:none;fill-rule:evenodd;stroke:#000000;stroke-width:2.0px;stroke-linecap:butt;stroke-linejoin:miter;stroke-opacity:1" />
<path class="bond-9 atom-8 atom-10" d="M 30.3,286.1 L 32.8,309.1" style="fill:none;fill-rule:evenodd;stroke:#000000;stroke-width:2.0px;stroke-linecap:butt;stroke-linejoin:miter;stroke-opacity:1" />
<path class="bond-11 atom-3 atom-12" d="M 104.4,328.9 L 133.3,335.0" style="fill:none;fill-rule:evenodd;stroke:#000000;stroke-width:2.0px;stroke-linecap:butt;stroke-linejoin:miter;stroke-opacity:1" />
<path class="bond-12 atom-12 atom-13" d="M 133.3,335.0 L 148.1,309.4" style="fill:none;fill-rule:evenodd;stroke:#000000;stroke-width:2.0px;stroke-linecap:butt;stroke-linejoin:miter;stroke-opacity:1" />
<path class="bond-12 atom-12 atom-13" d="M 131.1,330.0 L 142.6,310.0" style="fill:none;fill-rule:evenodd;stroke:#000000;stroke-width:2.0px;stroke-linecap:butt;stroke-linejoin:miter;stroke-opacity:1" />
<path class="bond-13 atom-13 atom-14" d="M 148.1,309.4 L 177.6,309.4" style="fill:none;fill-rule:evenodd;stroke:#000000;stroke-width:2.0px;stroke-linecap:butt;stroke-linejoin:miter;stroke-opacity:1" />
<path class="bond-14 atom-14 atom-15" d="M 177.6,309.4 L 192.4,335.0" style="fill:none;fill-rule:evenodd;stroke:#000000;stroke-width:2.0px;stroke-linecap:butt;stroke-linejoin:miter;stroke-opacity:1" />
<path class="bond-14 atom-14 atom-15" d="M 183.1,310.0 L 194.7,330.0" style="fill:none;fill-rule:evenodd;stroke:#000000;stroke-width:2.0px;stroke-linecap:butt;stroke-linejoin:miter;stroke-opacity:1" />
<path class="bond-15 atom-15 atom-16" d="M 192.4,335.0 L 221.3,328.9" style="fill:none;fill-rule:evenodd;stroke:#000000;stroke-width:2.0px;stroke-linecap:butt;stroke-linejoin:miter;stroke-opacity:1" />
<path class="bond-16 atom-16 atom-17" d="M 221.3,328.9 L 224.4,299.5" style="fill:none;fill-rule:evenodd;stroke:#000000;stroke-width:2.0px;stroke-linecap:butt;stroke-linejoin:miter;stroke-opacity:1" />
<path class="bond-16 atom-16 atom-17" d="M 217.3,325.2 L 219.7,302.2" style="fill:none;fill-rule:evenodd;stroke:#000000;stroke-width:2.0px;stroke-linecap:butt;stroke-linejoin:miter;stroke-opacity:1" />
<path class="bond-17 atom-17 atom-18" d="M 224.4,299.5 L 213.1,294.4" style="fill:none;fill-rule:evenodd;stroke:#000000;stroke-width:2.0px;stroke-linecap:butt;stroke-linejoin:miter;stroke-opacity:1" />
<path class="bond-17 atom-17 atom-18" d="M 213.1,294.4 L 201.8,289.4" style="fill:none;fill-rule:evenodd;stroke:#0000FF;stroke-width:2.0px;stroke-linecap:butt;stroke-linejoin:miter;stroke-opacity:1" />
<path class="bond-19 atom-17 atom-20" d="M 224.4,299.5 L 253.3,293.3" style="fill:none;fill-rule:evenodd;stroke:#000000;stroke-width:2.0px;stroke-linecap:butt;stroke-linejoin:miter;stroke-opacity:1" />
<path class="bond-20 atom-20 atom-21" d="M 253.3,293.3 L 268.1,318.9" style="fill:none;fill-rule:evenodd;stroke:#000000;stroke-width:2.0px;stroke-linecap:butt;stroke-linejoin:miter;stroke-opacity:1" />
<path class="bond-20 atom-20 atom-21" d="M 251.1,298.3 L 262.7,318.4" style="fill:none;fill-rule:evenodd;stroke:#000000;stroke-width:2.0px;stroke-linecap:butt;stroke-linejoin:miter;stroke-opacity:1" />
<path class="bond-21 atom-21 atom-22" d="M 268.1,318.9 L 260.4,327.5" style="fill:none;fill-rule:evenodd;stroke:#000000;stroke-width:2.0px;stroke-linecap:butt;stroke-linejoin:miter;stroke-opacity:1" />
<path class="bond-21 atom-21 atom-22" d="M 260.4,327.5 L 252.8,336.0" style="fill:none;fill-rule:evenodd;stroke:#CCCC00;stroke-width:2.0px;stroke-linecap:butt;stroke-linejoin:miter;stroke-opacity:1" />
<path class="bond-22 atom-21 atom-23" d="M 268.1,318.9 L 297.0,312.8" style="fill:none;fill-rule:evenodd;stroke:#000000;stroke-width:2.0px;stroke-linecap:butt;stroke-linejoin:miter;stroke-opacity:1" />
<path class="bond-24 atom-23 atom-25" d="M 297.0,312.8 L 300.1,283.4" style="fill:none;fill-rule:evenodd;stroke:#000000;stroke-width:2.0px;stroke-linecap:butt;stroke-linejoin:miter;stroke-opacity:1" />
<path class="bond-24 atom-23 atom-25" d="M 293.0,309.1 L 295.4,286.1" style="fill:none;fill-rule:evenodd;stroke:#000000;stroke-width:2.0px;stroke-linecap:butt;stroke-linejoin:miter;stroke-opacity:1" />
<path class="bond-26 atom-25 atom-27" d="M 300.1,283.4 L 288.8,278.4" style="fill:none;fill-rule:evenodd;stroke:#000000;stroke-width:2.0px;stroke-linecap:butt;stroke-linejoin:miter;stroke-opacity:1" />
<path class="bond-26 atom-25 atom-27" d="M 288.8,278.4 L 277.5,273.3" style="fill:none;fill-rule:evenodd;stroke:#CCCC00;stroke-width:2.0px;stroke-linecap:butt;stroke-linejoin:miter;stroke-opacity:1" />
<path class="bond-27 atom-15 atom-28" d="M 192.4,335.0 L 177.6,360.6" style="fill:none;fill-rule:evenodd;stroke:#000000;stroke-width:2.0px;stroke-linecap:butt;stroke-linejoin:miter;stroke-opacity:1" />
<path class="bond-28 atom-28 atom-29" d="M 177.6,360.6 L 181.4,372.1" style="fill:none;fill-rule:evenodd;stroke:#000000;stroke-width:2.0px;stroke-linecap:butt;stroke-linejoin:miter;stroke-opacity:1" />
<path class="bond-28 atom-28 atom-29" d="M 181.4,372.1 L 185.1,383.5" style="fill:none;fill-rule:evenodd;stroke:#0000FF;stroke-width:2.0px;stroke-linecap:butt;stroke-linejoin:miter;stroke-opacity:1" />
<path class="bond-28 atom-28 atom-29" d="M 174.4,365.1 L 177.6,375.0" style="fill:none;fill-rule:evenodd;stroke:#000000;stroke-width:2.0px;stroke-linecap:butt;stroke-linejoin:miter;stroke-opacity:1" />
<path class="bond-28 atom-28 atom-29" d="M 177.6,375.0 L 180.9,384.9" style="fill:none;fill-rule:evenodd;stroke:#0000FF;stroke-width:2.0px;stroke-linecap:butt;stroke-linejoin:miter;stroke-opacity:1" />
<path class="bond-29 atom-29 atom-30" d="M 182.4,391.9 L 174.9,397.4" style="fill:none;fill-rule:evenodd;stroke:#0000FF;stroke-width:2.0px;stroke-linecap:butt;stroke-linejoin:miter;stroke-opacity:1" />
<path class="bond-29 atom-29 atom-30" d="M 174.9,397.4 L 167.3,402.9" style="fill:none;fill-rule:evenodd;stroke:#CCCC00;stroke-width:2.0px;stroke-linecap:butt;stroke-linejoin:miter;stroke-opacity:1" />
<path class="bond-30 atom-30 atom-31" d="M 158.4,402.9 L 150.9,397.4" style="fill:none;fill-rule:evenodd;stroke:#CCCC00;stroke-width:2.0px;stroke-linecap:butt;stroke-linejoin:miter;stroke-opacity:1" />
<path class="bond-30 atom-30 atom-31" d="M 150.9,397.4 L 143.3,391.9" style="fill:none;fill-rule:evenodd;stroke:#0000FF;stroke-width:2.0px;stroke-linecap:butt;stroke-linejoin:miter;stroke-opacity:1" />
<path class="bond-31 atom-31 atom-32" d="M 140.6,383.5 L 144.4,372.1" style="fill:none;fill-rule:evenodd;stroke:#0000FF;stroke-width:2.0px;stroke-linecap:butt;stroke-linejoin:miter;stroke-opacity:1" />
<path class="bond-31 atom-31 atom-32" d="M 144.4,372.1 L 148.1,360.6" style="fill:none;fill-rule:evenodd;stroke:#000000;stroke-width:2.0px;stroke-linecap:butt;stroke-linejoin:miter;stroke-opacity:1" />
<path class="bond-31 atom-31 atom-32" d="M 144.9,384.9 L 148.1,375.0" style="fill:none;fill-rule:evenodd;stroke:#0000FF;stroke-width:2.0px;stroke-linecap:butt;stroke-linejoin:miter;stroke-opacity:1" />
<path class="bond-31 atom-31 atom-32" d="M 148.1,375.0 L 151.3,365.1" style="fill:none;fill-rule:evenodd;stroke:#000000;stroke-width:2.0px;stroke-linecap:butt;stroke-linejoin:miter;stroke-opacity:1" />
<path class="bond-32 atom-13 atom-1" d="M 148.1,309.4 L 140.4,300.8" style="fill:none;fill-rule:evenodd;stroke:#000000;stroke-width:2.0px;stroke-linecap:butt;stroke-linejoin:miter;stroke-opacity:1" />
<path class="bond-32 atom-13 atom-1" d="M 140.4,300.8 L 132.6,292.3" style="fill:none;fill-rule:evenodd;stroke:#0000FF;stroke-width:2.0px;stroke-linecap:butt;stroke-linejoin:miter;stroke-opacity:1" />
<path class="bond-33 atom-18 atom-14" d="M 193.1,292.3 L 185.4,300.8" style="fill:none;fill-rule:evenodd;stroke:#0000FF;stroke-width:2.0px;stroke-linecap:butt;stroke-linejoin:miter;stroke-opacity:1" />
<path class="bond-33 atom-18 atom-14" d="M 185.4,300.8 L 177.6,309.4" style="fill:none;fill-rule:evenodd;stroke:#000000;stroke-width:2.0px;stroke-linecap:butt;stroke-linejoin:miter;stroke-opacity:1" />
<path class="bond-34 atom-27 atom-20" d="M 268.7,276.3 L 261.0,284.8" style="fill:none;fill-rule:evenodd;stroke:#CCCC00;stroke-width:2.0px;stroke-linecap:butt;stroke-linejoin:miter;stroke-opacity:1" />
<path class="bond-34 atom-27 atom-20" d="M 261.0,284.8 L 253.3,293.3" style="fill:none;fill-rule:evenodd;stroke:#000000;stroke-width:2.0px;stroke-linecap:butt;stroke-linejoin:miter;stroke-opacity:1" />
<path class="bond-35 atom-32 atom-28" d="M 148.1,360.6 L 177.6,360.6" style="fill:none;fill-rule:evenodd;stroke:#000000;stroke-width:2.0px;stroke-linecap:butt;stroke-linejoin:miter;stroke-opacity:1" />
<path class="bond-36 atom-6 atom-2" d="M 72.4,293.3 L 101.3,299.5" style="fill:none;fill-rule:evenodd;stroke:#000000;stroke-width:2.0px;stroke-linecap:butt;stroke-linejoin:miter;stroke-opacity:1" />
<path class="bond-37 atom-32 atom-12" d="M 148.1,360.6 L 133.3,335.0" style="fill:none;fill-rule:evenodd;stroke:#000000;stroke-width:2.0px;stroke-linecap:butt;stroke-linejoin:miter;stroke-opacity:1" />
<path class="bond-38 atom-10 atom-5" d="M 28.7,312.8 L 57.6,318.9" style="fill:none;fill-rule:evenodd;stroke:#000000;stroke-width:2.0px;stroke-linecap:butt;stroke-linejoin:miter;stroke-opacity:1" />
<path class="bond-39 atom-22 atom-16" d="M 243.9,338.9 L 232.6,333.9" style="fill:none;fill-rule:evenodd;stroke:#CCCC00;stroke-width:2.0px;stroke-linecap:butt;stroke-linejoin:miter;stroke-opacity:1" />
<path class="bond-39 atom-22 atom-16" d="M 232.6,333.9 L 221.3,328.9" style="fill:none;fill-rule:evenodd;stroke:#000000;stroke-width:2.0px;stroke-linecap:butt;stroke-linejoin:miter;stroke-opacity:1" />
<path class="atom-1" d="M 124.9 291.7 L 124.9 283.2 L 126.6 283.2 L 130.1 288.9 L 130.1 283.2 L 131.7 283.2 L 131.7 291.7 L 129.9 291.7 L 126.5 286.2 L 126.5 291.7 L 124.9 291.7 " fill="#0000FF" />
<path class="atom-4" d="M 73.9 342.5 L 75.6 342.3 Q 75.8 343.1, 76.2 343.5 Q 76.7 343.9, 77.5 343.9 Q 78.3 343.9, 78.7 343.6 Q 79.1 343.2, 79.1 342.7 Q 79.1 342.4, 78.9 342.2 Q 78.8 342.0, 78.3 341.9 Q 78.0 341.8, 77.0 341.5 Q 75.6 341.2, 75.0 340.7 Q 74.2 340.0, 74.2 339.0 Q 74.2 338.3, 74.6 337.8 Q 75.0 337.2, 75.7 336.9 Q 76.4 336.6, 77.3 336.6 Q 78.9 336.6, 79.7 337.3 Q 80.5 338.0, 80.6 339.2 L 78.9 339.2 Q 78.8 338.6, 78.4 338.3 Q 78.0 338.0, 77.3 338.0 Q 76.6 338.0, 76.2 338.3 Q 75.9 338.5, 75.9 338.8 Q 75.9 339.1, 76.1 339.4 Q 76.5 339.6, 77.7 339.9 Q 79.0 340.2, 79.5 340.5 Q 80.1 340.8, 80.5 341.4 Q 80.8 341.9, 80.8 342.7 Q 80.8 343.5, 80.4 344.1 Q 80.0 344.7, 79.3 345.1 Q 78.5 345.4, 77.4 345.4 Q 75.8 345.4, 75.0 344.6 Q 74.1 343.9, 73.9 342.5 " fill="#CCCC00" />
<path class="atom-7" d="M 49.2 272.9 L 50.8 272.8 Q 51.0 273.6, 51.4 274.0 Q 51.9 274.4, 52.7 274.4 Q 53.5 274.4, 53.9 274.0 Q 54.3 273.7, 54.3 273.2 Q 54.3 272.9, 54.2 272.7 Q 54.0 272.5, 53.5 272.3 Q 53.2 272.2, 52.2 272.0 Q 50.8 271.6, 50.2 271.1 Q 49.5 270.4, 49.5 269.4 Q 49.5 268.8, 49.8 268.2 Q 50.2 267.7, 50.9 267.4 Q 51.6 267.1, 52.6 267.1 Q 54.2 267.1, 55.0 267.8 Q 55.8 268.5, 55.8 269.6 L 54.1 269.7 Q 54.0 269.1, 53.6 268.8 Q 53.3 268.5, 52.5 268.5 Q 51.8 268.5, 51.4 268.8 Q 51.1 269.0, 51.1 269.3 Q 51.1 269.6, 51.4 269.8 Q 51.7 270.1, 52.9 270.4 Q 54.2 270.7, 54.8 271.0 Q 55.4 271.3, 55.7 271.9 Q 56.0 272.4, 56.0 273.2 Q 56.0 273.9, 55.6 274.6 Q 55.2 275.2, 54.5 275.5 Q 53.8 275.8, 52.7 275.8 Q 51.1 275.8, 50.2 275.1 Q 49.3 274.3, 49.2 272.9 " fill="#CCCC00" />
<path class="atom-18" d="M 194.1 291.7 L 194.1 283.2 L 195.7 283.2 L 199.2 288.9 L 199.2 283.2 L 200.8 283.2 L 200.8 291.7 L 199.1 291.7 L 195.7 286.2 L 195.7 291.7 L 194.1 291.7 " fill="#0000FF" />
<path class="atom-22" d="M 244.9 342.5 L 246.6 342.3 Q 246.7 343.1, 247.2 343.5 Q 247.6 343.9, 248.4 343.9 Q 249.2 343.9, 249.7 343.6 Q 250.1 343.2, 250.1 342.7 Q 250.1 342.4, 249.9 342.2 Q 249.7 342.0, 249.3 341.9 Q 249.0 341.8, 247.9 341.5 Q 246.5 341.2, 246.0 340.7 Q 245.2 340.0, 245.2 339.0 Q 245.2 338.3, 245.6 337.8 Q 245.9 337.2, 246.6 336.9 Q 247.3 336.6, 248.3 336.6 Q 249.9 336.6, 250.7 337.3 Q 251.5 338.0, 251.5 339.2 L 249.8 339.2 Q 249.7 338.6, 249.4 338.3 Q 249.0 338.0, 248.3 338.0 Q 247.5 338.0, 247.1 338.3 Q 246.8 338.5, 246.8 338.8 Q 246.8 339.1, 247.1 339.4 Q 247.4 339.6, 248.7 339.9 Q 249.9 340.2, 250.5 340.5 Q 251.1 340.8, 251.4 341.4 Q 251.8 341.9, 251.8 342.7 Q 251.8 343.5, 251.4 344.1 Q 251.0 344.7, 250.2 345.1 Q 249.5 345.4, 248.4 345.4 Q 246.8 345.4, 245.9 344.6 Q 245.1 343.9, 244.9 342.5 " fill="#CCCC00" />
<path class="atom-27" d="M 269.7 272.9 L 271.3 272.8 Q 271.5 273.6, 272.0 274.0 Q 272.4 274.4, 273.2 274.4 Q 274.0 274.4, 274.4 274.0 Q 274.9 273.7, 274.9 273.2 Q 274.9 272.9, 274.7 272.7 Q 274.5 272.5, 274.1 272.3 Q 273.8 272.2, 272.7 272.0 Q 271.3 271.6, 270.8 271.1 Q 270.0 270.4, 270.0 269.4 Q 270.0 268.8, 270.4 268.2 Q 270.7 267.7, 271.4 267.4 Q 272.1 267.1, 273.1 267.1 Q 274.7 267.1, 275.5 267.8 Q 276.3 268.5, 276.3 269.6 L 274.6 269.7 Q 274.5 269.1, 274.1 268.8 Q 273.8 268.5, 273.1 268.5 Q 272.3 268.5, 271.9 268.8 Q 271.6 269.0, 271.6 269.3 Q 271.6 269.6, 271.9 269.8 Q 272.2 270.1, 273.4 270.4 Q 274.7 270.7, 275.3 271.0 Q 275.9 271.3, 276.2 271.9 Q 276.6 272.4, 276.6 273.2 Q 276.6 273.9, 276.2 274.6 Q 275.8 275.2, 275.0 275.5 Q 274.3 275.8, 273.2 275.8 Q 271.6 275.8, 270.7 275.1 Q 269.8 274.3, 269.7 272.9 " fill="#CCCC00" />
<path class="atom-29" d="M 183.4 393.0 L 183.4 384.5 L 185.1 384.5 L 188.5 390.2 L 188.5 384.5 L 190.1 384.5 L 190.1 393.0 L 188.4 393.0 L 185.0 387.5 L 185.0 393.0 L 183.4 393.0 " fill="#0000FF" />
<path class="atom-30" d="M 159.4 407.7 L 161.1 407.5 Q 161.2 408.3, 161.7 408.7 Q 162.2 409.1, 162.9 409.1 Q 163.8 409.1, 164.2 408.8 Q 164.6 408.4, 164.6 408.0 Q 164.6 407.7, 164.4 407.5 Q 164.2 407.2, 163.8 407.1 Q 163.5 407.0, 162.4 406.7 Q 161.1 406.4, 160.5 405.9 Q 159.7 405.2, 159.7 404.2 Q 159.7 403.5, 160.1 403.0 Q 160.5 402.4, 161.1 402.1 Q 161.8 401.8, 162.8 401.8 Q 164.4 401.8, 165.2 402.5 Q 166.0 403.2, 166.1 404.4 L 164.4 404.5 Q 164.2 403.8, 163.9 403.5 Q 163.5 403.2, 162.8 403.2 Q 162.1 403.2, 161.6 403.5 Q 161.4 403.7, 161.4 404.1 Q 161.4 404.4, 161.6 404.6 Q 161.9 404.8, 163.2 405.1 Q 164.4 405.4, 165.0 405.7 Q 165.6 406.1, 166.0 406.6 Q 166.3 407.2, 166.3 408.0 Q 166.3 408.7, 165.9 409.3 Q 165.5 410.0, 164.8 410.3 Q 164.0 410.6, 162.9 410.6 Q 161.3 410.6, 160.5 409.8 Q 159.6 409.1, 159.4 407.7 " fill="#CCCC00" />
<path class="atom-31" d="M 135.6 393.0 L 135.6 384.5 L 137.3 384.5 L 140.7 390.2 L 140.7 384.5 L 142.3 384.5 L 142.3 393.0 L 140.6 393.0 L 137.2 387.5 L 137.2 393.0 L 135.6 393.0 " fill="#0000FF" />
</svg>