<?xml version='1.0' encoding='iso-8859-1'?>
<svg xmlns="http://www.w3.org/2000/svg" version="1.1" baseProfile="full" xml:space="preserve" width="428" height="232" viewBox="43 127 428 232">

<rect style="opacity:1.0;fill:#FFFFFF;stroke:none" width="512.0" height="512.0" x="0.0" y="0.0"> </rect>
<path class="bond-1 atom-1 atom-2" d="M 267.3,340.2 L 284.3,327.9" style="fill:none;fill-rule:evenodd;stroke:#0000FF;stroke-width:2.0px;stroke-linecap:butt;stroke-linejoin:miter;stroke-opacity:1" />
<path class="bond-2 atom-2 atom-3" d="M 290.3,308.4 L 285.2,292.7" style="fill:none;fill-rule:evenodd;stroke:#0000FF;stroke-width:2.0px;stroke-linecap:butt;stroke-linejoin:miter;stroke-opacity:1" />
<path class="bond-2 atom-2 atom-3" d="M 285.2,292.7 L 280.2,277.0" style="fill:none;fill-rule:evenodd;stroke:#000000;stroke-width:2.0px;stroke-linecap:butt;stroke-linejoin:miter;stroke-opacity:1" />
<path class="bond-2 atom-2 atom-3" d="M 283.8,310.5 L 279.5,297.2" style="fill:none;fill-rule:evenodd;stroke:#0000FF;stroke-width:2.0px;stroke-linecap:butt;stroke-linejoin:miter;stroke-opacity:1" />
<path class="bond-2 atom-2 atom-3" d="M 279.5,297.2 L 275.2,283.9" style="fill:none;fill-rule:evenodd;stroke:#000000;stroke-width:2.0px;stroke-linecap:butt;stroke-linejoin:miter;stroke-opacity:1" />
<path class="bond-3 atom-3 atom-4" d="M 280.2,277.0 L 234.3,277.0" style="fill:none;fill-rule:evenodd;stroke:#000000;stroke-width:2.0px;stroke-linecap:butt;stroke-linejoin:miter;stroke-opacity:1" />
<path class="bond-4 atom-4 atom-5" d="M 234.3,277.0 L 229.3,292.7" style="fill:none;fill-rule:evenodd;stroke:#000000;stroke-width:2.0px;stroke-linecap:butt;stroke-linejoin:miter;stroke-opacity:1" />
<path class="bond-4 atom-4 atom-5" d="M 229.3,292.7 L 224.2,308.4" style="fill:none;fill-rule:evenodd;stroke:#0000FF;stroke-width:2.0px;stroke-linecap:butt;stroke-linejoin:miter;stroke-opacity:1" />
<path class="bond-4 atom-4 atom-5" d="M 239.3,283.9 L 235.0,297.2" style="fill:none;fill-rule:evenodd;stroke:#000000;stroke-width:2.0px;stroke-linecap:butt;stroke-linejoin:miter;stroke-opacity:1" />
<path class="bond-4 atom-4 atom-5" d="M 235.0,297.2 L 230.7,310.5" style="fill:none;fill-rule:evenodd;stroke:#0000FF;stroke-width:2.0px;stroke-linecap:butt;stroke-linejoin:miter;stroke-opacity:1" />
<path class="bond-5 atom-4 atom-6" d="M 234.3,277.0 L 211.4,237.4" style="fill:none;fill-rule:evenodd;stroke:#000000;stroke-width:2.0px;stroke-linecap:butt;stroke-linejoin:miter;stroke-opacity:1" />
<path class="bond-6 atom-6 atom-7" d="M 211.4,237.4 L 234.3,197.7" style="fill:none;fill-rule:evenodd;stroke:#000000;stroke-width:2.0px;stroke-linecap:butt;stroke-linejoin:miter;stroke-opacity:1" />
<path class="bond-6 atom-6 atom-7" d="M 208.0,229.6 L 225.9,198.6" style="fill:none;fill-rule:evenodd;stroke:#000000;stroke-width:2.0px;stroke-linecap:butt;stroke-linejoin:miter;stroke-opacity:1" />
<path class="bond-7 atom-7 atom-8" d="M 234.3,197.7 L 224.0,186.3" style="fill:none;fill-rule:evenodd;stroke:#000000;stroke-width:2.0px;stroke-linecap:butt;stroke-linejoin:miter;stroke-opacity:1" />
<path class="bond-7 atom-7 atom-8" d="M 224.0,186.3 L 213.7,174.8" style="fill:none;fill-rule:evenodd;stroke:#0000FF;stroke-width:2.0px;stroke-linecap:butt;stroke-linejoin:miter;stroke-opacity:1" />
<path class="bond-9 atom-8 atom-10" d="M 193.7,168.1 L 177.8,175.2" style="fill:none;fill-rule:evenodd;stroke:#0000FF;stroke-width:2.0px;stroke-linecap:butt;stroke-linejoin:miter;stroke-opacity:1" />
<path class="bond-9 atom-8 atom-10" d="M 177.8,175.2 L 161.9,182.3" style="fill:none;fill-rule:evenodd;stroke:#000000;stroke-width:2.0px;stroke-linecap:butt;stroke-linejoin:miter;stroke-opacity:1" />
<path class="bond-10 atom-10 atom-11" d="M 161.9,182.3 L 166.6,227.8" style="fill:none;fill-rule:evenodd;stroke:#000000;stroke-width:2.0px;stroke-linecap:butt;stroke-linejoin:miter;stroke-opacity:1" />
<path class="bond-10 atom-10 atom-11" d="M 169.2,186.5 L 173.0,222.2" style="fill:none;fill-rule:evenodd;stroke:#000000;stroke-width:2.0px;stroke-linecap:butt;stroke-linejoin:miter;stroke-opacity:1" />
<path class="bond-11 atom-11 atom-12" d="M 166.6,227.8 L 150.8,234.9" style="fill:none;fill-rule:evenodd;stroke:#000000;stroke-width:2.0px;stroke-linecap:butt;stroke-linejoin:miter;stroke-opacity:1" />
<path class="bond-11 atom-11 atom-12" d="M 150.8,234.9 L 135.0,241.9" style="fill:none;fill-rule:evenodd;stroke:#CCCC00;stroke-width:2.0px;stroke-linecap:butt;stroke-linejoin:miter;stroke-opacity:1" />
<path class="bond-12 atom-12 atom-13" d="M 114.6,235.1 L 104.4,223.8" style="fill:none;fill-rule:evenodd;stroke:#CCCC00;stroke-width:2.0px;stroke-linecap:butt;stroke-linejoin:miter;stroke-opacity:1" />
<path class="bond-12 atom-12 atom-13" d="M 104.4,223.8 L 94.1,212.4" style="fill:none;fill-rule:evenodd;stroke:#000000;stroke-width:2.0px;stroke-linecap:butt;stroke-linejoin:miter;stroke-opacity:1" />
<path class="bond-13 atom-13 atom-14" d="M 94.1,212.4 L 117.1,172.8" style="fill:none;fill-rule:evenodd;stroke:#000000;stroke-width:2.0px;stroke-linecap:butt;stroke-linejoin:miter;stroke-opacity:1" />
<path class="bond-13 atom-13 atom-14" d="M 102.6,211.6 L 120.5,180.5" style="fill:none;fill-rule:evenodd;stroke:#000000;stroke-width:2.0px;stroke-linecap:butt;stroke-linejoin:miter;stroke-opacity:1" />
<path class="bond-14 atom-14 atom-15" d="M 117.1,172.8 L 106.8,161.4" style="fill:none;fill-rule:evenodd;stroke:#000000;stroke-width:2.0px;stroke-linecap:butt;stroke-linejoin:miter;stroke-opacity:1" />
<path class="bond-14 atom-14 atom-15" d="M 106.8,161.4 L 96.6,150.1" style="fill:none;fill-rule:evenodd;stroke:#CCCC00;stroke-width:2.0px;stroke-linecap:butt;stroke-linejoin:miter;stroke-opacity:1" />
<path class="bond-15 atom-15 atom-16" d="M 76.2,143.3 L 60.4,150.3" style="fill:none;fill-rule:evenodd;stroke:#CCCC00;stroke-width:2.0px;stroke-linecap:butt;stroke-linejoin:miter;stroke-opacity:1" />
<path class="bond-15 atom-15 atom-16" d="M 60.4,150.3 L 44.6,157.4" style="fill:none;fill-rule:evenodd;stroke:#000000;stroke-width:2.0px;stroke-linecap:butt;stroke-linejoin:miter;stroke-opacity:1" />
<path class="bond-17 atom-16 atom-18" d="M 44.6,157.4 L 49.3,202.9" style="fill:none;fill-rule:evenodd;stroke:#000000;stroke-width:2.0px;stroke-linecap:butt;stroke-linejoin:miter;stroke-opacity:1" />
<path class="bond-17 atom-16 atom-18" d="M 51.9,161.6 L 55.7,197.2" style="fill:none;fill-rule:evenodd;stroke:#000000;stroke-width:2.0px;stroke-linecap:butt;stroke-linejoin:miter;stroke-opacity:1" />
<path class="bond-19 atom-7 atom-20" d="M 234.3,197.7 L 280.2,197.7" style="fill:none;fill-rule:evenodd;stroke:#000000;stroke-width:2.0px;stroke-linecap:butt;stroke-linejoin:miter;stroke-opacity:1" />
<path class="bond-20 atom-20 atom-21" d="M 280.2,197.7 L 303.1,237.4" style="fill:none;fill-rule:evenodd;stroke:#000000;stroke-width:2.0px;stroke-linecap:butt;stroke-linejoin:miter;stroke-opacity:1" />
<path class="bond-20 atom-20 atom-21" d="M 288.6,198.6 L 306.5,229.6" style="fill:none;fill-rule:evenodd;stroke:#000000;stroke-width:2.0px;stroke-linecap:butt;stroke-linejoin:miter;stroke-opacity:1" />
<path class="bond-21 atom-21 atom-22" d="M 303.1,237.4 L 347.9,227.8" style="fill:none;fill-rule:evenodd;stroke:#000000;stroke-width:2.0px;stroke-linecap:butt;stroke-linejoin:miter;stroke-opacity:1" />
<path class="bond-22 atom-22 atom-23" d="M 347.9,227.8 L 352.6,182.3" style="fill:none;fill-rule:evenodd;stroke:#000000;stroke-width:2.0px;stroke-linecap:butt;stroke-linejoin:miter;stroke-opacity:1" />
<path class="bond-22 atom-22 atom-23" d="M 341.5,222.2 L 345.3,186.5" style="fill:none;fill-rule:evenodd;stroke:#000000;stroke-width:2.0px;stroke-linecap:butt;stroke-linejoin:miter;stroke-opacity:1" />
<path class="bond-23 atom-23 atom-24" d="M 352.6,182.3 L 336.7,175.2" style="fill:none;fill-rule:evenodd;stroke:#000000;stroke-width:2.0px;stroke-linecap:butt;stroke-linejoin:miter;stroke-opacity:1" />
<path class="bond-23 atom-23 atom-24" d="M 336.7,175.2 L 320.8,168.1" style="fill:none;fill-rule:evenodd;stroke:#0000FF;stroke-width:2.0px;stroke-linecap:butt;stroke-linejoin:miter;stroke-opacity:1" />
<path class="bond-25 atom-23 atom-26" d="M 352.6,182.3 L 397.4,172.8" style="fill:none;fill-rule:evenodd;stroke:#000000;stroke-width:2.0px;stroke-linecap:butt;stroke-linejoin:miter;stroke-opacity:1" />
<path class="bond-26 atom-26 atom-27" d="M 397.4,172.8 L 420.3,212.4" style="fill:none;fill-rule:evenodd;stroke:#000000;stroke-width:2.0px;stroke-linecap:butt;stroke-linejoin:miter;stroke-opacity:1" />
<path class="bond-26 atom-26 atom-27" d="M 394.0,180.5 L 411.9,211.6" style="fill:none;fill-rule:evenodd;stroke:#000000;stroke-width:2.0px;stroke-linecap:butt;stroke-linejoin:miter;stroke-opacity:1" />
<path class="bond-27 atom-27 atom-28" d="M 420.3,212.4 L 410.1,223.8" style="fill:none;fill-rule:evenodd;stroke:#000000;stroke-width:2.0px;stroke-linecap:butt;stroke-linejoin:miter;stroke-opacity:1" />
<path class="bond-27 atom-27 atom-28" d="M 410.1,223.8 L 399.9,235.1" style="fill:none;fill-rule:evenodd;stroke:#CCCC00;stroke-width:2.0px;stroke-linecap:butt;stroke-linejoin:miter;stroke-opacity:1" />
<path class="bond-28 atom-27 atom-29" d="M 420.3,212.4 L 465.2,202.9" style="fill:none;fill-rule:evenodd;stroke:#000000;stroke-width:2.0px;stroke-linecap:butt;stroke-linejoin:miter;stroke-opacity:1" />
<path class="bond-30 atom-29 atom-31" d="M 465.2,202.9 L 469.9,157.4" style="fill:none;fill-rule:evenodd;stroke:#000000;stroke-width:2.0px;stroke-linecap:butt;stroke-linejoin:miter;stroke-opacity:1" />
<path class="bond-30 atom-29 atom-31" d="M 458.8,197.2 L 462.6,161.6" style="fill:none;fill-rule:evenodd;stroke:#000000;stroke-width:2.0px;stroke-linecap:butt;stroke-linejoin:miter;stroke-opacity:1" />
<path class="bond-32 atom-31 atom-33" d="M 469.9,157.4 L 454.1,150.3" style="fill:none;fill-rule:evenodd;stroke:#000000;stroke-width:2.0px;stroke-linecap:butt;stroke-linejoin:miter;stroke-opacity:1" />
<path class="bond-32 atom-31 atom-33" d="M 454.1,150.3 L 438.3,143.3" style="fill:none;fill-rule:evenodd;stroke:#CCCC00;stroke-width:2.0px;stroke-linecap:butt;stroke-linejoin:miter;stroke-opacity:1" />
<path class="bond-33 atom-5 atom-1" d="M 230.2,327.9 L 247.2,340.2" style="fill:none;fill-rule:evenodd;stroke:#0000FF;stroke-width:2.0px;stroke-linecap:butt;stroke-linejoin:miter;stroke-opacity:1" />
<path class="bond-34 atom-11 atom-6" d="M 166.6,227.8 L 211.4,237.4" style="fill:none;fill-rule:evenodd;stroke:#000000;stroke-width:2.0px;stroke-linecap:butt;stroke-linejoin:miter;stroke-opacity:1" />
<path class="bond-35 atom-18 atom-13" d="M 49.3,202.9 L 94.1,212.4" style="fill:none;fill-rule:evenodd;stroke:#000000;stroke-width:2.0px;stroke-linecap:butt;stroke-linejoin:miter;stroke-opacity:1" />
<path class="bond-36 atom-24 atom-20" d="M 300.8,174.8 L 290.5,186.3" style="fill:none;fill-rule:evenodd;stroke:#0000FF;stroke-width:2.0px;stroke-linecap:butt;stroke-linejoin:miter;stroke-opacity:1" />
<path class="bond-36 atom-24 atom-20" d="M 290.5,186.3 L 280.2,197.7" style="fill:none;fill-rule:evenodd;stroke:#000000;stroke-width:2.0px;stroke-linecap:butt;stroke-linejoin:miter;stroke-opacity:1" />
<path class="bond-37 atom-33 atom-26" d="M 417.9,150.1 L 407.6,161.4" style="fill:none;fill-rule:evenodd;stroke:#CCCC00;stroke-width:2.0px;stroke-linecap:butt;stroke-linejoin:miter;stroke-opacity:1" />
<path class="bond-37 atom-33 atom-26" d="M 407.6,161.4 L 397.4,172.8" style="fill:none;fill-rule:evenodd;stroke:#000000;stroke-width:2.0px;stroke-linecap:butt;stroke-linejoin:miter;stroke-opacity:1" />
<path class="bond-38 atom-21 atom-3" d="M 303.1,237.4 L 280.2,277.0" style="fill:none;fill-rule:evenodd;stroke:#000000;stroke-width:2.0px;stroke-linecap:butt;stroke-linejoin:miter;stroke-opacity:1" />
<path class="bond-39 atom-28 atom-22" d="M 379.5,241.9 L 363.7,234.9" style="fill:none;fill-rule:evenodd;stroke:#CCCC00;stroke-width:2.0px;stroke-linecap:butt;stroke-linejoin:miter;stroke-opacity:1" />
<path class="bond-39 atom-28 atom-22" d="M 363.7,234.9 L 347.9,227.8" style="fill:none;fill-rule:evenodd;stroke:#000000;stroke-width:2.0px;stroke-linecap:butt;stroke-linejoin:miter;stroke-opacity:1" />
<path class="bond-40 atom-14 atom-10" d="M 117.1,172.8 L 161.9,182.3" style="fill:none;fill-rule:evenodd;stroke:#000000;stroke-width:2.0px;stroke-linecap:butt;stroke-linejoin:miter;stroke-opacity:1" />
<path class="atom-1" d="M 248.7 358.3 L 248.7 336.8 L 252.9 336.8 L 261.7 351.1 L 261.7 336.8 L 265.8 336.8 L 265.8 358.3 L 261.4 358.3 L 252.8 344.3 L 252.8 358.3 L 248.7 358.3 " fill="#0000FF" />
<path class="atom-2" d="M 285.8 331.3 L 285.8 309.9 L 290.0 309.9 L 298.8 324.2 L 298.8 309.9 L 302.8 309.9 L 302.8 331.3 L 298.5 331.3 L 289.8 317.3 L 289.8 331.3 L 285.8 331.3 " fill="#0000FF" />
<path class="atom-5" d="M 211.7 331.3 L 211.7 309.9 L 215.9 309.9 L 224.7 324.2 L 224.7 309.9 L 228.7 309.9 L 228.7 331.3 L 224.4 331.3 L 215.7 317.3 L 215.7 331.3 L 211.7 331.3 " fill="#0000FF" />
<path class="atom-8" d="M 195.2 174.4 L 195.2 152.9 L 199.4 152.9 L 208.2 167.3 L 208.2 152.9 L 212.2 152.9 L 212.2 174.4 L 207.9 174.4 L 199.2 160.4 L 199.2 174.4 L 195.2 174.4 " fill="#0000FF" />
<path class="atom-12" d="M 116.1 250.4 L 120.3 250.0 Q 120.7 252.1, 121.8 253.1 Q 123.0 254.1, 125.0 254.1 Q 127.1 254.1, 128.1 253.2 Q 129.2 252.3, 129.2 251.2 Q 129.2 250.4, 128.7 249.9 Q 128.3 249.3, 127.2 248.9 Q 126.4 248.7, 123.7 248.0 Q 120.2 247.1, 118.8 245.9 Q 116.8 244.1, 116.8 241.5 Q 116.8 239.9, 117.8 238.5 Q 118.7 237.1, 120.4 236.3 Q 122.2 235.6, 124.7 235.6 Q 128.7 235.6, 130.8 237.3 Q 132.8 239.1, 132.9 242.1 L 128.6 242.3 Q 128.3 240.6, 127.4 239.9 Q 126.5 239.1, 124.6 239.1 Q 122.7 239.1, 121.7 239.9 Q 121.0 240.4, 121.0 241.3 Q 121.0 242.0, 121.6 242.6 Q 122.5 243.2, 125.6 244.0 Q 128.8 244.7, 130.3 245.5 Q 131.8 246.3, 132.7 247.7 Q 133.5 249.1, 133.5 251.1 Q 133.5 253.0, 132.5 254.6 Q 131.5 256.2, 129.6 257.0 Q 127.7 257.8, 124.9 257.8 Q 120.9 257.8, 118.7 255.9 Q 116.5 254.0, 116.1 250.4 " fill="#CCCC00" />
<path class="atom-15" d="M 77.7 142.7 L 81.9 142.3 Q 82.3 144.4, 83.4 145.4 Q 84.6 146.4, 86.6 146.4 Q 88.7 146.4, 89.7 145.5 Q 90.8 144.6, 90.8 143.4 Q 90.8 142.7, 90.3 142.1 Q 89.9 141.6, 88.8 141.2 Q 88.0 140.9, 85.3 140.3 Q 81.8 139.4, 80.4 138.1 Q 78.4 136.4, 78.4 133.8 Q 78.4 132.2, 79.4 130.7 Q 80.3 129.3, 82.1 128.6 Q 83.8 127.8, 86.3 127.8 Q 90.3 127.8, 92.4 129.6 Q 94.4 131.4, 94.5 134.3 L 90.2 134.5 Q 89.9 132.9, 89.0 132.1 Q 88.1 131.4, 86.2 131.4 Q 84.4 131.4, 83.3 132.2 Q 82.6 132.7, 82.6 133.5 Q 82.6 134.3, 83.2 134.8 Q 84.1 135.5, 87.2 136.3 Q 90.4 137.0, 91.9 137.8 Q 93.4 138.6, 94.3 140.0 Q 95.1 141.4, 95.1 143.4 Q 95.1 145.2, 94.1 146.9 Q 93.1 148.5, 91.2 149.3 Q 89.3 150.0, 86.5 150.0 Q 82.5 150.0, 80.3 148.2 Q 78.1 146.3, 77.7 142.7 " fill="#CCCC00" />
<path class="atom-24" d="M 302.3 174.4 L 302.3 152.9 L 306.5 152.9 L 315.3 167.3 L 315.3 152.9 L 319.3 152.9 L 319.3 174.4 L 315.0 174.4 L 306.3 160.4 L 306.3 174.4 L 302.3 174.4 " fill="#0000FF" />
<path class="atom-28" d="M 381.0 250.4 L 385.2 250.0 Q 385.6 252.1, 386.7 253.1 Q 387.9 254.1, 389.9 254.1 Q 392.0 254.1, 393.0 253.2 Q 394.1 252.3, 394.1 251.2 Q 394.1 250.4, 393.6 249.9 Q 393.2 249.3, 392.1 248.9 Q 391.3 248.7, 388.6 248.0 Q 385.1 247.1, 383.7 245.9 Q 381.7 244.1, 381.7 241.5 Q 381.7 239.9, 382.7 238.5 Q 383.6 237.1, 385.3 236.3 Q 387.1 235.6, 389.6 235.6 Q 393.6 235.6, 395.7 237.3 Q 397.7 239.1, 397.8 242.1 L 393.5 242.3 Q 393.2 240.6, 392.3 239.9 Q 391.4 239.1, 389.5 239.1 Q 387.6 239.1, 386.6 239.9 Q 385.9 240.4, 385.9 241.3 Q 385.9 242.0, 386.5 242.6 Q 387.4 243.2, 390.5 244.0 Q 393.7 244.7, 395.2 245.5 Q 396.7 246.3, 397.6 247.7 Q 398.4 249.1, 398.4 251.1 Q 398.4 253.0, 397.4 254.6 Q 396.4 256.2, 394.5 257.0 Q 392.6 257.8, 389.8 257.8 Q 385.8 257.8, 383.6 255.9 Q 381.4 254.0, 381.0 250.4 " fill="#CCCC00" />
<path class="atom-33" d="M 419.4 142.7 L 423.6 142.3 Q 424.0 144.4, 425.1 145.4 Q 426.3 146.4, 428.3 146.4 Q 430.4 146.4, 431.4 145.5 Q 432.5 144.6, 432.5 143.4 Q 432.5 142.7, 432.0 142.1 Q 431.6 141.6, 430.5 141.2 Q 429.7 140.9, 427.0 140.3 Q 423.5 139.4, 422.1 138.1 Q 420.1 136.4, 420.1 133.8 Q 420.1 132.2, 421.1 130.7 Q 422.0 129.3, 423.7 128.6 Q 425.5 127.8, 428.0 127.8 Q 432.0 127.8, 434.1 129.6 Q 436.1 131.4, 436.2 134.3 L 431.9 134.5 Q 431.6 132.9, 430.7 132.1 Q 429.8 131.4, 427.9 131.4 Q 426.0 131.4, 425.0 132.2 Q 424.3 132.7, 424.3 133.5 Q 424.3 134.3, 424.9 134.8 Q 425.8 135.5, 428.9 136.3 Q 432.1 137.0, 433.6 137.8 Q 435.1 138.6, 436.0 140.0 Q 436.8 141.4, 436.8 143.4 Q 436.8 145.2, 435.8 146.9 Q 434.8 148.5, 432.9 149.3 Q 431.0 150.0, 428.2 150.0 Q 424.2 150.0, 422.0 148.2 Q 419.8 146.3, 419.4 142.7 " fill="#CCCC00" />
</svg>