<?xml version='1.0' encoding='iso-8859-1'?>
<svg xmlns="http://www.w3.org/2000/svg" version="1.1" baseProfile="full" xml:space="preserve" width="278" height="144" viewBox="24 237 278 144">

<rect style="opacity:1.0;fill:#FFFFFF;stroke:none" width="512.0" height="512.0" x="0.0" y="0.0"> </rect>
<path class="bond-1 atom-1 atom-2" d="M 167.2,373.4 L 182.4,362.3" style="fill:none;fill-rule:evenodd;stroke:#0000FF;stroke-width:2.0px;stroke-linecap:butt;stroke-linejoin:miter;stroke-opacity:1" />
<path class="bond-2 atom-2 atom-3" d="M 185.1,354.0 L 181.4,342.5" style="fill:none;fill-rule:evenodd;stroke:#0000FF;stroke-width:2.0px;stroke-linecap:butt;stroke-linejoin:miter;stroke-opacity:1" />
<path class="bond-2 atom-2 atom-3" d="M 181.4,342.5 L 177.6,331.1" style="fill:none;fill-rule:evenodd;stroke:#000000;stroke-width:2.0px;stroke-linecap:butt;stroke-linejoin:miter;stroke-opacity:1" />
<path class="bond-2 atom-2 atom-3" d="M 180.9,355.3 L 177.6,345.4" style="fill:none;fill-rule:evenodd;stroke:#0000FF;stroke-width:2.0px;stroke-linecap:butt;stroke-linejoin:miter;stroke-opacity:1" />
<path class="bond-2 atom-2 atom-3" d="M 177.6,345.4 L 174.4,335.5" style="fill:none;fill-rule:evenodd;stroke:#000000;stroke-width:2.0px;stroke-linecap:butt;stroke-linejoin:miter;stroke-opacity:1" />
<path class="bond-3 atom-3 atom-4" d="M 177.6,331.1 L 148.1,331.1" style="fill:none;fill-rule:evenodd;stroke:#000000;stroke-width:2.0px;stroke-linecap:butt;stroke-linejoin:miter;stroke-opacity:1" />
<path class="bond-4 atom-4 atom-5" d="M 148.1,331.1 L 144.4,342.5" style="fill:none;fill-rule:evenodd;stroke:#000000;stroke-width:2.0px;stroke-linecap:butt;stroke-linejoin:miter;stroke-opacity:1" />
<path class="bond-4 atom-4 atom-5" d="M 144.4,342.5 L 140.6,354.0" style="fill:none;fill-rule:evenodd;stroke:#0000FF;stroke-width:2.0px;stroke-linecap:butt;stroke-linejoin:miter;stroke-opacity:1" />
<path class="bond-4 atom-4 atom-5" d="M 151.3,335.5 L 148.1,345.4" style="fill:none;fill-rule:evenodd;stroke:#000000;stroke-width:2.0px;stroke-linecap:butt;stroke-linejoin:miter;stroke-opacity:1" />
<path class="bond-4 atom-4 atom-5" d="M 148.1,345.4 L 144.9,355.3" style="fill:none;fill-rule:evenodd;stroke:#0000FF;stroke-width:2.0px;stroke-linecap:butt;stroke-linejoin:miter;stroke-opacity:1" />
<path class="bond-5 atom-4 atom-6" d="M 148.1,331.1 L 133.3,305.5" style="fill:none;fill-rule:evenodd;stroke:#000000;stroke-width:2.0px;stroke-linecap:butt;stroke-linejoin:miter;stroke-opacity:1" />
<path class="bond-6 atom-6 atom-7" d="M 133.3,305.5 L 148.1,279.9" style="fill:none;fill-rule:evenodd;stroke:#000000;stroke-width:2.0px;stroke-linecap:butt;stroke-linejoin:miter;stroke-opacity:1" />
<path class="bond-6 atom-6 atom-7" d="M 131.1,300.5 L 142.6,280.4" style="fill:none;fill-rule:evenodd;stroke:#000000;stroke-width:2.0px;stroke-linecap:butt;stroke-linejoin:miter;stroke-opacity:1" />
<path class="bond-7 atom-7 atom-8" d="M 148.1,279.9 L 140.4,271.3" style="fill:none;fill-rule:evenodd;stroke:#000000;stroke-width:2.0px;stroke-linecap:butt;stroke-linejoin:miter;stroke-opacity:1" />
<path class="bond-7 atom-7 atom-8" d="M 140.4,271.3 L 132.6,262.7" style="fill:none;fill-rule:evenodd;stroke:#0000FF;stroke-width:2.0px;stroke-linecap:butt;stroke-linejoin:miter;stroke-opacity:1" />
<path class="bond-9 atom-8 atom-10" d="M 124.0,259.8 L 112.6,264.9" style="fill:none;fill-rule:evenodd;stroke:#0000FF;stroke-width:2.0px;stroke-linecap:butt;stroke-linejoin:miter;stroke-opacity:1" />
<path class="bond-9 atom-8 atom-10" d="M 112.6,264.9 L 101.3,269.9" style="fill:none;fill-rule:evenodd;stroke:#000000;stroke-width:2.0px;stroke-linecap:butt;stroke-linejoin:miter;stroke-opacity:1" />
<path class="bond-10 atom-10 atom-11" d="M 101.3,269.9 L 104.4,299.3" style="fill:none;fill-rule:evenodd;stroke:#000000;stroke-width:2.0px;stroke-linecap:butt;stroke-linejoin:miter;stroke-opacity:1" />
<path class="bond-10 atom-10 atom-11" d="M 106.0,272.7 L 108.5,295.7" style="fill:none;fill-rule:evenodd;stroke:#000000;stroke-width:2.0px;stroke-linecap:butt;stroke-linejoin:miter;stroke-opacity:1" />
<path class="bond-11 atom-11 atom-12" d="M 104.4,299.3 L 93.1,304.3" style="fill:none;fill-rule:evenodd;stroke:#000000;stroke-width:2.0px;stroke-linecap:butt;stroke-linejoin:miter;stroke-opacity:1" />
<path class="bond-11 atom-11 atom-12" d="M 93.1,304.3 L 81.8,309.4" style="fill:none;fill-rule:evenodd;stroke:#CCCC00;stroke-width:2.0px;stroke-linecap:butt;stroke-linejoin:miter;stroke-opacity:1" />
<path class="bond-12 atom-12 atom-13" d="M 73.0,306.4 L 65.3,297.9" style="fill:none;fill-rule:evenodd;stroke:#CCCC00;stroke-width:2.0px;stroke-linecap:butt;stroke-linejoin:miter;stroke-opacity:1" />
<path class="bond-12 atom-12 atom-13" d="M 65.3,297.9 L 57.6,289.4" style="fill:none;fill-rule:evenodd;stroke:#000000;stroke-width:2.0px;stroke-linecap:butt;stroke-linejoin:miter;stroke-opacity:1" />
<path class="bond-13 atom-13 atom-14" d="M 57.6,289.4 L 72.4,263.8" style="fill:none;fill-rule:evenodd;stroke:#000000;stroke-width:2.0px;stroke-linecap:butt;stroke-linejoin:miter;stroke-opacity:1" />
<path class="bond-13 atom-13 atom-14" d="M 63.1,288.8 L 74.6,268.8" style="fill:none;fill-rule:evenodd;stroke:#000000;stroke-width:2.0px;stroke-linecap:butt;stroke-linejoin:miter;stroke-opacity:1" />
<path class="bond-14 atom-14 atom-15" d="M 72.4,263.8 L 64.7,255.2" style="fill:none;fill-rule:evenodd;stroke:#000000;stroke-width:2.0px;stroke-linecap:butt;stroke-linejoin:miter;stroke-opacity:1" />
<path class="bond-14 atom-14 atom-15" d="M 64.7,255.2 L 57.0,246.7" style="fill:none;fill-rule:evenodd;stroke:#CCCC00;stroke-width:2.0px;stroke-linecap:butt;stroke-linejoin:miter;stroke-opacity:1" />
<path class="bond-15 atom-15 atom-16" d="M 48.2,243.8 L 36.9,248.8" style="fill:none;fill-rule:evenodd;stroke:#CCCC00;stroke-width:2.0px;stroke-linecap:butt;stroke-linejoin:miter;stroke-opacity:1" />
<path class="bond-15 atom-15 atom-16" d="M 36.9,248.8 L 25.6,253.8" style="fill:none;fill-rule:evenodd;stroke:#000000;stroke-width:2.0px;stroke-linecap:butt;stroke-linejoin:miter;stroke-opacity:1" />
<path class="bond-17 atom-16 atom-18" d="M 25.6,253.8 L 28.7,283.2" style="fill:none;fill-rule:evenodd;stroke:#000000;stroke-width:2.0px;stroke-linecap:butt;stroke-linejoin:miter;stroke-opacity:1" />
<path class="bond-17 atom-16 atom-18" d="M 30.3,256.6 L 32.8,279.6" style="fill:none;fill-rule:evenodd;stroke:#000000;stroke-width:2.0px;stroke-linecap:butt;stroke-linejoin:miter;stroke-opacity:1" />
<path class="bond-19 atom-7 atom-20" d="M 148.1,279.9 L 177.6,279.9" style="fill:none;fill-rule:evenodd;stroke:#000000;stroke-width:2.0px;stroke-linecap:butt;stroke-linejoin:miter;stroke-opacity:1" />
<path class="bond-20 atom-20 atom-21" d="M 177.6,279.9 L 192.4,305.5" style="fill:none;fill-rule:evenodd;stroke:#000000;stroke-width:2.0px;stroke-linecap:butt;stroke-linejoin:miter;stroke-opacity:1" />
<path class="bond-20 atom-20 atom-21" d="M 183.1,280.4 L 194.7,300.5" style="fill:none;fill-rule:evenodd;stroke:#000000;stroke-width:2.0px;stroke-linecap:butt;stroke-linejoin:miter;stroke-opacity:1" />
<path class="bond-21 atom-21 atom-22" d="M 192.4,305.5 L 221.3,299.3" style="fill:none;fill-rule:evenodd;stroke:#000000;stroke-width:2.0px;stroke-linecap:butt;stroke-linejoin:miter;stroke-opacity:1" />
<path class="bond-22 atom-22 atom-23" d="M 221.3,299.3 L 224.4,269.9" style="fill:none;fill-rule:evenodd;stroke:#000000;stroke-width:2.0px;stroke-linecap:butt;stroke-linejoin:miter;stroke-opacity:1" />
<path class="bond-22 atom-22 atom-23" d="M 217.3,295.7 L 219.7,272.7" style="fill:none;fill-rule:evenodd;stroke:#000000;stroke-width:2.0px;stroke-linecap:butt;stroke-linejoin:miter;stroke-opacity:1" />
<path class="bond-23 atom-23 atom-24" d="M 224.4,269.9 L 213.1,264.9" style="fill:none;fill-rule:evenodd;stroke:#000000;stroke-width:2.0px;stroke-linecap:butt;stroke-linejoin:miter;stroke-opacity:1" />
<path class="bond-23 atom-23 atom-24" d="M 213.1,264.9 L 201.8,259.8" style="fill:none;fill-rule:evenodd;stroke:#0000FF;stroke-width:2.0px;stroke-linecap:butt;stroke-linejoin:miter;stroke-opacity:1" />
<path class="bond-25 atom-23 atom-26" d="M 224.4,269.9 L 253.3,263.8" style="fill:none;fill-rule:evenodd;stroke:#000000;stroke-width:2.0px;stroke-linecap:butt;stroke-linejoin:miter;stroke-opacity:1" />
<path class="bond-26 atom-26 atom-27" d="M 253.3,263.8 L 268.1,289.4" style="fill:none;fill-rule:evenodd;stroke:#000000;stroke-width:2.0px;stroke-linecap:butt;stroke-linejoin:miter;stroke-opacity:1" />
<path class="bond-26 atom-26 atom-27" d="M 251.1,268.8 L 262.7,288.8" style="fill:none;fill-rule:evenodd;stroke:#000000;stroke-width:2.0px;stroke-linecap:butt;stroke-linejoin:miter;stroke-opacity:1" />
<path class="bond-27 atom-27 atom-28" d="M 268.1,289.4 L 260.4,297.9" style="fill:none;fill-rule:evenodd;stroke:#000000;stroke-width:2.0px;stroke-linecap:butt;stroke-linejoin:miter;stroke-opacity:1" />
<path class="bond-27 atom-27 atom-28" d="M 260.4,297.9 L 252.8,306.4" style="fill:none;fill-rule:evenodd;stroke:#CCCC00;stroke-width:2.0px;stroke-linecap:butt;stroke-linejoin:miter;stroke-opacity:1" />
<path class="bond-28 atom-27 atom-29" d="M 268.1,289.4 L 297.0,283.2" style="fill:none;fill-rule:evenodd;stroke:#000000;stroke-width:2.0px;stroke-linecap:butt;stroke-linejoin:miter;stroke-opacity:1" />
<path class="bond-30 atom-29 atom-31" d="M 297.0,283.2 L 300.1,253.8" style="fill:none;fill-rule:evenodd;stroke:#000000;stroke-width:2.0px;stroke-linecap:butt;stroke-linejoin:miter;stroke-opacity:1" />
<path class="bond-30 atom-29 atom-31" d="M 293.0,279.6 L 295.4,256.6" style="fill:none;fill-rule:evenodd;stroke:#000000;stroke-width:2.0px;stroke-linecap:butt;stroke-linejoin:miter;stroke-opacity:1" />
<path class="bond-32 atom-31 atom-33" d="M 300.1,253.8 L 288.8,248.8" style="fill:none;fill-rule:evenodd;stroke:#000000;stroke-width:2.0px;stroke-linecap:butt;stroke-linejoin:miter;stroke-opacity:1" />
<path class="bond-32 atom-31 atom-33" d="M 288.8,248.8 L 277.5,243.8" style="fill:none;fill-rule:evenodd;stroke:#CCCC00;stroke-width:2.0px;stroke-linecap:butt;stroke-linejoin:miter;stroke-opacity:1" />
<path class="bond-33 atom-5 atom-1" d="M 143.3,362.3 L 158.5,373.4" style="fill:none;fill-rule:evenodd;stroke:#0000FF;stroke-width:2.0px;stroke-linecap:butt;stroke-linejoin:miter;stroke-opacity:1" />
<path class="bond-34 atom-11 atom-6" d="M 104.4,299.3 L 133.3,305.5" style="fill:none;fill-rule:evenodd;stroke:#000000;stroke-width:2.0px;stroke-linecap:butt;stroke-linejoin:miter;stroke-opacity:1" />
<path class="bond-35 atom-18 atom-13" d="M 28.7,283.2 L 57.6,289.4" style="fill:none;fill-rule:evenodd;stroke:#000000;stroke-width:2.0px;stroke-linecap:butt;stroke-linejoin:miter;stroke-opacity:1" />
<path class="bond-36 atom-24 atom-20" d="M 193.1,262.7 L 185.4,271.3" style="fill:none;fill-rule:evenodd;stroke:#0000FF;stroke-width:2.0px;stroke-linecap:butt;stroke-linejoin:miter;stroke-opacity:1" />
<path class="bond-36 atom-24 atom-20" d="M 185.4,271.3 L 177.6,279.9" style="fill:none;fill-rule:evenodd;stroke:#000000;stroke-width:2.0px;stroke-linecap:butt;stroke-linejoin:miter;stroke-opacity:1" />
<path class="bond-37 atom-33 atom-26" d="M 268.7,246.7 L 261.0,255.2" style="fill:none;fill-rule:evenodd;stroke:#CCCC00;stroke-width:2.0px;stroke-linecap:butt;stroke-linejoin:miter;stroke-opacity:1" />
<path class="bond-37 atom-33 atom-26" d="M 261.0,255.2 L 253.3,263.8" style="fill:none;fill-rule:evenodd;stroke:#000000;stroke-width:2.0px;stroke-linecap:butt;stroke-linejoin:miter;stroke-opacity:1" />
<path class="bond-38 atom-21 atom-3" d="M 192.4,305.5 L 177.6,331.1" style="fill:none;fill-rule:evenodd;stroke:#000000;stroke-width:2.0px;stroke-linecap:butt;stroke-linejoin:miter;stroke-opacity:1" />
<path class="bond-39 atom-28 atom-22" d="M 243.9,309.4 L 232.6,304.3" style="fill:none;fill-rule:evenodd;stroke:#CCCC00;stroke-width:2.0px;stroke-linecap:butt;stroke-linejoin:miter;stroke-opacity:1" />
<path class="bond-39 atom-28 atom-22" d="M 232.6,304.3 L 221.3,299.3" style="fill:none;fill-rule:evenodd;stroke:#000000;stroke-width:2.0px;stroke-linecap:butt;stroke-linejoin:miter;stroke-opacity:1" />
<path class="bond-40 atom-14 atom-10" d="M 72.4,263.8 L 101.3,269.9" style="fill:none;fill-rule:evenodd;stroke:#000000;stroke-width:2.0px;stroke-linecap:butt;stroke-linejoin:miter;stroke-opacity:1" />
<path class="atom-1" d="M 159.5 380.8 L 159.5 372.3 L 161.2 372.3 L 164.6 378.0 L 164.6 372.3 L 166.2 372.3 L 166.2 380.8 L 164.5 380.8 L 161.1 375.3 L 161.1 380.8 L 159.5 380.8 " fill="#0000FF" />
<path class="atom-2" d="M 183.4 363.4 L 183.4 354.9 L 185.1 354.9 L 188.5 360.6 L 188.5 354.9 L 190.1 354.9 L 190.1 363.4 L 188.4 363.4 L 185.0 357.9 L 185.0 363.4 L 183.4 363.4 " fill="#0000FF" />
<path class="atom-5" d="M 135.6 363.4 L 135.6 354.9 L 137.3 354.9 L 140.7 360.6 L 140.7 354.9 L 142.3 354.9 L 142.3 363.4 L 140.6 363.4 L 137.2 357.9 L 137.2 363.4 L 135.6 363.4 " fill="#0000FF" />
<path class="atom-8" d="M 124.9 262.1 L 124.9 253.7 L 126.6 253.7 L 130.1 259.3 L 130.1 253.7 L 131.7 253.7 L 131.7 262.1 L 129.9 262.1 L 126.5 256.6 L 126.5 262.1 L 124.9 262.1 " fill="#0000FF" />
<path class="atom-12" d="M 73.9 312.9 L 75.6 312.7 Q 75.8 313.6, 76.2 314.0 Q 76.7 314.4, 77.5 314.4 Q 78.3 314.4, 78.7 314.0 Q 79.1 313.7, 79.1 313.2 Q 79.1 312.9, 78.9 312.7 Q 78.8 312.5, 78.3 312.3 Q 78.0 312.2, 77.0 311.9 Q 75.6 311.6, 75.0 311.1 Q 74.2 310.4, 74.2 309.4 Q 74.2 308.8, 74.6 308.2 Q 75.0 307.6, 75.7 307.3 Q 76.4 307.0, 77.3 307.0 Q 78.9 307.0, 79.7 307.7 Q 80.5 308.4, 80.6 309.6 L 78.9 309.7 Q 78.8 309.0, 78.4 308.7 Q 78.0 308.5, 77.3 308.5 Q 76.6 308.5, 76.2 308.8 Q 75.9 309.0, 75.9 309.3 Q 75.9 309.6, 76.1 309.8 Q 76.5 310.1, 77.7 310.4 Q 79.0 310.7, 79.5 311.0 Q 80.1 311.3, 80.5 311.8 Q 80.8 312.4, 80.8 313.2 Q 80.8 313.9, 80.4 314.5 Q 80.0 315.2, 79.3 315.5 Q 78.5 315.8, 77.4 315.8 Q 75.8 315.8, 75.0 315.1 Q 74.1 314.3, 73.9 312.9 " fill="#CCCC00" />
<path class="atom-15" d="M 49.2 243.4 L 50.8 243.2 Q 51.0 244.0, 51.4 244.4 Q 51.9 244.8, 52.7 244.8 Q 53.5 244.8, 53.9 244.5 Q 54.3 244.1, 54.3 243.7 Q 54.3 243.4, 54.2 243.1 Q 54.0 242.9, 53.5 242.8 Q 53.2 242.7, 52.2 242.4 Q 50.8 242.1, 50.2 241.6 Q 49.5 240.9, 49.5 239.9 Q 49.5 239.2, 49.8 238.7 Q 50.2 238.1, 50.9 237.8 Q 51.6 237.5, 52.6 237.5 Q 54.2 237.5, 55.0 238.2 Q 55.8 238.9, 55.8 240.1 L 54.1 240.1 Q 54.0 239.5, 53.6 239.2 Q 53.3 238.9, 52.5 238.9 Q 51.8 238.9, 51.4 239.2 Q 51.1 239.4, 51.1 239.8 Q 51.1 240.1, 51.4 240.3 Q 51.7 240.5, 52.9 240.8 Q 54.2 241.1, 54.8 241.4 Q 55.4 241.8, 55.7 242.3 Q 56.0 242.8, 56.0 243.6 Q 56.0 244.4, 55.6 245.0 Q 55.2 245.6, 54.5 246.0 Q 53.8 246.3, 52.7 246.3 Q 51.1 246.3, 50.2 245.5 Q 49.3 244.8, 49.2 243.4 " fill="#CCCC00" />
<path class="atom-24" d="M 194.1 262.1 L 194.1 253.7 L 195.7 253.7 L 199.2 259.3 L 199.2 253.7 L 200.8 253.7 L 200.8 262.1 L 199.1 262.1 L 195.7 256.6 L 195.7 262.1 L 194.1 262.1 " fill="#0000FF" />
<path class="atom-28" d="M 244.9 312.9 L 246.6 312.7 Q 246.7 313.6, 247.2 314.0 Q 247.6 314.4, 248.4 314.4 Q 249.2 314.4, 249.7 314.0 Q 250.1 313.7, 250.1 313.2 Q 250.1 312.9, 249.9 312.7 Q 249.7 312.5, 249.3 312.3 Q 249.0 312.2, 247.9 311.9 Q 246.5 311.6, 246.0 311.1 Q 245.2 310.4, 245.2 309.4 Q 245.2 308.8, 245.6 308.2 Q 245.9 307.6, 246.6 307.3 Q 247.3 307.0, 248.3 307.0 Q 249.9 307.0, 250.7 307.7 Q 251.5 308.4, 251.5 309.6 L 249.8 309.7 Q 249.7 309.0, 249.4 308.7 Q 249.0 308.5, 248.3 308.5 Q 247.5 308.5, 247.1 308.8 Q 246.8 309.0, 246.8 309.3 Q 246.8 309.6, 247.1 309.8 Q 247.4 310.1, 248.7 310.4 Q 249.9 310.7, 250.5 311.0 Q 251.1 311.3, 251.4 311.8 Q 251.8 312.4, 251.8 313.2 Q 251.8 313.9, 251.4 314.5 Q 251.0 315.2, 250.2 315.5 Q 249.5 315.8, 248.4 315.8 Q 246.8 315.8, 245.9 315.1 Q 245.1 314.3, 244.9 312.9 " fill="#CCCC00" />
<path class="atom-33" d="M 269.7 243.4 L 271.3 243.2 Q 271.5 244.0, 272.0 244.4 Q 272.4 244.8, 273.2 244.8 Q 274.0 244.8, 274.4 244.5 Q 274.9 244.1, 274.9 243.7 Q 274.9 243.4, 274.7 243.1 Q 274.5 242.9, 274.1 242.8 Q 273.8 242.7, 272.7 242.4 Q 271.3 242.1, 270.8 241.6 Q 270.0 240.9, 270.0 239.9 Q 270.0 239.2, 270.4 238.7 Q 270.7 238.1, 271.4 237.8 Q 272.1 237.5, 273.1 237.5 Q 274.7 237.5, 275.5 238.2 Q 276.3 238.9, 276.3 240.1 L 274.6 240.1 Q 274.5 239.5, 274.1 239.2 Q 273.8 238.9, 273.1 238.9 Q 272.3 238.9, 271.9 239.2 Q 271.6 239.4, 271.6 239.8 Q 271.6 240.1, 271.9 240.3 Q 272.2 240.5, 273.4 240.8 Q 274.7 241.1, 275.3 241.4 Q 275.9 241.8, 276.2 242.3 Q 276.6 242.8, 276.6 243.6 Q 276.6 244.4, 276.2 245.0 Q 275.8 245.6, 275.0 246.0 Q 274.3 246.3, 273.2 246.3 Q 271.6 246.3, 270.7 245.5 Q 269.8 244.8, 269.7 243.4 " fill="#CCCC00" />
</svg>