<?xml version='1.0' encoding='iso-8859-1'?>
<svg xmlns="http://www.w3.org/2000/svg" version="1.1" baseProfile="full" xml:space="preserve" width="391" height="450" viewBox="2 31 391 450">

<rect style="opacity:1.0;fill:#FFFFFF;stroke:none" width="512.0" height="512.0" x="0.0" y="0.0"> </rect>
<path class="bond-1 atom-1 atom-2" d="M 367.8,274.0 L 339.4,313.2" style="fill:none;fill-rule:evenodd;stroke:#0000FF;stroke-width:2.0px;stroke-linecap:butt;stroke-linejoin:miter;stroke-opacity:1" />
<path class="bond-1 atom-1 atom-2" d="M 339.4,313.2 L 310.9,352.3" style="fill:none;fill-rule:evenodd;stroke:#000000;stroke-width:2.0px;stroke-linecap:butt;stroke-linejoin:miter;stroke-opacity:1" />
<path class="bond-2 atom-2 atom-3" d="M 300.4,348.9 L 316.8,399.5" style="fill:none;fill-rule:evenodd;stroke:#000000;stroke-width:2.0px;stroke-linecap:butt;stroke-linejoin:miter;stroke-opacity:1" />
<path class="bond-2 atom-2 atom-3" d="M 316.8,399.5 L 333.3,450.1" style="fill:none;fill-rule:evenodd;stroke:#FF0000;stroke-width:2.0px;stroke-linecap:butt;stroke-linejoin:miter;stroke-opacity:1" />
<path class="bond-2 atom-2 atom-3" d="M 317.4,343.4 L 333.9,394.0" style="fill:none;fill-rule:evenodd;stroke:#000000;stroke-width:2.0px;stroke-linecap:butt;stroke-linejoin:miter;stroke-opacity:1" />
<path class="bond-2 atom-2 atom-3" d="M 333.9,394.0 L 350.3,444.6" style="fill:none;fill-rule:evenodd;stroke:#FF0000;stroke-width:2.0px;stroke-linecap:butt;stroke-linejoin:miter;stroke-opacity:1" />
<path class="bond-3 atom-2 atom-4" d="M 310.9,352.3 L 197.4,315.4" style="fill:none;fill-rule:evenodd;stroke:#000000;stroke-width:2.0px;stroke-linecap:butt;stroke-linejoin:miter;stroke-opacity:1" />
<path class="bond-4 atom-4 atom-5" d="M 197.4,315.4 L 83.9,352.3" style="fill:none;fill-rule:evenodd;stroke:#000000;stroke-width:2.0px;stroke-linecap:butt;stroke-linejoin:miter;stroke-opacity:1" />
<path class="bond-4 atom-4 atom-5" d="M 179.5,302.4 L 90.7,331.3" style="fill:none;fill-rule:evenodd;stroke:#000000;stroke-width:2.0px;stroke-linecap:butt;stroke-linejoin:miter;stroke-opacity:1" />
<path class="bond-6 atom-5 atom-7" d="M 83.9,352.3 L 55.7,313.5" style="fill:none;fill-rule:evenodd;stroke:#000000;stroke-width:2.0px;stroke-linecap:butt;stroke-linejoin:miter;stroke-opacity:1" />
<path class="bond-6 atom-5 atom-7" d="M 55.7,313.5 L 27.5,274.8" style="fill:none;fill-rule:evenodd;stroke:#CCCC00;stroke-width:2.0px;stroke-linecap:butt;stroke-linejoin:miter;stroke-opacity:1" />
<path class="bond-7 atom-7 atom-8" d="M 27.1,237.3 L 55.5,198.2" style="fill:none;fill-rule:evenodd;stroke:#CCCC00;stroke-width:2.0px;stroke-linecap:butt;stroke-linejoin:miter;stroke-opacity:1" />
<path class="bond-7 atom-7 atom-8" d="M 55.5,198.2 L 83.9,159.2" style="fill:none;fill-rule:evenodd;stroke:#000000;stroke-width:2.0px;stroke-linecap:butt;stroke-linejoin:miter;stroke-opacity:1" />
<path class="bond-9 atom-8 atom-10" d="M 83.9,159.2 L 197.4,196.1" style="fill:none;fill-rule:evenodd;stroke:#000000;stroke-width:2.0px;stroke-linecap:butt;stroke-linejoin:miter;stroke-opacity:1" />
<path class="bond-9 atom-8 atom-10" d="M 90.7,180.2 L 179.5,209.1" style="fill:none;fill-rule:evenodd;stroke:#000000;stroke-width:2.0px;stroke-linecap:butt;stroke-linejoin:miter;stroke-opacity:1" />
<path class="bond-10 atom-10 atom-11" d="M 197.4,196.1 L 310.9,159.2" style="fill:none;fill-rule:evenodd;stroke:#000000;stroke-width:2.0px;stroke-linecap:butt;stroke-linejoin:miter;stroke-opacity:1" />
<path class="bond-11 atom-11 atom-12" d="M 317.4,168.1 L 333.8,117.8" style="fill:none;fill-rule:evenodd;stroke:#000000;stroke-width:2.0px;stroke-linecap:butt;stroke-linejoin:miter;stroke-opacity:1" />
<path class="bond-11 atom-11 atom-12" d="M 333.8,117.8 L 350.1,67.4" style="fill:none;fill-rule:evenodd;stroke:#FF0000;stroke-width:2.0px;stroke-linecap:butt;stroke-linejoin:miter;stroke-opacity:1" />
<path class="bond-11 atom-11 atom-12" d="M 300.4,162.6 L 316.7,112.2" style="fill:none;fill-rule:evenodd;stroke:#000000;stroke-width:2.0px;stroke-linecap:butt;stroke-linejoin:miter;stroke-opacity:1" />
<path class="bond-11 atom-11 atom-12" d="M 316.7,112.2 L 333.1,61.9" style="fill:none;fill-rule:evenodd;stroke:#FF0000;stroke-width:2.0px;stroke-linecap:butt;stroke-linejoin:miter;stroke-opacity:1" />
<path class="bond-12 atom-11 atom-1" d="M 310.9,159.2 L 339.4,198.3" style="fill:none;fill-rule:evenodd;stroke:#000000;stroke-width:2.0px;stroke-linecap:butt;stroke-linejoin:miter;stroke-opacity:1" />
<path class="bond-12 atom-11 atom-1" d="M 339.4,198.3 L 367.8,237.5" style="fill:none;fill-rule:evenodd;stroke:#0000FF;stroke-width:2.0px;stroke-linecap:butt;stroke-linejoin:miter;stroke-opacity:1" />
<path class="bond-13 atom-10 atom-4" d="M 197.4,196.1 L 197.4,315.4" style="fill:none;fill-rule:evenodd;stroke:#000000;stroke-width:2.0px;stroke-linecap:butt;stroke-linejoin:miter;stroke-opacity:1" />
<path d="M 312.3,350.4 L 310.9,352.3 L 305.2,350.5" style="fill:none;stroke:#000000;stroke-width:2.0px;stroke-linecap:butt;stroke-linejoin:miter;stroke-opacity:1;" />
<path d="M 305.2,161.0 L 310.9,159.2 L 312.3,161.1" style="fill:none;stroke:#000000;stroke-width:2.0px;stroke-linecap:butt;stroke-linejoin:miter;stroke-opacity:1;" />
<path class="atom-1" d="M 369.7 270.1 L 369.7 241.4 L 375.3 241.4 L 387.1 260.6 L 387.1 241.4 L 392.4 241.4 L 392.4 270.1 L 386.6 270.1 L 375.1 251.4 L 375.1 270.1 L 369.7 270.1 " fill="#0000FF" />
<path class="atom-3" d="M 333.9 466.3 Q 333.9 461.9, 335.2 458.9 Q 336.2 456.7, 337.9 455.0 Q 339.6 453.3, 341.6 452.4 Q 344.3 451.3, 347.8 451.3 Q 354.1 451.3, 357.9 455.2 Q 361.7 459.1, 361.7 466.1 Q 361.7 473.1, 357.9 477.0 Q 354.1 480.9, 347.8 480.9 Q 341.4 480.9, 337.7 477.0 Q 333.9 473.1, 333.9 466.3 M 339.9 466.1 Q 339.9 470.9, 342.1 473.5 Q 344.4 476.0, 347.8 476.0 Q 351.3 476.0, 353.5 473.5 Q 355.7 471.0, 355.7 466.0 Q 355.7 461.1, 353.5 458.7 Q 351.4 456.2, 347.8 456.2 Q 344.2 456.2, 342.1 458.7 Q 339.9 461.1, 339.9 466.1 " fill="#FF0000" />
<path class="atom-7" d="M 2.0 261.0 L 7.7 260.5 Q 8.2 263.3, 9.7 264.6 Q 11.3 265.9, 13.9 265.9 Q 16.7 265.9, 18.1 264.8 Q 19.5 263.6, 19.5 262.0 Q 19.5 261.0, 18.9 260.3 Q 18.4 259.6, 16.9 259.0 Q 15.9 258.7, 12.2 257.8 Q 7.6 256.6, 5.7 254.9 Q 3.1 252.6, 3.1 249.2 Q 3.1 247.0, 4.3 245.1 Q 5.6 243.2, 7.9 242.2 Q 10.2 241.2, 13.5 241.2 Q 18.9 241.2, 21.6 243.6 Q 24.4 245.9, 24.5 249.9 L 18.7 250.1 Q 18.4 247.9, 17.1 247.0 Q 15.9 246.0, 13.5 246.0 Q 11.0 246.0, 9.5 247.0 Q 8.6 247.7, 8.6 248.8 Q 8.6 249.8, 9.5 250.5 Q 10.6 251.4, 14.8 252.4 Q 19.0 253.4, 21.0 254.5 Q 23.0 255.6, 24.2 257.4 Q 25.3 259.3, 25.3 262.0 Q 25.3 264.4, 24.0 266.6 Q 22.6 268.7, 20.1 269.8 Q 17.6 270.8, 13.9 270.8 Q 8.4 270.8, 5.5 268.3 Q 2.6 265.8, 2.0 261.0 " fill="#CCCC00" />
<path class="atom-12" d="M 333.9 46.1 Q 333.9 41.7, 335.2 38.7 Q 336.2 36.5, 337.9 34.8 Q 339.6 33.1, 341.6 32.2 Q 344.3 31.1, 347.8 31.1 Q 354.1 31.1, 357.9 35.0 Q 361.7 38.9, 361.7 45.9 Q 361.7 52.9, 357.9 56.8 Q 354.1 60.7, 347.8 60.7 Q 341.4 60.7, 337.7 56.8 Q 333.9 52.9, 333.9 46.1 M 339.9 45.9 Q 339.9 50.7, 342.1 53.3 Q 344.4 55.8, 347.8 55.8 Q 351.3 55.8, 353.5 53.3 Q 355.7 50.8, 355.7 45.8 Q 355.7 40.9, 353.5 38.5 Q 351.4 36.0, 347.8 36.0 Q 344.2 36.0, 342.1 38.5 Q 339.9 40.9, 339.9 45.9 " fill="#FF0000" />
</svg>