<?xml version='1.0' encoding='iso-8859-1'?>
<svg xmlns="http://www.w3.org/2000/svg" version="1.1" baseProfile="full" xml:space="preserve" width="95" height="114" viewBox="0 297 95 114">

<rect style="opacity:1.0;fill:#FFFFFF;stroke:none" width="512.0" height="512.0" x="0.0" y="0.0"> </rect>
<path class="bond-1 atom-1 atom-2" d="M 87.2,359.3 L 80.4,368.6" style="fill:none;fill-rule:evenodd;stroke:#0000FF;stroke-width:2.0px;stroke-linecap:butt;stroke-linejoin:miter;stroke-opacity:1" />
<path class="bond-1 atom-1 atom-2" d="M 80.4,368.6 L 73.6,378.0" style="fill:none;fill-rule:evenodd;stroke:#000000;stroke-width:2.0px;stroke-linecap:butt;stroke-linejoin:miter;stroke-opacity:1" />
<path class="bond-2 atom-2 atom-3" d="M 71.0,377.2 L 75.0,389.3" style="fill:none;fill-rule:evenodd;stroke:#000000;stroke-width:2.0px;stroke-linecap:butt;stroke-linejoin:miter;stroke-opacity:1" />
<path class="bond-2 atom-2 atom-3" d="M 75.0,389.3 L 78.9,401.5" style="fill:none;fill-rule:evenodd;stroke:#FF0000;stroke-width:2.0px;stroke-linecap:butt;stroke-linejoin:miter;stroke-opacity:1" />
<path class="bond-2 atom-2 atom-3" d="M 75.2,375.8 L 79.2,388.0" style="fill:none;fill-rule:evenodd;stroke:#000000;stroke-width:2.0px;stroke-linecap:butt;stroke-linejoin:miter;stroke-opacity:1" />
<path class="bond-2 atom-2 atom-3" d="M 79.2,388.0 L 83.1,400.2" style="fill:none;fill-rule:evenodd;stroke:#FF0000;stroke-width:2.0px;stroke-linecap:butt;stroke-linejoin:miter;stroke-opacity:1" />
<path class="bond-3 atom-2 atom-4" d="M 73.6,378.0 L 45.5,368.9" style="fill:none;fill-rule:evenodd;stroke:#000000;stroke-width:2.0px;stroke-linecap:butt;stroke-linejoin:miter;stroke-opacity:1" />
<path class="bond-4 atom-4 atom-5" d="M 45.5,368.9 L 17.4,378.0" style="fill:none;fill-rule:evenodd;stroke:#000000;stroke-width:2.0px;stroke-linecap:butt;stroke-linejoin:miter;stroke-opacity:1" />
<path class="bond-4 atom-4 atom-5" d="M 41.1,365.6 L 19.1,372.8" style="fill:none;fill-rule:evenodd;stroke:#000000;stroke-width:2.0px;stroke-linecap:butt;stroke-linejoin:miter;stroke-opacity:1" />
<path class="bond-6 atom-5 atom-7" d="M 17.4,378.0 L 10.7,368.8" style="fill:none;fill-rule:evenodd;stroke:#000000;stroke-width:2.0px;stroke-linecap:butt;stroke-linejoin:miter;stroke-opacity:1" />
<path class="bond-6 atom-5 atom-7" d="M 10.7,368.8 L 3.9,359.5" style="fill:none;fill-rule:evenodd;stroke:#CCCC00;stroke-width:2.0px;stroke-linecap:butt;stroke-linejoin:miter;stroke-opacity:1" />
<path class="bond-7 atom-7 atom-8" d="M 3.8,348.8 L 10.6,339.5" style="fill:none;fill-rule:evenodd;stroke:#CCCC00;stroke-width:2.0px;stroke-linecap:butt;stroke-linejoin:miter;stroke-opacity:1" />
<path class="bond-7 atom-7 atom-8" d="M 10.6,339.5 L 17.4,330.2" style="fill:none;fill-rule:evenodd;stroke:#000000;stroke-width:2.0px;stroke-linecap:butt;stroke-linejoin:miter;stroke-opacity:1" />
<path class="bond-9 atom-8 atom-10" d="M 17.4,330.2 L 45.5,339.3" style="fill:none;fill-rule:evenodd;stroke:#000000;stroke-width:2.0px;stroke-linecap:butt;stroke-linejoin:miter;stroke-opacity:1" />
<path class="bond-9 atom-8 atom-10" d="M 19.1,335.4 L 41.1,342.5" style="fill:none;fill-rule:evenodd;stroke:#000000;stroke-width:2.0px;stroke-linecap:butt;stroke-linejoin:miter;stroke-opacity:1" />
<path class="bond-10 atom-10 atom-11" d="M 45.5,339.3 L 73.6,330.2" style="fill:none;fill-rule:evenodd;stroke:#000000;stroke-width:2.0px;stroke-linecap:butt;stroke-linejoin:miter;stroke-opacity:1" />
<path class="bond-11 atom-11 atom-12" d="M 75.2,332.4 L 79.1,320.3" style="fill:none;fill-rule:evenodd;stroke:#000000;stroke-width:2.0px;stroke-linecap:butt;stroke-linejoin:miter;stroke-opacity:1" />
<path class="bond-11 atom-11 atom-12" d="M 79.1,320.3 L 83.1,308.2" style="fill:none;fill-rule:evenodd;stroke:#FF0000;stroke-width:2.0px;stroke-linecap:butt;stroke-linejoin:miter;stroke-opacity:1" />
<path class="bond-11 atom-11 atom-12" d="M 71.0,331.0 L 74.9,318.9" style="fill:none;fill-rule:evenodd;stroke:#000000;stroke-width:2.0px;stroke-linecap:butt;stroke-linejoin:miter;stroke-opacity:1" />
<path class="bond-11 atom-11 atom-12" d="M 74.9,318.9 L 78.9,306.8" style="fill:none;fill-rule:evenodd;stroke:#FF0000;stroke-width:2.0px;stroke-linecap:butt;stroke-linejoin:miter;stroke-opacity:1" />
<path class="bond-12 atom-11 atom-1" d="M 73.6,330.2 L 80.4,339.5" style="fill:none;fill-rule:evenodd;stroke:#000000;stroke-width:2.0px;stroke-linecap:butt;stroke-linejoin:miter;stroke-opacity:1" />
<path class="bond-12 atom-11 atom-1" d="M 80.4,339.5 L 87.2,348.9" style="fill:none;fill-rule:evenodd;stroke:#0000FF;stroke-width:2.0px;stroke-linecap:butt;stroke-linejoin:miter;stroke-opacity:1" />
<path class="bond-13 atom-10 atom-4" d="M 45.5,339.3 L 45.5,368.9" style="fill:none;fill-rule:evenodd;stroke:#000000;stroke-width:2.0px;stroke-linecap:butt;stroke-linejoin:miter;stroke-opacity:1" />
<path d="M 73.9,377.5 L 73.6,378.0 L 72.2,377.5" style="fill:none;stroke:#000000;stroke-width:2.0px;stroke-linecap:butt;stroke-linejoin:miter;stroke-opacity:1;" />
<path d="M 72.2,330.6 L 73.6,330.2 L 73.9,330.6" style="fill:none;stroke:#000000;stroke-width:2.0px;stroke-linecap:butt;stroke-linejoin:miter;stroke-opacity:1;" />
<path class="atom-1" d="M 87.6 358.3 L 87.6 349.9 L 89.3 349.9 L 92.7 355.5 L 92.7 349.9 L 94.3 349.9 L 94.3 358.3 L 92.6 358.3 L 89.2 352.8 L 89.2 358.3 L 87.6 358.3 " fill="#0000FF" />
<path class="atom-3" d="M 78.6 406.2 Q 78.6 404.9, 79.0 404.1 Q 79.3 403.4, 79.8 402.9 Q 80.3 402.4, 80.9 402.1 Q 81.7 401.8, 82.7 401.8 Q 84.6 401.8, 85.7 403.0 Q 86.8 404.1, 86.8 406.2 Q 86.8 408.2, 85.7 409.4 Q 84.6 410.6, 82.7 410.6 Q 80.9 410.6, 79.7 409.4 Q 78.6 408.3, 78.6 406.2 M 80.4 406.2 Q 80.4 407.6, 81.1 408.4 Q 81.7 409.1, 82.7 409.1 Q 83.8 409.1, 84.4 408.4 Q 85.1 407.6, 85.1 406.2 Q 85.1 404.7, 84.4 404.0 Q 83.8 403.3, 82.7 403.3 Q 81.7 403.3, 81.0 404.0 Q 80.4 404.7, 80.4 406.2 " fill="#FF0000" />
<path class="atom-7" d="M -3.4 355.6 L -1.8 355.5 Q -1.6 356.3, -1.2 356.7 Q -0.7 357.1, 0.1 357.1 Q 0.9 357.1, 1.3 356.8 Q 1.7 356.4, 1.7 355.9 Q 1.7 355.6, 1.6 355.4 Q 1.4 355.2, 0.9 355.1 Q 0.6 355.0, -0.4 354.7 Q -1.8 354.3, -2.4 353.8 Q -3.1 353.1, -3.1 352.1 Q -3.1 351.5, -2.8 350.9 Q -2.4 350.4, -1.7 350.1 Q -1.0 349.8, -0.0 349.8 Q 1.5 349.8, 2.3 350.5 Q 3.2 351.2, 3.2 352.3 L 1.5 352.4 Q 1.4 351.8, 1.0 351.5 Q 0.7 351.2, -0.1 351.2 Q -0.8 351.2, -1.2 351.5 Q -1.5 351.7, -1.5 352.0 Q -1.5 352.3, -1.2 352.5 Q -0.9 352.8, 0.3 353.1 Q 1.6 353.4, 2.2 353.7 Q 2.8 354.0, 3.1 354.6 Q 3.4 355.1, 3.4 355.9 Q 3.4 356.7, 3.0 357.3 Q 2.6 357.9, 1.9 358.2 Q 1.2 358.5, 0.1 358.5 Q -1.6 358.5, -2.4 357.8 Q -3.3 357.1, -3.4 355.6 " fill="#CCCC00" />
<path class="atom-12" d="M 78.6 302.2 Q 78.6 300.9, 79.0 300.0 Q 79.3 299.4, 79.8 298.9 Q 80.3 298.3, 80.9 298.1 Q 81.7 297.8, 82.7 297.8 Q 84.6 297.8, 85.7 298.9 Q 86.8 300.1, 86.8 302.1 Q 86.8 304.2, 85.7 305.4 Q 84.6 306.5, 82.7 306.5 Q 80.9 306.5, 79.7 305.4 Q 78.6 304.2, 78.6 302.2 M 80.4 302.1 Q 80.4 303.6, 81.1 304.3 Q 81.7 305.0, 82.7 305.0 Q 83.8 305.0, 84.4 304.3 Q 85.1 303.6, 85.1 302.1 Q 85.1 300.6, 84.4 299.9 Q 83.8 299.2, 82.7 299.2 Q 81.7 299.2, 81.0 299.9 Q 80.4 300.7, 80.4 302.1 " fill="#FF0000" />
</svg>