<?xml version='1.0' encoding='iso-8859-1'?>
<svg xmlns="http://www.w3.org/2000/svg" version="1.1" baseProfile="full" xml:space="preserve" width="98" height="62" viewBox="0 316 98 62">

<rect style="opacity:1.0;fill:#FFFFFF;stroke:none" width="512.0" height="512.0" x="0.0" y="0.0"> </rect>
<path class="bond-1 atom-1 atom-2" d="M 71.1,317.4 L 96.7,332.2" style="fill:none;fill-rule:evenodd;stroke:#000000;stroke-width:2.0px;stroke-linecap:butt;stroke-linejoin:miter;stroke-opacity:1" />
<path class="bond-1 atom-1 atom-2" d="M 71.1,322.6 L 92.3,334.8" style="fill:none;fill-rule:evenodd;stroke:#000000;stroke-width:2.0px;stroke-linecap:butt;stroke-linejoin:miter;stroke-opacity:1" />
<path class="bond-3 atom-2 atom-4" d="M 96.7,332.2 L 96.7,361.8" style="fill:none;fill-rule:evenodd;stroke:#000000;stroke-width:2.0px;stroke-linecap:butt;stroke-linejoin:miter;stroke-opacity:1" />
<path class="bond-5 atom-4 atom-6" d="M 96.7,361.8 L 71.1,376.6" style="fill:none;fill-rule:evenodd;stroke:#000000;stroke-width:2.0px;stroke-linecap:butt;stroke-linejoin:miter;stroke-opacity:1" />
<path class="bond-5 atom-4 atom-6" d="M 92.3,359.2 L 71.1,371.4" style="fill:none;fill-rule:evenodd;stroke:#000000;stroke-width:2.0px;stroke-linecap:butt;stroke-linejoin:miter;stroke-opacity:1" />
<path class="bond-7 atom-6 atom-8" d="M 71.1,376.6 L 45.5,361.8" style="fill:none;fill-rule:evenodd;stroke:#000000;stroke-width:2.0px;stroke-linecap:butt;stroke-linejoin:miter;stroke-opacity:1" />
<path class="bond-8 atom-8 atom-9" d="M 45.5,361.8 L 33.6,365.6" style="fill:none;fill-rule:evenodd;stroke:#000000;stroke-width:2.0px;stroke-linecap:butt;stroke-linejoin:miter;stroke-opacity:1" />
<path class="bond-8 atom-8 atom-9" d="M 33.6,365.6 L 21.7,369.5" style="fill:none;fill-rule:evenodd;stroke:#0000FF;stroke-width:2.0px;stroke-linecap:butt;stroke-linejoin:miter;stroke-opacity:1" />
<path class="bond-8 atom-8 atom-9" d="M 41.1,358.6 L 30.7,361.9" style="fill:none;fill-rule:evenodd;stroke:#000000;stroke-width:2.0px;stroke-linecap:butt;stroke-linejoin:miter;stroke-opacity:1" />
<path class="bond-8 atom-8 atom-9" d="M 30.7,361.9 L 20.3,365.3" style="fill:none;fill-rule:evenodd;stroke:#0000FF;stroke-width:2.0px;stroke-linecap:butt;stroke-linejoin:miter;stroke-opacity:1" />
<path class="bond-9 atom-9 atom-10" d="M 13.6,365.7 L 8.8,359.1" style="fill:none;fill-rule:evenodd;stroke:#0000FF;stroke-width:2.0px;stroke-linecap:butt;stroke-linejoin:miter;stroke-opacity:1" />
<path class="bond-9 atom-9 atom-10" d="M 8.8,359.1 L 3.9,352.4" style="fill:none;fill-rule:evenodd;stroke:#CCCC00;stroke-width:2.0px;stroke-linecap:butt;stroke-linejoin:miter;stroke-opacity:1" />
<path class="bond-10 atom-10 atom-11" d="M 3.8,341.7 L 8.7,335.0" style="fill:none;fill-rule:evenodd;stroke:#CCCC00;stroke-width:2.0px;stroke-linecap:butt;stroke-linejoin:miter;stroke-opacity:1" />
<path class="bond-10 atom-10 atom-11" d="M 8.7,335.0 L 13.6,328.3" style="fill:none;fill-rule:evenodd;stroke:#0000FF;stroke-width:2.0px;stroke-linecap:butt;stroke-linejoin:miter;stroke-opacity:1" />
<path class="bond-11 atom-11 atom-12" d="M 21.7,324.5 L 33.6,328.4" style="fill:none;fill-rule:evenodd;stroke:#0000FF;stroke-width:2.0px;stroke-linecap:butt;stroke-linejoin:miter;stroke-opacity:1" />
<path class="bond-11 atom-11 atom-12" d="M 33.6,328.4 L 45.5,332.2" style="fill:none;fill-rule:evenodd;stroke:#000000;stroke-width:2.0px;stroke-linecap:butt;stroke-linejoin:miter;stroke-opacity:1" />
<path class="bond-11 atom-11 atom-12" d="M 20.3,328.7 L 30.7,332.1" style="fill:none;fill-rule:evenodd;stroke:#0000FF;stroke-width:2.0px;stroke-linecap:butt;stroke-linejoin:miter;stroke-opacity:1" />
<path class="bond-11 atom-11 atom-12" d="M 30.7,332.1 L 41.1,335.4" style="fill:none;fill-rule:evenodd;stroke:#000000;stroke-width:2.0px;stroke-linecap:butt;stroke-linejoin:miter;stroke-opacity:1" />
<path class="bond-12 atom-12 atom-1" d="M 45.5,332.2 L 71.1,317.4" style="fill:none;fill-rule:evenodd;stroke:#000000;stroke-width:2.0px;stroke-linecap:butt;stroke-linejoin:miter;stroke-opacity:1" />
<path class="bond-13 atom-12 atom-8" d="M 45.5,332.2 L 45.5,361.8" style="fill:none;fill-rule:evenodd;stroke:#000000;stroke-width:2.0px;stroke-linecap:butt;stroke-linejoin:miter;stroke-opacity:1" />
<path class="atom-9" d="M 14.0 375.1 L 14.0 366.7 L 15.7 366.7 L 19.1 372.3 L 19.1 366.7 L 20.7 366.7 L 20.7 375.1 L 19.0 375.1 L 15.6 369.6 L 15.6 375.1 L 14.0 375.1 " fill="#0000FF" />
<path class="atom-10" d="M -3.4 348.5 L -1.8 348.4 Q -1.6 349.2, -1.2 349.6 Q -0.7 350.0, 0.1 350.0 Q 0.9 350.0, 1.3 349.7 Q 1.7 349.3, 1.7 348.8 Q 1.7 348.5, 1.6 348.3 Q 1.4 348.1, 0.9 348.0 Q 0.6 347.9, -0.4 347.6 Q -1.8 347.3, -2.4 346.8 Q -3.1 346.1, -3.1 345.1 Q -3.1 344.4, -2.8 343.8 Q -2.4 343.3, -1.7 343.0 Q -1.0 342.7, -0.0 342.7 Q 1.5 342.7, 2.3 343.4 Q 3.2 344.1, 3.2 345.3 L 1.5 345.3 Q 1.4 344.7, 1.0 344.4 Q 0.7 344.1, -0.1 344.1 Q -0.8 344.1, -1.2 344.4 Q -1.5 344.6, -1.5 344.9 Q -1.5 345.2, -1.2 345.5 Q -0.9 345.7, 0.3 346.0 Q 1.6 346.3, 2.2 346.6 Q 2.8 346.9, 3.1 347.5 Q 3.4 348.0, 3.4 348.8 Q 3.4 349.6, 3.0 350.2 Q 2.6 350.8, 1.9 351.1 Q 1.2 351.4, 0.1 351.4 Q -1.6 351.4, -2.4 350.7 Q -3.3 350.0, -3.4 348.5 " fill="#CCCC00" />
<path class="atom-11" d="M 14.0 327.3 L 14.0 318.8 L 15.7 318.8 L 19.1 324.5 L 19.1 318.8 L 20.7 318.8 L 20.7 327.3 L 19.0 327.3 L 15.6 321.8 L 15.6 327.3 L 14.0 327.3 " fill="#0000FF" />
</svg>