<?xml version='1.0' encoding='iso-8859-1'?>
<svg xmlns="http://www.w3.org/2000/svg" version="1.1" baseProfile="full" xml:space="preserve" width="398" height="238" viewBox="1 137 398 238">

<rect style="opacity:1.0;fill:#FFFFFF;stroke:none" width="512.0" height="512.0" x="0.0" y="0.0"> </rect>
<path class="bond-1 atom-1 atom-2" d="M 296.2,138.5 L 398.0,197.2" style="fill:none;fill-rule:evenodd;stroke:#000000;stroke-width:2.0px;stroke-linecap:butt;stroke-linejoin:miter;stroke-opacity:1" />
<path class="bond-1 atom-1 atom-2" d="M 296.2,158.8 L 380.4,207.4" style="fill:none;fill-rule:evenodd;stroke:#000000;stroke-width:2.0px;stroke-linecap:butt;stroke-linejoin:miter;stroke-opacity:1" />
<path class="bond-3 atom-2 atom-4" d="M 398.0,197.2 L 398.0,314.8" style="fill:none;fill-rule:evenodd;stroke:#000000;stroke-width:2.0px;stroke-linecap:butt;stroke-linejoin:miter;stroke-opacity:1" />
<path class="bond-5 atom-4 atom-6" d="M 398.0,314.8 L 296.2,373.5" style="fill:none;fill-rule:evenodd;stroke:#000000;stroke-width:2.0px;stroke-linecap:butt;stroke-linejoin:miter;stroke-opacity:1" />
<path class="bond-5 atom-4 atom-6" d="M 380.4,304.6 L 296.2,353.2" style="fill:none;fill-rule:evenodd;stroke:#000000;stroke-width:2.0px;stroke-linecap:butt;stroke-linejoin:miter;stroke-opacity:1" />
<path class="bond-7 atom-6 atom-8" d="M 296.2,373.5 L 194.4,314.8" style="fill:none;fill-rule:evenodd;stroke:#000000;stroke-width:2.0px;stroke-linecap:butt;stroke-linejoin:miter;stroke-opacity:1" />
<path class="bond-8 atom-8 atom-9" d="M 194.4,314.8 L 146.2,330.5" style="fill:none;fill-rule:evenodd;stroke:#000000;stroke-width:2.0px;stroke-linecap:butt;stroke-linejoin:miter;stroke-opacity:1" />
<path class="bond-8 atom-8 atom-9" d="M 146.2,330.5 L 97.9,346.1" style="fill:none;fill-rule:evenodd;stroke:#0000FF;stroke-width:2.0px;stroke-linecap:butt;stroke-linejoin:miter;stroke-opacity:1" />
<path class="bond-8 atom-8 atom-9" d="M 176.8,302.0 L 134.6,315.7" style="fill:none;fill-rule:evenodd;stroke:#000000;stroke-width:2.0px;stroke-linecap:butt;stroke-linejoin:miter;stroke-opacity:1" />
<path class="bond-8 atom-8 atom-9" d="M 134.6,315.7 L 92.4,329.4" style="fill:none;fill-rule:evenodd;stroke:#0000FF;stroke-width:2.0px;stroke-linecap:butt;stroke-linejoin:miter;stroke-opacity:1" />
<path class="bond-9 atom-9 atom-10" d="M 69.4,332.9 L 48.4,303.9" style="fill:none;fill-rule:evenodd;stroke:#0000FF;stroke-width:2.0px;stroke-linecap:butt;stroke-linejoin:miter;stroke-opacity:1" />
<path class="bond-9 atom-9 atom-10" d="M 48.4,303.9 L 27.3,274.9" style="fill:none;fill-rule:evenodd;stroke:#CCCC00;stroke-width:2.0px;stroke-linecap:butt;stroke-linejoin:miter;stroke-opacity:1" />
<path class="bond-10 atom-10 atom-11" d="M 27.0,237.6 L 48.2,208.3" style="fill:none;fill-rule:evenodd;stroke:#CCCC00;stroke-width:2.0px;stroke-linecap:butt;stroke-linejoin:miter;stroke-opacity:1" />
<path class="bond-10 atom-10 atom-11" d="M 48.2,208.3 L 69.4,179.1" style="fill:none;fill-rule:evenodd;stroke:#0000FF;stroke-width:2.0px;stroke-linecap:butt;stroke-linejoin:miter;stroke-opacity:1" />
<path class="bond-11 atom-11 atom-12" d="M 97.9,165.9 L 146.2,181.5" style="fill:none;fill-rule:evenodd;stroke:#0000FF;stroke-width:2.0px;stroke-linecap:butt;stroke-linejoin:miter;stroke-opacity:1" />
<path class="bond-11 atom-11 atom-12" d="M 146.2,181.5 L 194.4,197.2" style="fill:none;fill-rule:evenodd;stroke:#000000;stroke-width:2.0px;stroke-linecap:butt;stroke-linejoin:miter;stroke-opacity:1" />
<path class="bond-11 atom-11 atom-12" d="M 92.4,182.6 L 134.6,196.3" style="fill:none;fill-rule:evenodd;stroke:#0000FF;stroke-width:2.0px;stroke-linecap:butt;stroke-linejoin:miter;stroke-opacity:1" />
<path class="bond-11 atom-11 atom-12" d="M 134.6,196.3 L 176.8,210.0" style="fill:none;fill-rule:evenodd;stroke:#000000;stroke-width:2.0px;stroke-linecap:butt;stroke-linejoin:miter;stroke-opacity:1" />
<path class="bond-12 atom-12 atom-1" d="M 194.4,197.2 L 296.2,138.5" style="fill:none;fill-rule:evenodd;stroke:#000000;stroke-width:2.0px;stroke-linecap:butt;stroke-linejoin:miter;stroke-opacity:1" />
<path class="bond-13 atom-12 atom-8" d="M 194.4,197.2 L 194.4,314.8" style="fill:none;fill-rule:evenodd;stroke:#000000;stroke-width:2.0px;stroke-linecap:butt;stroke-linejoin:miter;stroke-opacity:1" />
<path class="atom-9" d="M 71.3 365.4 L 71.3 336.8 L 76.9 336.8 L 88.6 355.9 L 88.6 336.8 L 94.0 336.8 L 94.0 365.4 L 88.2 365.4 L 76.7 346.7 L 76.7 365.4 L 71.3 365.4 " fill="#0000FF" />
<path class="atom-10" d="M 1.9 261.2 L 7.5 260.7 Q 8.1 263.5, 9.6 264.9 Q 11.2 266.2, 13.8 266.2 Q 16.6 266.2, 18.0 265.0 Q 19.4 263.8, 19.4 262.2 Q 19.4 261.2, 18.8 260.5 Q 18.2 259.8, 16.7 259.3 Q 15.7 258.9, 12.1 258.0 Q 7.5 256.9, 5.6 255.2 Q 3.0 252.8, 3.0 249.4 Q 3.0 247.2, 4.2 245.3 Q 5.4 243.4, 7.8 242.4 Q 10.1 241.4, 13.4 241.4 Q 18.8 241.4, 21.5 243.8 Q 24.2 246.2, 24.4 250.1 L 18.6 250.4 Q 18.2 248.2, 17.0 247.2 Q 15.8 246.2, 13.3 246.2 Q 10.8 246.2, 9.4 247.3 Q 8.5 247.9, 8.5 249.0 Q 8.5 250.1, 9.3 250.8 Q 10.4 251.7, 14.7 252.7 Q 18.9 253.7, 20.9 254.8 Q 22.9 255.8, 24.1 257.7 Q 25.2 259.5, 25.2 262.2 Q 25.2 264.7, 23.8 266.8 Q 22.5 269.0, 20.0 270.0 Q 17.5 271.1, 13.7 271.1 Q 8.3 271.1, 5.4 268.6 Q 2.5 266.0, 1.9 261.2 " fill="#CCCC00" />
<path class="atom-11" d="M 71.3 175.2 L 71.3 146.6 L 76.9 146.6 L 88.6 165.7 L 88.6 146.6 L 94.0 146.6 L 94.0 175.2 L 88.2 175.2 L 76.7 156.6 L 76.7 175.2 L 71.3 175.2 " fill="#0000FF" />
</svg>