<?xml version='1.0' encoding='iso-8859-1'?>
<svg xmlns="http://www.w3.org/2000/svg" version="1.1" baseProfile="full" xml:space="preserve" width="321" height="372" viewBox="96 70 321 372">

<rect style="opacity:1.0;fill:#FFFFFF;stroke:none" width="512.0" height="512.0" x="0.0" y="0.0"> </rect>
<path class="bond-1 atom-1 atom-2" d="M 393.3,238.7 L 371.0,208.0" style="fill:none;fill-rule:evenodd;stroke:#0000FF;stroke-width:2.0px;stroke-linecap:butt;stroke-linejoin:miter;stroke-opacity:1" />
<path class="bond-1 atom-1 atom-2" d="M 371.0,208.0 L 348.7,177.2" style="fill:none;fill-rule:evenodd;stroke:#000000;stroke-width:2.0px;stroke-linecap:butt;stroke-linejoin:miter;stroke-opacity:1" />
<path class="bond-3 atom-2 atom-4" d="M 348.7,177.2 L 256.4,207.2" style="fill:none;fill-rule:evenodd;stroke:#000000;stroke-width:2.0px;stroke-linecap:butt;stroke-linejoin:miter;stroke-opacity:1" />
<path class="bond-3 atom-2 atom-4" d="M 343.1,194.4 L 270.9,217.8" style="fill:none;fill-rule:evenodd;stroke:#000000;stroke-width:2.0px;stroke-linecap:butt;stroke-linejoin:miter;stroke-opacity:1" />
<path class="bond-4 atom-4 atom-5" d="M 256.4,207.2 L 164.1,177.2" style="fill:none;fill-rule:evenodd;stroke:#000000;stroke-width:2.0px;stroke-linecap:butt;stroke-linejoin:miter;stroke-opacity:1" />
<path class="bond-5 atom-5 atom-6" d="M 172.6,180.0 L 159.7,140.3" style="fill:none;fill-rule:evenodd;stroke:#000000;stroke-width:2.0px;stroke-linecap:butt;stroke-linejoin:miter;stroke-opacity:1" />
<path class="bond-5 atom-5 atom-6" d="M 159.7,140.3 L 146.8,100.5" style="fill:none;fill-rule:evenodd;stroke:#FF0000;stroke-width:2.0px;stroke-linecap:butt;stroke-linejoin:miter;stroke-opacity:1" />
<path class="bond-5 atom-5 atom-6" d="M 158.8,184.5 L 145.9,144.8" style="fill:none;fill-rule:evenodd;stroke:#000000;stroke-width:2.0px;stroke-linecap:butt;stroke-linejoin:miter;stroke-opacity:1" />
<path class="bond-5 atom-5 atom-6" d="M 145.9,144.8 L 133.0,105.0" style="fill:none;fill-rule:evenodd;stroke:#FF0000;stroke-width:2.0px;stroke-linecap:butt;stroke-linejoin:miter;stroke-opacity:1" />
<path class="bond-6 atom-5 atom-7" d="M 164.1,177.2 L 141.8,208.0" style="fill:none;fill-rule:evenodd;stroke:#000000;stroke-width:2.0px;stroke-linecap:butt;stroke-linejoin:miter;stroke-opacity:1" />
<path class="bond-6 atom-5 atom-7" d="M 141.8,208.0 L 119.5,238.7" style="fill:none;fill-rule:evenodd;stroke:#0000FF;stroke-width:2.0px;stroke-linecap:butt;stroke-linejoin:miter;stroke-opacity:1" />
<path class="bond-8 atom-7 atom-9" d="M 119.5,272.9 L 141.8,303.6" style="fill:none;fill-rule:evenodd;stroke:#0000FF;stroke-width:2.0px;stroke-linecap:butt;stroke-linejoin:miter;stroke-opacity:1" />
<path class="bond-8 atom-7 atom-9" d="M 141.8,303.6 L 164.1,334.3" style="fill:none;fill-rule:evenodd;stroke:#000000;stroke-width:2.0px;stroke-linecap:butt;stroke-linejoin:miter;stroke-opacity:1" />
<path class="bond-10 atom-9 atom-11" d="M 164.1,334.3 L 256.4,304.3" style="fill:none;fill-rule:evenodd;stroke:#000000;stroke-width:2.0px;stroke-linecap:butt;stroke-linejoin:miter;stroke-opacity:1" />
<path class="bond-10 atom-9 atom-11" d="M 169.6,317.2 L 241.8,293.7" style="fill:none;fill-rule:evenodd;stroke:#000000;stroke-width:2.0px;stroke-linecap:butt;stroke-linejoin:miter;stroke-opacity:1" />
<path class="bond-11 atom-11 atom-12" d="M 256.4,304.3 L 348.7,334.3" style="fill:none;fill-rule:evenodd;stroke:#000000;stroke-width:2.0px;stroke-linecap:butt;stroke-linejoin:miter;stroke-opacity:1" />
<path class="bond-12 atom-12 atom-13" d="M 340.1,331.5 L 353.1,371.5" style="fill:none;fill-rule:evenodd;stroke:#000000;stroke-width:2.0px;stroke-linecap:butt;stroke-linejoin:miter;stroke-opacity:1" />
<path class="bond-12 atom-12 atom-13" d="M 353.1,371.5 L 366.1,411.5" style="fill:none;fill-rule:evenodd;stroke:#FF0000;stroke-width:2.0px;stroke-linecap:butt;stroke-linejoin:miter;stroke-opacity:1" />
<path class="bond-12 atom-12 atom-13" d="M 354.0,327.0 L 367.0,367.0" style="fill:none;fill-rule:evenodd;stroke:#000000;stroke-width:2.0px;stroke-linecap:butt;stroke-linejoin:miter;stroke-opacity:1" />
<path class="bond-12 atom-12 atom-13" d="M 367.0,367.0 L 380.0,407.0" style="fill:none;fill-rule:evenodd;stroke:#FF0000;stroke-width:2.0px;stroke-linecap:butt;stroke-linejoin:miter;stroke-opacity:1" />
<path class="bond-13 atom-12 atom-1" d="M 348.7,334.3 L 371.0,303.6" style="fill:none;fill-rule:evenodd;stroke:#000000;stroke-width:2.0px;stroke-linecap:butt;stroke-linejoin:miter;stroke-opacity:1" />
<path class="bond-13 atom-12 atom-1" d="M 371.0,303.6 L 393.3,272.9" style="fill:none;fill-rule:evenodd;stroke:#0000FF;stroke-width:2.0px;stroke-linecap:butt;stroke-linejoin:miter;stroke-opacity:1" />
<path class="bond-14 atom-11 atom-4" d="M 256.4,304.3 L 256.4,207.2" style="fill:none;fill-rule:evenodd;stroke:#000000;stroke-width:2.0px;stroke-linecap:butt;stroke-linejoin:miter;stroke-opacity:1" />
<path d="M 168.7,178.7 L 164.1,177.2 L 163.0,178.8" style="fill:none;stroke:#000000;stroke-width:2.0px;stroke-linecap:butt;stroke-linejoin:miter;stroke-opacity:1;" />
<path d="M 344.1,332.8 L 348.7,334.3 L 349.8,332.7" style="fill:none;stroke:#000000;stroke-width:2.0px;stroke-linecap:butt;stroke-linejoin:miter;stroke-opacity:1;" />
<path class="atom-1" d="M 394.7 269.7 L 394.7 241.9 L 400.2 241.9 L 411.5 260.4 L 411.5 241.9 L 416.7 241.9 L 416.7 269.7 L 411.1 269.7 L 399.9 251.5 L 399.9 269.7 L 394.7 269.7 " fill="#0000FF" />
<path class="atom-6" d="M 120.6 85.4 Q 120.6 81.1, 121.9 78.2 Q 122.8 76.1, 124.5 74.4 Q 126.1 72.7, 128.1 71.9 Q 130.7 70.8, 134.1 70.8 Q 140.2 70.8, 143.9 74.6 Q 147.6 78.4, 147.6 85.2 Q 147.6 92.0, 143.9 95.8 Q 140.3 99.6, 134.1 99.6 Q 127.9 99.6, 124.3 95.8 Q 120.6 92.0, 120.6 85.4 M 126.4 85.2 Q 126.4 89.9, 128.6 92.3 Q 130.8 94.8, 134.1 94.8 Q 137.5 94.8, 139.6 92.4 Q 141.8 89.9, 141.8 85.1 Q 141.8 80.3, 139.7 78.0 Q 137.6 75.6, 134.1 75.6 Q 130.6 75.6, 128.5 78.0 Q 126.4 80.4, 126.4 85.2 " fill="#FF0000" />
<path class="atom-7" d="M 96.0 269.7 L 96.0 241.9 L 101.5 241.9 L 112.8 260.4 L 112.8 241.9 L 118.1 241.9 L 118.1 269.7 L 112.4 269.7 L 101.2 251.5 L 101.2 269.7 L 96.0 269.7 " fill="#0000FF" />
<path class="atom-13" d="M 365.2 427.0 Q 365.2 422.7, 366.5 419.9 Q 367.4 417.7, 369.0 416.0 Q 370.7 414.4, 372.6 413.5 Q 375.2 412.4, 378.6 412.4 Q 384.8 412.4, 388.4 416.3 Q 392.1 420.1, 392.1 426.8 Q 392.1 433.6, 388.5 437.4 Q 384.8 441.2, 378.7 441.2 Q 372.5 441.2, 368.8 437.4 Q 365.2 433.6, 365.2 427.0 M 371.0 426.8 Q 371.0 431.5, 373.2 434.0 Q 375.3 436.4, 378.7 436.4 Q 382.0 436.4, 384.2 434.0 Q 386.3 431.6, 386.3 426.7 Q 386.3 421.9, 384.2 419.6 Q 382.2 417.2, 378.7 417.2 Q 375.2 417.2, 373.1 419.6 Q 371.0 422.0, 371.0 426.8 " fill="#FF0000" />
</svg>