<?xml version='1.0' encoding='iso-8859-1'?>
<svg xmlns="http://www.w3.org/2000/svg" version="1.1" baseProfile="full" xml:space="preserve" width="98" height="114" viewBox="26 297 98 114">

<rect style="opacity:1.0;fill:#FFFFFF;stroke:none" width="512.0" height="512.0" x="0.0" y="0.0"> </rect>
<path class="bond-1 atom-1 atom-2" d="M 116.8,348.9 L 110.0,339.5" style="fill:none;fill-rule:evenodd;stroke:#0000FF;stroke-width:2.0px;stroke-linecap:butt;stroke-linejoin:miter;stroke-opacity:1" />
<path class="bond-1 atom-1 atom-2" d="M 110.0,339.5 L 103.2,330.2" style="fill:none;fill-rule:evenodd;stroke:#000000;stroke-width:2.0px;stroke-linecap:butt;stroke-linejoin:miter;stroke-opacity:1" />
<path class="bond-3 atom-2 atom-4" d="M 103.2,330.2 L 75.0,339.3" style="fill:none;fill-rule:evenodd;stroke:#000000;stroke-width:2.0px;stroke-linecap:butt;stroke-linejoin:miter;stroke-opacity:1" />
<path class="bond-3 atom-2 atom-4" d="M 101.5,335.4 L 79.5,342.5" style="fill:none;fill-rule:evenodd;stroke:#000000;stroke-width:2.0px;stroke-linecap:butt;stroke-linejoin:miter;stroke-opacity:1" />
<path class="bond-4 atom-4 atom-5" d="M 75.0,339.3 L 46.9,330.2" style="fill:none;fill-rule:evenodd;stroke:#000000;stroke-width:2.0px;stroke-linecap:butt;stroke-linejoin:miter;stroke-opacity:1" />
<path class="bond-5 atom-5 atom-6" d="M 49.5,331.0 L 45.6,318.9" style="fill:none;fill-rule:evenodd;stroke:#000000;stroke-width:2.0px;stroke-linecap:butt;stroke-linejoin:miter;stroke-opacity:1" />
<path class="bond-5 atom-5 atom-6" d="M 45.6,318.9 L 41.7,306.8" style="fill:none;fill-rule:evenodd;stroke:#FF0000;stroke-width:2.0px;stroke-linecap:butt;stroke-linejoin:miter;stroke-opacity:1" />
<path class="bond-5 atom-5 atom-6" d="M 45.3,332.4 L 41.4,320.3" style="fill:none;fill-rule:evenodd;stroke:#000000;stroke-width:2.0px;stroke-linecap:butt;stroke-linejoin:miter;stroke-opacity:1" />
<path class="bond-5 atom-5 atom-6" d="M 41.4,320.3 L 37.5,308.2" style="fill:none;fill-rule:evenodd;stroke:#FF0000;stroke-width:2.0px;stroke-linecap:butt;stroke-linejoin:miter;stroke-opacity:1" />
<path class="bond-6 atom-5 atom-7" d="M 46.9,330.2 L 40.1,339.5" style="fill:none;fill-rule:evenodd;stroke:#000000;stroke-width:2.0px;stroke-linecap:butt;stroke-linejoin:miter;stroke-opacity:1" />
<path class="bond-6 atom-5 atom-7" d="M 40.1,339.5 L 33.3,348.9" style="fill:none;fill-rule:evenodd;stroke:#0000FF;stroke-width:2.0px;stroke-linecap:butt;stroke-linejoin:miter;stroke-opacity:1" />
<path class="bond-8 atom-7 atom-9" d="M 33.3,359.3 L 40.1,368.6" style="fill:none;fill-rule:evenodd;stroke:#0000FF;stroke-width:2.0px;stroke-linecap:butt;stroke-linejoin:miter;stroke-opacity:1" />
<path class="bond-8 atom-7 atom-9" d="M 40.1,368.6 L 46.9,378.0" style="fill:none;fill-rule:evenodd;stroke:#000000;stroke-width:2.0px;stroke-linecap:butt;stroke-linejoin:miter;stroke-opacity:1" />
<path class="bond-10 atom-9 atom-11" d="M 46.9,378.0 L 75.0,368.9" style="fill:none;fill-rule:evenodd;stroke:#000000;stroke-width:2.0px;stroke-linecap:butt;stroke-linejoin:miter;stroke-opacity:1" />
<path class="bond-10 atom-9 atom-11" d="M 48.6,372.8 L 70.6,365.6" style="fill:none;fill-rule:evenodd;stroke:#000000;stroke-width:2.0px;stroke-linecap:butt;stroke-linejoin:miter;stroke-opacity:1" />
<path class="bond-11 atom-11 atom-12" d="M 75.0,368.9 L 103.2,378.0" style="fill:none;fill-rule:evenodd;stroke:#000000;stroke-width:2.0px;stroke-linecap:butt;stroke-linejoin:miter;stroke-opacity:1" />
<path class="bond-12 atom-12 atom-13" d="M 100.6,377.2 L 104.5,389.3" style="fill:none;fill-rule:evenodd;stroke:#000000;stroke-width:2.0px;stroke-linecap:butt;stroke-linejoin:miter;stroke-opacity:1" />
<path class="bond-12 atom-12 atom-13" d="M 104.5,389.3 L 108.5,401.5" style="fill:none;fill-rule:evenodd;stroke:#FF0000;stroke-width:2.0px;stroke-linecap:butt;stroke-linejoin:miter;stroke-opacity:1" />
<path class="bond-12 atom-12 atom-13" d="M 104.8,375.8 L 108.7,388.0" style="fill:none;fill-rule:evenodd;stroke:#000000;stroke-width:2.0px;stroke-linecap:butt;stroke-linejoin:miter;stroke-opacity:1" />
<path class="bond-12 atom-12 atom-13" d="M 108.7,388.0 L 112.7,400.2" style="fill:none;fill-rule:evenodd;stroke:#FF0000;stroke-width:2.0px;stroke-linecap:butt;stroke-linejoin:miter;stroke-opacity:1" />
<path class="bond-13 atom-12 atom-1" d="M 103.2,378.0 L 110.0,368.6" style="fill:none;fill-rule:evenodd;stroke:#000000;stroke-width:2.0px;stroke-linecap:butt;stroke-linejoin:miter;stroke-opacity:1" />
<path class="bond-13 atom-12 atom-1" d="M 110.0,368.6 L 116.8,359.3" style="fill:none;fill-rule:evenodd;stroke:#0000FF;stroke-width:2.0px;stroke-linecap:butt;stroke-linejoin:miter;stroke-opacity:1" />
<path class="bond-14 atom-11 atom-4" d="M 75.0,368.9 L 75.0,339.3" style="fill:none;fill-rule:evenodd;stroke:#000000;stroke-width:2.0px;stroke-linecap:butt;stroke-linejoin:miter;stroke-opacity:1" />
<path d="M 48.3,330.6 L 46.9,330.2 L 46.6,330.6" style="fill:none;stroke:#000000;stroke-width:2.0px;stroke-linecap:butt;stroke-linejoin:miter;stroke-opacity:1;" />
<path d="M 101.8,377.5 L 103.2,378.0 L 103.5,377.5" style="fill:none;stroke:#000000;stroke-width:2.0px;stroke-linecap:butt;stroke-linejoin:miter;stroke-opacity:1;" />
<path class="atom-1" d="M 117.2 358.3 L 117.2 349.9 L 118.8 349.9 L 122.3 355.5 L 122.3 349.9 L 123.9 349.9 L 123.9 358.3 L 122.2 358.3 L 118.8 352.8 L 118.8 358.3 L 117.2 358.3 " fill="#0000FF" />
<path class="atom-6" d="M 33.7 302.2 Q 33.7 300.9, 34.1 300.0 Q 34.4 299.4, 34.9 298.9 Q 35.4 298.3, 36.0 298.1 Q 36.8 297.8, 37.8 297.8 Q 39.7 297.8, 40.8 298.9 Q 41.9 300.1, 41.9 302.1 Q 41.9 304.2, 40.8 305.4 Q 39.7 306.5, 37.8 306.5 Q 35.9 306.5, 34.8 305.4 Q 33.7 304.2, 33.7 302.2 M 35.5 302.1 Q 35.5 303.6, 36.1 304.3 Q 36.8 305.0, 37.8 305.0 Q 38.8 305.0, 39.5 304.3 Q 40.1 303.6, 40.1 302.1 Q 40.1 300.6, 39.5 299.9 Q 38.9 299.2, 37.8 299.2 Q 36.8 299.2, 36.1 299.9 Q 35.5 300.7, 35.5 302.1 " fill="#FF0000" />
<path class="atom-7" d="M 26.2 358.3 L 26.2 349.9 L 27.9 349.9 L 31.3 355.5 L 31.3 349.9 L 32.9 349.9 L 32.9 358.3 L 31.2 358.3 L 27.8 352.8 L 27.8 358.3 L 26.2 358.3 " fill="#0000FF" />
<path class="atom-13" d="M 108.2 406.2 Q 108.2 404.9, 108.6 404.1 Q 108.9 403.4, 109.4 402.9 Q 109.9 402.4, 110.5 402.1 Q 111.3 401.8, 112.3 401.8 Q 114.2 401.8, 115.3 403.0 Q 116.4 404.1, 116.4 406.2 Q 116.4 408.2, 115.3 409.4 Q 114.2 410.6, 112.3 410.6 Q 110.4 410.6, 109.3 409.4 Q 108.2 408.3, 108.2 406.2 M 110.0 406.2 Q 110.0 407.6, 110.6 408.4 Q 111.3 409.1, 112.3 409.1 Q 113.3 409.1, 114.0 408.4 Q 114.6 407.6, 114.6 406.2 Q 114.6 404.7, 114.0 404.0 Q 113.4 403.3, 112.3 403.3 Q 111.2 403.3, 110.6 404.0 Q 110.0 404.7, 110.0 406.2 " fill="#FF0000" />
</svg>